<svg width="173" height="581" viewBox="0 0 173 581" fill="none" xmlns="http://www.w3.org/2000/svg">
<path d="M172.996 581C167.779 580.927 162.653 579.885 157.563 578.839C138.821 575.269 120.582 569.476 102.617 563.13C67.9069 550.825 26.6852 537.601 8.67021 502.486C-11.796 460.423 8.07008 401.471 26.0381 361.29C27.4336 358.174 28.8942 354.868 30.4162 351.807C38.8399 334.543 49.6713 312.915 57.9468 295.597C69.6531 270.42 79.4216 244.28 86.4606 217.392C94.266 187.275 98.8683 155.654 94.2769 124.64C92.1909 110.057 87.3934 95.834 79.9675 83.1182C76.8475 77.928 73.2648 72.9775 69.2988 68.4047C64.758 63.1637 59.6929 58.3803 54.223 54.1162L54.3098 54C71.045 66.5015 83.7636 84.2405 90.3326 104.148C102.281 140.043 97.133 181.754 87.8742 217.762C80.8714 244.755 71.045 270.975 59.2121 296.193C50.8788 313.481 39.9679 335.085 31.49 352.319C29.9607 355.37 28.5001 358.653 27.0938 361.766C9.13298 401.653 -10.8416 460.307 9.36796 502.134C27.2022 537.089 68.254 550.375 102.751 562.749C122.299 569.799 142.237 575.933 162.7 579.663C166.102 580.295 169.54 580.789 173 580.847V580.993L172.996 581Z" fill="#603121"/>
<path d="M57.0903 95.4967C46.2832 110.443 29.657 117.02 18.9918 113.359C16.0884 112.363 10.0277 109.372 5.37187 103.608C4.96098 103.1 1.67381 98.9433 1.10279 95.9269C-0.45922 87.6851 15.9101 75.6028 41.437 67.3333C27.7838 62.5215 18.6051 56.361 12.8314 51.6963C8.36899 48.0888 1.87321 42.7358 3.38386 38.9119C4.40808 36.3173 8.68018 35.5458 11.7468 34.9908C23.2247 32.9179 28.6328 38.3125 38.3553 36.5004C40.9868 36.0092 44.987 34.7966 49.5069 31.2723C46.6095 23.5051 42.9718 17.9579 40.02 14.2034C36.8326 10.1463 33.917 7.50176 34.8023 4.81557C35.9201 1.42176 42.3646 0.18411 45.0233 0.0231606C61.2839 -0.961961 76.061 29.7794 78.469 34.9103C78.7409 30.9865 79.8558 24.5291 84.3817 18.1522C86.0917 15.7435 89.3456 11.2813 95.494 8.63951C98.2554 7.45181 102.292 5.71744 105.28 7.27976C107.624 8.50353 108.661 11.6753 108.205 20.9716C107.914 26.8795 107.011 35.285 104.229 45.4303C110.86 43.1299 121.142 40.5242 133.586 41.3483C136.013 41.5093 155.467 42.9245 156.518 48.888C156.829 50.6473 155.609 53.2059 144.022 60.1267C136.423 64.6638 125.625 70.3248 111.498 75.3753C124.81 78.5748 134.333 83.5809 140.538 87.5825C145.306 90.6571 156.27 97.725 154.672 102.473C153.047 107.302 140.242 104.382 136.088 111.187C132.608 116.886 139.363 122.578 135.315 128.763C132.828 132.562 127.565 134.566 123.235 134.427C118.241 134.266 114.921 131.269 107.274 123.621C101.996 118.343 95.9592 112.152 89.3758 105.115C88.8924 112.671 86.6718 125.469 76.5807 134.782C73.7195 137.421 68.8583 141.911 63.571 140.882C58.9907 139.991 56.0963 135.343 55.0902 131.946C53.0297 124.978 59.2747 121.304 60.5104 112.191C61.0331 108.334 60.8035 102.717 57.0934 95.5023L57.0903 95.4967Z" fill="#BF7862"/>
<path d="M89.0193 84.3718C78.3451 88.3817 63.571 83.7141 57.9333 73.9656C53.7246 66.684 54.3712 56.1446 59.2596 53.5916C60.0633 53.1726 63.5106 50.2228 70.5895 51.3827C78.1004 52.612 81.1307 53.0421 84.2548 54.3242C91.7808 57.4155 100.518 68.2491 98.763 75.7332C97.482 81.1889 90.4001 83.8501 89.0163 84.369L89.0193 84.3718Z" fill="#F0A695"/>
</svg>
