<svg width="92" height="86" viewBox="0 0 92 86" fill="none" xmlns="http://www.w3.org/2000/svg">
<path d="M12.8441 41.8131C17.5646 44.2777 22.285 46.7301 26.764 49.6362C28.1161 50.5926 29.7218 51.4877 30.6152 53.0205C30.7721 53.3516 31.0016 53.7561 30.7963 54.3079C30.5428 54.8719 29.9633 54.9455 29.589 54.9333C26.3294 54.5041 24.603 51.2793 22.8042 48.876C13.979 36.2707 6.30066 17.0932 17.7094 3.71544C21.947 -1.20159 29.6614 -1.28753 33.8386 3.75211C38.1486 9.87079 38.1728 18.258 36.2894 25.2963C35.2391 28.9013 32.9573 32.3837 29.4079 33.8183C29.0578 33.9287 28.6594 34.0268 28.2006 33.8674C26.607 33.0213 27.8022 30.7896 28.4783 29.6983C30.7842 25.6642 35.8548 25.75 39.6698 27.2091C43.4968 28.607 47.4084 31.3537 48 35.8661C47.8672 41.5924 41.2271 45.1607 36.5429 46.7915C28.5266 49.5627 19.9067 47.3064 14.0272 41.1386C5.99885 33.5485 -2.10199 20.0605 0.493649 8.58337C1.61642 4.84349 4.58635 0.306633 8.98083 1.11592C11.6368 1.6677 13.9669 3.96065 14.7275 6.44981C13.5564 4.14458 11.5644 1.88834 8.92049 1.49596C6.27655 1.04227 3.97062 2.96739 2.70298 5.17453C-1.59492 12.2251 1.70092 21.0415 5.1658 27.761C9.04116 34.5418 14.2446 41.0528 21.126 44.8172C28.092 48.2137 36.9172 46.6811 43.0139 42.0339C44.8611 40.5624 46.9255 38.4288 46.8652 35.9396C46.0804 30.7405 40.3217 27.8223 35.6013 27.2705C32.3778 26.6942 29.3114 28.7051 28.2973 31.8319C27.7781 33.5486 28.913 33.4014 30.0357 32.7515C32.909 31.1575 34.8527 28.325 35.7944 25.1369C37.7622 18.3071 37.7985 9.95673 33.5368 4.00971C29.4803 -0.784694 22.1884 -0.649795 18.2044 4.18139C11.2022 12.5072 12.0835 24.7322 16.0675 34.272C17.311 37.8525 26.1242 55.62 30.1082 53.9892C30.1685 53.9034 30.1081 53.6091 29.9753 53.3638C29.1785 51.9783 27.7298 51.1199 26.426 50.1635C22.2005 47.1471 16.8884 44.4739 12.8561 41.8008L12.8441 41.8131Z" fill="#603121"/>
<path d="M70.1423 77.3087C73.0741 78.7883 75.9821 80.3046 78.771 82.1021C79.6171 82.6891 80.6302 83.2638 81.2022 84.242C81.3095 84.4621 81.4645 84.7434 81.3214 85.1714C81.1188 85.6116 80.6897 85.6605 80.4514 85.6605C78.3776 85.4037 77.2693 83.3861 76.1252 81.8454C71.5725 75.0589 67.3773 66.2547 70.4522 57.952C71.5605 54.7849 73.9679 51.5201 77.4719 51.2266C85.3497 50.7375 86.3866 61.2168 84.6585 67.0862C84.0626 69.3361 82.5729 71.5861 80.368 72.491C79.9509 72.6622 79.3907 72.601 79.1166 72.1731C78.7233 71.3293 79.2119 70.4 79.629 69.703C80.511 68.1134 82.4656 67.2329 84.2175 67.5142C87.5903 67.881 91.4041 69.7763 92 73.6281C91.8331 77.4555 87.8764 79.522 84.8015 80.6714C77.5911 83.2148 71.5366 79.1184 67.3415 73.3102C63.7065 68.1011 59.8093 60.422 63.4681 54.2714C64.3262 52.804 66.0067 51.5445 67.7587 51.9358C69.4629 52.3026 70.7263 53.7088 71.3341 55.274L71.2268 55.3229C69.7489 51.948 65.8637 51.0432 63.9806 54.6015C62.2049 57.4384 62.7054 60.9355 63.6469 63.9803C65.1605 68.6513 67.997 72.8579 71.5128 76.1716C74.8737 79.7422 79.8197 81.026 84.4201 79.4486C86.9825 78.5927 90.6533 76.6607 90.8797 73.7016C90.4626 69.7397 82.7278 66.2181 80.2965 70.1799C80.0462 70.5223 79.498 71.5738 79.8078 71.8184C81.9769 71.4393 83.5262 69.0304 84.1817 66.9272C85.4331 62.4763 85.5881 56.3501 81.965 53.0363C79.4145 50.8964 75.5769 51.4345 73.527 54.0146C67.0912 62.2562 71.7869 73.6159 76.8879 81.3073C77.9724 82.7624 78.9259 84.7556 80.6421 84.8657C80.3918 83.8874 79.2358 83.2882 78.4254 82.6401C75.7438 80.7692 72.9073 79.0941 70.0827 77.4189L70.1423 77.3087Z" fill="#BF7862"/>
</svg>
