<svg width="429" height="527" viewBox="0 0 429 527" fill="none" xmlns="http://www.w3.org/2000/svg">
<g clip-path="url(#clip0_361_884)">
<path d="M149.413 400.392C146.416 395.299 153.736 387.791 156.615 380.726C162.545 366.095 151.387 348.357 141.868 333.206C127.225 309.909 119.488 312.182 108.195 292.276C99.127 276.274 90.8149 251.316 98.9484 244.746C106.079 238.982 123.911 248.957 132.195 255.177C142.217 262.716 147.317 271.511 151.498 278.878C155.661 286.236 161.431 298.532 163.987 315.324C166.015 305.615 167.131 291.955 160.722 279.042C156.51 270.565 151.398 267.117 144.172 260.029C129.897 246.04 122.732 232.95 110.774 211.047C99.313 190.071 93.0637 178.634 90.1424 161.578C86.4699 140.179 90.1357 122.193 93.2529 111.474C93.3 111.385 93.4054 111.1 93.4054 111.1C93.815 110.546 106.221 84.629 117.503 85.0316C124.491 85.2948 129.235 95.5838 137.893 114.349C145.416 130.662 149.848 140.282 151.153 154.147C152.542 169.196 148.296 168.445 148.088 195.074C147.963 211.156 149.438 220.716 150.39 225.851C152.165 235.367 154.628 243.111 156.65 248.569C158.042 233.781 160.724 222.237 162.884 214.49C166.793 200.461 170.697 192.806 173.72 175.727C176.291 161.231 175.399 155.855 174.905 153.495C173.375 146.114 170.554 142.984 160.876 128.522C149.53 111.572 143.81 102.946 141.562 95.3171C140.809 92.795 137.718 81.7303 139.928 68.0876C140.829 62.5806 141.773 57.2103 146.036 52.2995C150.8 46.8368 156.868 45.1946 160.971 44.0927C164.464 43.1422 178.338 39.4003 188.95 46.3454C194.752 50.1406 194.263 53.6593 202.311 67.7705C212.523 85.7301 215.493 83.8609 220.595 95.6403C226.432 109.112 226.768 121.25 226.955 128.388C227.159 135.536 227.356 145.686 223.438 157.524C220.417 166.632 218.193 167.011 208.403 184.104C199.599 199.471 193.952 212.181 191.208 218.431C183.946 234.921 186.218 233.11 180.076 246.147C173.519 260.054 169.686 264.718 168.944 273.863C168.197 282.847 170.899 290.401 173.081 295.124C177.553 279.256 182.803 266.036 187.475 255.81C194.176 241.114 200.29 231.16 206.449 221.162C221.26 197.082 227.3 192.896 230.004 191.181C239.318 185.289 248.438 183.917 255.924 182.808C268.266 180.955 279.129 179.333 283.904 185.061C290.921 193.494 280.235 212.361 277.352 217.443C271.54 227.696 264.701 233.776 253.111 243.868C247.97 248.353 238.445 256.592 224.29 265.626C207.659 276.249 200.8 277.649 190.148 288.357C186.701 291.816 182.33 296.281 178.375 303.339C173.095 312.761 171.737 321.121 169.691 334.282C168.686 340.849 167.652 349.724 167.413 360.392C172.907 352.816 188.523 333.541 215.803 325.898C225.722 323.109 243.138 318.238 261.518 324.931C273.469 329.269 280.357 336.516 286.994 333.153C289.929 331.652 293.833 325.774 301.64 313.972C303.499 311.165 305.323 308.294 307.882 308.323C311.319 308.345 313.889 313.55 314.749 315.264C320.078 326.185 317.326 343.272 309.858 356.555C307.801 360.212 296.044 380.144 273.195 385.245C258.871 388.449 246.606 384.398 225.77 377.527C200.063 369.045 190.107 360.129 179.382 365.605C175.542 367.554 168.638 372.848 165.829 380.908C163.828 386.668 164.617 391.806 160.064 398.474C156.855 403.176 154.571 403.363 153.659 403.307C151.77 403.182 150.165 401.66 149.431 400.401L149.413 400.392Z" fill="#999A8D"/>
</g>
<path d="M246.782 306.528C250.06 308.601 253.311 310.708 256.384 313.129C257.276 313.922 259.534 315.441 259.079 316.937C258.724 317.629 257.874 317.397 257.357 317.145C255.5 316.197 254.58 314.186 253.519 312.435C250.573 307.15 248.122 301.386 247.231 295.234C246.69 291.62 246.929 287.888 248.089 284.433C249.091 281.528 250.583 278.64 253.018 276.866C254.211 275.979 255.663 275.412 257.118 275.385C257.55 275.339 258.143 275.42 258.573 275.481C258.786 275.487 259.073 275.609 259.283 275.659C259.516 275.737 259.759 275.776 259.977 275.897C262.924 277.111 264.445 279.761 265.062 282.986C266.101 288.263 265.273 296.893 260.899 300.223C260.105 300.796 258.402 302.165 257.631 300.917C257.092 299.255 258.855 297.271 260.029 296.427C263.449 294.377 269.19 297.315 271.173 300.626C274.705 306.164 267.737 310.492 263.463 311.585C259.208 312.777 254.424 312.139 250.813 309.313C245.121 304.528 241.063 297.523 239.303 289.984C238.407 285.991 238.315 281.329 240.765 277.936C243.598 273.575 248.212 275.032 249.701 279.751C249.725 279.824 249.622 279.848 249.605 279.789C249.279 278.837 248.756 277.969 248.101 277.259C244.667 273.631 241.174 276.951 239.923 280.91C239.066 283.78 239.42 286.889 240.08 289.785C241.721 297.113 248.153 308.035 255.09 310.305C257.707 311.194 260.553 311.162 263.208 310.469C266.17 309.622 269.427 308.077 270.915 305.043C271.502 303.791 271.072 302.314 270.392 301.183C268.874 298.754 266.249 297.226 263.614 296.72C262.515 296.542 261.373 296.534 260.427 297.123C259.516 297.742 258.68 298.684 258.278 299.767C257.601 301.782 259.968 300.198 260.58 299.736C264.896 296.557 265.734 288.237 264.759 283.067C264.367 281.128 263.638 279.13 262.211 277.827C260.327 276.006 257.513 275.266 255.137 276.305C252.281 277.43 250.42 280.341 249.292 283.295C247.043 289.029 247.69 295.16 249.467 300.97C250.633 304.817 252.271 308.507 254.194 311.999C255.261 313.733 256.199 316.139 258.21 316.682C258.323 316.707 258.459 316.69 258.516 316.623C258.753 314.706 248.652 308.101 246.736 306.627C246.68 306.592 246.735 306.498 246.79 306.533L246.782 306.528Z" fill="#BF7862"/>
<path d="M271.749 343.411C273.818 344.716 275.886 346.026 277.831 347.528C278.416 348.014 279.111 348.482 279.473 349.219C279.535 349.372 279.616 349.565 279.52 349.79C279.314 350.165 278.822 350.017 278.526 349.879C277.37 349.3 276.791 348.063 276.127 346.995C275.492 345.911 274.918 344.792 274.396 343.647C273.343 341.355 272.519 338.934 272.142 336.422C271.585 332.688 272.381 328.488 275.014 325.784C278.107 322.705 282.635 324.613 283.326 328.925C284.025 332.577 283.467 338.156 279.917 339.976C279.502 340.227 278.68 340.379 278.656 339.639C278.747 338.488 279.667 337.508 280.656 337.061C283.447 336.106 288.817 339.265 287.575 342.726C286.581 344.78 284.377 345.833 282.35 346.409C279.987 347.031 277.355 346.818 275.189 345.528C272.073 343.499 269.848 340.195 268.289 336.775C266.654 333.001 265.382 327.19 269.301 324.531C271.054 323.495 273.055 325.11 273.577 326.907L273.539 326.922C273.13 325.758 272.227 324.712 271.072 324.422C269.879 324.121 268.76 324.948 268.127 325.948C266.658 327.991 266.822 330.724 267.386 333.1C268.3 336.724 270.193 340.074 272.669 342.78C275.143 345.743 278.599 346.935 282.25 345.97C284.624 345.374 288.852 343.156 286.86 340.073C285.48 337.894 281.212 335.807 279.421 338.448C278.234 340.222 279.3 340.261 280.574 339.283C281.572 338.61 282.203 337.5 282.632 336.346C283.724 333.242 284.07 328.168 281.572 325.701C279.722 323.926 276.896 324.106 275.183 325.961C273.293 327.931 272.451 330.83 272.331 333.574C272.294 338.285 274.165 342.805 276.412 346.823C277.061 347.864 277.609 349.077 278.654 349.617C279.434 349.977 279.479 349.556 279.038 348.953C276.912 346.761 274.22 345.185 271.742 343.449L271.765 343.412L271.749 343.411Z" fill="#603121"/>
<path d="M107.117 401.921C110.695 397.654 114.539 393.051 119.999 390.524C124.933 388.24 128.046 388.651 136.034 385.119C140.817 383.002 143.237 381.9 144.55 379.673C146.946 375.612 144.196 372.278 143.76 364.425C143.612 361.74 143.133 353.079 147.448 345.852C151.908 338.383 157.188 339.652 161.341 331.537C162.222 329.813 164.507 325.215 163.877 319.633C163.344 314.902 161.225 313.959 156.474 305.504C151.823 297.222 149.495 292.946 150.169 287.663C150.731 283.266 152.694 283.477 154.433 277.514C155.024 275.493 157.676 266.406 153.716 259.207C152.061 256.197 148.347 254.011 140.987 249.759C129.576 243.167 126.996 243.286 122.73 239.488C119.579 236.681 115.638 231.854 113.249 223.194C99.2924 243.588 99.1371 253.728 102.106 259.219C103.288 261.408 104.948 262.828 106.504 266.934C107.014 268.28 110.519 277.927 106.563 287.063C105.548 289.402 104.73 290.133 96.2579 298.49C85.2152 309.386 82.1309 312.56 79.4632 317.955C77.4205 322.083 75.6868 325.715 77.049 329.205C78.841 333.804 85.1471 335.968 89.4857 337.457C94.8995 339.316 97.0358 338.698 99.9106 341.249C100.475 341.75 103.847 344.741 103.904 349.013C103.951 352.463 101.809 355.058 98.0625 359.472C93.3964 364.97 91.0852 365.479 90.5251 368.805C89.9279 372.358 91.9508 375.454 92.4286 376.141C93.8408 378.179 94.9035 378.119 98.4048 380.77C101.122 382.827 103.879 384.916 105.665 388.15C106.517 389.696 107.685 392.471 107.603 396.645L107.412 400.004L107.114 401.92" fill="#E2B34B"/>
<path d="M100.536 424.278C110.589 392.663 119.63 360.585 124.842 327.813C126.646 315.23 128.523 302.314 126.438 289.683C126.019 287.472 125.382 285.305 124.421 283.266L124.513 283.219C125.938 285.887 126.745 288.852 127.25 291.832C128.226 297.808 128.207 303.903 127.865 309.941C126.978 325.037 123.954 339.931 120.584 354.638C115.029 378.074 108.423 401.708 100.533 424.276L100.536 424.278Z" fill="#603121"/>
<path d="M119.396 359.003C123.24 349.732 131.286 340.367 140.975 337.07C142.391 336.552 143.868 336.212 145.341 335.943L145.368 336.042C142.561 337.083 139.851 338.268 137.311 339.765C136.616 340.161 135.635 340.784 134.96 341.205C130.748 343.903 127.096 347.4 124.106 351.418C122.326 353.798 120.724 356.332 119.494 359.04L119.399 359.004L119.396 359.003Z" fill="#603121"/>
<path d="M123.808 334.58C124.71 326.705 123.733 318.175 119.323 311.478C118.731 310.637 117.957 309.672 117.274 308.917C116.575 308.179 115.671 307.341 114.893 306.676L113.848 305.884C111.034 303.796 107.719 302.441 104.279 301.449L104.3 301.348C104.745 301.415 105.189 301.484 105.632 301.561C107.973 301.926 110.272 302.742 112.388 303.801C119.807 307.626 123.458 315.802 124.237 323.809C124.415 325.606 124.478 327.415 124.42 329.214C124.36 331.016 124.217 332.811 123.908 334.589L123.807 334.572L123.808 334.58Z" fill="#603121"/>
<path d="M127.465 311.414C128.624 304.711 132.22 293.718 139.62 291.826C140.758 291.535 141.941 291.471 143.072 291.632L143.069 291.734C141.94 291.867 140.855 292.108 139.837 292.508C134.667 294.708 131.586 299.95 129.595 304.992C128.765 307.084 128.084 309.24 127.565 311.434L127.464 311.417L127.465 311.414Z" fill="#603121"/>
<path d="M60.0451 318.038C52.0447 318.692 43.7602 316.284 38.0256 310.553C33.7401 306.355 31.0731 300.663 30.219 294.748C29.7995 291.781 29.8092 288.753 30.2419 285.785C30.3835 284.795 30.6163 283.815 30.7613 282.817C31.374 278.983 33.0763 268.89 33.7381 264.945C35.0975 257.01 36.5079 249.082 37.9006 241.152L37.5494 241.134C38.3576 253.661 39.3117 266.187 40.9809 278.631C41.4193 281.741 41.8849 284.857 42.6136 287.919C42.7911 288.656 43.0353 289.477 43.2872 290.201L43.6027 290.945L43.588 290.906C46.583 301.179 52.2763 310.672 60.0451 318.038ZM60.0938 318.054C54.4581 312.371 49.8571 305.661 46.7173 298.292C45.6573 295.834 44.7778 293.302 44.0372 290.732L43.7475 290.032C43.6077 289.608 43.4042 288.985 43.3015 288.553C42.4588 285.274 41.9781 281.913 41.5055 278.56C39.8755 266.129 38.8455 253.616 37.9021 241.113L37.7962 239.622L37.5524 241.096C35.1387 255.649 32.6024 271.204 29.9002 285.736C29.5852 287.736 29.45 289.764 29.5196 291.788C29.6015 293.812 29.8816 295.826 30.3593 297.794C33.7498 311.528 46.1179 319.676 60.0954 318.055L60.0938 318.054Z" fill="#D68876"/>
<path d="M60.075 318.034C54.2067 316.157 48.9071 312.656 44.6338 308.254C44.1179 307.67 43.3056 306.826 42.8205 306.218C41.5217 304.642 40.4156 302.905 39.5405 301.053C37.901 297.75 37.3244 294.103 37.0432 290.452C36.8638 288.651 36.7135 286.774 36.5917 284.974C35.9372 275.395 35.6924 265.748 36.1555 256.15C36.4053 251.149 36.9198 246.071 37.7538 241.13L37.704 241.12C36.9257 244.71 36.397 248.351 36.0173 252.005C34.6933 265.732 35.5733 279.554 37.1685 293.206C37.2837 294.115 37.403 295.029 37.6051 295.927C38.3602 299.531 39.8447 302.997 42.056 305.948C45.4287 310.312 49.9189 313.823 54.8959 316.188C55.6888 316.571 56.6087 316.957 57.4338 317.264C58.2956 317.58 59.1675 317.873 60.0644 318.086L60.0766 318.035L60.075 318.034Z" fill="#D68876"/>
<path d="M66.6993 349.748C75.2006 360.91 89.6785 364.151 101.972 357.075C103.729 356.054 105.383 354.862 106.906 353.518C108.421 352.167 109.797 350.665 111.027 349.054C119.688 337.043 129.191 324.461 138.07 312.643L138.969 311.446L137.815 312.402C128.102 320.383 118.326 328.309 108.189 335.747C105.434 337.729 102.663 339.711 99.7057 341.378C99.3241 341.602 98.7305 341.888 98.3247 342.081L97.6155 342.359C95.2408 343.607 92.7976 344.728 90.2819 345.669C82.7687 348.519 74.7216 349.86 66.7009 349.749L66.6993 349.748ZM66.7452 349.771C77.4615 350.25 88.2822 347.767 97.8003 342.803L97.7614 342.82L98.5183 342.531C99.2151 342.213 99.9793 341.819 100.638 341.436C103.362 339.84 105.942 338.016 108.499 336.177C118.67 328.757 128.405 320.769 138.042 312.674L137.787 312.434C133.006 318.928 128.238 325.431 123.429 331.903C120.994 335.164 114.91 343.294 112.542 346.418C111.919 347.212 111.37 348.058 110.753 348.847C108.902 351.214 106.715 353.317 104.274 355.069C99.3971 358.554 93.4255 360.58 87.4174 360.408C79.2944 360.258 71.8109 355.973 66.7455 349.775L66.7452 349.771Z" fill="#D68876"/>
<path d="M66.7081 349.787C71.4278 352.662 76.9405 354.103 82.4384 354.469C82.932 354.48 84.0454 354.519 84.515 354.525C85.5913 354.486 86.9109 354.469 87.9728 354.319C91.6425 353.864 95.1798 352.531 98.3149 350.578C99.1048 350.102 99.8497 349.556 100.588 349.008C111.583 340.7 122.205 331.762 131.233 321.303C133.616 318.499 135.888 315.596 137.95 312.553L137.908 312.524C134.906 316.544 131.585 320.43 128.133 324.074C121.501 331.054 114.342 337.558 106.95 343.723C105.562 344.881 104.097 346.075 102.668 347.192C99.8289 349.517 96.7874 351.631 93.2578 352.74C91.0945 353.47 88.8375 353.886 86.5645 354.007C85.8168 354.021 84.5779 354.089 83.83 354.051C77.9045 354.022 71.8954 352.414 66.7067 349.79L66.7081 349.787Z" fill="#D68876"/>
<path d="M67.3429 374.47C72.3406 383.633 83.1078 390.445 93.7504 388.091C97.9243 387.233 101.773 385.294 105.423 383.162C108.158 381.555 110.805 379.819 113.454 378.078C122.558 372.039 134.866 360.279 137.211 349.336C137.629 347.295 138.635 342.119 139.058 340.03L139.03 340.101C138.636 340.318 138.689 339.76 138.703 339.968C138.605 340.286 138.382 340.86 138.261 341.183C136.482 345.672 134.111 349.996 130.918 353.642C129.173 355.605 127.149 357.345 124.791 358.511C124.4 358.701 124.007 358.887 123.592 359.031C120.498 360.049 115.356 361.74 112.25 362.751C110.564 363.283 108.888 363.877 107.205 364.417C105.523 364.95 103.81 365.481 102.177 366.201C98.9159 367.628 95.8207 369.369 92.7187 371.1C91.3944 371.85 89.4386 372.992 88.0366 373.566C81.555 376.434 74.0484 376.626 67.34 374.472L67.3429 374.47ZM67.3832 374.502C74.0615 376.889 81.6365 376.697 88.1903 373.917C89.6081 373.35 91.5718 372.224 92.929 371.471C96.027 369.776 99.1344 368.059 102.379 366.671C103.993 365.965 105.671 365.446 107.364 364.913C109.055 364.374 110.72 363.788 112.413 363.255C115.895 362.127 120.349 360.68 123.788 359.519C128.416 357.694 131.85 353.763 134.47 349.667C136.244 346.839 137.702 343.82 138.839 340.685L138.95 340.368L139.003 340.208L139.029 340.128L139.043 340.087L139.049 340.064C139.067 340.262 139.125 339.683 138.73 339.896C138.296 342.037 137.346 347.203 136.95 349.278C134.685 360.339 122.51 371.846 113.267 377.787C106.323 382.093 98.9187 387.47 90.5645 388.099C85.3226 388.448 80.1192 386.607 75.8526 383.646C72.4152 381.244 69.5657 378.067 67.3823 374.5L67.3832 374.502Z" fill="#D68876"/>
<path d="M68.0179 375.972C73.7535 380.635 81.2702 383.262 88.6621 383.466C92.5166 383.495 96.3462 382.558 99.8317 380.921C106.294 377.484 112.909 374.301 119.003 370.213C126.68 365.082 134.008 358.47 137.327 349.637C137.975 347.889 138.44 346.077 138.709 344.234L138.659 344.226C135.046 362.436 114.79 372.771 99.7627 380.773C94.4897 383.244 88.8321 383.534 83.1861 382.419C79.5617 381.74 76.0397 380.517 72.7578 378.843C71.1194 377.996 69.5204 377.056 68.0508 375.934L68.0172 375.974L68.0179 375.972Z" fill="#D68876"/>
<path d="M60.7693 292.721C70.2174 282.059 79.5236 271.233 88.0902 259.844C89.2454 258.237 90.5754 256.515 91.5839 254.816C93.9748 250.876 95.6028 246.484 96.3881 241.953C95.6234 241.444 96.1601 241.822 95.9824 241.712L95.955 241.728C94.6508 242.506 91.6737 244.296 90.3367 245.102C76.363 253.869 50.8244 274.194 60.7693 292.721ZM60.7693 292.721C51.7502 275.086 74.1082 256.659 87.1816 247.727C89.7697 245.949 93.1439 244.029 95.8324 242.39L96.05 242.258L96.1595 242.193L96.2143 242.16L96.2417 242.144C96.0811 242.024 96.6384 242.389 95.8908 241.87C94.9162 247.685 92.4837 253.219 88.9225 257.932C88.3351 258.757 87.126 260.399 86.5129 261.206C78.3362 272.029 69.5827 282.407 60.7716 292.72L60.7693 292.721Z" fill="#D68876"/>
<path d="M60.4006 324.277C65.1609 330.028 71.8229 335.199 79.2151 336.91C82.9712 337.797 87.0592 337.707 90.5915 336.013C97.5555 332.673 101.815 325.298 105.783 318.996C111.973 309.284 116.272 298.389 118.305 287.069C119.281 281.419 119.754 275.592 118.809 269.911C118.22 266.445 117.146 260.229 116.548 256.721L116.551 256.785C116.341 257.213 116.041 256.638 116.165 256.8C116.199 257.18 116.231 257.869 116.249 258.263C116.513 266.878 115.897 280.116 109.849 286.771C109.576 287.079 109.058 287.485 108.745 287.77C106.218 289.978 102.2 293.465 99.6508 295.649C98.1173 296.941 96.6461 298.31 95.1029 299.595C94.3341 300.239 93.5638 300.896 92.833 301.595C91.5566 302.799 90.3881 304.169 89.2835 305.528C87.8779 307.298 86.5199 309.117 85.2065 310.95C84.0182 312.558 82.9229 314.254 81.6884 315.823C76.5028 322.403 68.6625 325.373 60.402 324.274L60.4006 324.277ZM60.4459 324.302C68.6935 325.65 76.7386 322.579 81.9796 316.06C82.624 315.28 83.1998 314.447 83.7831 313.635C85.5317 311.191 87.3039 308.756 89.1767 306.408C89.9392 305.451 90.7726 304.449 91.6019 303.553C92.7758 302.258 94.0876 301.107 95.4322 299.988C97.6421 298.11 100.046 295.966 102.278 294.085C103.766 292.799 107.68 289.417 109.119 288.159L109.691 287.661C110.28 287.175 110.767 286.566 111.23 285.962C116.412 278.826 116.995 266.808 116.651 258.241L116.608 257.489L116.583 257.113L116.568 256.924L116.56 256.83L116.556 256.782L116.554 256.757C116.678 256.906 116.376 256.305 116.163 256.73L116.157 256.744L116.166 256.794C116.925 261.194 118.168 267.498 118.816 271.839C119.418 276.894 119.002 282.031 118.139 287.039C117.271 292.06 115.87 296.988 114.092 301.766C111.468 308.981 107.581 315.612 103.393 322.018C99.3256 328.185 94.5582 335.255 86.8269 336.798C80.5133 337.905 74.0976 335.407 68.9495 331.887C65.791 329.749 62.9884 327.132 60.4466 324.3L60.4459 324.302Z" fill="#D68876"/>
<path d="M61.7195 326.083C68.1722 329.981 76.1611 331.797 83.6562 330.531C89.0995 329.655 93.8046 326.127 96.9095 321.675C98.0131 320.174 99.6679 317.989 100.82 316.486C110.734 303.781 119.312 288.729 119.108 272.205C119.089 268.96 118.73 265.709 118.054 262.538C119.819 273.489 118.293 283.861 113.901 294.14C109.737 304.153 103.237 312.935 96.7801 321.581C94.0106 325.547 89.901 328.659 85.1594 329.777C77.2362 331.622 68.7408 329.724 61.7195 326.083Z" fill="#D68876"/>
<path d="M53.8819 353.117C51.1426 351.97 48.6424 350.356 46.2214 348.655C44.8628 347.738 42.7282 346.213 41.3721 345.25C32.6281 338.941 24.0435 331.98 16.9117 323.866C12.1099 318.278 6.67989 310.745 6.895 303.064C7.28633 294.88 11.0002 287.066 3.70467 280.642L3.59056 280.771C5.27491 282.315 6.92516 283.965 7.97327 286.01C8.50618 287.021 8.91578 288.099 9.193 289.208C9.49 290.315 9.57298 291.461 9.71197 292.607C9.84555 293.753 9.96833 294.898 10.1111 296.044C10.3968 298.349 11.1043 300.597 12.147 302.667C13.7197 305.787 16.1619 308.415 19.0474 310.353C20.9365 311.681 22.9029 312.893 24.9202 314.01C32.9881 318.405 40.3961 323.914 47.5795 329.616C50.2419 331.782 52.6795 334.224 54.848 336.884C56.987 339.575 59.0063 342.381 60.9596 345.212C63.2115 348.514 65.4335 351.93 66.2629 355.895C66.7838 358.702 66.8444 361.591 67.4588 364.383L67.6486 364.312C66.9527 362.923 66.1978 361.564 65.3373 360.269C63.9384 358.201 62.2654 356.143 59.953 355.073C59.4559 354.842 58.8314 354.662 58.2883 354.544C56.7831 354.188 55.3059 353.713 53.878 353.117L53.8819 353.117ZM53.8618 353.164C55.2885 353.767 56.7671 354.252 58.2737 354.618L58.8373 354.758C59.0213 354.815 59.2077 354.862 59.3885 354.931C60.4774 355.322 61.4448 355.996 62.2994 356.769C64.7843 359.082 66.3917 362.155 67.8489 365.182C67.232 362.685 67.141 360.101 66.8274 357.555C66.4424 352.865 63.9196 348.742 61.3496 344.95C59.4108 342.08 57.4152 339.262 55.256 336.553C50.173 330.229 43.4013 325.6 36.8798 320.899C33.1017 318.268 29.2136 315.771 25.1512 313.597C23.1444 312.489 21.1761 311.309 19.2916 310.005C15.4633 307.507 12.4977 303.735 11.1447 299.347C10.2563 296.605 10.1675 293.695 9.74846 290.858C9.14209 286.489 6.9395 283.488 3.70309 280.641L3.58898 280.77C5.04861 282.081 6.31351 283.645 7.07955 285.461C8.61096 289.169 7.91825 293.287 7.35525 297.143C6.92247 300.073 6.31447 303.075 6.75188 306.048C8.16536 314.742 14.623 322.406 20.6248 328.505C26.8484 334.739 34.0675 340.321 41.2827 345.369C42.647 346.303 44.7994 347.817 46.1625 348.733C48.5945 350.425 51.1095 352.031 53.8564 353.164L53.8618 353.164Z" fill="#D68876"/>
<path d="M67.5893 364.344C65.931 360.445 63.7926 356.717 61.2557 353.324C60.9599 352.934 60.5956 352.417 60.2848 352.058L59.2641 350.83C58.7904 350.245 58.1662 349.622 57.6539 349.058C53.0929 344.226 47.4479 340.602 42.1573 336.663C38.8066 334.191 35.3997 331.492 32.2067 328.801C27.4111 324.672 22.5791 320.55 18.3022 315.881C16.9048 314.31 15.5757 312.7 14.579 310.853C14.1519 310.128 13.4577 308.854 13.1011 308.076C11.719 305.258 10.6612 302.235 9.87496 299.194C8.85798 295.101 8.21361 290.888 8.22756 286.656L8.15985 286.653C8.08624 287.713 8.07901 288.779 8.11608 289.841C8.21128 293.017 8.65927 296.224 9.35551 299.323C10.2112 302.955 11.4529 306.509 13.1703 309.821C13.9243 311.205 14.7332 312.683 15.7081 313.914C17.6594 316.451 19.9738 318.675 22.2952 320.852C31.2011 329.139 41.3326 336.025 50.7785 343.657C52.373 344.965 54.0469 346.388 55.5359 347.814C58.9783 351.052 61.9536 354.819 64.4414 358.836C64.9913 359.736 65.5325 360.644 66.0463 361.568C66.56 362.492 67.0493 363.43 67.5244 364.375L67.5871 364.345L67.5893 364.344Z" fill="#D68876"/>
<path d="M66.089 383.994C63.6833 385.546 60.9626 386.684 58.1339 387.178C56.3674 387.478 54.5535 387.52 52.7825 387.274C51.7239 387.14 50.6651 386.915 49.6655 386.541C44.1308 384.523 40.9213 379.222 37.8417 374.509C37.0604 373.292 36.2818 372.082 35.5777 370.823C32.1139 364.685 28.6374 355.162 30.3693 348.108C30.7287 346.726 31.6755 343.227 32.0467 341.813L32.0629 341.752L32.0518 341.735C31.9106 341.498 31.9708 341.628 31.8371 341.588C31.7195 341.611 31.6793 341.719 31.6755 341.745C31.6667 341.788 31.6722 341.766 31.6707 341.779L31.6685 341.793L31.6605 341.851L31.6469 341.966L31.6219 342.196C31.4019 344.481 31.4165 346.787 31.6837 349.067C32.083 352.245 32.9952 355.525 35.1147 358L35.2668 358.176C35.3174 358.237 35.3693 358.294 35.4261 358.344C36.5234 359.394 37.6361 360.457 38.7361 361.488C40.3115 362.958 42.4989 365.015 44.0399 366.474C44.9359 367.298 45.8209 368.104 46.6137 369.009C48.2186 370.809 49.6466 372.776 51.0726 374.726C51.6896 375.581 52.5861 376.859 53.3042 377.625C56.5718 381.25 61.2294 383.575 66.089 383.994ZM66.1389 383.982C60.7433 383.274 55.6372 380.412 52.4686 375.962C50.7158 373.494 48.9823 370.954 46.9965 368.668C46.1917 367.743 45.2822 366.911 44.3956 366.092C42.8672 364.637 40.6669 362.558 39.1073 361.095L36.4676 358.601C36.2955 358.437 35.658 357.859 35.5119 357.655C33.4446 355.267 32.5536 352.096 32.1438 349.008C31.8438 346.656 31.805 344.258 32.0395 341.895L32.0461 341.84L32.0483 341.826C32.0469 341.829 32.0527 341.798 32.0463 341.831C32.0443 341.849 32.0066 341.947 31.8892 341.96C31.7572 341.912 31.8196 342.028 31.6797 341.788C31.7638 341.283 30.6092 346.096 30.636 345.932L30.1111 348.041C29.7592 349.458 29.6588 350.931 29.7061 352.384C29.9773 358.879 32.3101 365.265 35.314 370.967C36.7172 373.505 38.2563 375.955 39.8666 378.365C41.5058 380.758 43.3277 383.089 45.6773 384.838C51.605 389.397 60.3519 388.286 66.138 383.979L66.1389 383.982Z" fill="#D68876"/>
<path d="M65.2588 384.689C59.3809 385.796 52.0257 384.717 47.1098 381.211C45.9577 380.381 44.9076 379.399 44.0126 378.291C43.3159 377.426 42.6981 376.494 42.0264 375.609C35.6841 366.833 28.0453 355.839 30.7623 344.445L30.7123 344.431C29.9271 346.876 29.7121 349.493 29.956 352.045C30.9566 361.799 37.2953 369.733 43.0246 377.245C43.761 378.271 44.5872 379.295 45.4991 380.165C48.7072 383.403 53.1765 384.953 57.6485 385.34C59.5632 385.502 61.4986 385.452 63.3969 385.148C64.0294 385.046 64.6566 384.922 65.2711 384.739L65.2572 384.689L65.2588 384.689Z" fill="#D68876"/>
<path d="M64.8496 304.324C66.1606 303.787 67.3108 302.951 68.4728 302.156C69.0525 301.756 69.6439 301.371 70.2152 300.96C71.232 300.227 72.6357 299.192 73.5893 298.407C73.8201 298.214 74.1942 297.942 74.4112 297.738C75.7238 296.573 77.0764 295.396 78.2176 294.056C79.8204 292.196 81.335 290.066 81.7303 287.591C82.0925 284.459 79.9094 281.172 82.8659 278.648L82.7907 278.562C82.4805 278.837 82.1888 279.124 81.9104 279.429C81.3533 280.043 80.9451 280.792 80.7313 281.592C80.5493 282.273 80.4745 283.318 80.3624 284.023C80.0885 286.03 78.8905 287.852 77.1806 288.942C76.5087 289.402 75.8062 289.816 75.0917 290.21C73.6394 290.983 72.2465 291.87 70.895 292.804C69.5412 293.738 68.2289 294.724 66.9456 295.755C64.9926 297.307 63.5123 299.321 62.1347 301.369C61.2155 302.72 60.3129 304.203 60.1802 305.874C60.0703 306.862 60.0154 307.869 59.7674 308.836C60.5254 307.3 61.4436 305.265 63.2787 304.843C63.8166 304.71 64.3427 304.536 64.8516 304.319L64.8496 304.324ZM64.8353 304.292C64.3253 304.503 63.7996 304.672 63.2628 304.797C62.7152 304.899 62.2118 305.191 61.8008 305.562C60.9797 306.316 60.4 307.285 59.8908 308.262L60.0174 308.31L60.0488 308.184C60.2416 307.233 60.2907 306.256 60.4743 305.305C60.6049 304.723 60.8317 304.146 61.0981 303.612C61.8573 302.183 62.8667 300.873 63.8295 299.568C64.7885 298.25 65.9011 297.056 67.1666 296.036C68.4439 295.019 69.7539 294.034 71.0903 293.092C72.4293 292.153 73.7999 291.266 75.2395 290.488C77.5061 289.222 79.4998 287.88 80.2821 285.264C80.5342 284.563 80.5921 283.566 80.6886 282.832C80.7953 281.052 81.5162 279.809 82.863 278.65L82.7878 278.565C82.2603 279.039 81.8048 279.607 81.5237 280.263C80.557 282.63 81.8912 285.15 81.5272 287.561C80.9306 290.667 78.6913 293.175 76.5531 295.393C74.5828 297.335 72.364 299.197 70.1437 300.861C69.0145 301.701 67.8595 302.509 66.6906 303.293C66.0997 303.672 65.4811 304.016 64.8353 304.292Z" fill="#D68876"/>
<path d="M59.969 308.294C61.0062 306.295 62.2892 304.43 63.8825 302.837C64.6841 302.051 65.5437 301.321 66.4162 300.613C69.6496 298.016 73.1022 295.682 76.1634 292.873C77.2673 291.835 78.4136 290.786 79.1632 289.449C79.9304 288.136 80.4579 286.687 80.8079 285.214C81.0594 284.107 81.2088 282.979 81.2405 281.847C81.2517 281.471 81.2473 281.092 81.2193 280.717L81.1855 280.717C81.1681 282.213 80.9228 283.703 80.5488 285.149C80.2608 286.224 79.8761 287.289 79.3796 288.285C78.8982 289.289 78.2902 290.223 77.5237 291.041C74.9347 293.758 72.037 296.196 69.0285 298.443C67.2088 299.782 65.2651 301.005 63.668 302.625C62.6011 303.702 61.6906 304.936 60.9396 306.25C60.5634 306.907 60.2299 307.586 59.9397 308.28L59.9713 308.294L59.969 308.294Z" fill="#D68876"/>
<path d="M63.9517 411.372C66.7996 411.91 69.779 411.631 72.6636 411.606C74.6777 411.56 77.6312 411.408 79.6388 411.206C81.317 411.041 83.1943 410.893 84.8503 410.618C90.9334 409.67 100.019 407.617 103.45 402.028C105.815 397.955 106.625 392.79 112.178 392.079L112.163 391.967C110.82 392.173 109.463 392.459 108.263 393.122C105.817 394.355 104.526 397.091 102.421 398.739C100.33 400.453 97.6535 401.342 94.9625 401.331C93.614 401.364 92.2646 401.307 90.9184 401.202C88.2169 400.958 85.4932 400.928 82.7827 400.999C77.376 401.198 71.8215 401.378 66.7326 403.421C65.4568 403.886 64.1912 404.38 62.9376 404.907C60.4415 405.939 57.8597 407.152 56.1475 409.332C55.1544 410.498 54.2552 411.754 53.1223 412.793L53.6199 412.497C55.5566 411.381 57.6957 410.235 59.9924 410.351C60.4464 410.381 60.8856 410.494 61.3119 410.658C62.1708 410.965 63.0546 411.204 63.9522 411.366L63.9517 411.372ZM63.9566 411.339C63.0617 411.17 62.1814 410.927 61.3262 410.616C61.0071 410.496 60.6763 410.387 60.3363 410.338C57.9509 410.028 55.5799 411.261 53.5485 412.385L53.6283 412.495L53.7851 412.349C55.1648 410.977 56.2106 409.285 57.7303 408.056C59.3019 406.758 61.1814 405.974 63.0532 405.2C64.3052 404.685 65.5744 404.213 66.8457 403.75C69.3743 402.794 72.0017 402.135 74.6894 401.869C77.3803 401.617 80.0858 401.44 82.7869 401.353C85.4913 401.27 88.1942 401.288 90.8896 401.52C92.2441 401.622 93.6047 401.662 94.9656 401.618C97.7003 401.604 100.438 400.668 102.548 398.903C104.638 397.242 105.899 394.495 108.321 393.24C109.499 392.575 110.846 392.297 112.173 392.083L112.158 391.97C105.678 392.875 105.716 399.278 102.26 403.321C98.0396 407.758 90.6558 409.352 84.8048 410.353C83.1506 410.632 81.2932 410.817 79.6158 411.007C77.6147 411.241 74.6699 411.434 72.657 411.512C69.7776 411.582 66.8033 411.858 63.9559 411.34L63.9566 411.339Z" fill="#D68876"/>
<path d="M53.5947 412.445C56.8126 410.566 60.2976 409.096 63.9476 408.336C65.7652 407.965 67.6339 407.74 69.4815 407.57C76.3003 407 83.194 406.797 89.9548 405.659C91.8014 405.337 93.6606 404.995 95.4383 404.377C96.3151 404.089 97.1949 403.615 98.0094 403.19C99.9249 402.128 101.701 400.781 103.298 399.285C105.103 397.553 106.741 395.628 108.016 393.473L107.987 393.455C106.63 395.543 104.94 397.404 103.115 399.089C101.283 400.746 99.2304 402.209 97.0154 403.306C94.8073 404.44 92.3207 404.881 89.8999 405.342C87.4516 405.78 84.9806 406.1 82.5081 406.407C77.555 407.053 72.5694 407.071 67.5965 407.483C66.3718 407.605 65.0909 407.789 63.8865 408.042C61.4423 408.571 59.0613 409.429 56.8254 410.549C55.7067 411.109 54.621 411.731 53.5769 412.417L53.594 412.446L53.5947 412.445Z" fill="#D68876"/>
<path d="M40.0289 435.596C40.7558 433.735 41.5725 431.724 42.4003 429.91C44.1121 426.183 46.0888 422.576 48.4518 419.219C50.8052 415.842 53.502 412.73 55.9188 409.387C64.7655 397.18 68.0163 380.11 67.8555 365.304C67.7866 360.689 67.3944 356.066 66.7457 351.501C64.8741 336.809 59.7189 322.546 59.6869 307.638C59.6841 299.497 61.7261 291.377 65.685 284.227C66.8929 281.991 68.2788 279.794 69.6346 277.633C74.8053 269.539 80.5121 261.218 85.944 253.273C80.9787 259.594 76.2489 266.65 71.5884 273.383C70.7722 274.605 69.8339 276 69.0229 277.245C62.4937 286.849 58.7568 295.902 58.7946 307.642C58.9256 324.184 65.3339 339.777 67.008 356.12C68.4599 368.316 67.1945 380.823 63.3245 392.498C61.4683 398.346 58.9219 403.977 55.3246 408.97C52.9482 412.323 50.2667 415.473 47.9849 418.904C44.5015 424.031 41.923 429.728 39.946 435.568L40.0267 435.597L40.0289 435.596Z" fill="#D68876"/>
<defs>
<clipPath id="clip0_361_884">
<rect width="305.596" height="332.278" fill="white" transform="matrix(-0.883304 -0.473793 -0.46816 0.88158 411.296 165.541)"/>
</clipPath>
</defs>
</svg>
