<svg width="809" height="1422" viewBox="0 0 809 1422" fill="none" xmlns="http://www.w3.org/2000/svg">
<path d="M657.034 1294.78C585.242 1265.32 468.715 1263.04 369.543 1261.1C268.478 1259.12 141.373 1256.63 65.3648 1284.95C57.2433 1287.98 4.61551 1308.17 15.4674 1332.93C31.8755 1370.35 180.71 1389.19 261.405 1394.2C307.759 1397.08 342.638 1396.07 407.541 1394.2C501.951 1391.48 560.984 1383.5 617.829 1375.7C617.829 1375.7 684.033 1364.5 698.891 1342C703.07 1331.5 696.752 1311.07 657.034 1294.78Z" fill="#E5E2E1"/>
<g clip-path="url(#clip0_643_622)">
<path d="M369.192 1018.26C377.654 1026.96 386.021 1035.78 393.739 1045.16C397.614 1049.81 401.088 1054.83 405.27 1059.21C407.381 1061.38 409.633 1063.41 411.944 1065.36C421.268 1073.08 431.778 1079.22 442.286 1085.17C446.964 1087.75 453.789 1091.21 458.038 1094.4C465.407 1099.82 471.918 1106.46 477.169 1113.93L477.043 1114.02C473.152 1109.37 468.909 1105.04 464.313 1101.14C462.028 1099.18 459.643 1097.33 457.17 1095.63C452.207 1092.19 446.722 1089.62 441.489 1086.59C433.601 1082 425.816 1077.23 418.63 1071.57C413.827 1067.83 409.259 1063.82 404.909 1059.57C401.122 1055.81 396.345 1050.01 392.746 1046C385.034 1036.77 376.25 1027.69 369.192 1018.25L369.192 1018.26Z" fill="#603121"/>
<path d="M350.479 1298.38C349.816 1288.12 349.201 1276.47 348.68 1266.22C348.265 1255.5 348.271 1244.76 347.804 1234.05C346.892 1218.81 345.018 1203.51 340.672 1188.83C338.148 1179.97 334.042 1171.7 330.778 1163.1C328.558 1157.38 326.549 1151.58 324.551 1145.77C322.552 1139.96 320.691 1134.07 319.419 1128.04C317.192 1115.99 314.378 1103.47 317.375 1091.26C318.049 1088.22 319.07 1085.24 320.404 1082.41C321.727 1079.57 323.473 1076.98 325.015 1074.38C328.425 1069 328.656 1063.29 327.634 1057.13C326.696 1051.12 325.032 1045.21 323.211 1039.4C322.305 1036.49 321.206 1033.56 320.875 1030.43C320.234 1024.17 322.878 1018.02 326.832 1013.32L326.956 1013.41C323.276 1018.19 320.885 1024.27 321.664 1030.34C322.051 1033.32 323.194 1036.17 324.183 1039.07C325.183 1041.98 326.125 1044.91 326.935 1047.89C328.692 1054.69 330.817 1062.82 328.811 1069.78C327.413 1074.62 323.895 1078.63 321.909 1083.13C319.361 1088.57 318.037 1094.59 317.728 1100.59C317.405 1106.62 318.268 1112.69 319.217 1118.73C319.71 1121.75 320.178 1124.79 320.768 1127.77C322.553 1136.77 325.586 1145.45 328.392 1154.19C332.008 1165.93 337.545 1176.94 341.193 1188.68C344.799 1200.43 347.045 1212.57 348.433 1224.78C349.978 1238.53 349.38 1252.4 349.821 1266.19C350.014 1273.24 350.313 1282.14 350.453 1289.18L350.64 1298.38L350.484 1298.39L350.479 1298.38Z" fill="#603121"/>
<path d="M365.945 1032.13C364.335 1044.83 366.32 1058.9 374.829 1068.9C375.875 1070.13 377.116 1071.29 378.148 1072.55C383.49 1079.81 386.948 1088.28 389.698 1096.8C390.129 1098.31 390.758 1100.56 391.19 1102.08C391.437 1103.15 391.941 1105.28 392.188 1106.35C392.552 1107.75 393.157 1111.34 393.441 1112.81C394.354 1118.47 394.944 1124.51 395.047 1130.24C395.218 1133.16 395.034 1136.07 394.991 1138.99C395.017 1140.26 394.788 1142.08 394.699 1143.35C392.503 1174.21 376.384 1201.56 367.594 1230.68C360.705 1252.82 356.193 1276.2 350.477 1298.36C352.582 1286.9 354.928 1275.48 357.447 1264.11C361.201 1247.05 365.338 1229.95 371.724 1213.63C373.48 1209 376.37 1202.11 378.259 1197.42C384.724 1181.27 391.582 1165.02 393.779 1147.65C394.033 1145.19 394.264 1142.52 394.482 1140.05C394.941 1130.98 394.3 1121.87 392.587 1112.96C392.261 1111.5 391.592 1107.99 391.181 1106.59C390.903 1105.54 390.364 1103.43 390.087 1102.38C389.614 1100.9 388.945 1098.68 388.478 1097.2C385.61 1088.86 382.279 1080.54 377.132 1073.34C376.607 1072.73 375.948 1071.93 375.357 1071.36C371.779 1067.61 369.069 1063.04 367.447 1058.14C365.542 1052.58 364.723 1046.67 364.896 1040.81C364.97 1037.88 365.268 1034.97 365.788 1032.1L365.94 1032.12L365.945 1032.13Z" fill="#603121"/>
<path d="M303.759 5.21145C345.558 36.4405 395.482 79.9218 414.642 129.61C422.392 149.291 424.515 171.468 418.506 191.918C403.912 244.707 342.029 273.184 337.163 319.651C335.956 332.148 338.876 345.102 345.198 355.951C348.363 361.455 352.431 366.36 356.79 370.965C363.37 377.907 370.722 384.197 377.2 391.29C387.469 402.38 393.802 414.898 395.682 429.958C397.256 442.518 395.104 454.066 388.916 465.11C382.494 476.701 373.656 486.673 366.944 498.051C356.075 515.911 351.492 537.682 354.773 558.349C357.219 574.007 364.07 588.619 372.398 601.985C384.213 620.969 398.002 640.775 398.789 663.962C399.602 683.946 388.837 701.807 379.201 718.452C369.465 735.081 358.785 751.163 347.361 766.675C336.116 782.211 323.958 796.965 314.595 813.651C308.415 824.648 304.081 836.655 301.117 848.899C290.481 886.323 304.425 924.831 320.194 958.706C322.2 962.906 326.312 971.703 328.272 976.176C329.435 979.136 331.058 981.858 332.453 984.757C334.767 989.732 336.338 995.161 340.097 999.242C340.874 1000.03 341.326 1000.74 342.321 1000.86C343.545 1001.07 344.838 1001.2 346.031 1001.69C346.782 1001.97 347.62 1002.44 348.277 1002.81L349.279 1003.24C350.229 1003.63 351.368 1003.96 352.299 1003.89C353.664 1003.75 354.331 1002.32 355.246 1001.37C355.748 1000.76 356.24 1000.16 356.596 999.568C357.6 998.081 357.244 996.273 356.558 994.657C355.916 992.829 354.765 991.581 353.141 990.514C351.733 989.59 349.972 988.221 349.951 986.285C349.904 985.258 350.008 984.366 350.602 983.46C351.086 982.808 351.455 982.762 351.68 982.278C351.947 981.661 351.603 981.022 351.47 980.318C351.351 979.691 351.638 978.938 352.196 978.56C352.475 978.371 352.692 978.305 352.814 978.237C352.942 978.175 353.018 978.119 353.108 978.027C353.326 977.762 353.386 977.687 353.459 977.313C353.59 976.29 354.667 975.849 355.541 975.944C355.756 975.956 355.944 975.969 356.058 975.959C356.183 975.944 356.167 975.934 356.162 975.95C356.163 975.96 356.193 975.928 356.198 975.813C356.205 975.713 356.18 975.485 356.16 975.397C356.079 975.061 355.848 974.892 355.651 974.53C355.266 973.794 355.134 973.115 355.315 972.309C355.377 972.024 355.637 971.627 355.969 971.468C357.263 970.966 358.626 971.673 359.872 971.784C361.301 972.065 362.886 971.933 364.04 971.061C364.581 970.653 364.934 969.98 365.453 969.291C365.962 968.602 366.648 968.015 367.376 967.594C368.842 966.704 370.576 966.415 372.193 966.411C377.081 966.223 381.871 968.122 385.811 970.885L385.575 971.229C382.928 969.483 379.985 968.157 376.9 967.541C373.952 967.102 370.487 966.784 367.852 968.389C367.211 968.786 366.662 969.273 366.233 969.881C365.799 970.467 365.419 971.266 364.687 971.865C362.603 973.568 359.721 972.96 357.347 972.524C357.001 972.475 356.6 972.486 356.535 972.546C356.515 972.573 356.524 972.531 356.491 972.637C356.464 972.727 356.46 972.884 356.471 973.029C356.499 973.336 356.585 973.656 356.73 973.885C356.803 974.013 356.918 974.144 357.056 974.342C357.271 974.626 357.441 975.094 357.472 975.463C357.523 975.952 357.509 976.376 357.137 976.834C356.669 977.381 356.014 977.298 355.487 977.293C355.304 977.29 355.153 977.296 355.055 977.321C354.957 977.346 354.906 977.379 354.861 977.418C354.826 977.466 354.855 977.392 354.806 977.592C354.776 977.771 354.706 978.087 354.58 978.333C354.455 978.588 354.307 978.793 354.122 978.999C353.938 979.199 353.69 979.387 353.46 979.501C352.943 979.751 352.984 979.734 352.907 979.883C352.888 979.931 352.884 979.963 352.905 980.087C352.925 980.201 352.979 980.371 353.039 980.567C353.376 981.415 353.365 982.815 352.639 983.56C352.346 983.911 352.07 984.047 351.858 984.354C351.45 984.96 351.406 986.304 351.77 987.046C352.76 988.582 354.786 989.294 356.125 990.67C357.07 991.613 357.769 992.754 358.262 993.977C359.222 996.057 359.557 998.529 358.269 1000.57C357.309 1002.09 356.368 1003.19 355.193 1004.54C354.734 1005.05 354.006 1005.62 353.263 1005.82C351.152 1006.34 349.181 1005.57 347.303 1004.78C346.521 1004.38 346.032 1004.04 345.245 1003.79C344.314 1003.46 342.976 1003.24 341.934 1003.13C341.488 1003.07 340.882 1002.9 340.428 1002.64C339.478 1002.1 338.898 1001.42 338.331 1000.82C337.774 1000.2 337.19 999.564 336.705 998.921C333.745 994.974 332.172 990.282 330.075 985.908C328.668 983.089 326.926 980.262 325.721 977.293C317.549 959.952 308.567 942.686 302.491 924.445C293.926 899.878 290.005 873.332 297.041 847.89C298.583 841.719 300.377 835.192 302.623 829.274C309.329 810.963 320.725 794.909 332.323 779.457C347.709 759.08 362.563 738.312 375.537 716.304C384.889 700.25 395.488 683.304 394.852 664.091C394.032 638.165 376.554 617.25 364.627 595.399C358.522 583.989 353.745 571.673 351.944 558.788C348.971 537.883 353.647 516.072 364.631 498.088C373.258 483.29 386.179 471.017 392.011 454.693C393.665 449.849 394.666 444.728 394.797 439.611C394.996 434.878 394.467 430.08 393.621 425.431L393.125 423.107L392.874 421.943L392.556 420.797C383.591 385.872 348.147 377.289 337.692 343.548C325.762 306.629 350.478 279.257 373.582 253.783C399.91 225.28 423.7 194.881 417.433 153.628C414.471 133.235 405.229 114.188 393.91 97.1632C377.04 71.9737 355.529 50.2206 332.943 30.1193C323.371 21.6641 313.514 13.513 303.507 5.54542L303.759 5.21145Z" fill="#603120"/>
</g>
<path d="M6.0928 1261.7C6.0928 1261.7 -1.28131 1238.22 0.195515 1223C0.95952 1215.13 3.69552 1206 4.69546 1203.25C6.69543 1196.5 7.8558 1193.76 9.19543 1187.5C11.0679 1178.75 10.8522 1165.3 11.8641 1164.75C16.8097 1162.1 25.9539 1171 60.2677 1203.25C69.2354 1211.68 76.3696 1218.37 80.1249 1221.88C80.5368 1216.61 80.6779 1208.73 78.8836 1199.53C74.1125 1175.04 61.6228 1171.76 61.2659 1156.44C60.7933 1136.13 82.5291 1133.39 82.5997 1110.06C82.635 1098.57 77.3638 1095.73 77.6423 1077.82C77.76 1070.27 77.9129 1062.25 82.6076 1054.23C87.0846 1046.57 91.8087 1045.38 98.7428 1038.08C103.488 1033.09 109.489 1025.01 113.637 1012C120.749 1022.06 127.43 1029.44 132.253 1034.35C142.146 1044.43 147.745 1047.7 154.592 1057.95C159.177 1064.82 162.697 1070.09 163.28 1077.82C163.964 1086.92 160.362 1097.24 153.351 1103.9C146.98 1109.95 142.442 1108.55 136.302 1115.95C135.455 1116.97 131.39 1122 129.682 1129.2C126.913 1140.87 131.99 1151.32 133.494 1154.82C138.106 1165.55 140.428 1183.84 129.77 1216.91C138.316 1202.78 143.758 1190.63 147.144 1182.14C154.604 1163.46 155.22 1154.78 163.28 1144.88C172.102 1134.04 183.996 1128.91 193.065 1126.25C196.554 1129.08 213.354 1143.31 215.405 1167.24C215.778 1171.59 216.956 1185.33 209.201 1198.28C200.933 1212.1 191.699 1209.67 179.415 1225.61C171.873 1235.39 168.423 1245.29 165.762 1252.93C159.291 1271.5 161.389 1280.2 153.351 1288.94C147.444 1295.37 139.742 1297.81 134.735 1298.88C130.097 1300.75 120.934 1303.71 109.293 1302.61C100.017 1301.72 96.9984 1299.95 89.1954 1301C83.5651 1301.76 79.768 1302.22 75.2459 1305.13C71.7769 1308.03 64.2113 1313.46 53.9121 1313.96C34.2784 1314.91 21.173 1297.11 17.8667 1292.62C11.2914 1283.68 9.34612 1275.45 6.09672 1261.7H6.0928Z" fill="#BF7862"/>
<path d="M185.748 1151.83C196.8 1157.58 210.122 1159.12 221.815 1154.39C230.501 1150.98 237.781 1144.46 242.602 1136.53C245.007 1132.55 246.835 1128.23 248.021 1123.73C248.42 1122.24 248.684 1120.7 249.083 1119.19C250.538 1113.35 254.242 1097.92 255.694 1091.9C258.576 1079.76 261.38 1067.6 264.211 1055.44L264.724 1055.63C255.947 1073.02 246.962 1090.32 237.004 1107.07C234.484 1111.24 231.922 1115.41 229.017 1119.34C228.314 1120.28 227.466 1121.31 226.665 1122.19L225.76 1123.06L225.806 1123.02C215.27 1135.87 201.347 1146 185.748 1151.83ZM185.668 1151.83C197.191 1147.11 207.857 1140.3 216.834 1131.67C219.846 1128.8 222.645 1125.72 225.268 1122.5L226.109 1121.67C226.566 1121.15 227.237 1120.39 227.647 1119.83C230.847 1115.66 233.58 1111.15 236.296 1106.65C246.191 1089.89 255.277 1072.66 264.232 1055.39L265.291 1053.32L264.743 1055.57C259.345 1077.79 253.513 1101.51 248.54 1123.87C247.774 1126.91 246.734 1129.89 245.403 1132.73C244.054 1135.57 242.429 1138.28 240.548 1140.8C227.341 1158.35 204.683 1162.55 185.666 1151.83H185.668Z" fill="#603121"/>
<path d="M185.714 1151.79C195.254 1152.64 204.968 1150.84 213.761 1147.13C214.855 1146.6 216.531 1145.89 217.595 1145.31C220.413 1143.84 223.052 1142.03 225.43 1139.92C229.786 1136.19 232.829 1131.33 235.453 1126.29C236.804 1123.83 238.161 1121.25 239.43 1118.75C246.193 1105.48 252.411 1091.86 257.586 1077.89C260.271 1070.61 262.622 1063.06 264.434 1055.51L264.511 1055.52C263.442 1061.11 261.984 1066.62 260.305 1072.06C253.851 1092.44 244.185 1111.63 233.598 1130.15C232.88 1131.38 232.154 1132.61 231.318 1133.77C228.046 1138.45 223.813 1142.51 218.854 1145.39C211.372 1149.58 202.81 1151.89 194.249 1152.27C192.881 1152.34 191.33 1152.34 189.962 1152.28C188.536 1152.22 187.11 1152.11 185.698 1151.87L185.711 1151.79H185.714Z" fill="#603121"/>
<path d="M157.017 1192.71C138.06 1203.53 115.368 1199.45 102.079 1181.96C100.184 1179.45 98.5429 1176.75 97.1807 1173.92C95.8344 1171.08 94.7782 1168.11 93.9986 1165.07C88.909 1142.73 82.9626 1119.06 77.4446 1096.86L76.8859 1094.62L77.9554 1096.67C87.0013 1113.9 96.1723 1131.09 106.155 1147.79C108.892 1152.28 111.651 1156.77 114.871 1160.93C115.28 1161.48 115.956 1162.24 116.419 1162.76L117.265 1163.58C119.905 1166.79 122.719 1169.86 125.747 1172.72C134.766 1181.3 145.467 1188.05 157.014 1192.71H157.017ZM156.937 1192.72C141.309 1186.96 127.333 1176.91 116.73 1164.11L116.776 1164.15L115.868 1163.29C115.065 1162.41 114.211 1161.39 113.501 1160.45C110.574 1156.53 107.991 1152.38 105.45 1148.22C95.4061 1131.52 86.3335 1114.27 77.4659 1096.92L77.9767 1096.74C80.8687 1108.88 83.7368 1121.02 86.6821 1133.15C88.1826 1139.26 91.9447 1154.52 93.4346 1160.4C93.8416 1161.91 94.113 1163.45 94.5174 1164.94C95.7253 1169.43 97.5771 1173.75 100.004 1177.72C104.864 1185.62 112.178 1192.1 120.881 1195.47C132.598 1200.14 145.914 1198.52 156.934 1192.72L156.937 1192.72Z" fill="#603121"/>
<path d="M156.985 1192.75C148.482 1194.02 139.715 1192.76 131.624 1189.98C130.911 1189.7 129.294 1189.08 128.618 1188.81C127.101 1188.11 125.223 1187.29 123.794 1186.44C118.819 1183.58 114.568 1179.55 111.268 1174.88C110.428 1173.73 109.693 1172.5 108.97 1171.27C98.2875 1152.81 88.5206 1133.68 81.9623 1113.33C80.2569 1107.9 78.7696 1102.39 77.6708 1096.81L77.748 1096.79C79.5997 1104.33 81.9889 1111.87 84.7133 1119.15C89.96 1133.09 96.2495 1146.67 103.079 1159.91C104.362 1162.4 105.732 1164.98 107.097 1167.43C109.747 1172.46 112.814 1177.3 117.191 1181.01C119.843 1183.35 122.821 1185.3 126 1186.84C127.062 1187.31 128.794 1188.15 129.887 1188.54C138.385 1192.06 147.963 1193.38 156.985 1192.76V1192.75Z" fill="#603121"/>
<path d="M141.027 1227.63C128.301 1237.7 108.749 1240.94 94.9484 1231.19C89.4969 1227.45 85.1682 1222.37 81.2412 1217.14C78.3039 1213.2 75.5715 1209.13 72.8391 1205.06C63.4819 1190.97 53.0179 1166.79 56.317 1149.77C56.9609 1146.61 58.669 1138.62 59.3341 1135.39L59.3314 1135.51C59.7624 1136.05 60.0258 1135.23 59.8795 1135.52C59.8263 1136.03 59.797 1136.98 59.7731 1137.51C59.5895 1144.99 60.3531 1152.58 62.705 1159.7C64.0087 1163.55 65.8472 1167.25 68.513 1170.33C68.9573 1170.84 69.407 1171.34 69.9125 1171.79C73.7224 1175.1 80.0519 1180.61 83.8831 1183.92C85.9717 1185.69 88.0096 1187.55 90.0902 1189.33C92.1734 1191.1 94.3019 1192.89 96.2015 1194.89C100.001 1198.89 103.372 1203.24 106.759 1207.57C108.198 1209.43 110.303 1212.24 111.96 1213.9C119.492 1221.89 130.118 1226.68 141.029 1227.64L141.027 1227.63ZM140.95 1227.65C129.94 1227.04 119.215 1222.22 111.526 1214.31C109.842 1212.65 107.716 1209.86 106.232 1207.97C102.829 1203.69 99.4261 1199.37 95.6268 1195.44C93.7458 1193.47 91.6599 1191.72 89.5607 1189.94C87.4695 1188.15 85.4422 1186.32 83.343 1184.54C79.0462 1180.84 73.5521 1176.09 69.3351 1172.37C63.8225 1166.99 61.2976 1159.31 60.0391 1151.9C59.2197 1146.79 58.9696 1141.61 59.249 1136.45L59.2835 1135.94L59.3048 1135.68L59.3155 1135.55L59.3208 1135.48L59.3261 1135.44C59.1798 1135.71 59.4485 1134.85 59.8848 1135.4C59.2037 1138.71 57.4211 1146.65 56.7267 1149.85C53.2414 1166.99 63.6681 1190.72 73.2834 1204.75C80.6026 1215.07 87.9298 1227.19 99.5033 1233.11C106.793 1236.76 115.36 1237.26 123.267 1235.61C129.647 1234.25 135.658 1231.43 140.952 1227.65L140.95 1227.65Z" fill="#603121"/>
<path d="M139.151 1229.36C128.107 1232.56 115.751 1231.79 105.048 1227.64C99.514 1225.36 94.6026 1221.72 90.6091 1217.29C83.4495 1208.5 75.9174 1199.99 69.6811 1190.49C61.8138 1178.56 55.346 1164.73 55.9659 1150.14C56.1016 1147.25 56.5379 1144.39 57.2722 1141.6L57.3494 1141.62C51.4482 1169.76 74.1561 1196.67 90.798 1217.12C96.8428 1223.81 104.763 1227.63 113.522 1229.43C119.122 1230.64 124.906 1231.02 130.621 1230.61C133.481 1230.38 136.341 1230 139.127 1229.29L139.151 1229.36V1229.36Z" fill="#603121"/>
<path d="M200.16 1115.06C193.134 1094.16 186.411 1073.1 181.092 1051.68C180.419 1048.69 179.565 1045.43 179.158 1042.4C178.139 1035.34 178.49 1028.08 180.134 1021.14C181.542 1020.87 180.541 1021.09 180.863 1021.04L180.893 1021.08C182.287 1022.97 185.461 1027.32 186.884 1029.27C201.557 1050.19 225.744 1094.57 200.16 1115.06ZM200.16 1115.06C223.871 1095.28 203.084 1055.53 189.803 1034.92C187.18 1030.82 183.516 1026.05 180.664 1022.09L180.432 1021.78L180.315 1021.62L180.257 1021.54L180.228 1021.5C180.531 1021.42 179.509 1021.61 180.898 1021.32C178.74 1030.21 178.844 1039.58 181.068 1048.45C181.406 1049.98 182.135 1053.06 182.521 1054.58C187.627 1074.95 193.831 1095.04 200.158 1115.06L200.16 1115.06Z" fill="#603121"/>
<path d="M181.526 1160.2C171.214 1165.56 158.533 1168.94 146.915 1166.95C141 1165.96 135.205 1163.37 131.183 1158.83C123.252 1149.87 121.647 1136.77 119.806 1125.39C116.861 1107.79 117.342 1089.64 121.325 1072.25C123.369 1063.59 126.239 1054.98 131.05 1047.43C134.003 1042.83 139.324 1034.59 142.314 1029.94L142.272 1030.03C142.312 1030.77 143.091 1030.13 142.815 1030.28C142.535 1030.81 142.07 1031.77 141.804 1032.33C136.182 1044.48 129.004 1063.76 133.606 1076.9C133.809 1077.51 134.304 1078.4 134.578 1078.99C136.85 1083.67 140.476 1091.06 142.793 1095.71C144.201 1098.48 145.473 1101.32 146.899 1104.08C147.606 1105.47 148.309 1106.87 148.929 1108.31C150.022 1110.79 150.86 1113.45 151.613 1116.06C152.547 1119.43 153.382 1122.85 154.146 1126.26C154.867 1129.27 155.402 1132.35 156.213 1135.33C159.627 1147.85 169.037 1156.8 181.526 1160.2V1160.2ZM181.446 1160.21C168.824 1157.18 159.182 1147.96 155.652 1135.5C155.205 1133.99 154.888 1132.46 154.548 1130.95C153.534 1126.4 152.48 1121.86 151.23 1117.38C150.722 1115.56 150.139 1113.62 149.498 1111.84C148.607 1109.29 147.431 1106.86 146.188 1104.45C144.169 1100.44 142.035 1095.93 139.986 1091.9C138.64 1089.17 135.099 1081.99 133.806 1079.32L133.29 1078.27C132.744 1077.22 132.417 1076.06 132.122 1074.92C129.052 1061.61 135.535 1044.09 141.242 1032.05L141.761 1031L142.027 1030.48L142.163 1030.22L142.232 1030.09L142.267 1030.02L142.285 1029.99C142.016 1030.13 142.815 1029.45 142.86 1030.19V1030.21L142.817 1030.28C139.053 1036.11 133.436 1044.37 129.866 1050.18C125.928 1057.04 123.395 1064.63 121.581 1072.3C119.766 1080 118.771 1087.88 118.407 1095.78C117.768 1107.66 119.293 1119.47 121.386 1131.14C123.451 1142.39 125.968 1155.36 136.091 1162.21C144.451 1167.59 155.152 1167.87 164.661 1165.94C170.482 1164.78 176.085 1162.73 181.446 1160.21V1160.21Z" fill="#603121"/>
<path d="M178.535 1162C166.93 1163.69 154.393 1161.49 144.44 1155.17C137.185 1150.65 132.601 1142.78 130.869 1134.55C130.204 1131.75 129.166 1127.63 128.432 1124.79C121.982 1100.68 118.872 1074.02 129.224 1050.53C131.228 1045.91 133.721 1041.48 136.618 1037.35C127.426 1051.94 123.294 1067.68 123.321 1085C123.182 1101.81 127.136 1118.26 131.111 1134.5C132.659 1141.83 136.645 1148.75 142.748 1153.19C152.962 1160.59 166.273 1162.98 178.535 1162Z" fill="#603121"/>
<path d="M173.198 1205.64C177.814 1205.66 182.372 1204.86 186.868 1203.9C189.369 1203.41 193.349 1202.53 195.874 1201.97C212.215 1198.25 228.724 1193.51 243.852 1186.26C254.114 1181.19 266.454 1173.74 270.804 1162.68C275.207 1150.8 274.63 1137.45 288.967 1132.69L289.053 1132.95C285.706 1134.13 282.343 1135.49 279.602 1137.77C278.227 1138.88 276.987 1140.17 275.917 1141.58C274.821 1142.98 274.007 1144.56 273.113 1146.11C272.227 1147.66 271.357 1149.21 270.458 1150.76C268.651 1153.86 266.275 1156.64 263.527 1158.96C259.385 1162.45 254.295 1164.72 248.99 1165.74C245.48 1166.5 241.931 1167.04 238.366 1167.42C224.153 1168.82 210.209 1172.2 196.47 1175.99C191.346 1177.47 186.376 1179.48 181.659 1181.96C176.966 1184.51 172.373 1187.29 167.861 1190.14C162.636 1193.48 157.384 1197.01 153.792 1202.15C151.344 1205.83 149.506 1209.9 146.933 1213.51L146.704 1213.29C148.543 1211.74 150.448 1210.25 152.465 1208.93C155.721 1206.83 159.363 1204.91 163.322 1204.77C164.174 1204.75 165.177 1204.86 166.025 1205.02C168.396 1205.42 170.798 1205.63 173.204 1205.65L173.198 1205.64ZM173.198 1205.72C170.79 1205.72 168.38 1205.52 166.001 1205.14L165.11 1205C164.812 1204.97 164.517 1204.92 164.216 1204.91C162.42 1204.81 160.627 1205.19 158.935 1205.78C153.976 1207.57 149.812 1210.98 145.89 1214.41C148.287 1211.23 149.985 1207.61 151.978 1204.17C155.373 1197.73 161.484 1193.38 167.462 1189.53C171.977 1186.61 176.543 1183.8 181.276 1181.25C192.386 1175.31 204.886 1172.79 217.071 1170.02C224.074 1168.55 231.153 1167.34 238.286 1166.69C241.83 1166.32 245.363 1165.82 248.851 1165.1C255.846 1163.85 262.378 1160.27 266.975 1154.84C269.91 1151.47 271.801 1147.38 274.121 1143.6C277.639 1137.74 282.611 1134.8 288.97 1132.69L289.055 1132.95C286.171 1133.93 283.412 1135.4 281.215 1137.52C276.774 1141.88 275.268 1148.15 273.736 1153.98C272.578 1158.41 271.628 1163.04 269.199 1167.01C261.904 1178.53 248.013 1185.55 235.724 1190.62C223.036 1195.75 209.318 1199.35 195.93 1202.19C193.411 1202.7 189.412 1203.56 186.905 1204.05C182.399 1204.99 177.825 1205.76 173.206 1205.72L173.198 1205.72Z" fill="#603121"/>
<path d="M146.768 1213.37C151.507 1208.82 156.828 1204.8 162.516 1201.5C163.176 1201.12 164.011 1200.61 164.674 1200.28L166.879 1199.15C167.912 1198.6 169.183 1198.09 170.258 1197.6C179.717 1193.46 189.994 1191.7 199.956 1189.28C206.25 1187.78 212.763 1185.98 218.965 1184.08C228.333 1181.09 237.749 1178.13 246.702 1174.06C249.655 1172.66 252.534 1171.17 255.08 1169.14C256.131 1168.37 257.897 1166.97 258.879 1166.08C262.567 1162.9 265.914 1159.23 268.883 1155.38C272.82 1150.17 276.298 1144.56 278.844 1138.53L278.942 1138.57C278.405 1140.12 277.769 1141.64 277.072 1143.13C275.01 1147.59 272.424 1151.88 269.548 1155.88C266.121 1160.53 262.189 1164.84 257.722 1168.52C255.803 1170.03 253.749 1171.65 251.608 1172.82C247.276 1175.25 242.615 1177.03 237.972 1178.73C220.2 1185.16 201.523 1188.87 183.375 1194.04C180.299 1194.95 177.04 1195.97 174.044 1197.1C167.153 1199.64 160.611 1203.21 154.614 1207.43C153.281 1208.38 151.956 1209.34 150.661 1210.35C149.365 1211.35 148.096 1212.39 146.843 1213.45L146.771 1213.37L146.768 1213.37Z" fill="#603121"/>
<path d="M136.884 1242.41C139.385 1246.07 142.588 1249.32 146.337 1251.73C148.684 1253.22 151.254 1254.37 153.938 1255.08C155.535 1255.53 157.187 1255.84 158.844 1255.91C167.991 1256.37 175.803 1250.75 183.072 1245.89C184.929 1244.63 186.778 1243.37 188.55 1242C197.234 1235.34 207.99 1223.87 209.794 1212.78C210.119 1210.6 210.888 1205.05 211.215 1202.81L211.228 1202.72L211.255 1202.7C211.601 1202.44 211.436 1202.59 211.651 1202.62C211.806 1202.72 211.798 1202.9 211.787 1202.94C211.774 1203 211.779 1202.97 211.774 1202.99L211.768 1203.01L211.744 1203.1L211.694 1203.27L211.59 1203.61C210.518 1207 209.097 1210.27 207.331 1213.36C204.83 1217.65 201.533 1221.77 196.997 1224.02L196.672 1224.18C196.563 1224.23 196.454 1224.28 196.342 1224.32C194.134 1225.16 191.897 1226 189.696 1226.81C186.549 1227.95 182.17 1229.57 179.078 1230.72C177.295 1231.35 175.539 1231.97 173.855 1232.78C170.466 1234.38 167.228 1236.32 164.003 1238.24C162.601 1239.09 160.542 1240.37 159.049 1241.03C152.172 1244.23 144.094 1244.73 136.884 1242.41ZM136.82 1242.36C144.972 1244.6 154.018 1243.59 161.255 1239.16C165.262 1236.7 169.285 1234.13 173.515 1232.06C175.228 1231.23 177.035 1230.59 178.801 1229.96C181.872 1228.81 186.283 1227.17 189.404 1226.02L194.696 1224.06C195.041 1223.93 196.305 1223.49 196.638 1223.29C201.046 1221.13 204.247 1217.15 206.708 1213C208.565 1209.83 210.076 1206.44 211.175 1202.93L211.199 1202.85L211.204 1202.83C211.204 1202.83 211.215 1202.79 211.204 1202.84C211.196 1202.86 211.191 1203.03 211.351 1203.12C211.569 1203.13 211.409 1203.25 211.755 1203C211.941 1202.23 210.672 1209.77 210.733 1209.53L210.204 1212.85C209.847 1215.07 209.097 1217.23 208.147 1219.27C203.816 1228.36 196.601 1236.05 188.84 1242.36C185.29 1245.14 181.6 1247.7 177.833 1250.16C174.034 1252.58 170.011 1254.81 165.586 1255.89C154.335 1258.81 142.49 1251.97 136.823 1242.36L136.82 1242.36Z" fill="#603121"/>
<path d="M137.658 1243.88C145.401 1248.99 156.583 1251.88 165.746 1249.84C167.898 1249.36 169.998 1248.59 171.95 1247.55C173.472 1246.74 174.922 1245.78 176.42 1244.93C190.822 1236.25 208.424 1225.2 211.446 1207.35L211.526 1207.36C211.167 1211.32 209.887 1215.17 207.99 1218.65C200.642 1231.93 186.756 1239.41 173.999 1246.66C172.323 1247.67 170.519 1248.63 168.686 1249.32C162.13 1252 154.792 1251.52 148.157 1249.38C145.318 1248.46 142.578 1247.23 140.045 1245.65C139.202 1245.13 138.379 1244.57 137.611 1243.94L137.661 1243.88H137.658Z" fill="#603121"/>
<path d="M187.251 1129.23C185.703 1127.67 184.567 1125.78 183.388 1123.95C182.803 1123.03 182.191 1122.12 181.624 1121.19C180.616 1119.53 179.238 1117.21 178.352 1115.52C178.139 1115.1 177.769 1114.49 177.583 1114.07C176.415 1111.61 175.196 1109.12 174.379 1106.52C173.219 1102.89 172.349 1098.94 173.291 1095.16C174.68 1090.47 179.804 1087.08 177.112 1081.7L177.272 1081.62C177.548 1082.2 177.79 1082.78 178.003 1083.39C178.426 1084.6 178.554 1085.92 178.373 1087.19C178.219 1088.27 177.689 1089.81 177.421 1090.88C176.59 1093.92 177.194 1097.24 178.977 1099.83C179.658 1100.89 180.411 1101.9 181.193 1102.9C182.8 1104.87 184.253 1106.98 185.618 1109.12C186.985 1111.27 188.262 1113.47 189.47 1115.72C191.319 1119.11 192.211 1122.88 192.934 1126.63C193.426 1129.12 193.815 1131.78 192.987 1134.25C192.543 1135.73 192.008 1137.2 191.774 1138.73C191.625 1136.08 191.551 1132.62 189.183 1130.91C188.494 1130.4 187.847 1129.83 187.251 1129.22V1129.23ZM187.291 1129.19C187.892 1129.8 188.542 1130.35 189.233 1130.86C189.954 1131.33 190.497 1132.05 190.859 1132.83C191.575 1134.4 191.814 1136.13 191.947 1137.83L191.737 1137.83L191.769 1137.63C192.072 1136.15 192.596 1134.73 192.913 1133.26C193.081 1132.35 193.107 1131.39 193.051 1130.46C192.836 1127.96 192.189 1125.48 191.607 1123.04C191.037 1120.58 190.173 1118.2 188.983 1115.99C187.775 1113.76 186.501 1111.57 185.163 1109.42C183.819 1107.27 182.398 1105.18 180.813 1103.2C178.341 1100.03 176.306 1096.92 176.779 1092.71C176.846 1091.55 177.37 1090.09 177.679 1088.99C178.61 1086.38 178.336 1084.17 177.115 1081.7L177.274 1081.62C177.74 1082.62 178.046 1083.71 178.048 1084.81C177.99 1088.78 174.547 1091.58 173.6 1095.24C172.562 1100.04 174.238 1104.97 175.947 1109.43C177.583 1113.39 179.623 1117.38 181.786 1121.09C182.891 1122.97 184.051 1124.82 185.245 1126.65C185.86 1127.54 186.536 1128.41 187.291 1129.19Z" fill="#603121"/>
<path d="M191.811 1137.84C191.545 1134.36 190.846 1130.92 189.537 1127.69C188.869 1126.08 188.084 1124.52 187.267 1122.99C184.223 1117.33 180.706 1111.92 178.038 1106.06C177.091 1103.92 176.09 1101.73 175.832 1099.37C175.534 1097.03 175.662 1094.64 176.058 1092.32C176.372 1090.59 176.846 1088.89 177.49 1087.25C177.702 1086.7 177.939 1086.17 178.208 1085.65L178.256 1085.67C177.37 1087.82 176.814 1090.09 176.468 1092.39C176.226 1094.1 176.127 1095.85 176.231 1097.57C176.308 1099.3 176.609 1101 177.208 1102.63C179.256 1108.07 181.917 1113.29 184.851 1118.32C186.639 1121.32 188.675 1124.24 189.973 1127.51C190.843 1129.7 191.394 1132.01 191.668 1134.34C191.806 1135.5 191.87 1136.67 191.862 1137.84H191.809L191.811 1137.84Z" fill="#603121"/>
<path d="M123.329 1282.56C118.925 1281.61 114.831 1279.42 110.718 1277.65C107.863 1276.37 103.728 1274.38 100.977 1272.89C98.6759 1271.64 96.0791 1270.3 93.8762 1268.91C85.7455 1263.91 73.9885 1255.52 72.4746 1245.49C71.5647 1238.26 73.5442 1230.41 66.0281 1226.06L66.1185 1225.91C67.9144 1227.01 69.6837 1228.24 70.998 1229.9C73.749 1233.13 73.9353 1237.81 75.9467 1241.42C77.8968 1245.12 81.188 1248 85.0458 1249.6C86.9561 1250.46 88.9222 1251.19 90.9123 1251.85C94.9271 1253.12 98.8435 1254.72 102.68 1256.45C110.297 1259.98 118.138 1263.58 124.18 1269.55C125.723 1270.98 127.234 1272.45 128.708 1273.95C131.654 1276.92 134.612 1280.2 135.737 1284.34C136.451 1286.6 136.975 1288.93 137.964 1291.09L137.432 1290.37C135.338 1287.62 132.973 1284.7 129.616 1283.48C128.948 1283.25 128.251 1283.15 127.54 1283.13C126.125 1283.05 124.715 1282.86 123.331 1282.55L123.329 1282.56ZM123.342 1282.51C124.725 1282.8 126.133 1282.99 127.546 1283.06C128.075 1283.08 128.615 1283.12 129.131 1283.26C132.734 1284.25 135.378 1287.43 137.603 1290.25L137.422 1290.36L137.286 1290.06C136.145 1287.28 135.676 1284.24 134.248 1281.57C132.787 1278.78 130.573 1276.53 128.365 1274.3C126.886 1272.81 125.356 1271.38 123.818 1269.95C120.78 1267.07 117.42 1264.55 113.735 1262.56C110.036 1260.58 106.272 1258.7 102.459 1256.95C98.6386 1255.21 94.7595 1253.61 90.7607 1252.32C88.7599 1251.65 86.7884 1250.89 84.8675 1250.01C80.9618 1248.34 77.6122 1245.36 75.6646 1241.58C73.6825 1237.95 73.5468 1233.28 70.8437 1230.03C69.5613 1228.38 67.8027 1227.17 66.0334 1226.07L66.1239 1225.92C74.8478 1231.1 70.9022 1240.21 73.3925 1248.05C76.7368 1256.91 86.3362 1263.62 94.1023 1268.56C96.3 1269.96 98.8461 1271.34 101.132 1272.62C103.853 1274.15 107.951 1276.2 110.784 1277.52C114.863 1279.35 118.952 1281.53 123.342 1282.51V1282.51Z" fill="#603121"/>
<path d="M137.493 1290.33C134.029 1285.72 129.935 1281.53 125.172 1278.25C122.797 1276.63 120.258 1275.18 117.718 1273.83C108.304 1268.92 98.5615 1264.48 89.5767 1258.8C87.129 1257.23 84.676 1255.62 82.5076 1253.67C81.4274 1252.73 80.4563 1251.53 79.5491 1250.43C77.4525 1247.77 75.7285 1244.78 74.353 1241.69C72.8205 1238.13 71.6472 1234.41 71.131 1230.57L71.1843 1230.56C71.8574 1234.35 73.1451 1238.02 74.7335 1241.52C76.3484 1244.98 78.397 1248.3 80.9006 1251.2C83.3723 1254.14 86.6634 1256.26 89.8481 1258.38C93.086 1260.47 96.4277 1262.42 99.78 1264.34C106.477 1268.24 113.602 1271.26 120.469 1274.84C122.147 1275.75 123.869 1276.78 125.438 1277.87C128.615 1280.09 131.502 1282.74 134.021 1285.68C135.283 1287.15 136.459 1288.69 137.536 1290.3L137.493 1290.33V1290.33Z" fill="#603121"/>
<path d="M142.602 1331.86C142.697 1328.76 142.756 1325.4 142.679 1322.3C142.503 1315.95 141.875 1309.6 140.54 1303.38C139.231 1297.14 137.267 1291.07 135.847 1284.84C130.627 1262.08 136.405 1235.71 145.691 1214.64C148.612 1208.08 152.001 1201.71 155.724 1195.57C167.393 1175.68 183.508 1158.38 192.671 1137.08C197.654 1125.44 199.692 1112.61 198.388 1100.01C198.024 1096.08 197.38 1092.11 196.757 1088.21C194.294 1073.53 191.2 1058.2 188.27 1043.58C191.524 1055.6 193.99 1068.53 196.555 1080.96C196.978 1083.19 197.471 1085.75 197.872 1088.02C201.36 1105.67 201.182 1120.86 193.948 1137.63C183.644 1161.2 164.919 1179.65 152.523 1202.01C142.982 1218.58 137.148 1237.23 135.557 1256.24C134.641 1265.72 134.849 1275.3 136.953 1284.6C138.31 1290.82 140.228 1296.94 141.402 1303.21C143.262 1312.64 143.474 1322.33 142.737 1331.87L142.604 1331.86L142.602 1331.86Z" fill="#603121"/>
<path d="M200.889 1326.12C200.119 1319.35 198.954 1312.66 196.647 1306.23C194.946 1301.39 192.651 1296.76 191.037 1291.87C190.193 1289.45 189.578 1286.83 189.063 1284.33C188.637 1281.78 188.343 1279.17 188.183 1276.61C188.113 1274.37 188.025 1272 188.146 1269.74C188.19 1268.69 188.213 1267.34 188.297 1266.32C188.355 1265.59 188.62 1262.68 188.672 1262.05C190.229 1248.76 194.642 1235.91 200.513 1223.92C207.869 1208.2 218.824 1193.57 221.196 1176.05C221.399 1174.86 221.427 1173.88 221.524 1172.73C221.67 1171.28 221.622 1169.6 221.662 1168.15C221.503 1162.44 220.336 1156.71 218.714 1151.21C216.857 1144.64 214.827 1138.12 212.776 1131.6L208.66 1118.55L208.851 1118.5C212.615 1128.05 216.168 1137.72 219.374 1147.47C221.936 1155.12 224.071 1163.04 223.738 1171.15C223.156 1191.05 210.258 1207.41 201.38 1224.35C195.757 1234.78 191.607 1246.16 190.282 1257.96C190.151 1259.5 189.901 1261.48 189.84 1263.02L189.682 1266.4C189.628 1267.45 189.687 1268.74 189.671 1269.78C189.666 1270.65 189.683 1272.26 189.747 1273.16C189.924 1279.9 190.937 1286.6 193.183 1292.98C195.491 1299.41 198.385 1305.77 199.64 1312.51C200.546 1317.01 200.936 1321.57 201.087 1326.12L200.888 1326.12L200.889 1326.12Z" fill="#E2B34B"/>
<path d="M216.191 1195.12C218.463 1196.05 228.766 1199.99 239.811 1195.41C250.442 1191 257.619 1180.42 258.415 1168.18C260.22 1152.42 262.027 1136.67 263.831 1120.91C263.831 1120.91 247.576 1165.38 241.947 1171.49C239.591 1175.18 236.17 1179.75 231.34 1184.31C225.85 1189.49 220.393 1192.92 216.188 1195.13L216.191 1195.12Z" fill="#E2B34B"/>
<path d="M199.521 1226.6C197.549 1228 188.535 1234.11 176.723 1232.11C165.359 1230.19 155.834 1221.53 152.08 1209.84C146.494 1194.96 140.909 1180.08 135.324 1165.2C135.324 1165.2 161.891 1204.72 168.827 1209.39C172.007 1212.45 176.431 1216.12 182.218 1219.47C188.795 1223.28 194.911 1225.39 199.521 1226.6Z" fill="#E2B34B"/>
<path d="M191.091 1252.62C189.339 1254.29 181.296 1261.61 169.337 1261.28C157.683 1260.97 150.27 1252.31 141.811 1242.66C130.766 1230.06 123.961 1214.29 124.742 1204.69C124.836 1203.53 125.725 1194.02 125.726 1194.01C125.704 1194 126.274 1211.47 135.787 1218.94C135.808 1218.96 136.624 1219.52 138.252 1220.64C146.923 1226.59 147.944 1227.22 149.65 1228.42C155.127 1232.29 155.683 1231.76 166.696 1243C168.329 1244.67 170.402 1246.42 172.976 1247.98C180.581 1252.59 188.014 1252.73 191.095 1252.62L191.091 1252.62Z" fill="#E2B34B"/>
<path d="M223.593 1168.09C223.593 1168.09 209.64 1138.57 203.583 1121.15C201.591 1115.43 200.924 1109.35 201.624 1103.35L206.452 1108.53C206.452 1108.53 243.541 1147.93 223.593 1168.09L223.593 1168.09Z" fill="#E2B34B"/>
<path d="M214.243 1201.59C211.487 1203.38 199.026 1211.15 186.426 1208.29C174.15 1205.5 170.828 1192.83 166.913 1178.68C161.8 1160.2 162.893 1138.51 168.814 1126.31C169.53 1124.84 175.523 1112.77 175.524 1112.77C175.51 1112.75 166.859 1135.35 173.052 1146.92C173.065 1146.94 173.64 1147.83 174.786 1149.6C180.885 1159.04 181.644 1160.06 182.827 1161.96C186.624 1168.05 187.499 1167.49 193.295 1184.21C194.155 1186.69 195.434 1189.37 197.359 1191.91C203.039 1199.4 210.894 1201.11 214.243 1201.59Z" fill="#E2B34B"/>
<path d="M211.802 1234.16C213.845 1233.94 215.45 1233.56 216.628 1233.28C218.098 1232.94 219.098 1232.59 222.776 1231.43C225.123 1230.69 227.461 1229.91 229.784 1229.11C232.314 1228.22 234.832 1227.3 237.328 1226.33C239.935 1225.31 242.522 1224.24 245.081 1223.1C247.661 1221.96 250.208 1220.75 252.713 1219.45C255.158 1218.18 257.564 1216.83 259.899 1215.36C262.112 1213.98 264.266 1212.49 266.308 1210.87C268.197 1209.37 269.993 1207.76 271.618 1205.98C273.094 1204.37 274.43 1202.61 275.5 1200.7C275.5 1200.7 275.917 1199.94 276.286 1199.15C278.852 1193.64 277.755 1184.44 281.461 1178.72C282.399 1177.27 284.105 1175.33 287.437 1173.76C287.437 1173.76 285.945 1174.44 284.152 1175.52C281.325 1177.23 279.129 1179.8 277.842 1182.83C277.293 1184.12 276.604 1185.74 275.803 1187.6C273.443 1193.07 268.939 1197.36 263.306 1199.38C260.782 1200.29 257.657 1201.2 253.818 1202C244.184 1204.01 233.052 1208.14 226.154 1210.92C221.735 1212.69 217.576 1215.02 213.755 1217.84C210.932 1219.93 208.144 1222.07 205.456 1224.32C204.057 1225.49 202.642 1226.71 201.362 1228.04C200.063 1229.38 198.976 1230.83 197.998 1232.42C196.902 1234.19 194.889 1239.89 193.809 1241.67C193.772 1241.73 193.846 1241.61 193.809 1241.67C199.522 1235.46 203.427 1234.18 206 1234.27C206.77 1234.29 208.861 1234.48 211.805 1234.16L211.802 1234.16Z" fill="#E2B34B"/>
<path d="M189.135 1263.16C190.188 1264.47 195.057 1270.21 203.23 1271.13C211.193 1272.02 216.961 1266.83 223.527 1261.06C232.099 1253.53 238.047 1243.44 238.317 1236.82C238.348 1236.02 238.535 1229.46 238.535 1229.46C238.55 1229.45 236.708 1241.29 229.606 1245.48C229.591 1245.49 228.989 1245.79 227.785 1246.4C221.385 1249.63 220.638 1249.96 219.374 1250.62C215.322 1252.73 214.987 1252.32 206.554 1258.93C205.301 1259.91 203.747 1260.91 201.86 1261.73C196.297 1264.14 191.224 1263.53 189.135 1263.16Z" fill="#E2B34B"/>
<path d="M215.541 1179.16C214.97 1178.7 214.56 1178.27 214.256 1177.96C213.881 1177.57 213.646 1177.27 212.763 1176.21C212.197 1175.54 211.642 1174.85 211.099 1174.15C210.506 1173.4 209.925 1172.64 209.359 1171.86C208.768 1171.05 208.194 1170.23 207.643 1169.39C207.085 1168.54 206.549 1167.69 206.045 1166.81C205.552 1165.95 205.087 1165.09 204.665 1164.19C204.262 1163.35 203.899 1162.49 203.594 1161.6C203.313 1160.79 203.081 1159.95 202.931 1159.1C202.796 1158.33 202.726 1157.55 202.772 1156.76C202.772 1156.76 202.792 1156.46 202.832 1156.15C203.11 1154 205.197 1151.44 205.173 1149.01C205.167 1148.39 205.024 1147.48 204.32 1146.36C204.32 1146.36 204.64 1146.85 204.972 1147.53C205.494 1148.59 205.666 1149.78 205.476 1150.95C205.396 1151.44 205.292 1152.06 205.18 1152.77C204.845 1154.87 205.381 1157.03 206.689 1158.73C207.274 1159.49 208.041 1160.37 209.043 1161.36C211.555 1163.83 214.115 1167.22 215.66 1169.39C216.649 1170.78 217.457 1172.29 218.067 1173.87C218.519 1175.05 218.95 1176.23 219.326 1177.43C219.523 1178.05 219.717 1178.69 219.848 1179.33C219.985 1179.99 220.033 1180.64 220.023 1181.3C220.015 1182.05 219.532 1184.15 219.518 1184.89C219.522 1184.87 219.515 1184.92 219.518 1184.89C218.985 1181.92 218.054 1180.78 217.267 1180.31C217.031 1180.17 216.366 1179.82 215.541 1179.15L215.541 1179.16Z" fill="#E2B34B"/>
<path d="M183.022 1292.8C181.819 1292.68 180.872 1292.46 180.176 1292.3C179.309 1292.1 178.717 1291.89 176.541 1291.22C175.151 1290.79 173.77 1290.34 172.392 1289.87C170.895 1289.36 169.404 1288.82 167.923 1288.26C166.377 1287.67 164.845 1287.04 163.327 1286.38C161.797 1285.71 160.285 1285.01 158.796 1284.25C157.342 1283.51 155.913 1282.72 154.522 1281.87C153.204 1281.06 151.92 1280.2 150.696 1279.25C149.567 1278.37 148.49 1277.43 147.511 1276.39C146.622 1275.44 145.815 1274.42 145.162 1273.3C145.162 1273.3 144.907 1272.86 144.681 1272.39C143.102 1269.17 143.624 1263.77 141.37 1260.42C140.8 1259.57 139.774 1258.43 137.793 1257.52C137.793 1257.52 138.679 1257.91 139.747 1258.55C141.431 1259.54 142.754 1261.04 143.552 1262.82C143.891 1263.58 144.317 1264.52 144.814 1265.61C146.271 1268.82 148.972 1271.32 152.309 1272.5C153.804 1273.03 155.651 1273.56 157.914 1274.02C163.599 1275.18 170.193 1277.58 174.282 1279.19C176.901 1280.22 179.376 1281.58 181.656 1283.23C183.342 1284.45 185.01 1285.69 186.617 1287.01C187.455 1287.7 188.302 1288.41 189.069 1289.18C189.851 1289.96 190.507 1290.82 191.103 1291.74C191.77 1292.78 193.026 1296.12 193.686 1297.17C193.664 1297.13 193.707 1297.2 193.686 1297.17C190.246 1293.54 187.938 1292.79 186.429 1292.85C185.977 1292.86 184.75 1292.98 183.019 1292.8L183.022 1292.8Z" fill="#E2B34B"/>
<path d="M223.758 1303.97C212.072 1307.28 201.315 1303.95 197.888 1297.77C196.954 1296.09 195.404 1292.11 195.743 1287.27C195.773 1286.84 196.048 1283.39 197.109 1281.61C199.998 1276.75 213.054 1277.15 228.759 1283.2C224.424 1275.22 222.799 1268.36 222.122 1263.63C221.602 1259.98 220.888 1254.61 223.284 1253.26C224.91 1252.34 227.269 1253.67 228.962 1254.62C235.298 1258.18 235.482 1263.13 240.874 1266.13C242.334 1266.94 244.76 1267.93 248.444 1267.94C250.494 1262.78 251.217 1258.47 251.476 1255.35C251.755 1251.98 251.544 1249.45 253.143 1248.43C255.164 1247.13 258.757 1249.1 260.085 1250.09C268.204 1256.14 261.654 1277.88 260.533 1281.49C262.388 1279.58 265.759 1276.72 270.707 1275.27C272.573 1274.72 276.076 1273.74 280.147 1274.87C281.975 1275.37 284.646 1276.11 285.373 1278.12C285.941 1279.69 285.034 1281.74 280.726 1286.32C277.987 1289.24 273.859 1293.19 268.08 1297.28C272.227 1298.77 278.235 1301.58 283.755 1307.02C284.831 1308.08 293.402 1316.66 291.276 1320.14C290.648 1321.17 288.947 1321.99 280.421 1320.87C274.834 1320.13 267.238 1318.68 258.336 1315.58C263.219 1322.59 265.514 1329 266.688 1333.55C267.587 1337.05 269.661 1345.11 266.812 1346.9C263.919 1348.72 259.152 1342.06 254.193 1343.87C250.039 1345.39 250.728 1351.04 246.089 1352.59C243.24 1353.53 239.873 1352.44 237.886 1350.62C235.595 1348.52 235.347 1345.64 235.098 1338.63C234.929 1333.8 234.797 1328.19 234.786 1321.92C231.231 1325.6 224.548 1331.28 215.677 1331.99C213.163 1332.19 208.889 1332.53 206.842 1329.87C205.07 1327.57 205.747 1324.01 206.767 1321.87C208.859 1317.46 213.43 1318.09 218.024 1313.91C219.97 1312.14 222.336 1309.17 223.755 1303.97H223.758Z" fill="#999A8D"/>
<path d="M243.748 1311.14C236.938 1308.89 232.009 1300.53 233.639 1293.26C234.854 1287.82 239.802 1282.67 243.237 1283.33C243.801 1283.44 246.728 1283.32 249.565 1286.77C252.571 1290.43 253.817 1291.88 254.727 1293.79C256.925 1298.42 256.285 1307.5 252.161 1310.63C249.155 1312.92 244.636 1311.43 243.752 1311.14H243.748Z" fill="#F3F0E9"/>
<g clip-path="url(#clip1_643_622)">
<path d="M586.471 1322.27C583.652 1318.11 589.47 1311.34 591.538 1305.18C595.795 1292.43 585.37 1277.96 576.474 1265.59C562.792 1246.59 556.341 1248.93 545.684 1232.62C537.127 1219.52 528.734 1198.76 535.292 1192.74C541.042 1187.46 556.723 1194.97 564.092 1199.82C573.008 1205.68 577.81 1212.88 581.755 1218.92C585.684 1224.95 591.242 1235.08 594.309 1249.21C595.515 1240.86 595.733 1229.19 589.599 1218.56C585.569 1211.59 581.042 1208.93 574.525 1203.3C561.652 1192.18 554.867 1181.44 543.539 1163.47C532.683 1146.26 526.764 1136.88 523.372 1122.55C519.11 1104.56 521.264 1089.08 523.34 1079.81C523.375 1079.73 523.449 1079.48 523.449 1079.48C523.767 1078.99 532.923 1056.3 542.528 1056.04C548.478 1055.89 553.058 1064.38 561.414 1079.85C568.676 1093.31 572.955 1101.25 574.803 1112.96C576.786 1125.67 573.14 1125.26 574.384 1147.9C575.136 1161.57 576.9 1169.61 577.983 1173.92C579.999 1181.91 582.504 1188.36 584.513 1192.89C584.906 1180.25 586.568 1170.3 587.99 1163.6C590.562 1151.47 593.47 1144.76 595.126 1130.08C596.536 1117.63 595.491 1113.11 594.945 1111.13C593.252 1104.94 590.688 1102.43 581.694 1090.66C571.151 1076.87 565.832 1069.85 563.515 1063.49C562.741 1061.38 559.525 1052.15 560.674 1040.44C561.145 1035.71 561.66 1031.1 565.02 1026.7C568.774 1021.8 573.841 1020.08 577.268 1018.92C580.185 1017.93 591.771 1014 601.157 1019.34C606.288 1022.25 606.06 1025.26 613.65 1036.82C623.284 1051.53 625.707 1049.79 630.67 1059.52C636.347 1070.65 637.281 1080.95 637.821 1087C638.376 1093.07 639.085 1101.68 636.389 1111.95C634.309 1119.85 632.44 1120.29 625.036 1135.34C618.377 1148.87 614.259 1159.97 612.262 1165.43C606.972 1179.83 608.806 1178.17 604.285 1189.57C599.456 1201.74 596.449 1205.91 596.308 1213.72C596.153 1221.39 598.851 1227.67 600.957 1231.56C603.909 1217.84 607.663 1206.33 611.086 1197.39C615.993 1184.54 620.655 1175.76 625.355 1166.93C636.651 1145.68 641.558 1141.8 643.764 1140.19C651.361 1134.69 659.035 1133.03 665.336 1131.69C675.721 1129.45 684.862 1127.49 689.224 1132.1C695.635 1138.89 687.565 1155.49 685.387 1159.97C680.997 1168.99 675.512 1174.52 666.206 1183.72C662.078 1187.81 654.426 1195.32 642.884 1203.75C629.323 1213.67 623.571 1215.23 615.093 1224.9C612.351 1228.02 608.875 1232.05 605.892 1238.26C601.91 1246.55 601.203 1253.72 600.167 1265.02C599.665 1270.65 599.26 1278.25 599.626 1287.32C603.889 1280.59 616.126 1263.38 638.892 1255.42C647.169 1252.52 661.704 1247.44 677.674 1252.14C688.058 1255.19 694.296 1260.98 699.755 1257.76C702.168 1256.33 705.17 1251.13 711.173 1240.68C712.602 1238.2 713.998 1235.66 716.174 1235.55C719.095 1235.38 721.556 1239.66 722.378 1241.07C727.487 1250.07 726.062 1264.73 720.427 1276.42C718.875 1279.64 709.951 1297.2 690.814 1302.76C678.817 1306.25 668.182 1303.47 650.114 1298.75C627.824 1292.92 618.89 1285.88 610.072 1291.11C606.914 1292.97 601.332 1297.84 599.376 1304.84C597.984 1309.84 598.928 1314.16 595.416 1320.07C592.941 1324.24 591.011 1324.52 590.233 1324.52C588.622 1324.52 587.177 1323.31 586.486 1322.28L586.471 1322.27Z" fill="#999A8D"/>
</g>
<path d="M664.129 1235.46C667.023 1237.04 669.897 1238.65 672.636 1240.53C673.436 1241.16 675.434 1242.32 675.129 1243.62C674.864 1244.22 674.13 1244.07 673.677 1243.89C672.05 1243.18 671.161 1241.53 670.166 1240.1C667.381 1235.78 664.991 1231.03 663.905 1225.86C663.252 1222.83 663.255 1219.65 664.056 1216.66C664.751 1214.15 665.863 1211.62 667.835 1209.98C668.801 1209.17 670.004 1208.61 671.237 1208.51C671.602 1208.44 672.11 1208.48 672.479 1208.51C672.659 1208.5 672.91 1208.59 673.091 1208.62C673.293 1208.67 673.502 1208.69 673.693 1208.79C676.26 1209.65 677.694 1211.82 678.391 1214.52C679.555 1218.93 679.315 1226.29 675.779 1229.35C675.135 1229.88 673.762 1231.13 673.041 1230.12C672.494 1228.74 673.885 1226.96 674.837 1226.18C677.631 1224.26 682.663 1226.44 684.524 1229.14C687.821 1233.64 682.135 1237.69 678.564 1238.84C675.015 1240.08 670.918 1239.8 667.701 1237.6C662.612 1233.85 658.79 1228.14 656.892 1221.84C655.917 1218.51 655.589 1214.56 657.488 1211.55C659.66 1207.7 663.657 1208.69 665.173 1212.61C665.198 1212.67 665.111 1212.69 665.093 1212.64C664.766 1211.86 664.275 1211.15 663.681 1210.58C660.571 1207.69 657.782 1210.7 656.932 1214.12C656.359 1216.6 656.825 1219.21 657.541 1221.63C659.327 1227.75 665.374 1236.66 671.386 1238.21C673.656 1238.82 676.071 1238.64 678.288 1237.91C680.758 1237.03 683.441 1235.55 684.542 1232.9C684.974 1231.8 684.529 1230.57 683.891 1229.65C682.472 1227.68 680.161 1226.52 677.896 1226.24C676.954 1226.15 675.984 1226.2 675.212 1226.75C674.471 1227.32 673.812 1228.17 673.529 1229.11C673.062 1230.85 674.987 1229.38 675.481 1228.96C678.976 1226.03 679.243 1218.93 678.137 1214.6C677.701 1212.98 676.975 1211.33 675.694 1210.3C673.996 1208.86 671.567 1208.38 669.605 1209.39C667.24 1210.5 665.815 1213.07 665.016 1215.63C663.414 1220.61 664.291 1225.77 666.111 1230.6C667.308 1233.8 668.896 1236.84 670.716 1239.7C671.715 1241.11 672.64 1243.1 674.377 1243.45C674.474 1243.46 674.589 1243.44 674.634 1243.38C674.732 1241.74 665.801 1236.69 664.095 1235.55C664.046 1235.52 664.087 1235.44 664.136 1235.46L664.129 1235.46Z" fill="#BF7862"/>
<path d="M687.341 1265.37C689.168 1266.36 690.995 1267.36 692.727 1268.53C693.25 1268.91 693.865 1269.27 694.212 1269.87C694.273 1270 694.352 1270.16 694.282 1270.35C694.128 1270.68 693.702 1270.58 693.443 1270.48C692.431 1270.05 691.872 1269.04 691.251 1268.17C690.654 1267.28 690.107 1266.37 689.602 1265.42C688.586 1263.54 687.756 1261.53 687.301 1259.42C686.628 1256.29 687.079 1252.69 689.17 1250.25C691.632 1247.47 695.579 1248.85 696.397 1252.46C697.186 1255.52 697.011 1260.28 694.094 1262.01C693.755 1262.25 693.065 1262.42 693.005 1261.8C693.021 1260.82 693.749 1259.94 694.565 1259.5C696.884 1258.54 701.613 1260.93 700.744 1263.93C700.01 1265.73 698.195 1266.74 696.504 1267.34C694.531 1267.99 692.284 1267.95 690.376 1266.98C687.622 1265.42 685.555 1262.74 684.048 1259.93C682.457 1256.82 681.066 1251.96 684.252 1249.5C685.685 1248.53 687.471 1249.79 688.01 1251.28L687.979 1251.3C687.569 1250.33 686.746 1249.49 685.75 1249.31C684.721 1249.12 683.815 1249.88 683.331 1250.76C682.193 1252.57 682.478 1254.88 683.085 1256.86C684.055 1259.89 685.842 1262.62 688.089 1264.78C690.349 1267.16 693.348 1267.98 696.396 1266.97C698.38 1266.34 701.851 1264.23 699.995 1261.72C698.706 1259.95 694.97 1258.41 693.591 1260.75C692.678 1262.31 693.585 1262.29 694.615 1261.39C695.426 1260.77 695.902 1259.79 696.205 1258.79C696.966 1256.1 696.988 1251.78 694.734 1249.83C693.068 1248.42 690.678 1248.73 689.324 1250.39C687.824 1252.16 687.264 1254.67 687.309 1257C687.53 1260.99 689.361 1264.72 691.484 1268.01C692.091 1268.85 692.621 1269.85 693.537 1270.25C694.219 1270.52 694.235 1270.16 693.828 1269.67C691.905 1267.93 689.535 1266.74 687.338 1265.4L687.356 1265.37L687.341 1265.37Z" fill="#603121"/>
<path d="M550.677 1325.9C553.486 1322.09 556.504 1317.97 561.005 1315.53C565.072 1313.32 567.736 1313.51 574.329 1310.08C578.276 1308.02 580.271 1306.96 581.267 1304.99C583.084 1301.41 580.572 1298.73 579.783 1292.08C579.514 1289.8 578.645 1282.47 581.922 1276.1C585.31 1269.51 589.86 1270.31 592.952 1263.19C593.608 1261.68 595.303 1257.65 594.47 1252.94C593.765 1248.95 591.915 1248.26 587.431 1241.33C583.041 1234.54 580.836 1231.03 581.126 1226.51C581.369 1222.74 583.046 1222.82 584.205 1217.66C584.598 1215.91 586.364 1208.04 582.618 1202.14C581.053 1199.67 577.783 1198.01 571.308 1194.79C561.27 1189.8 559.086 1190.04 555.262 1187.04C552.437 1184.83 548.833 1180.94 546.343 1173.7C535.584 1191.78 535.993 1200.41 538.806 1204.91C539.926 1206.71 541.412 1207.83 542.952 1211.23C543.456 1212.35 546.947 1220.36 544.076 1228.34C543.339 1230.38 542.684 1231.04 535.938 1238.6C527.145 1248.45 524.696 1251.31 522.719 1256.04C521.206 1259.66 519.928 1262.83 521.27 1265.73C523.037 1269.54 528.506 1271.04 532.269 1272.07C536.964 1273.36 538.744 1272.72 541.321 1274.74C541.827 1275.13 544.849 1277.49 545.126 1281.12C545.35 1284.05 543.669 1286.37 540.725 1290.32C537.057 1295.24 535.122 1295.8 534.824 1298.65C534.507 1301.71 536.389 1304.23 536.832 1304.79C538.139 1306.44 539.038 1306.33 542.152 1308.4C544.569 1310 547.02 1311.63 548.709 1314.28C549.515 1315.55 550.655 1317.84 550.808 1321.4L550.825 1324.26L550.675 1325.9" fill="#E2B34B"/>
<path d="M546.276 1345.28C553.127 1317.87 559.097 1290.12 561.789 1261.99C562.656 1251.2 563.566 1240.12 561.138 1229.49C560.668 1227.63 560.014 1225.83 559.094 1224.14L559.169 1224.1C560.515 1226.29 561.354 1228.77 561.938 1231.27C563.078 1236.3 563.382 1241.49 563.409 1246.64C563.451 1259.52 561.673 1272.34 559.592 1285.02C556.12 1305.23 551.768 1325.67 546.273 1345.28L546.276 1345.28Z" fill="#603121"/>
<path d="M558.846 1288.77C561.619 1280.68 567.952 1272.3 575.998 1268.98C577.173 1268.46 578.408 1268.1 579.643 1267.79L579.671 1267.87C577.345 1268.91 575.108 1270.06 573.032 1271.46C572.463 1271.84 571.663 1272.42 571.113 1272.81C567.682 1275.33 564.767 1278.5 562.443 1282.07C561.057 1284.19 559.832 1286.43 558.931 1288.79L558.849 1288.77L558.846 1288.77Z" fill="#603121"/>
<path d="M561.237 1267.79C561.589 1261.05 560.31 1253.86 556.213 1248.41C555.666 1247.72 554.958 1246.94 554.338 1246.34C553.706 1245.75 552.894 1245.09 552.198 1244.56L551.269 1243.95C548.769 1242.32 545.883 1241.35 542.91 1240.69L542.922 1240.6C543.304 1240.64 543.685 1240.67 544.064 1240.71C546.072 1240.9 548.067 1241.47 549.919 1242.26C556.421 1245.11 559.951 1251.86 561.035 1258.62C561.281 1260.13 561.43 1261.67 561.474 1263.2C561.519 1264.73 561.492 1266.26 561.323 1267.79L561.236 1267.78L561.237 1267.79Z" fill="#603121"/>
<path d="M563.119 1247.9C563.749 1242.14 566.219 1232.6 572.394 1230.6C573.343 1230.29 574.343 1230.18 575.31 1230.25L575.312 1230.34C574.362 1230.51 573.456 1230.78 572.614 1231.17C568.346 1233.31 566.009 1237.93 564.587 1242.32C563.993 1244.15 563.529 1246.02 563.205 1247.91L563.118 1247.9L563.119 1247.9Z" fill="#603121"/>
<path d="M506.097 1257.2C499.342 1258.18 492.186 1256.58 487.021 1252.01C483.165 1248.67 480.605 1243.98 479.571 1239C479.061 1236.5 478.911 1233.93 479.123 1231.38C479.192 1230.53 479.338 1229.69 479.409 1228.83C479.729 1225.54 480.647 1216.88 481.003 1213.49C481.743 1206.68 482.526 1199.86 483.294 1193.05L482.995 1193.06C484.334 1203.66 485.798 1214.25 487.863 1224.73C488.398 1227.35 488.955 1229.97 489.733 1232.54C489.923 1233.15 490.173 1233.84 490.424 1234.44L490.731 1235.06L490.716 1235.02C493.794 1243.59 499.12 1251.35 506.097 1257.2ZM506.14 1257.21C501.061 1252.68 496.806 1247.23 493.757 1241.13C492.729 1239.1 491.851 1237 491.088 1234.85L490.806 1234.27C490.665 1233.92 490.46 1233.4 490.35 1233.04C489.464 1230.3 488.881 1227.47 488.305 1224.64C486.273 1214.17 484.746 1203.59 483.293 1193.02L483.126 1191.76L482.996 1193.02C481.707 1205.52 480.366 1218.87 478.831 1231.36C478.668 1233.08 478.659 1234.81 478.823 1236.52C478.999 1238.24 479.341 1239.93 479.849 1241.58C483.443 1253.07 494.364 1259.33 506.141 1257.21L506.14 1257.21Z" fill="#D68876"/>
<path d="M506.122 1257.19C501.044 1255.91 496.364 1253.22 492.507 1249.71C492.039 1249.24 491.305 1248.56 490.862 1248.07C489.677 1246.8 488.648 1245.39 487.809 1243.86C486.245 1241.14 485.565 1238.07 485.136 1234.98C484.89 1233.46 484.664 1231.88 484.467 1230.35C483.412 1222.25 482.701 1214.07 482.593 1205.89C482.544 1201.63 482.716 1197.28 483.166 1193.04L483.123 1193.04C482.65 1196.13 482.391 1199.25 482.26 1202.37C481.852 1214.11 483.32 1225.8 485.386 1237.32C485.531 1238.08 485.68 1238.85 485.899 1239.61C486.728 1242.63 488.168 1245.49 490.199 1247.88C493.289 1251.41 497.283 1254.16 501.631 1255.9C502.323 1256.18 503.124 1256.46 503.841 1256.68C504.589 1256.9 505.344 1257.1 506.116 1257.24L506.124 1257.19L506.122 1257.19Z" fill="#D68876"/>
<path d="M513.568 1283.74C521.365 1292.77 533.82 1294.75 543.884 1288.09C545.322 1287.12 546.663 1286.02 547.885 1284.8C549.101 1283.57 550.19 1282.22 551.15 1280.79C557.873 1270.12 565.281 1258.92 572.199 1248.41L572.9 1247.34L571.971 1248.22C564.145 1255.52 556.261 1262.77 548.047 1269.63C545.812 1271.46 543.565 1273.29 541.141 1274.87C540.829 1275.08 540.341 1275.35 540.006 1275.54L539.419 1275.81C537.469 1277 535.454 1278.08 533.368 1279.02C527.141 1281.84 520.382 1283.41 513.569 1283.74L513.568 1283.74ZM513.608 1283.76C522.727 1283.59 531.781 1280.91 539.599 1276.18L539.567 1276.2L540.194 1275.91C540.769 1275.6 541.397 1275.23 541.936 1274.87C544.164 1273.37 546.258 1271.68 548.332 1269.98C556.577 1263.13 564.421 1255.83 572.177 1248.44L571.948 1248.25C568.23 1254.02 564.523 1259.8 560.78 1265.55C558.884 1268.45 554.145 1275.69 552.297 1278.47C551.811 1279.17 551.389 1279.92 550.906 1280.63C549.459 1282.74 547.712 1284.64 545.733 1286.26C541.776 1289.48 536.814 1291.52 531.706 1291.69C524.805 1292 518.231 1288.76 513.609 1283.76L513.608 1283.76Z" fill="#D68876"/>
<path d="M513.572 1283.77C517.728 1285.96 522.482 1286.89 527.167 1286.91C527.587 1286.89 528.534 1286.87 528.933 1286.85C529.844 1286.76 530.963 1286.67 531.857 1286.49C534.947 1285.91 537.88 1284.59 540.439 1282.76C541.084 1282.31 541.688 1281.81 542.287 1281.3C551.184 1273.66 559.734 1265.5 566.849 1256.13C568.726 1253.62 570.503 1251.03 572.094 1248.34L572.057 1248.32C569.719 1251.89 567.103 1255.37 564.363 1258.65C559.098 1264.93 553.362 1270.84 547.41 1276.47C546.292 1277.53 545.111 1278.62 543.957 1279.65C541.669 1281.78 539.197 1283.73 536.26 1284.87C534.462 1285.6 532.568 1286.07 530.645 1286.3C530.011 1286.35 528.963 1286.47 528.327 1286.48C523.296 1286.77 518.112 1285.73 513.571 1283.77L513.572 1283.77Z" fill="#D68876"/>
<path d="M515.46 1304.71C520.18 1312.23 529.674 1317.44 538.584 1314.88C542.082 1313.93 545.247 1312.07 548.234 1310.07C550.471 1308.56 552.627 1306.94 554.785 1305.32C562.197 1299.7 572.03 1289.06 573.449 1279.63C573.697 1277.88 574.281 1273.42 574.531 1271.63L574.511 1271.69C574.188 1271.89 574.204 1271.42 574.227 1271.59C574.16 1271.87 574.001 1272.37 573.915 1272.65C572.639 1276.56 570.852 1280.36 568.333 1283.63C566.954 1285.39 565.327 1286.97 563.386 1288.09C563.064 1288.27 562.74 1288.45 562.396 1288.6C559.823 1289.63 555.547 1291.34 552.964 1292.36C551.561 1292.9 550.169 1293.5 548.769 1294.05C547.369 1294.59 545.943 1295.13 544.594 1295.83C541.901 1297.22 539.365 1298.86 536.822 1300.5C535.737 1301.2 534.137 1302.28 532.977 1302.84C527.625 1305.62 521.264 1306.19 515.458 1304.71L515.46 1304.71ZM515.496 1304.74C521.289 1306.41 527.708 1305.84 533.126 1303.13C534.299 1302.57 535.907 1301.51 537.02 1300.8C539.561 1299.19 542.109 1297.57 544.79 1296.22C546.123 1295.53 547.52 1295 548.929 1294.46C550.336 1293.91 551.719 1293.32 553.128 1292.78C556.024 1291.64 559.729 1290.17 562.588 1289C566.42 1287.2 569.13 1283.68 571.14 1280.06C572.498 1277.56 573.578 1274.92 574.38 1272.19L574.457 1271.92L574.494 1271.78L574.512 1271.71L574.521 1271.68L574.525 1271.66C574.551 1271.82 574.57 1271.33 574.246 1271.53C573.989 1273.37 573.453 1277.81 573.224 1279.6C571.879 1289.12 562.146 1299.54 554.611 1305.08C548.942 1309.11 542.938 1314.07 535.88 1315.05C531.45 1315.63 526.937 1314.34 523.162 1312.05C520.119 1310.2 517.535 1307.65 515.496 1304.74L515.496 1304.74Z" fill="#D68876"/>
<path d="M516.109 1305.95C521.221 1309.61 527.738 1311.44 534.024 1311.22C537.297 1311.04 540.499 1310.04 543.372 1308.46C548.679 1305.2 554.128 1302.14 559.088 1298.34C565.337 1293.57 571.212 1287.56 573.569 1279.88C574.028 1278.36 574.328 1276.8 574.461 1275.22L574.418 1275.21C572.301 1290.88 555.645 1300.74 543.306 1308.34C538.959 1310.72 534.172 1311.27 529.321 1310.62C526.209 1310.24 523.155 1309.39 520.282 1308.14C518.847 1307.51 517.441 1306.79 516.135 1305.92L516.108 1305.95L516.109 1305.95Z" fill="#D68876"/>
<path d="M505.411 1235.63C512.862 1226.06 520.184 1216.37 526.849 1206.23C527.744 1204.8 528.782 1203.27 529.548 1201.77C531.368 1198.29 532.518 1194.47 532.947 1190.58C532.272 1190.19 532.746 1190.48 532.59 1190.4L532.568 1190.41C531.503 1191.14 529.073 1192.82 527.982 1193.58C516.595 1201.78 496.01 1220.41 505.411 1235.63ZM505.411 1235.63C496.842 1221.12 514.83 1204.27 525.444 1195.98C527.545 1194.33 530.305 1192.52 532.498 1190.98L532.676 1190.86L532.765 1190.8L532.81 1190.77L532.832 1190.75C532.69 1190.66 533.181 1190.94 532.521 1190.54C531.999 1195.53 530.227 1200.37 527.455 1204.56C527 1205.29 526.061 1206.75 525.583 1207.47C519.219 1217.11 512.342 1226.39 505.413 1235.63L505.411 1235.63Z" fill="#D68876"/>
<path d="M506.833 1262.44C511.171 1267.07 517.09 1271.11 523.448 1272.17C526.68 1272.73 530.142 1272.43 533.048 1270.81C538.779 1267.6 542.006 1261.1 545.041 1255.54C549.783 1246.96 552.86 1237.47 553.992 1227.74C554.524 1222.89 554.621 1217.91 553.522 1213.13C552.842 1210.22 551.606 1204.99 550.916 1202.04L550.921 1202.1C550.766 1202.47 550.481 1202 550.595 1202.13C550.644 1202.45 550.707 1203.03 550.743 1203.37C551.417 1210.67 551.586 1221.96 546.805 1227.93C546.59 1228.21 546.172 1228.58 545.921 1228.84C543.894 1230.85 540.669 1234.03 538.621 1236.02C537.388 1237.2 536.212 1238.44 534.971 1239.62C534.353 1240.2 533.734 1240.8 533.151 1241.44C532.131 1242.53 531.212 1243.75 530.346 1244.97C529.247 1246.55 528.19 1248.17 527.172 1249.79C526.249 1251.22 525.408 1252.72 524.443 1254.12C520.39 1259.99 513.897 1262.93 506.834 1262.43L506.833 1262.44ZM506.873 1262.45C513.937 1263.16 520.599 1260.13 524.703 1254.31C525.209 1253.61 525.653 1252.87 526.106 1252.15C527.461 1249.98 528.836 1247.82 530.302 1245.72C530.898 1244.87 531.553 1243.97 532.209 1243.17C533.137 1242 534.189 1240.96 535.271 1239.93C537.047 1238.22 538.973 1236.27 540.767 1234.55C541.962 1233.38 545.104 1230.3 546.259 1229.15L546.718 1228.7C547.192 1228.26 547.573 1227.71 547.935 1227.17C551.956 1220.83 551.822 1210.59 551.082 1203.33L551.007 1202.69L550.965 1202.37L550.943 1202.21L550.931 1202.13L550.926 1202.09L550.922 1202.07C551.036 1202.19 550.748 1201.7 550.59 1202.07L550.586 1202.08L550.595 1202.12C551.469 1205.82 552.853 1211.11 553.629 1214.77C554.403 1219.03 554.319 1223.42 553.85 1227.72C553.376 1232.04 552.445 1236.3 551.187 1240.45C549.339 1246.72 546.39 1252.57 543.172 1258.23C540.046 1263.69 536.373 1269.95 529.897 1271.67C524.601 1272.95 519.03 1271.17 514.481 1268.45C511.69 1266.8 509.177 1264.73 506.874 1262.45L506.873 1262.45Z" fill="#D68876"/>
<path d="M508.047 1263.9C513.723 1266.87 520.592 1267.99 526.881 1266.52C531.451 1265.48 535.256 1262.24 537.656 1258.29C538.514 1256.95 539.803 1255.01 540.701 1253.67C548.444 1242.35 554.931 1229.1 553.894 1215.07C553.708 1212.31 553.234 1209.56 552.495 1206.91C554.564 1216.12 553.812 1225.01 550.625 1233.98C547.618 1242.71 542.565 1250.52 537.542 1258.21C535.401 1261.73 532.078 1264.59 528.116 1265.8C521.494 1267.78 514.191 1266.62 508.047 1263.9Z" fill="#D68876"/>
<path d="M502.786 1287.33C500.399 1286.51 498.191 1285.27 496.045 1283.95C494.843 1283.25 492.951 1282.07 491.748 1281.32C483.991 1276.43 476.336 1270.98 469.855 1264.47C465.484 1259.98 460.479 1253.87 460.262 1247.34C460.168 1240.36 462.916 1233.53 456.384 1228.46L456.293 1228.58C457.805 1229.8 459.293 1231.12 460.289 1232.8C460.795 1233.63 461.199 1234.52 461.492 1235.45C461.802 1236.37 461.932 1237.34 462.11 1238.31C462.283 1239.27 462.447 1240.24 462.628 1241.2C462.991 1243.14 463.709 1245.02 464.703 1246.72C466.201 1249.28 468.413 1251.39 470.965 1252.88C472.639 1253.9 474.373 1254.83 476.145 1255.67C483.228 1258.97 489.808 1263.25 496.208 1267.71C498.582 1269.41 500.78 1271.35 502.761 1273.5C504.718 1275.67 506.58 1277.94 508.387 1280.24C510.472 1282.93 512.538 1285.71 513.449 1289.03C514.037 1291.39 514.239 1293.84 514.907 1296.18L515.064 1296.11C514.401 1294.96 513.689 1293.85 512.89 1292.8C511.594 1291.11 510.066 1289.46 508.045 1288.67C507.611 1288.5 507.071 1288.38 506.604 1288.31C505.306 1288.09 504.027 1287.76 502.783 1287.33L502.786 1287.33ZM502.771 1287.38C504.015 1287.81 505.296 1288.14 506.595 1288.37L507.081 1288.46C507.24 1288.5 507.401 1288.53 507.558 1288.58C508.504 1288.85 509.361 1289.38 510.127 1289.99C512.359 1291.82 513.884 1294.34 515.28 1296.83C514.626 1294.75 514.414 1292.56 514.015 1290.41C513.443 1286.45 511.085 1283.08 508.705 1280C506.908 1277.67 505.066 1275.38 503.091 1273.19C498.443 1268.09 492.449 1264.53 486.664 1260.88C483.317 1258.85 479.884 1256.94 476.32 1255.31C474.557 1254.47 472.823 1253.58 471.155 1252.57C467.772 1250.65 465.056 1247.61 463.678 1243.95C462.781 1241.67 462.554 1239.2 462.05 1236.82C461.307 1233.14 459.28 1230.71 456.382 1228.46L456.292 1228.58C457.6 1229.62 458.756 1230.88 459.502 1232.38C460.996 1235.44 460.622 1238.98 460.344 1242.28C460.129 1244.79 459.769 1247.38 460.295 1249.88C461.949 1257.19 467.834 1263.35 473.251 1268.21C478.862 1273.17 485.286 1277.53 491.679 1281.43C492.886 1282.15 494.794 1283.32 495.999 1284.02C498.154 1285.33 500.374 1286.56 502.767 1287.38L502.771 1287.38Z" fill="#D68876"/>
<path d="M515.022 1296.14C513.41 1292.91 511.399 1289.86 509.067 1287.12C508.796 1286.8 508.459 1286.38 508.177 1286.09L507.245 1285.1C506.813 1284.63 506.25 1284.14 505.785 1283.69C501.659 1279.83 496.674 1277.05 491.975 1273.99C488.999 1272.07 485.964 1269.96 483.112 1267.84C478.822 1264.59 474.503 1261.35 470.626 1257.61C469.357 1256.35 468.144 1255.06 467.201 1253.54C466.801 1252.95 466.144 1251.9 465.801 1251.26C464.48 1248.94 463.424 1246.43 462.598 1243.89C461.521 1240.47 460.754 1236.92 460.545 1233.33L460.488 1233.33C460.48 1234.24 460.53 1235.14 460.616 1236.04C460.863 1238.73 461.41 1241.43 462.163 1244.03C463.079 1247.07 464.319 1250.02 465.951 1252.74C466.663 1253.87 467.428 1255.09 468.32 1256.08C470.11 1258.13 472.192 1259.89 474.277 1261.62C482.275 1268.18 491.241 1273.49 499.663 1279.47C501.086 1280.49 502.582 1281.61 503.921 1282.74C507.014 1285.31 509.738 1288.35 512.061 1291.63C512.575 1292.36 513.082 1293.1 513.567 1293.86C514.051 1294.62 514.516 1295.39 514.968 1296.17L515.02 1296.14L515.022 1296.14Z" fill="#D68876"/>
<path d="M514.86 1312.92C512.897 1314.37 510.646 1315.48 508.269 1316.05C506.785 1316.4 505.246 1316.53 503.729 1316.42C502.823 1316.36 501.912 1316.22 501.044 1315.96C496.238 1314.54 493.236 1310.21 490.375 1306.37C489.648 1305.38 488.924 1304.39 488.26 1303.36C484.998 1298.33 481.55 1290.43 482.653 1284.35C482.886 1283.15 483.508 1280.13 483.75 1278.91L483.76 1278.86L483.75 1278.84C483.618 1278.65 483.676 1278.76 483.56 1278.73C483.461 1278.76 483.433 1278.85 483.431 1278.87C483.426 1278.91 483.429 1278.89 483.429 1278.9L483.427 1278.91L483.424 1278.96L483.418 1279.06L483.409 1279.26C483.341 1281.21 483.474 1283.17 483.819 1285.09C484.324 1287.77 485.27 1290.51 487.199 1292.49L487.337 1292.64C487.383 1292.68 487.43 1292.73 487.481 1292.77C488.468 1293.6 489.468 1294.45 490.456 1295.26C491.871 1296.43 493.836 1298.06 495.22 1299.22C496.024 1299.87 496.818 1300.51 497.539 1301.23C498.995 1302.67 500.311 1304.27 501.623 1305.85C502.192 1306.54 503.02 1307.58 503.67 1308.19C506.634 1311.1 510.711 1312.82 514.86 1312.92ZM514.902 1312.91C510.282 1312.59 505.796 1310.44 502.873 1306.82C501.256 1304.82 499.652 1302.76 497.846 1300.92C497.114 1300.18 496.298 1299.52 495.503 1298.87C494.129 1297.72 492.152 1296.07 490.751 1294.91L488.379 1292.93C488.224 1292.8 487.653 1292.35 487.518 1292.18C485.638 1290.26 484.716 1287.62 484.207 1285.02C483.83 1283.03 483.672 1281 483.748 1278.98L483.751 1278.93L483.752 1278.92C483.751 1278.92 483.754 1278.9 483.75 1278.92C483.75 1278.94 483.723 1279.02 483.624 1279.04C483.509 1279.01 483.568 1279.1 483.437 1278.91C483.482 1278.47 482.752 1282.62 482.766 1282.48L482.43 1284.3C482.205 1285.53 482.197 1286.78 482.313 1288.01C482.881 1293.52 485.195 1298.82 488.044 1303.5C489.368 1305.58 490.802 1307.58 492.295 1309.54C493.812 1311.48 495.481 1313.37 497.568 1314.73C502.84 1318.28 510.211 1316.87 514.901 1312.9L514.902 1312.91Z" fill="#D68876"/>
<path d="M514.193 1313.55C509.258 1314.81 502.953 1314.28 498.594 1311.57C497.573 1310.92 496.629 1310.15 495.811 1309.25C495.174 1308.56 494.601 1307.8 493.984 1307.08C488.139 1299.97 481.078 1291.04 482.793 1281.22L482.749 1281.21C482.21 1283.33 482.163 1285.56 482.503 1287.71C483.861 1295.94 489.659 1302.34 494.917 1308.42C495.596 1309.25 496.352 1310.07 497.172 1310.77C500.066 1313.34 503.943 1314.42 507.762 1314.51C509.397 1314.55 511.039 1314.4 512.636 1314.04C513.168 1313.92 513.694 1313.78 514.206 1313.59L514.192 1313.55L514.193 1313.55Z" fill="#D68876"/>
<path d="M509.523 1245.27C510.606 1244.74 511.537 1243.97 512.481 1243.23C512.951 1242.86 513.433 1242.51 513.895 1242.13C514.719 1241.45 515.855 1240.49 516.622 1239.78C516.808 1239.6 517.111 1239.35 517.284 1239.17C518.336 1238.1 519.421 1237.03 520.318 1235.83C521.579 1234.17 522.752 1232.28 522.957 1230.15C523.101 1227.47 521.078 1224.79 523.452 1222.49L523.384 1222.42C523.135 1222.67 522.903 1222.93 522.683 1223.21C522.243 1223.76 521.936 1224.42 521.797 1225.11C521.678 1225.69 521.669 1226.59 521.611 1227.19C521.484 1228.91 520.564 1230.53 519.171 1231.54C518.626 1231.97 518.052 1232.36 517.467 1232.73C516.276 1233.46 515.142 1234.29 514.045 1235.16C512.946 1236.02 511.885 1236.93 510.851 1237.88C509.277 1239.3 508.127 1241.09 507.067 1242.9C506.358 1244.1 505.671 1245.41 505.646 1246.83C505.604 1247.68 505.61 1248.54 505.451 1249.37C506.013 1248.03 506.685 1246.25 508.218 1245.79C508.667 1245.65 509.104 1245.48 509.524 1245.27L509.523 1245.27ZM509.509 1245.24C509.088 1245.45 508.651 1245.62 508.202 1245.76C507.744 1245.87 507.332 1246.15 507.003 1246.48C506.346 1247.17 505.906 1248.02 505.525 1248.88L505.635 1248.91L505.655 1248.8C505.769 1247.99 505.759 1247.15 505.865 1246.34C505.945 1245.83 506.108 1245.33 506.305 1244.86C506.874 1243.61 507.661 1242.44 508.409 1241.28C509.153 1240.11 510.034 1239.04 511.053 1238.1C512.083 1237.17 513.142 1236.26 514.226 1235.39C515.311 1234.52 516.427 1233.7 517.607 1232.96C519.462 1231.76 521.082 1230.52 521.608 1228.25C521.785 1227.64 521.782 1226.79 521.825 1226.16C521.823 1224.64 522.369 1223.55 523.45 1222.49L523.382 1222.42C522.959 1222.86 522.603 1223.36 522.399 1223.93C521.703 1226 522.966 1228.07 522.784 1230.14C522.44 1232.81 520.673 1235.06 518.977 1237.06C517.408 1238.81 515.625 1240.51 513.83 1242.05C512.916 1242.82 511.979 1243.57 511.03 1244.3C510.548 1244.65 510.042 1244.97 509.509 1245.24Z" fill="#D68876"/>
<path d="M505.595 1248.9C506.37 1247.15 507.36 1245.5 508.627 1244.06C509.265 1243.35 509.955 1242.68 510.658 1242.03C513.262 1239.65 516.066 1237.49 518.513 1234.94C519.395 1234 520.311 1233.04 520.877 1231.87C521.458 1230.71 521.829 1229.45 522.049 1228.18C522.204 1227.23 522.272 1226.26 522.24 1225.3C522.229 1224.98 522.206 1224.65 522.163 1224.34L522.134 1224.34C522.197 1225.61 522.067 1226.89 521.826 1228.14C521.638 1229.07 521.368 1229.99 520.999 1230.87C520.644 1231.75 520.177 1232.57 519.57 1233.31C517.518 1235.76 515.19 1237.98 512.758 1240.05C511.286 1241.28 509.703 1242.43 508.434 1243.89C507.586 1244.86 506.879 1245.96 506.311 1247.11C506.027 1247.69 505.779 1248.29 505.57 1248.89L505.597 1248.9L505.595 1248.9Z" fill="#D68876"/>
<path d="M514.569 1336.27C517.015 1336.58 519.53 1336.18 521.978 1336C523.685 1335.86 526.185 1335.57 527.879 1335.29C529.295 1335.06 530.882 1334.84 532.273 1334.51C537.389 1333.39 544.997 1331.16 547.618 1326.22C549.414 1322.64 549.832 1318.21 554.51 1317.31L554.491 1317.21C553.362 1317.46 552.225 1317.77 551.24 1318.4C549.228 1319.58 548.274 1321.97 546.573 1323.49C544.887 1325.05 542.661 1325.95 540.375 1326.09C539.232 1326.19 538.083 1326.21 536.935 1326.19C534.628 1326.13 532.314 1326.25 530.017 1326.45C525.436 1326.91 520.73 1327.36 516.515 1329.37C515.456 1329.83 514.407 1330.32 513.371 1330.83C511.305 1331.84 509.176 1333.01 507.836 1334.96C507.054 1336 506.355 1337.11 505.448 1338.06L505.855 1337.78C507.441 1336.73 509.197 1335.64 511.154 1335.62C511.541 1335.62 511.919 1335.69 512.29 1335.81C513.035 1336.02 513.798 1336.18 514.569 1336.27L514.569 1336.27ZM514.571 1336.24C513.802 1336.15 513.042 1335.99 512.3 1335.77C512.023 1335.68 511.736 1335.61 511.445 1335.59C509.403 1335.45 507.455 1336.62 505.788 1337.69L505.862 1337.78L505.987 1337.64C507.087 1336.4 507.887 1334.91 509.113 1333.79C510.38 1332.6 511.935 1331.83 513.484 1331.08C514.52 1330.57 515.573 1330.1 516.628 1329.64C518.726 1328.69 520.922 1327.99 523.19 1327.63C525.462 1327.27 527.75 1326.97 530.038 1326.75C532.33 1326.54 534.626 1326.41 536.927 1326.46C538.082 1326.48 539.24 1326.44 540.393 1326.33C542.714 1326.17 544.99 1325.23 546.689 1323.62C548.377 1322.1 549.305 1319.7 551.296 1318.5C552.261 1317.87 553.39 1317.56 554.506 1317.31L554.487 1317.22C549.033 1318.33 549.399 1323.77 546.675 1327.39C543.323 1331.38 537.137 1333.13 532.221 1334.29C530.831 1334.62 529.264 1334.87 527.849 1335.12C526.162 1335.43 523.672 1335.75 521.967 1335.93C519.526 1336.14 517.015 1336.53 514.57 1336.24L514.571 1336.24Z" fill="#D68876"/>
<path d="M505.831 1337.74C508.465 1335.97 511.347 1334.53 514.407 1333.69C515.931 1333.28 517.506 1332.99 519.066 1332.75C524.826 1331.9 530.668 1331.36 536.349 1330.03C537.9 1329.66 539.461 1329.27 540.938 1328.65C541.668 1328.36 542.39 1327.91 543.06 1327.5C544.631 1326.5 546.069 1325.26 547.346 1323.9C548.789 1322.34 550.079 1320.61 551.049 1318.72L551.023 1318.7C549.98 1320.55 548.642 1322.22 547.181 1323.75C545.712 1325.25 544.045 1326.61 542.222 1327.66C540.406 1328.74 538.318 1329.24 536.286 1329.76C534.23 1330.27 532.149 1330.67 530.066 1331.06C525.894 1331.88 521.661 1332.16 517.461 1332.77C516.427 1332.94 515.349 1333.17 514.34 1333.45C512.292 1334.03 510.315 1334.88 508.475 1335.95C507.554 1336.49 506.665 1337.08 505.814 1337.71L505.83 1337.74L505.831 1337.74Z" fill="#D68876"/>
<path d="M495.44 1358.17C495.958 1356.55 496.545 1354.8 497.151 1353.22C498.406 1349.96 499.892 1346.79 501.718 1343.81C503.535 1340.81 505.657 1338.02 507.529 1335.05C514.385 1324.21 516.245 1309.52 515.335 1296.94C515.035 1293.03 514.461 1289.12 513.672 1285.27C511.318 1272.88 506.205 1261.03 505.398 1248.36C504.97 1241.44 506.275 1234.43 509.254 1228.14C510.16 1226.17 511.22 1224.23 512.255 1222.32C516.212 1215.17 520.611 1207.79 524.796 1200.75C520.921 1206.39 517.283 1212.64 513.688 1218.61C513.06 1219.69 512.338 1220.93 511.717 1222.03C506.688 1230.54 503.996 1238.43 504.642 1248.41C505.619 1262.46 511.863 1275.38 514.136 1289.18C516.004 1299.47 515.587 1310.17 512.919 1320.3C511.653 1325.37 509.79 1330.29 507.004 1334.73C505.166 1337.71 503.06 1340.53 501.306 1343.56C498.624 1348.11 496.737 1353.09 495.368 1358.16L495.438 1358.18L495.44 1358.17Z" fill="#D68876"/>
<path d="M416.654 147.601C419.395 158.974 415.766 169.186 409.672 172.239C408.013 173.07 404.115 174.4 399.464 173.884C399.053 173.839 395.728 173.436 394.054 172.347C389.478 169.374 390.372 156.832 396.818 141.965C388.957 145.818 382.274 147.109 377.693 147.571C374.151 147.927 368.946 148.4 367.734 146.04C366.911 144.439 368.283 142.223 369.267 140.632C372.952 134.677 377.733 134.7 380.827 129.631C381.664 128.259 382.714 125.966 382.871 122.42C377.979 120.243 373.846 119.376 370.849 119.004C367.612 118.602 365.16 118.707 364.237 117.126C363.07 115.129 365.104 111.754 366.11 110.516C372.263 102.947 392.974 110.111 396.408 111.332C394.643 109.471 392.011 106.116 390.807 101.3C390.352 99.4813 389.545 96.0735 390.787 92.2043C391.345 90.466 392.16 87.9258 394.124 87.3087C395.664 86.8236 397.602 87.7769 401.859 92.1032C404.564 94.8528 408.213 98.9798 411.928 104.703C413.53 100.774 416.473 95.1077 421.936 90.0153C423.002 89.0227 431.603 81.1184 434.881 83.3042C435.849 83.9486 436.574 85.6196 435.162 93.7733C434.235 99.1199 432.542 106.369 429.201 114.807C436.152 110.388 442.424 108.433 446.865 107.488C450.276 106.761 458.12 105.09 459.738 107.898C461.384 110.754 454.773 115.074 456.333 119.917C457.639 123.973 463.111 123.536 464.418 128.058C465.221 130.834 464.034 134.032 462.204 135.869C460.093 137.988 457.308 138.114 450.538 138.074C445.865 138.046 440.448 137.946 434.403 137.709C437.817 141.275 443.029 147.93 443.369 156.489C443.465 158.916 443.631 163.041 440.985 164.903C438.693 166.516 435.293 165.723 433.26 164.656C429.09 162.467 429.878 158.097 426.026 153.51C424.396 151.569 421.618 149.177 416.658 147.602L416.654 147.601Z" fill="#BF7862"/>
<path d="M424.344 128.658C421.912 135.119 413.663 139.527 406.707 137.673C401.513 136.287 396.74 131.326 397.511 128.048C397.638 127.51 397.632 124.689 401.07 122.099C404.717 119.35 406.157 118.212 408.043 117.411C412.586 115.482 421.323 116.459 424.184 120.55C426.27 123.534 424.657 127.821 424.341 128.658L424.344 128.658Z" fill="#F0A695"/>
<path d="M396.005 435.703C397.572 426.895 403.378 420.677 408.732 420.208C410.19 420.08 413.421 420.221 416.619 421.877C416.901 422.023 419.178 423.231 420.048 424.466C422.426 427.839 417.869 436.465 408.576 445.195C415.456 444.65 420.686 445.591 424.14 446.536C426.809 447.267 430.716 448.377 430.856 450.383C430.951 451.744 429.269 452.931 428.062 453.784C423.543 456.974 420.097 455.632 416.281 458.359C415.248 459.098 413.774 460.428 412.555 462.894C415.41 465.792 418.125 467.552 420.174 468.647C422.387 469.83 424.191 470.436 424.365 471.811C424.585 473.547 422.063 475.372 420.95 475.968C414.145 479.616 401.418 468.8 399.319 466.983C400.014 468.789 400.868 471.893 400.236 475.635C399.998 477.048 399.518 479.683 397.414 482.076C396.469 483.151 395.088 484.722 393.477 484.614C392.214 484.53 391.111 483.318 389.385 479.075C388.288 476.379 386.939 472.446 386.041 467.366C383.658 469.701 379.765 472.894 374.231 474.981C373.152 475.387 364.474 478.593 362.788 476.137C362.29 475.412 362.287 474.029 365.849 468.652C368.186 465.126 371.67 460.467 376.715 455.424C370.315 456.621 365.175 456.264 361.673 455.701C358.982 455.268 352.795 454.274 352.502 451.838C352.204 449.36 358.326 448.138 358.71 444.279C359.031 441.047 354.943 439.837 355.408 436.275C355.694 434.088 357.549 432.155 359.444 431.363C361.629 430.449 363.68 431.133 368.558 433.04C371.925 434.357 375.807 435.931 380.1 437.776C378.745 434.305 377.056 428.151 379.479 422C380.167 420.257 381.334 417.292 383.826 416.709C385.984 416.203 388.193 417.708 389.329 419.027C391.658 421.733 389.726 424.606 391.078 428.921C391.651 430.747 392.911 433.21 396.002 435.701L396.005 435.703Z" fill="#BF7862"/>
<path d="M384.552 447.011C388.316 443.122 395.634 442.293 400.071 445.528C403.384 447.945 405.28 452.77 403.704 454.871C403.445 455.216 402.571 457.209 399.287 458.086C395.802 459.017 394.41 459.422 392.801 459.466C388.926 459.57 382.932 456.461 382.143 452.78C381.568 450.096 384.065 447.515 384.554 447.011L384.552 447.011Z" fill="#F0A695"/>
<path d="M346.35 813.686C359.711 819.211 367.292 830.259 365.928 838.57C365.557 840.832 364.061 845.696 360.174 849.971C359.831 850.348 357.017 853.38 354.716 854.263C348.426 856.676 336.531 846.669 326.337 829.422C324.492 840.081 320.939 847.7 318.08 852.616C315.869 856.416 312.57 861.962 309.331 861.459C307.134 861.119 305.912 858.137 305.034 855.997C301.75 847.987 305.238 843.223 302.412 836.447C301.647 834.613 300.115 831.897 296.682 829.163C290.959 832.473 287.097 835.975 284.553 838.701C281.804 841.644 280.132 844.171 277.882 843.946C275.04 843.661 273.138 839.175 272.63 837.27C269.52 825.619 291.696 810.119 295.406 807.574C292.266 807.986 287.003 808.179 281.315 805.884C279.166 805.017 275.173 803.347 272.204 799.294C270.87 797.474 268.921 794.813 269.727 792.401C270.358 790.509 272.716 789.265 280.128 788.152C284.839 787.446 291.611 786.796 300.027 787.241C297.259 782.784 293.726 775.725 292.593 766.563C292.373 764.777 290.703 750.435 295.265 748.746C296.61 748.247 298.807 748.735 305.937 756.072C310.612 760.883 316.634 767.843 322.65 777.315C323.271 767.154 325.862 759.464 328.134 754.338C329.881 750.399 333.895 741.343 337.876 741.766C341.925 742.196 341.453 751.944 347.426 753.903C352.429 755.545 355.959 749.757 361.427 751.736C364.786 752.951 367.124 756.46 367.635 759.625C368.223 763.275 366.331 766.151 361.383 772.89C357.969 777.541 353.941 782.884 349.323 788.756C355.364 787.934 365.797 787.558 374.603 793.438C377.099 795.105 381.344 797.937 381.288 801.935C381.241 805.398 377.982 808.221 375.442 809.479C370.231 812.056 366.432 808.093 359.053 808.611C355.93 808.831 351.524 809.87 346.354 813.683L346.35 813.686Z" fill="#BF7862"/>
<path d="M332.981 792.237C337.679 799.363 336.108 810.811 329.213 816.417C324.062 820.602 315.64 821.769 312.922 818.617C312.476 818.099 309.651 816.055 309.553 810.736C309.448 805.094 309.353 802.827 309.918 800.361C311.283 794.418 318.591 786.394 324.757 786.506C329.252 786.589 332.37 791.316 332.979 792.24L332.981 792.237Z" fill="#F0A695"/>
<defs>
<clipPath id="clip0_643_622">
<rect width="174" height="1294" fill="white" transform="translate(258 7.07309) rotate(-2.32971)"/>
</clipPath>
<clipPath id="clip1_643_622">
<rect width="260.111" height="282.885" fill="white" transform="matrix(-0.911288 -0.417278 -0.411857 0.90933 796.4 1108.68)"/>
</clipPath>
</defs>
</svg>
