<svg width="431" height="389" viewBox="0 0 431 389" fill="none" xmlns="http://www.w3.org/2000/svg">
<path d="M215.021 320.248C211.583 305.728 208.602 295.185 211.993 282.584C213.309 277.689 215.871 271.399 217.291 260.556C217.718 257.291 217.779 255.621 218.401 244.956C219.726 222.249 219.913 221.293 220.954 220.735C226.038 218.013 235.439 227.15 270.714 260.254C279.934 268.905 287.268 275.766 291.128 279.375C291.552 273.959 291.697 265.876 289.852 256.429C284.947 231.291 272.108 227.927 271.741 212.198C271.255 191.353 293.6 188.535 293.673 164.595C293.709 152.796 288.29 149.881 288.576 131.499C288.697 123.749 288.854 115.514 293.681 107.278C298.283 99.4225 303.14 98.1938 310.268 90.7048C315.147 85.5806 321.316 77.2839 325.58 63.9335C332.892 74.2585 339.76 81.8381 344.718 86.8798C354.888 97.2229 360.644 100.577 367.684 111.101C372.397 118.149 376.016 123.559 376.615 131.497C377.318 140.837 373.615 151.43 366.408 158.269C359.858 164.483 355.193 163.042 348.881 170.638C348.01 171.688 343.831 176.852 342.075 184.238C339.228 196.221 344.447 206.943 345.994 210.534C350.735 221.548 353.122 240.321 342.165 274.275C350.951 259.771 356.545 247.29 360.027 238.581C367.696 219.403 368.329 210.5 376.615 200.336C385.685 189.21 397.912 183.942 407.236 181.215C410.822 184.12 428.093 198.721 430.202 223.283C430.585 227.748 431.796 241.852 423.823 255.152C415.324 269.33 405.83 266.841 393.202 283.198C385.449 293.239 381.903 303.401 379.167 311.245C372.514 330.312 374.671 339.243 366.408 348.214C360.335 354.807 352.417 357.315 347.27 358.412C342.502 360.332 333.081 363.373 321.114 362.237C311.579 361.333 304.319 358.145 300.061 355.864C295.412 358.852 290.762 361.841 286.113 364.828C282.546 367.801 274.769 373.384 264.181 373.896C243.997 374.871 230.524 356.594 227.125 351.983C220.365 342.814 218.365 334.366 215.025 320.248H215.021Z" fill="#999A8D"/>
<path d="M344.539 315.904C313.823 294.647 263.967 293 221.537 291.598C178.296 290.168 123.915 288.372 91.3948 308.813C87.92 310.998 65.4033 325.574 70.0463 343.438C77.0665 370.451 140.745 384.046 175.27 387.66C195.102 389.737 210.026 389.011 237.794 387.66C278.187 385.698 304.597 384.413 327.766 374.31C327.766 374.31 331.746 372.576 367.414 349.091C366.075 340.864 361.532 327.664 344.539 315.904Z" fill="#E5E2E1"/>
<path d="M146.102 246.598C142.903 240.176 139.35 233.976 134.784 228.448C131.381 224.274 127.479 220.524 124.142 216.268C122.447 214.177 120.904 211.811 119.496 209.517C118.161 207.154 116.931 204.675 115.847 202.195C114.965 199.996 114.021 197.682 113.322 195.406C112.983 194.347 112.516 193.004 112.226 191.958C112.02 191.22 111.22 188.236 111.043 187.597C107.734 173.863 107.354 159.528 108.695 145.506C110.125 127.253 115.436 108.767 111.384 90.545C111.149 89.2933 110.821 88.3124 110.499 87.1404C110.114 85.6482 109.46 84.0062 108.972 82.5517C106.748 76.9535 103.541 71.7049 99.9776 66.8539C95.7976 61.024 91.4669 55.3058 87.1178 49.5988L78.3989 38.1718L78.5647 38.0497C85.6754 46.1412 92.6196 54.4147 99.2626 62.9112C104.516 69.5492 109.456 76.6172 112.073 84.7714C118.721 104.695 112.154 125.601 109.692 145.618C108.025 158.004 108.127 170.784 111.121 182.958C111.55 184.524 112.027 186.583 112.525 188.126L113.597 191.531C113.925 192.589 114.449 193.845 114.812 194.885C115.125 195.753 115.724 197.341 116.11 198.203C118.726 204.82 122.136 211.085 126.625 216.588C131.188 222.106 136.299 227.352 139.959 233.574C142.468 237.7 144.499 242.076 146.292 246.52L146.102 246.601L146.102 246.598Z" fill="#999A8D"/>
<path d="M113.611 111.454C116.177 111.536 127.714 111.635 136.887 103.008C145.716 94.7054 148.917 81.5592 145.254 69.1224C141.304 52.8254 137.357 36.5277 133.406 20.2274C133.406 20.2274 133.603 70.3481 130.298 78.488C129.327 83.0205 127.63 88.8188 124.546 95.1285C121.043 102.3 116.931 107.711 113.608 111.458L113.611 111.454Z" fill="#999A8D"/>
<path d="M108.349 148.574C106.919 150.707 100.257 160.122 87.8893 162.519C75.9907 164.828 63.4499 159.745 55.4933 149.506C44.5718 136.778 33.6504 124.05 22.729 111.321C22.729 111.321 63.2982 140.771 71.835 142.848C76.0824 144.709 81.7784 146.719 88.7022 147.906C96.5707 149.256 103.365 149.082 108.349 148.574Z" fill="#999A8D"/>
<path d="M109.567 177.383C108.448 179.695 103.186 189.957 91.2822 194.075C79.6825 198.088 69.2228 192.22 57.3725 185.759C41.9 177.324 29.4513 164.161 26.7266 154.322C26.3973 153.134 23.809 143.338 23.8082 143.335C23.7825 143.33 30.7026 160.494 42.8006 164.401C42.8271 164.409 43.8347 164.662 45.8473 165.173C56.5606 167.878 57.7949 168.122 59.9153 168.689C66.7205 170.501 67.0747 169.767 82.0221 176.865C84.2384 177.917 86.9201 178.895 90.0256 179.492C99.1979 181.252 106.576 178.639 109.57 177.379L109.567 177.383Z" fill="#999A8D"/>
<path d="M110.735 81.9336C110.735 81.9336 86.3094 57.7947 74.0361 42.7527C70.0007 37.8081 67.1352 32.0178 65.646 25.8097L72.2706 29.168C72.2706 29.168 123.005 54.5493 110.735 81.9302L110.735 81.9336Z" fill="#999A8D"/>
<path d="M113.644 118.491C111.587 121.29 102.164 133.611 88.7444 135.434C75.6696 137.211 67.8023 125.862 58.8137 113.262C47.0759 96.8108 40.2701 74.876 41.6572 60.5761C41.8251 58.8497 43.3307 44.6531 43.3299 44.6497C43.3094 44.6368 43.0182 70.2674 53.3064 79.4601C53.3285 79.4797 54.2162 80.1506 55.9867 81.4866C65.4091 88.5999 66.5245 89.3282 68.3766 90.7758C74.3218 95.4208 74.9757 94.5338 86.7474 108.993C88.4934 111.137 90.7247 113.325 93.538 115.131C101.838 120.459 110.178 119.25 113.644 118.491Z" fill="#999A8D"/>
<path d="M123.598 151.742C125.53 150.765 126.975 149.797 128.034 149.082C129.356 148.191 130.213 147.473 133.415 144.956C135.457 143.35 137.479 141.713 139.473 140.047C141.644 138.232 143.789 136.38 145.893 134.486C148.091 132.506 150.25 130.483 152.358 128.404C154.483 126.308 156.55 124.157 158.544 121.936C160.491 119.767 162.37 117.533 164.138 115.211C165.814 113.013 167.395 110.737 168.817 108.367C170.133 106.176 171.313 103.904 172.268 101.534C173.135 99.3821 173.812 97.1425 174.171 94.8452C174.171 94.8452 174.306 93.9353 174.382 93.014C174.904 86.5819 170.476 77.8432 172.043 70.773C172.44 68.9875 173.414 66.4239 176.126 63.6278C176.126 63.6278 174.901 64.8519 173.53 66.5946C171.367 69.3435 170.139 72.7137 169.974 76.2053C169.903 77.6917 169.812 79.5554 169.701 81.7017C169.367 88.0173 166.491 93.953 161.679 98.059C159.524 99.8985 156.775 101.961 153.285 104.181C144.527 109.755 135.064 117.99 129.277 123.306C125.57 126.711 122.321 130.571 119.584 134.794C117.562 137.916 115.593 141.074 113.766 144.313C112.815 145.999 111.864 147.734 111.085 149.526C110.293 151.341 109.753 153.194 109.365 155.132C108.932 157.302 109.021 163.712 108.606 165.885C108.591 165.959 108.621 165.811 108.606 165.885C111.975 157.593 115.356 154.874 117.92 154C118.688 153.738 120.818 153.153 123.602 151.744L123.598 151.742Z" fill="#999A8D"/>
<path d="M111.829 188.657C113.34 189.563 120.226 193.467 128.61 191.351C136.778 189.287 140.568 181.98 144.937 173.813C150.64 163.149 152.825 150.909 150.684 144.233C150.424 143.426 148.22 136.832 148.22 136.832C148.231 136.819 150.726 149.274 145.254 156.069C145.244 156.086 144.761 156.61 143.795 157.66C138.669 163.247 138.053 163.851 137.048 164.973C133.825 168.574 133.345 168.289 127.444 177.989C126.567 179.429 125.399 180.996 123.839 182.51C119.238 186.973 114.021 188.251 111.829 188.657Z" fill="#999A8D"/>
<path d="M106.948 95.7794C106.219 95.5331 105.662 95.2621 105.252 95.0667C104.742 94.8201 104.402 94.6088 103.15 93.8833C102.348 93.4215 101.554 92.9473 100.768 92.4575C99.9117 91.927 99.0637 91.3843 98.2252 90.8218C97.3498 90.236 96.4881 89.633 95.6419 89.0054C94.7875 88.3726 93.9502 87.7219 93.1369 87.0376C92.3415 86.3703 91.5692 85.6803 90.8301 84.951C90.1285 84.2624 89.4576 83.5388 88.8375 82.7755C88.266 82.0715 87.7354 81.3301 87.2783 80.5404C86.8661 79.8249 86.5122 79.0715 86.2724 78.2782C86.2724 78.2782 86.1802 77.965 86.1074 77.6439C85.5997 75.4059 86.7223 72.1016 85.8129 69.691C85.5832 69.0818 85.1117 68.2285 84.0148 67.3799C84.0148 67.3799 84.507 67.7502 85.0777 68.296C85.9763 69.1544 86.58 70.2802 86.8153 71.5037C86.9155 72.0226 87.0393 72.6769 87.1884 73.4275C87.6227 75.6364 88.9327 77.5798 90.8352 78.7838C91.6858 79.3224 92.7585 79.9092 94.0997 80.516C97.4645 82.039 101.213 84.4633 103.518 86.0439C104.993 87.0564 106.335 88.254 107.51 89.6019C108.38 90.6004 109.233 91.6134 110.037 92.662C110.457 93.2071 110.88 93.7722 111.243 94.3618C111.614 94.9599 111.897 95.5852 112.129 96.2502C112.392 96.9924 112.68 99.2556 112.937 99.9993C112.931 99.9725 112.943 100.026 112.937 99.9993C111.334 97.2465 110.005 96.461 109.06 96.2815C108.777 96.2296 107.998 96.1285 106.946 95.7727L106.948 95.7794Z" fill="#999A8D"/>
<path d="M116.478 220.114C115.245 220.436 114.23 220.571 113.486 220.67C112.556 220.793 111.898 220.808 109.505 220.947C107.976 221.033 106.45 221.101 104.919 221.143C103.254 221.19 101.586 221.206 99.9189 221.194C98.1768 221.177 96.4371 221.125 94.6984 221.031C92.9448 220.933 91.1954 220.791 89.4499 220.589C87.7442 220.392 86.0465 220.137 84.3629 219.805C82.7673 219.488 81.184 219.102 79.6297 218.61C78.1969 218.158 76.7894 217.615 75.4438 216.943C74.221 216.33 73.0505 215.608 71.9975 214.735C71.9975 214.735 71.5847 214.389 71.1926 214.01C68.4557 211.377 67.0001 205.798 63.5536 203.295C62.6817 202.662 61.2554 201.913 58.9666 201.736C58.9666 201.736 59.9834 201.797 61.2686 202.033C63.2951 202.404 65.1487 203.408 66.5848 204.883C67.1954 205.511 67.9615 206.298 68.8483 207.197C71.4564 209.852 75.0367 211.348 78.7595 211.284C80.4277 211.254 82.4426 211.092 84.8445 210.713C90.8772 209.756 98.2621 209.702 102.885 209.789C105.847 209.845 108.785 210.28 111.636 211.075C113.744 211.663 115.846 212.287 117.912 213.004C118.989 213.375 120.085 213.77 121.124 214.255C122.182 214.747 123.139 215.353 124.066 216.057C125.104 216.845 127.562 219.707 128.594 220.503C128.559 220.476 128.628 220.53 128.594 220.503C123.875 218.162 121.326 218.279 119.857 218.894C119.417 219.078 118.248 219.649 116.473 220.112L116.478 220.114Z" fill="#999A8D"/>
<g clip-path="url(#clip0_157_1261)">
<path d="M100.478 231.129L197.824 147.998C201.094 145.201 205.885 145.141 209.241 147.84L306.453 226.157L100.478 231.129Z" fill="#D68876"/>
<path d="M276.87 175.789H130.961C125.649 175.789 121.343 180.095 121.343 185.406V306.796C121.343 312.107 125.649 316.412 130.961 316.412H276.87C282.182 316.412 286.488 312.107 286.488 306.796V185.406C286.488 180.095 282.182 175.789 276.87 175.789Z" fill="#F7D38B"/>
</g>
<path d="M328.523 22.9404C328.523 22.9404 298.588 38.7195 302.553 64.9354C302.553 64.9354 308.304 97.8077 307.042 103.026C307.042 103.026 310.051 117.348 277.062 135.922C277.062 135.922 239.001 156.224 254.618 176.235C254.618 176.235 258.392 181.889 262.575 188.5C269.203 198.978 273.808 210.604 276.138 222.778L276.65 225.457C276.65 225.457 298.833 210.958 305.525 209.646C305.525 209.646 315.957 206.387 316.18 195.43C316.18 195.43 311.628 175.253 329.503 165.882C329.503 165.882 363.145 150.703 345.423 128.818C345.423 128.818 337.265 118.474 342.164 109.244C342.164 109.244 358.168 81.6657 356.122 74.7201C356.122 74.7201 358.428 58.158 334.778 42.1249C334.778 42.1249 326.304 36.1443 326.993 27.2826C327.275 23.6453 328.521 22.9375 328.521 22.9375L328.523 22.9404Z" fill="#BF7862"/>
<path d="M277.663 222.689C283.288 217.921 289.313 213.035 296.713 211.491C299.627 210.837 302.624 210.736 305.587 210.489C310.034 210.154 314.402 209.243 318.717 208.135C321.503 207.386 324.576 206.757 326.742 204.754C328.336 203.234 329.175 201.121 329.262 198.942C329.388 195.236 328.894 191.511 329.208 187.795C329.927 178.207 332.839 168.039 340.307 161.504C340.891 161.061 341.496 160.53 342.125 160.142C344.594 158.425 347.481 157.451 350.125 156.113C351.918 155.209 353.573 154.047 355.026 152.675C355.606 152.069 356.352 151.318 356.858 150.646C360.559 146.181 363.115 140.494 362.869 134.622C362.746 131.683 361.364 129.022 360.22 126.346C358.408 122.281 356.869 118.028 355.425 113.816C353.997 109.553 352.471 105.249 352.205 100.716C352.085 97.6449 352.647 94.5188 354.208 91.8143C354.99 90.494 356.111 89.44 357.076 88.2945C358.96 86.0981 360.273 83.4476 361.43 80.7491C364.076 74.3306 365.56 66.6722 362.517 60.1641C361.758 58.7473 360.727 57.4956 359.6 56.3021C355.482 52.1086 350.787 48.3513 346.264 44.5863C343.959 42.7209 341.611 40.9148 339.216 39.1623C336.809 37.3797 334.309 35.6917 332.171 33.5527C325.736 27.0334 322.66 17.9447 321.805 8.98618L322.875 9.36556C317.037 15.339 311.423 21.6086 306.995 28.6989C303.516 34.4045 300.266 41.204 301.611 48.0236C302.147 50.7311 303.744 53.1442 304.623 55.7645C306.039 59.8166 306.466 64.1393 306.326 68.4059C306.06 74.7634 304.334 81.3995 300.139 86.3371C298.635 87.882 296.835 89.0706 295.104 90.3036C285.976 96.751 276.333 102.555 267.736 109.7C265.647 111.527 263.779 113.562 262.137 115.803C260.501 118.025 258.813 120.268 257.726 122.8C253.888 131.608 263.926 137.34 270.404 140.945C272.844 142.356 275.438 143.3 277.981 144.544C280.601 145.806 282.504 148.169 283.8 150.714C285.832 154.632 285.977 159.388 283.131 162.949C280.946 165.756 278.085 167.864 275.371 170.107C273.748 171.411 271.982 172.671 270.241 173.808C267.922 175.338 265.414 176.665 264.661 179.571C263.684 182.857 264.441 186.591 266.18 189.496C267.361 191.22 269.147 192.423 270.556 193.965C275.618 199.206 280.077 204.455 279.856 212.183C279.831 213.587 279.676 214.986 279.407 216.364L278.435 220.453C278.435 220.453 277.663 222.689 277.663 222.691C277.663 222.691 278.411 220.441 278.408 220.446L279.335 216.35C280.782 208.747 278.368 202.763 273.198 197.248C271.34 195.139 269.373 193.181 267.273 191.31C265.147 189.377 264.194 186.475 263.864 183.683C263.645 181.394 264.02 178.92 265.398 177.019C266.152 176.012 267.182 175.249 268.205 174.551C271.126 172.64 273.984 170.613 276.628 168.334C280.921 164.683 285.576 161.19 284.476 154.896C283.892 151.656 281.975 148.308 279.368 146.274C277.699 145.028 275.717 144.377 273.814 143.511C272.525 142.943 271.252 142.32 270.017 141.636C260.644 136.519 251.012 130.106 258.93 118.693C260.512 116.335 262.145 114.05 264.037 111.933C266.898 108.8 270.315 106.22 273.718 103.737C280.544 98.8117 287.564 94.1984 294.459 89.3919C296.14 88.1864 297.877 87.0386 299.309 85.5635C305.632 77.9798 306.554 65.2971 303.479 56.168C302.797 54.1779 301.757 52.3566 301.017 50.3751C299.229 45.5803 300.202 40.2081 302.048 35.6061C302.971 33.2976 304.123 31.0922 305.386 28.9558C310.171 21.0188 316.445 14.1021 322.912 7.53004C323.708 18.0531 327.539 29.1206 336.359 35.5266C342.378 39.8927 348.276 44.4813 353.871 49.3876C357.214 52.3658 360.883 55.2081 363.288 59.0993C366.932 65.8423 365.309 74.4587 362.488 81.2029C361.298 83.9777 359.917 86.719 357.932 89.0317C356.989 90.1551 355.904 91.1564 355.16 92.4013C353.733 94.8473 353.185 97.8381 353.295 100.67C353.441 103.585 354.198 106.463 355.047 109.252C356.324 113.299 357.896 117.884 359.432 121.845C360.496 124.636 361.79 127.285 362.855 130.094C365.838 137.975 361.558 147.201 356.006 152.887C354.431 154.515 352.504 155.841 350.493 156.853C349.144 157.531 347.759 158.092 346.417 158.705C344.392 159.595 342.493 160.688 340.8 162.096C333.46 168.463 330.585 178.446 329.829 187.842C329.59 190.804 329.752 193.756 329.835 196.727C329.86 198.226 329.834 199.77 329.425 201.227C329.106 202.431 328.465 203.538 327.67 204.486C325.451 207.036 321.933 207.723 318.813 208.533C315.917 209.231 313.008 209.904 310.055 210.31C307.109 210.753 304.124 210.871 301.159 211.1C291.574 211.659 284.745 216.759 277.66 222.688L277.663 222.689Z" fill="#603121"/>
<path d="M264.712 252.806C280.992 215.688 296.1 177.863 306.654 138.682C310.291 124.483 313.869 109.983 313.654 95.2418C313.628 93.6405 313.486 92.0282 313.29 90.4377C313.214 89.7072 313.01 88.7624 312.9 88.0594L312.821 87.7258L312.66 87.0552C312.477 86.152 312.163 85.2888 311.893 84.4071L312.01 84.3623C312.865 86.5078 313.454 88.7756 313.779 91.067C315.035 99.7976 314.013 108.687 312.641 117.341C310.847 128.294 308.061 139.058 304.89 149.685C293.982 184.856 280.214 219.68 264.709 252.805L264.712 252.806Z" fill="#603121"/>
<path d="M296.04 175.744C300.728 167.099 307.983 159.804 316.617 155.072C319.276 153.711 322.129 152.645 325.044 152C326.834 151.567 328.666 151.343 330.49 151.226L330.508 151.351C326.969 152.243 323.526 153.316 320.252 154.794C319.068 155.323 317.756 155.939 316.618 156.544C309.762 160.005 303.897 165.245 299.216 171.309C298.117 172.749 297.065 174.239 296.153 175.803L296.042 175.745L296.04 175.744Z" fill="#603121"/>
<path d="M304.568 146.725C306.44 138.319 306.537 129.151 303.418 121.051C301.463 116.061 297.98 111.723 293.661 108.572C291.038 106.637 288.13 105.191 285.1 103.947L285.138 103.828C287.283 104.318 289.381 105.055 291.383 106.018C302.168 111.084 306.553 122.403 306.473 133.738C306.432 138.135 305.884 142.531 304.69 146.762L304.568 146.727L304.568 146.725Z" fill="#603121"/>
<path d="M311.993 118.971C313.908 112.315 316.892 105.755 321.778 100.725C323.787 98.7174 326.418 97.1842 329.265 96.7838C330.67 96.5754 332.119 96.657 333.482 97.0226L333.464 97.1471C332.099 97.1453 330.747 97.2807 329.444 97.6481C322.918 99.6007 318.434 105.633 315.407 111.444C314.129 113.874 313.024 116.405 312.112 119.003L311.991 118.969L311.993 118.971Z" fill="#603121"/>
<path d="M233.863 263.784C239.359 257.328 255.275 239.214 273.781 230.217C284.506 225.002 292.385 224.649 296.47 224.771C300.702 224.905 304.167 225.646 306.453 226.266V339.985L101.39 338.186L100.478 231.129C102.059 229.573 104.527 227.567 107.956 226.278C115.75 223.349 124.346 225.719 135.861 232.041C155.899 243.031 168.666 257.134 172.156 261.073L189.397 279.211H216.622L233.863 263.784Z" fill="#BF7862"/>
<path d="M103.056 323.792L198.955 267.783C201.739 266.154 205.18 266.166 207.964 267.796L303.778 324.12C305.687 325.239 306.854 327.293 306.854 329.506V350.343C306.854 351.267 306.696 352.179 306.392 353.054C305.565 355.413 303.693 357.249 301.322 358.039C300.203 358.416 299.036 358.598 297.857 358.598H110.594C109.342 358.598 108.09 358.489 106.862 358.27L106.643 358.233C104.722 357.893 103.007 356.835 101.84 355.267C101.256 354.489 100.94 353.541 100.94 352.556V327.488C100.94 325.968 101.743 324.558 103.056 323.792Z" fill="#D68876"/>
<path d="M71.7007 304.527C62.7027 318.069 48.8598 324.028 39.98 320.712C37.5626 319.809 32.5164 317.099 28.64 311.877C28.2979 311.416 25.561 307.65 25.0856 304.917C23.7851 297.449 37.4142 286.502 58.6678 279.009C47.3002 274.649 39.658 269.067 34.8508 264.841C31.1354 261.572 25.727 256.722 26.9848 253.257C27.8376 250.906 31.3945 250.207 33.9478 249.704C43.5042 247.826 48.007 252.714 56.102 251.072C58.293 250.627 61.6235 249.528 65.3868 246.335C62.9744 239.297 59.9457 234.271 57.488 230.869C54.8342 227.193 52.4067 224.797 53.1437 222.363C54.0745 219.288 59.4401 218.167 61.6537 218.021C75.1923 217.128 87.4957 244.982 89.5006 249.631C89.727 246.076 90.6552 240.225 94.4234 234.447C95.8472 232.265 98.5564 228.222 103.676 225.828C105.975 224.752 109.335 223.18 111.823 224.596C113.775 225.705 114.638 228.579 114.258 237.002C114.017 242.355 113.265 249.971 110.948 259.163C116.469 257.079 125.03 254.718 135.391 255.465C137.411 255.61 153.609 256.893 154.484 262.296C154.743 263.89 153.727 266.208 144.08 272.479C137.753 276.59 128.763 281.719 117 286.296C128.084 289.195 136.013 293.73 141.179 297.356C145.149 300.142 154.278 306.546 152.947 310.848C151.594 315.223 140.933 312.578 137.474 318.743C134.576 323.908 140.201 329.065 136.83 334.669C134.76 338.111 130.378 339.927 126.773 339.801C122.615 339.655 119.85 336.94 113.484 330.01C109.089 325.228 104.063 319.618 98.5816 313.242C98.1791 320.088 96.3302 331.685 87.9284 340.123C85.5462 342.514 81.4987 346.582 77.0965 345.649C73.283 344.842 70.8731 340.631 70.0355 337.553C68.3199 331.24 73.5195 327.911 74.5483 319.653C74.9835 316.158 74.7923 311.069 71.7032 304.532L71.7007 304.527Z" fill="#E2B34B"/>
<path d="M98.2848 294.447C89.3974 298.08 77.0965 293.851 72.4026 285.018C68.8984 278.421 69.4368 268.871 73.5069 266.558C74.176 266.178 77.0462 263.505 82.9401 264.556C89.1937 265.67 91.7167 266.06 94.3178 267.222C100.584 270.023 107.859 279.839 106.397 286.62C105.331 291.563 99.4344 293.974 98.2822 294.444L98.2848 294.447Z" fill="#F7D38B"/>
<path d="M252.567 31.0549C255.69 32.62 258.79 34.215 261.743 36.0878C262.605 36.7071 264.761 37.863 264.422 39.1578C264.133 39.7658 263.339 39.6195 262.85 39.4356C261.093 38.7412 260.141 37.0899 259.072 35.6675C256.085 31.3589 253.526 26.615 252.382 21.4508C251.694 18.4183 251.716 15.2395 252.601 12.2408C253.368 9.7187 254.587 7.18162 256.732 5.53402C257.782 4.71209 259.087 4.14538 260.423 4.03654C260.818 3.97274 261.367 4.00652 261.766 4.03279C261.962 4.02528 262.233 4.1116 262.428 4.14162C262.646 4.19417 262.872 4.21294 263.079 4.30301C265.852 5.15871 267.391 7.31673 268.128 10.0152C269.362 14.4288 269.058 21.7961 265.212 24.8774C264.513 25.4103 263.019 26.6713 262.244 25.658C261.661 24.2806 263.177 22.4942 264.212 21.7098C267.248 19.7694 272.681 21.9237 274.679 24.6147C278.219 29.1033 272.041 33.1829 268.17 34.3614C264.321 35.6224 259.889 35.3635 256.42 33.1792C250.934 29.4561 246.833 23.7552 244.816 17.465C243.781 14.1323 243.45 10.1841 245.523 7.16285C247.898 3.29718 252.217 4.26172 253.835 8.17618C253.861 8.23623 253.767 8.2625 253.748 8.21371C253.398 7.42557 252.872 6.71999 252.232 6.15703C248.883 3.28217 245.847 6.3034 244.906 9.73371C244.271 12.2182 244.76 14.8341 245.52 17.2511C247.416 23.3686 253.906 32.2522 260.404 33.7684C262.857 34.3689 265.472 34.1737 267.876 33.4306C270.555 32.5374 273.467 31.0362 274.675 28.3752C275.149 27.2793 274.675 26.0521 273.99 25.1326C272.467 23.1622 269.972 22.0213 267.523 21.7473C266.503 21.661 265.453 21.721 264.614 22.2765C263.809 22.8545 263.09 23.7027 262.778 24.6447C262.263 26.3936 264.355 24.9111 264.893 24.4833C268.693 21.5334 269.024 14.4288 267.854 10.1015C267.391 8.48018 266.616 6.82883 265.235 5.80799C263.406 4.37432 260.78 3.91269 258.651 4.93352C256.085 6.05569 254.527 8.63406 253.647 11.2049C251.882 16.2003 252.8 21.3607 254.741 26.1834C256.017 29.3773 257.718 32.4098 259.67 35.2584C260.743 36.6658 261.732 38.6512 263.61 38.9927C263.715 39.0077 263.839 38.9852 263.888 38.9251C264.005 37.285 254.369 32.2784 252.529 31.1413C252.476 31.115 252.522 31.0324 252.574 31.0587L252.567 31.0549Z" fill="#BF7862"/>
<path d="M276.955 61.1247C278.889 62.123 280.823 63.1251 282.656 64.2998C283.209 64.6826 283.86 65.0429 284.225 65.6547C284.288 65.7823 284.371 65.9436 284.296 66.1426C284.13 66.4766 283.679 66.379 283.404 66.2777C282.332 65.8498 281.745 64.8215 281.09 63.9433C280.462 63.05 279.886 62.123 279.356 61.1697C278.287 59.2632 277.418 57.2328 276.948 55.0973C276.252 51.9221 276.752 48.2667 278.987 45.7859C281.617 42.9561 285.801 44.3259 286.648 47.9889C287.468 51.0852 287.253 55.9117 284.145 57.6869C283.784 57.9271 283.051 58.1072 282.99 57.473C283.013 56.4784 283.792 55.5814 284.661 55.1385C287.129 54.1515 292.137 56.5459 291.196 59.5934C290.406 61.4174 288.472 62.4533 286.674 63.0688C284.574 63.7443 282.189 63.7181 280.169 62.7385C277.253 61.181 275.074 58.475 273.49 55.6302C271.82 52.4851 270.371 47.5686 273.769 45.0503C275.296 44.0557 277.185 45.3242 277.749 46.8367L277.715 46.8517C277.286 45.8759 276.417 45.0315 275.36 44.8514C274.269 44.6637 273.302 45.4406 272.783 46.3376C271.564 48.1803 271.853 50.5185 272.486 52.5264C273.498 55.5851 275.379 58.3512 277.753 60.528C280.138 62.9262 283.318 63.7443 286.561 62.6972C288.672 62.0442 292.37 59.8862 290.414 57.3566C289.056 55.5664 285.097 54.0276 283.619 56.4033C282.64 57.9984 283.604 57.9684 284.702 57.0526C285.568 56.4146 286.079 55.4238 286.407 54.4067C287.231 51.6744 287.28 47.2946 284.898 45.3242C283.137 43.9093 280.597 44.2321 279.149 45.9285C277.546 47.7337 276.937 50.2746 276.97 52.639C277.181 56.6886 279.104 60.4604 281.339 63.7781C281.978 64.6338 282.535 65.6434 283.506 66.045C284.228 66.3077 284.247 65.9436 283.818 65.452C281.786 63.6955 279.277 62.5021 276.952 61.1585L276.97 61.1247H276.955Z" fill="#603121"/>
<defs>
<clipPath id="clip0_157_1261">
<rect width="206.376" height="212.74" fill="white" transform="translate(100.478 145.858)"/>
</clipPath>
</defs>
</svg>
