<svg width="81" height="80" viewBox="0 0 81 80" fill="none" xmlns="http://www.w3.org/2000/svg">
<circle cx="40.5" cy="40" r="40" fill="#E2B24C"/>
<g clip-path="url(#clip0_157_205)">
<path d="M40.4998 65C39.2698 56.5274 38.9896 48.0235 38.9429 39.4961C38.9818 30.9687 39.262 22.4648 40.4998 13.9922C41.7376 22.4648 42.0178 30.9687 42.0567 39.4961C42.0178 48.0235 41.7298 56.5274 40.4998 65Z" fill="#F3F0E9"/>
<path d="M64.5 38.3461C57.5328 47.116 49.4523 55.5651 41.5976 63.5683L40.5 64.6949L39.4024 63.5683C31.5321 55.5573 23.4672 47.1316 16.5 38.3461C18.742 40.1063 20.8905 41.9761 23.0391 43.8302C29.2045 49.2283 35.7592 55.5417 41.5976 61.3544H39.3946C47.366 53.4528 55.7579 45.3557 64.4922 38.3383L64.5 38.3461Z" fill="#F3F0E9"/>
</g>
<defs>
<clipPath id="clip0_157_205">
<rect width="48" height="51" fill="white" transform="translate(16.5 14)"/>
</clipPath>
</defs>
</svg>
