<svg width="373" height="1324" viewBox="0 0 373 1324" fill="none" xmlns="http://www.w3.org/2000/svg">
<path d="M282.64 136C307.988 183.608 325.696 307.286 193.741 421.138C61.786 534.99 216.257 575.652 260.147 601.065C304.038 626.479 378.928 693.57 215.698 827.753C52.4679 961.936 96.9885 1092.05 139.653 1140.34C179.817 1176.93 260.147 1260.9 260.147 1304" stroke="#5F3121"/>
<path d="M162.396 1323.32C162.464 1321.18 162.505 1318.85 162.451 1316.7C162.327 1312.3 161.883 1307.9 160.94 1303.59C160.015 1299.27 158.628 1295.06 157.624 1290.74C153.936 1274.97 158.019 1256.7 164.579 1242.1C166.643 1237.56 169.037 1233.14 171.667 1228.89C179.911 1215.11 191.295 1203.12 197.769 1188.36C201.289 1180.29 202.729 1171.4 201.808 1162.67C201.551 1159.95 201.096 1157.2 200.656 1154.49C198.915 1144.32 196.729 1133.7 194.66 1123.57C196.959 1131.9 198.701 1140.86 200.513 1149.47C200.812 1151.02 201.16 1152.79 201.443 1154.36C203.908 1166.59 203.782 1177.12 198.671 1188.74C191.391 1205.07 178.163 1217.86 169.406 1233.35C162.665 1244.83 158.543 1257.75 157.419 1270.93C156.773 1277.5 156.919 1284.13 158.406 1290.58C159.365 1294.89 160.72 1299.13 161.549 1303.48C162.863 1310 163.013 1316.72 162.492 1323.33L162.398 1323.32L162.396 1323.32Z" fill="#999B8D"/>
<path d="M192.878 1198.58C200.686 1202.56 210.097 1203.63 218.358 1200.35C224.495 1197.99 229.638 1193.47 233.043 1187.98C234.743 1185.22 236.034 1182.22 236.872 1179.11C237.154 1178.07 237.34 1177 237.622 1175.96C238.65 1171.91 241.267 1161.22 242.293 1157.05C244.329 1148.64 246.31 1140.21 248.31 1131.79L248.672 1131.92C242.471 1143.97 236.124 1155.95 229.089 1167.56C227.309 1170.45 225.499 1173.34 223.446 1176.07C222.95 1176.72 222.35 1177.43 221.785 1178.04L221.145 1178.65L221.177 1178.61C213.734 1187.52 203.898 1194.54 192.878 1198.58ZM192.822 1198.58C200.962 1195.31 208.498 1190.59 214.839 1184.61C216.967 1182.62 218.944 1180.49 220.798 1178.25L221.392 1177.68C221.715 1177.32 222.189 1176.79 222.478 1176.41C224.739 1173.51 226.67 1170.39 228.589 1167.27C235.579 1155.66 241.998 1143.72 248.325 1131.75L249.073 1130.32L248.685 1131.88C244.872 1147.27 240.752 1163.71 237.239 1179.2C236.697 1181.31 235.962 1183.37 235.023 1185.34C234.07 1187.31 232.921 1189.19 231.592 1190.93C222.262 1203.1 206.255 1206 192.82 1198.58H192.822Z" fill="#999B8D"/>
<path d="M192.854 1198.55C199.594 1199.14 206.456 1197.89 212.668 1195.32C213.441 1194.96 214.625 1194.46 215.377 1194.06C217.367 1193.04 219.232 1191.79 220.912 1190.32C223.989 1187.74 226.14 1184.38 227.993 1180.88C228.948 1179.18 229.906 1177.39 230.803 1175.66C235.581 1166.46 239.973 1157.03 243.629 1147.35C245.526 1142.3 247.187 1137.06 248.467 1131.83L248.522 1131.84C247.766 1135.72 246.736 1139.54 245.55 1143.31C240.99 1157.43 234.162 1170.72 226.683 1183.55C226.175 1184.4 225.662 1185.26 225.072 1186.06C222.76 1189.31 219.77 1192.12 216.266 1194.11C210.98 1197.02 204.932 1198.62 198.883 1198.89C197.917 1198.93 196.821 1198.93 195.855 1198.89C194.848 1198.85 193.84 1198.77 192.842 1198.61L192.852 1198.55H192.854Z" fill="#999B8D"/>
<path d="M172.58 1226.91C159.188 1234.4 143.157 1231.57 133.768 1219.46C132.43 1217.72 131.27 1215.85 130.308 1213.88C129.357 1211.92 128.611 1209.86 128.06 1207.75C124.464 1192.27 120.263 1175.87 116.365 1160.49L115.97 1158.93L116.726 1160.36C123.116 1172.3 129.595 1184.2 136.648 1195.78C138.582 1198.89 140.531 1202 142.805 1204.88C143.095 1205.26 143.572 1205.79 143.899 1206.15L144.497 1206.72C146.362 1208.95 148.35 1211.07 150.489 1213.05C156.861 1219 164.421 1223.68 172.578 1226.91H172.58ZM172.524 1226.91C161.483 1222.92 151.609 1215.96 144.119 1207.08L144.151 1207.12L143.51 1206.52C142.943 1205.91 142.339 1205.2 141.837 1204.55C139.77 1201.84 137.945 1198.96 136.15 1196.08C129.054 1184.5 122.645 1172.55 116.38 1160.53L116.741 1160.4C118.784 1168.81 120.81 1177.23 122.891 1185.63C123.951 1189.87 126.609 1200.44 127.661 1204.52C127.949 1205.56 128.141 1206.63 128.426 1207.66C129.28 1210.78 130.588 1213.77 132.302 1216.51C135.736 1221.99 140.903 1226.48 147.051 1228.82C155.329 1232.05 164.737 1230.93 172.522 1226.91L172.524 1226.91Z" fill="#999B8D"/>
<path d="M172.558 1226.94C166.551 1227.81 160.357 1226.94 154.641 1225.01C154.138 1224.82 152.995 1224.39 152.517 1224.2C151.446 1223.71 150.119 1223.15 149.11 1222.56C145.595 1220.58 142.591 1217.79 140.261 1214.55C139.667 1213.75 139.148 1212.9 138.637 1212.05C131.09 1199.26 124.19 1186 119.557 1171.9C118.352 1168.14 117.301 1164.32 116.525 1160.45L116.579 1160.44C117.888 1165.67 119.576 1170.89 121.5 1175.93C125.207 1185.59 129.65 1195 134.475 1204.18C135.381 1205.9 136.349 1207.69 137.313 1209.39C139.185 1212.87 141.353 1216.23 144.445 1218.79C146.319 1220.42 148.422 1221.77 150.668 1222.84C151.418 1223.16 152.642 1223.74 153.414 1224.02C159.418 1226.46 166.184 1227.37 172.558 1226.94V1226.94Z" fill="#999B8D"/>
<path d="M161.284 1251.1C152.294 1258.08 138.481 1260.33 128.731 1253.57C124.88 1250.98 121.822 1247.46 119.047 1243.83C116.972 1241.1 115.042 1238.28 113.111 1235.46C106.501 1225.7 99.1084 1208.95 101.439 1197.15C101.894 1194.96 103.101 1189.43 103.571 1187.19L103.569 1187.27C103.873 1187.65 104.059 1187.07 103.956 1187.27C103.918 1187.63 103.898 1188.29 103.881 1188.66C103.751 1193.84 104.29 1199.1 105.952 1204.03C106.873 1206.7 108.172 1209.26 110.055 1211.4C110.369 1211.75 110.687 1212.1 111.044 1212.41C113.736 1214.71 118.207 1218.52 120.914 1220.81C122.389 1222.04 123.829 1223.33 125.299 1224.56C126.771 1225.79 128.274 1227.03 129.616 1228.42C132.3 1231.19 134.682 1234.2 137.075 1237.2C138.091 1238.49 139.578 1240.44 140.749 1241.59C146.07 1247.12 153.578 1250.44 161.286 1251.11L161.284 1251.1ZM161.229 1251.12C153.452 1250.7 145.875 1247.35 140.443 1241.87C139.253 1240.72 137.751 1238.79 136.702 1237.48C134.298 1234.51 131.894 1231.52 129.21 1228.8C127.881 1227.43 126.408 1226.22 124.925 1224.98C123.447 1223.75 122.015 1222.47 120.532 1221.24C117.497 1218.68 113.615 1215.39 110.636 1212.81C106.741 1209.08 104.958 1203.76 104.069 1198.62C103.49 1195.09 103.313 1191.5 103.51 1187.92L103.535 1187.57L103.55 1187.39L103.557 1187.3L103.561 1187.25L103.565 1187.22C103.462 1187.41 103.651 1186.82 103.96 1187.19C103.478 1189.49 102.219 1194.99 101.729 1197.21C99.2663 1209.08 106.632 1225.53 113.425 1235.25C118.596 1242.4 123.773 1250.8 131.949 1254.9C137.099 1257.43 143.151 1257.78 148.738 1256.63C153.245 1255.69 157.491 1253.73 161.231 1251.12L161.229 1251.12Z" fill="#999B8D"/>
<path d="M159.959 1252.3C152.157 1254.52 143.428 1253.98 135.866 1251.11C131.957 1249.53 128.487 1247.01 125.666 1243.94C120.608 1237.85 115.286 1231.95 110.881 1225.37C105.323 1217.1 100.753 1207.51 101.191 1197.4C101.287 1195.41 101.595 1193.42 102.114 1191.49L102.169 1191.5C97.9996 1211 114.042 1229.65 125.799 1243.82C130.069 1248.46 135.665 1251.1 141.853 1252.35C145.809 1253.19 149.896 1253.45 153.933 1253.16C155.953 1253.01 157.974 1252.75 159.942 1252.25L159.959 1252.3V1252.3Z" fill="#999B8D"/>
<path d="M203.06 1173.1C198.096 1158.62 193.346 1144.02 189.589 1129.18C189.113 1127.11 188.51 1124.85 188.222 1122.75C187.502 1117.86 187.75 1112.83 188.912 1108.02C189.906 1107.83 189.2 1107.98 189.427 1107.95L189.448 1107.98C190.433 1109.29 192.675 1112.3 193.681 1113.65C204.047 1128.15 221.134 1158.9 203.06 1173.1ZM203.06 1173.1C219.811 1159.4 205.126 1131.85 195.743 1117.57C193.889 1114.73 191.301 1111.42 189.286 1108.68L189.123 1108.46L189.04 1108.35L188.999 1108.3L188.978 1108.27C189.192 1108.22 188.47 1108.35 189.452 1108.14C187.927 1114.31 188 1120.8 189.572 1126.94C189.811 1128.01 190.326 1130.14 190.598 1131.19C194.205 1145.31 198.588 1159.22 203.058 1173.1L203.06 1173.1Z" fill="#999B8D"/>
<path d="M189.895 1204.38C182.61 1208.09 173.652 1210.44 165.443 1209.05C161.265 1208.37 157.171 1206.58 154.329 1203.43C148.726 1197.22 147.593 1188.15 146.292 1180.25C144.211 1168.06 144.552 1155.49 147.365 1143.43C148.809 1137.43 150.837 1131.47 154.235 1126.24C156.322 1123.05 160.081 1117.34 162.194 1114.12L162.164 1114.18C162.192 1114.69 162.742 1114.25 162.547 1114.36C162.35 1114.72 162.021 1115.39 161.833 1115.77C157.861 1124.19 152.79 1137.55 156.042 1146.66C156.185 1147.08 156.534 1147.7 156.728 1148.11C158.333 1151.35 160.895 1156.47 162.532 1159.69C163.526 1161.61 164.425 1163.58 165.432 1165.49C165.932 1166.45 166.428 1167.42 166.866 1168.42C167.639 1170.14 168.231 1171.99 168.763 1173.79C169.423 1176.13 170.013 1178.5 170.552 1180.86C171.062 1182.94 171.439 1185.08 172.013 1187.15C174.424 1195.82 181.072 1202.03 189.895 1204.38V1204.38ZM189.839 1204.39C180.922 1202.29 174.11 1195.9 171.616 1187.26C171.3 1186.22 171.077 1185.15 170.836 1184.11C170.12 1180.96 169.376 1177.81 168.492 1174.71C168.133 1173.44 167.722 1172.1 167.269 1170.87C166.639 1169.1 165.808 1167.41 164.93 1165.75C163.504 1162.97 161.996 1159.84 160.549 1157.05C159.598 1155.16 157.096 1150.18 156.183 1148.34L155.818 1147.61C155.433 1146.88 155.202 1146.07 154.993 1145.28C152.824 1136.06 157.404 1123.92 161.436 1115.58L161.803 1114.86L161.991 1114.49L162.087 1114.31L162.135 1114.22L162.16 1114.18L162.173 1114.15C161.983 1114.25 162.547 1113.78 162.579 1114.29V1114.31L162.549 1114.35C159.889 1118.39 155.921 1124.11 153.399 1128.14C150.617 1132.9 148.828 1138.15 147.546 1143.47C146.264 1148.8 145.561 1154.27 145.303 1159.74C144.852 1167.97 145.929 1176.16 147.409 1184.24C148.867 1192.04 150.645 1201.03 157.797 1205.77C163.703 1209.5 171.263 1209.7 177.98 1208.36C182.093 1207.55 186.051 1206.13 189.839 1204.38V1204.39Z" fill="#999B8D"/>
<path d="M187.783 1205.63C179.584 1206.8 170.727 1205.27 163.695 1200.89C158.57 1197.76 155.331 1192.31 154.108 1186.61C153.638 1184.66 152.905 1181.81 152.386 1179.84C147.83 1163.14 145.632 1144.66 152.946 1128.39C154.361 1125.18 156.122 1122.11 158.169 1119.25C151.675 1129.36 148.756 1140.27 148.775 1152.27C148.677 1163.92 151.47 1175.32 154.279 1186.57C155.372 1191.65 158.188 1196.44 162.5 1199.52C169.716 1204.65 179.119 1206.31 187.783 1205.63Z" fill="#999B8D"/>
<path d="M184.012 1235.87C187.273 1235.88 190.493 1235.33 193.669 1234.66C195.436 1234.32 198.248 1233.71 200.032 1233.32C211.576 1230.75 223.239 1227.46 233.927 1222.43C241.176 1218.92 249.894 1213.76 252.967 1206.1C256.078 1197.86 255.67 1188.61 265.799 1185.32L265.859 1185.49C263.495 1186.31 261.119 1187.25 259.183 1188.83C258.211 1189.61 257.335 1190.5 256.58 1191.48C255.805 1192.44 255.23 1193.54 254.599 1194.61C253.973 1195.69 253.358 1196.76 252.723 1197.83C251.447 1199.99 249.768 1201.91 247.826 1203.52C244.9 1205.94 241.304 1207.51 237.556 1208.22C235.077 1208.74 232.57 1209.12 230.051 1209.38C220.01 1210.35 210.159 1212.69 200.453 1215.32C196.833 1216.35 193.322 1217.74 189.989 1219.46C186.674 1221.22 183.429 1223.15 180.242 1225.12C176.55 1227.44 172.84 1229.88 170.302 1233.45C168.573 1236 167.274 1238.82 165.457 1241.32L165.295 1241.17C166.594 1240.09 167.939 1239.06 169.364 1238.14C171.665 1236.69 174.238 1235.36 177.035 1235.26C177.636 1235.24 178.345 1235.33 178.945 1235.44C180.619 1235.71 182.317 1235.86 184.016 1235.87L184.012 1235.87ZM184.012 1235.92C182.311 1235.92 180.608 1235.78 178.928 1235.52L178.298 1235.42C178.087 1235.4 177.879 1235.37 177.666 1235.36C176.398 1235.29 175.131 1235.55 173.935 1235.96C170.432 1237.2 167.49 1239.56 164.72 1241.94C166.413 1239.74 167.612 1237.23 169.02 1234.85C171.419 1230.38 175.736 1227.37 179.96 1224.7C183.149 1222.68 186.375 1220.73 189.718 1218.96C197.568 1214.84 206.398 1213.1 215.007 1211.19C219.954 1210.17 224.955 1209.32 229.995 1208.87C232.498 1208.62 234.994 1208.27 237.459 1207.77C242.4 1206.91 247.014 1204.42 250.262 1200.66C252.336 1198.33 253.672 1195.5 255.311 1192.87C257.796 1188.82 261.309 1186.78 265.801 1185.32L265.861 1185.49C263.824 1186.18 261.875 1187.19 260.322 1188.66C257.185 1191.68 256.121 1196.03 255.039 1200.07C254.221 1203.14 253.55 1206.35 251.834 1209.1C246.68 1217.08 236.867 1221.95 228.185 1225.46C219.221 1229.01 209.53 1231.51 200.071 1233.48C198.291 1233.83 195.466 1234.43 193.696 1234.76C190.512 1235.42 187.281 1235.95 184.018 1235.92L184.012 1235.92Z" fill="#999B8D"/>
<path d="M165.34 1241.22C168.687 1238.07 172.447 1235.28 176.465 1233C176.931 1232.73 177.522 1232.38 177.99 1232.15L179.548 1231.37C180.277 1230.99 181.176 1230.63 181.935 1230.29C188.617 1227.43 195.878 1226.21 202.915 1224.53C207.362 1223.49 211.963 1222.24 216.345 1220.92C222.963 1218.85 229.615 1216.8 235.94 1213.98C238.026 1213.01 240.06 1211.98 241.859 1210.57C242.601 1210.04 243.849 1209.07 244.543 1208.45C247.148 1206.25 249.512 1203.71 251.61 1201.04C254.392 1197.43 256.848 1193.54 258.647 1189.36L258.717 1189.39C258.337 1190.46 257.888 1191.52 257.395 1192.55C255.939 1195.64 254.112 1198.62 252.08 1201.38C249.659 1204.61 246.881 1207.59 243.725 1210.14C242.37 1211.19 240.919 1212.31 239.406 1213.12C236.346 1214.81 233.053 1216.04 229.773 1217.22C217.217 1221.67 204.022 1224.24 191.201 1227.83C189.029 1228.45 186.726 1229.16 184.61 1229.95C179.741 1231.7 175.119 1234.18 170.883 1237.1C169.941 1237.76 169.005 1238.43 168.09 1239.13C167.174 1239.82 166.278 1240.54 165.392 1241.28L165.342 1241.22L165.34 1241.22Z" fill="#999B8D"/>
<path d="M158.357 1261.34C160.124 1263.88 162.387 1266.13 165.035 1267.8C166.693 1268.83 168.509 1269.63 170.405 1270.12C171.533 1270.43 172.7 1270.65 173.871 1270.7C180.333 1271.01 185.852 1267.12 190.987 1263.75C192.299 1262.88 193.605 1262.01 194.857 1261.06C200.992 1256.45 208.591 1248.5 209.866 1240.81C210.095 1239.3 210.638 1235.45 210.87 1233.9L210.879 1233.84L210.898 1233.82C211.142 1233.65 211.026 1233.75 211.178 1233.77C211.287 1233.84 211.281 1233.96 211.274 1233.99C211.264 1234.04 211.268 1234.01 211.264 1234.03L211.261 1234.04L211.244 1234.1L211.208 1234.22L211.135 1234.46C210.377 1236.81 209.373 1239.07 208.125 1241.21C206.358 1244.18 204.03 1247.04 200.825 1248.6L200.596 1248.71C200.519 1248.75 200.442 1248.78 200.363 1248.81C198.802 1249.39 197.222 1249.97 195.667 1250.53C193.444 1251.33 190.35 1252.44 188.166 1253.24C186.906 1253.68 185.666 1254.11 184.476 1254.67C182.082 1255.78 179.794 1257.12 177.516 1258.45C176.525 1259.04 175.071 1259.93 174.016 1260.38C169.157 1262.6 163.451 1262.95 158.357 1261.34ZM158.312 1261.31C164.071 1262.86 170.462 1262.16 175.574 1259.09C178.405 1257.39 181.247 1255.6 184.236 1254.17C185.446 1253.6 186.722 1253.16 187.97 1252.72C190.139 1251.92 193.256 1250.78 195.461 1249.99L199.199 1248.63C199.443 1248.54 200.336 1248.23 200.571 1248.09C203.686 1246.6 205.947 1243.84 207.685 1240.96C208.997 1238.77 210.065 1236.42 210.841 1233.99L210.858 1233.93L210.862 1233.92C210.862 1233.92 210.87 1233.89 210.862 1233.92C210.856 1233.94 210.853 1234.05 210.965 1234.12C211.12 1234.12 211.007 1234.21 211.251 1234.03C211.383 1233.5 210.486 1238.73 210.529 1238.56L210.155 1240.86C209.903 1242.4 209.373 1243.9 208.702 1245.31C205.642 1251.61 200.545 1256.94 195.062 1261.31C192.555 1263.23 189.948 1265.01 187.286 1266.71C184.602 1268.39 181.76 1269.93 178.634 1270.68C170.685 1272.71 162.317 1267.97 158.314 1261.31L158.312 1261.31Z" fill="#999B8D"/>
<path d="M158.904 1262.36C164.374 1265.9 172.274 1267.9 178.747 1266.49C180.268 1266.16 181.751 1265.62 183.13 1264.9C184.205 1264.34 185.23 1263.68 186.288 1263.09C196.462 1257.08 208.898 1249.42 211.033 1237.05L211.089 1237.06C210.836 1239.8 209.931 1242.47 208.591 1244.88C203.4 1254.08 193.59 1259.26 184.577 1264.29C183.393 1264.99 182.119 1265.66 180.824 1266.13C176.193 1267.99 171.009 1267.66 166.321 1266.17C164.315 1265.54 162.379 1264.68 160.59 1263.59C159.994 1263.23 159.413 1262.84 158.87 1262.41L158.906 1262.36H158.904Z" fill="#999B8D"/>
<path d="M193.94 1182.92C192.846 1181.84 192.043 1180.53 191.211 1179.26C190.797 1178.62 190.365 1177.99 189.965 1177.35C189.252 1176.2 188.279 1174.59 187.653 1173.42C187.502 1173.13 187.241 1172.7 187.11 1172.41C186.284 1170.71 185.423 1168.98 184.846 1167.18C184.027 1164.67 183.412 1161.93 184.078 1159.31C185.059 1156.06 188.679 1153.71 186.777 1149.98L186.89 1149.93C187.085 1150.33 187.256 1150.74 187.406 1151.15C187.705 1151.99 187.796 1152.91 187.668 1153.79C187.559 1154.54 187.185 1155.6 186.995 1156.35C186.408 1158.45 186.835 1160.75 188.094 1162.54C188.576 1163.28 189.108 1163.98 189.66 1164.67C190.795 1166.04 191.822 1167.5 192.786 1168.99C193.752 1170.48 194.654 1172 195.508 1173.55C196.814 1175.9 197.444 1178.52 197.955 1181.12C198.303 1182.84 198.577 1184.68 197.992 1186.39C197.679 1187.42 197.301 1188.44 197.135 1189.5C197.03 1187.66 196.977 1185.27 195.305 1184.08C194.818 1183.73 194.361 1183.34 193.94 1182.91V1182.92ZM193.968 1182.89C194.393 1183.31 194.852 1183.7 195.34 1184.04C195.85 1184.37 196.233 1184.87 196.489 1185.41C196.994 1186.5 197.164 1187.7 197.257 1188.88L197.109 1188.88L197.132 1188.74C197.346 1187.71 197.716 1186.73 197.94 1185.71C198.058 1185.08 198.077 1184.41 198.038 1183.77C197.885 1182.04 197.429 1180.32 197.017 1178.63C196.615 1176.92 196.004 1175.28 195.164 1173.74C194.31 1172.2 193.41 1170.68 192.465 1169.19C191.515 1167.7 190.512 1166.25 189.391 1164.88C187.645 1162.69 186.207 1160.53 186.542 1157.61C186.589 1156.81 186.959 1155.8 187.177 1155.03C187.835 1153.23 187.641 1151.69 186.779 1149.98L186.891 1149.93C187.22 1150.62 187.437 1151.37 187.438 1152.14C187.397 1154.89 184.965 1156.83 184.296 1159.37C183.563 1162.69 184.747 1166.11 185.954 1169.2C187.11 1171.94 188.551 1174.71 190.079 1177.28C190.859 1178.58 191.679 1179.86 192.523 1181.13C192.957 1181.75 193.434 1182.35 193.968 1182.89Z" fill="#999B8D"/>
<path d="M197.162 1188.89C196.974 1186.47 196.479 1184.09 195.554 1181.85C195.083 1180.74 194.528 1179.66 193.951 1178.59C191.801 1174.67 189.316 1170.92 187.431 1166.87C186.762 1165.38 186.055 1163.86 185.873 1162.23C185.662 1160.6 185.752 1158.95 186.032 1157.34C186.254 1156.14 186.589 1154.96 187.044 1153.83C187.194 1153.45 187.361 1153.08 187.551 1152.72L187.585 1152.73C186.959 1154.22 186.566 1155.8 186.322 1157.39C186.151 1158.57 186.081 1159.79 186.155 1160.98C186.209 1162.18 186.421 1163.36 186.844 1164.49C188.292 1168.26 190.171 1171.88 192.245 1175.36C193.508 1177.44 194.946 1179.46 195.863 1181.73C196.477 1183.24 196.866 1184.84 197.06 1186.46C197.158 1187.26 197.203 1188.08 197.197 1188.88H197.16L197.162 1188.89Z" fill="#999B8D"/>
<path d="M148.781 1289.16C145.67 1288.51 142.777 1286.99 139.872 1285.76C137.855 1284.88 134.934 1283.5 132.99 1282.46C131.364 1281.6 129.53 1280.67 127.974 1279.71C122.23 1276.24 113.924 1270.43 112.854 1263.48C112.211 1258.47 113.61 1253.03 108.3 1250.01L108.364 1249.91C109.632 1250.67 110.882 1251.52 111.811 1252.68C113.754 1254.91 113.886 1258.15 115.307 1260.66C116.685 1263.22 119.01 1265.21 121.735 1266.32C123.085 1266.92 124.474 1267.42 125.88 1267.88C128.716 1268.77 131.483 1269.87 134.193 1271.07C139.575 1273.52 145.114 1276.01 149.382 1280.15C150.473 1281.14 151.54 1282.16 152.581 1283.2C154.662 1285.26 156.752 1287.53 157.547 1290.4C158.051 1291.96 158.421 1293.58 159.121 1295.08L158.745 1294.58C157.265 1292.67 155.594 1290.64 153.222 1289.8C152.751 1289.64 152.258 1289.57 151.756 1289.56C150.756 1289.5 149.76 1289.37 148.783 1289.16L148.781 1289.16ZM148.79 1289.13C149.768 1289.33 150.762 1289.46 151.76 1289.51C152.134 1289.52 152.516 1289.55 152.88 1289.65C155.425 1290.33 157.294 1292.54 158.865 1294.5L158.737 1294.57L158.641 1294.36C157.835 1292.43 157.504 1290.32 156.495 1288.48C155.463 1286.54 153.899 1284.98 152.339 1283.44C151.294 1282.41 150.213 1281.41 149.127 1280.43C146.98 1278.43 144.606 1276.69 142.003 1275.3C139.39 1273.93 136.731 1272.63 134.037 1271.42C131.338 1270.21 128.598 1269.1 125.773 1268.21C124.359 1267.74 122.966 1267.22 121.609 1266.61C118.85 1265.45 116.484 1263.39 115.108 1260.77C113.707 1258.26 113.612 1255.02 111.702 1252.77C110.796 1251.62 109.553 1250.79 108.304 1250.02L108.367 1249.92C114.531 1253.51 111.743 1259.82 113.503 1265.25C115.865 1271.39 122.647 1276.04 128.133 1279.47C129.686 1280.43 131.485 1281.39 133.099 1282.27C135.022 1283.34 137.917 1284.76 139.919 1285.67C142.8 1286.94 145.689 1288.45 148.79 1289.13V1289.13Z" fill="#999B8D"/>
<path d="M158.788 1294.55C156.341 1291.35 153.448 1288.45 150.083 1286.18C148.405 1285.05 146.612 1284.05 144.817 1283.11C138.167 1279.71 131.284 1276.64 124.936 1272.7C123.207 1271.61 121.474 1270.5 119.942 1269.15C119.179 1268.5 118.493 1267.66 117.852 1266.9C116.371 1265.06 115.153 1262.98 114.181 1260.84C113.098 1258.38 112.269 1255.8 111.905 1253.14L111.942 1253.13C112.418 1255.76 113.328 1258.3 114.45 1260.72C115.591 1263.12 117.038 1265.43 118.807 1267.43C120.553 1269.47 122.878 1270.94 125.128 1272.41C127.415 1273.86 129.776 1275.2 132.144 1276.54C136.875 1279.24 141.909 1281.33 146.76 1283.81C147.946 1284.44 149.162 1285.16 150.271 1285.91C152.516 1287.45 154.555 1289.29 156.335 1291.33C157.226 1292.35 158.057 1293.41 158.818 1294.53L158.788 1294.55V1294.55Z" fill="#999B8D"/>
<path d="M122.449 1294.93C120.662 1287.73 118.459 1280.67 115.061 1274.05C112.541 1269.06 109.41 1264.39 106.977 1259.34C105.724 1256.84 104.691 1254.11 103.781 1251.47C102.961 1248.78 102.275 1246 101.741 1243.26C101.347 1240.84 100.917 1238.29 100.73 1235.84C100.629 1234.69 100.462 1233.23 100.408 1232.11C100.369 1231.32 100.242 1228.13 100.21 1227.44C100.011 1212.84 102.958 1198.31 107.598 1184.48C113.314 1166.41 123.067 1148.99 123.15 1129.69C123.2 1128.38 123.092 1127.31 123.034 1126.06C122.987 1124.46 122.699 1122.66 122.536 1121.08C121.557 1114.93 119.488 1108.91 116.961 1103.2C114.029 1096.37 110.916 1089.61 107.782 1082.87L101.495 1069.36L101.694 1069.27C107.107 1079.05 112.306 1088.98 117.145 1099.06C120.991 1106.96 124.414 1115.21 125.201 1124.03C127.385 1145.63 115.78 1165.2 108.594 1184.82C104.001 1196.92 101.13 1209.83 101.369 1222.78C101.445 1224.46 101.455 1226.65 101.607 1228.32L101.914 1231.99C102.004 1233.13 102.25 1234.52 102.38 1235.65C102.499 1236.6 102.745 1238.34 102.94 1239.29C104.084 1246.56 106.124 1253.66 109.45 1260.23C112.848 1266.83 116.87 1273.29 119.178 1280.4C120.792 1285.13 121.857 1290.01 122.662 1294.9L122.449 1294.94V1294.93Z" fill="#E2B34B"/>
<path d="M120.568 1151.28C123.182 1151.95 134.997 1154.68 146.419 1148.09C157.41 1141.74 163.755 1129.22 162.892 1115.84C162.632 1098.51 162.375 1081.18 162.115 1063.85C162.115 1063.85 150.651 1114.41 145.364 1121.86C143.313 1126.21 140.222 1131.67 135.59 1137.32C130.325 1143.75 124.847 1148.26 120.564 1151.28L120.568 1151.28Z" fill="#E2B34B"/>
<path d="M106.529 1187.49C104.564 1189.31 95.5371 1197.28 82.2886 1196.87C69.542 1196.48 57.8571 1188.48 52.076 1176.34C43.8322 1161.02 35.5885 1145.69 27.3447 1130.36C27.3447 1130.36 62.118 1169.32 70.3942 1173.37C74.3193 1176.22 79.6959 1179.55 86.5242 1182.33C94.2841 1185.48 101.297 1186.86 106.529 1187.49Z" fill="#E2B34B"/>
<path d="M101.072 1216.81C99.3862 1218.88 91.5974 1228.02 78.4247 1229.45C65.5879 1230.85 56.2211 1222.54 45.5653 1213.32C31.6524 1201.28 21.9426 1185.16 21.4371 1174.62C21.3757 1173.35 21.0002 1162.88 21.0002 1162.88C20.9749 1162.87 24.0803 1181.75 35.5847 1188.46C35.61 1188.47 36.5849 1188.96 38.5312 1189.93C48.8946 1195.11 50.1042 1195.64 52.148 1196.69C58.7091 1200.07 59.2435 1199.42 72.9289 1209.99C74.9582 1211.56 77.4823 1213.15 80.5299 1214.47C89.5319 1218.34 97.7107 1217.39 101.076 1216.81L101.072 1216.81Z" fill="#E2B34B"/>
<path d="M124.489 1120.86C124.489 1120.86 105.044 1090.94 95.9519 1072.98C92.9621 1067.07 91.3697 1060.58 91.2866 1053.98L97.3024 1058.88C97.3024 1058.88 143.454 1096.06 124.489 1120.86V1120.86Z" fill="#E2B34B"/>
<path d="M118.964 1158.38C116.202 1160.73 103.665 1170.99 89.4704 1169.76C75.6406 1168.56 70.2097 1155.33 63.9195 1140.57C55.7047 1121.3 53.827 1097.63 58.5789 1083.54C59.1531 1081.84 64.0026 1067.87 64.0026 1067.87C63.9845 1067.85 57.7196 1093.62 66.1366 1105.24C66.1547 1105.26 66.9094 1106.14 68.4151 1107.89C76.4278 1117.22 77.4027 1118.21 78.9662 1120.09C83.9854 1126.13 84.8629 1125.39 93.5761 1142.65C94.8688 1145.21 96.649 1147.93 99.1152 1150.39C106.391 1157.66 115.231 1158.35 118.964 1158.38Z" fill="#E2B34B"/>
<path d="M121.438 1194.17C123.648 1193.63 125.356 1192.98 126.609 1192.5C128.172 1191.91 129.22 1191.38 133.09 1189.58C135.56 1188.42 138.016 1187.24 140.45 1186.01C143.1 1184.68 145.732 1183.3 148.332 1181.87C151.048 1180.38 153.734 1178.84 156.381 1177.22C159.049 1175.6 161.671 1173.9 164.235 1172.12C166.737 1170.38 169.185 1168.55 171.54 1166.62C173.771 1164.79 175.923 1162.85 177.935 1160.79C179.794 1158.88 181.535 1156.86 183.066 1154.69C184.456 1152.72 185.673 1150.62 186.576 1148.38C186.576 1148.38 186.926 1147.5 187.218 1146.59C189.251 1140.22 186.742 1130.4 189.995 1123.63C190.818 1121.92 192.414 1119.56 195.848 1117.36C195.848 1117.36 194.307 1118.32 192.494 1119.76C189.634 1122.04 187.59 1125.15 186.608 1128.63C186.189 1130.12 185.662 1131.97 185.048 1134.11C183.235 1140.4 178.902 1145.73 173.009 1148.77C170.37 1150.13 167.069 1151.58 162.971 1153.02C152.687 1156.63 141.06 1162.77 133.885 1166.81C129.288 1169.39 125.056 1172.54 121.265 1176.17C118.463 1178.85 115.707 1181.59 113.079 1184.43C111.71 1185.92 110.331 1187.45 109.114 1189.08C107.879 1190.72 106.893 1192.47 106.045 1194.33C105.095 1196.42 103.694 1202.9 102.762 1205C102.795 1204.93 102.73 1205.07 102.762 1205C108.15 1197.41 112.252 1195.44 115.086 1195.15C115.935 1195.06 118.257 1194.96 121.442 1194.17L121.438 1194.17Z" fill="#E2B34B"/>
<path d="M100.769 1228.69C102.109 1229.95 108.265 1235.46 117.361 1235.24C126.222 1235.03 131.812 1228.53 138.196 1221.3C146.53 1211.85 151.622 1200.01 150.979 1192.8C150.9 1191.92 150.174 1184.77 150.174 1184.77C150.188 1184.76 149.849 1197.89 142.652 1203.49C142.638 1203.5 142.02 1203.92 140.785 1204.75C134.224 1209.22 133.452 1209.68 132.159 1210.58C128.013 1213.48 127.587 1213.08 119.275 1221.51C118.04 1222.76 116.477 1224.07 114.523 1225.24C108.764 1228.69 103.113 1228.78 100.769 1228.69Z" fill="#E2B34B"/>
<path d="M117.38 1133.95C116.69 1133.54 116.181 1133.14 115.805 1132.85C115.339 1132.48 115.04 1132.19 113.924 1131.17C113.209 1130.52 112.505 1129.86 111.811 1129.19C111.057 1128.46 110.313 1127.72 109.584 1126.96C108.822 1126.17 108.078 1125.37 107.356 1124.54C106.626 1123.71 105.918 1122.86 105.243 1121.98C104.582 1121.13 103.951 1120.26 103.362 1119.35C102.802 1118.5 102.282 1117.61 101.824 1116.7C101.401 1115.86 101.029 1114.99 100.744 1114.09C100.488 1113.28 100.3 1112.44 100.238 1111.58C100.238 1111.58 100.217 1111.25 100.217 1110.91C100.217 1108.53 102.138 1105.46 101.766 1102.82C101.672 1102.16 101.387 1101.19 100.459 1100.08C100.459 1100.08 100.878 1100.57 101.336 1101.25C102.058 1102.32 102.416 1103.59 102.373 1104.88C102.354 1105.42 102.329 1106.11 102.308 1106.9C102.239 1109.23 103.131 1111.49 104.803 1113.14C105.55 1113.87 106.514 1114.71 107.749 1115.63C110.847 1117.93 114.13 1121.23 116.127 1123.35C117.405 1124.71 118.503 1126.23 119.394 1127.85C120.055 1129.06 120.694 1130.28 121.276 1131.52C121.579 1132.16 121.882 1132.83 122.117 1133.51C122.359 1134.19 122.503 1134.89 122.586 1135.61C122.684 1136.42 122.453 1138.77 122.543 1139.58C122.543 1139.6 122.543 1139.55 122.543 1139.58C121.539 1136.43 120.359 1135.34 119.431 1134.94C119.153 1134.82 118.376 1134.54 117.38 1133.95V1133.95Z" fill="#E2B34B"/>
<path d="M98.2164 1261.46C96.8767 1261.51 95.8043 1261.41 95.0171 1261.34C94.0349 1261.25 93.3561 1261.12 90.8681 1260.71C89.2793 1260.45 87.6977 1260.17 86.1161 1259.86C84.3973 1259.52 82.6822 1259.16 80.9742 1258.76C79.1904 1258.35 77.4174 1257.9 75.6553 1257.41C73.8787 1256.91 72.1166 1256.36 70.3725 1255.76C68.6681 1255.17 66.9855 1254.53 65.3353 1253.81C63.7717 1253.12 62.2371 1252.37 60.7566 1251.52C59.3917 1250.74 58.0737 1249.87 56.8496 1248.88C55.7374 1247.99 54.7047 1246.99 53.8272 1245.87C53.8272 1245.87 53.4842 1245.43 53.1701 1244.95C50.9746 1241.68 50.7796 1235.72 47.8259 1232.41C47.0784 1231.57 45.7893 1230.49 43.4819 1229.79C43.4819 1229.79 44.511 1230.08 45.7749 1230.61C47.7681 1231.45 49.4364 1232.89 50.5666 1234.7C51.0468 1235.47 51.6498 1236.44 52.3504 1237.55C54.4086 1240.82 57.7343 1243.15 61.5691 1243.94C63.2879 1244.29 65.393 1244.59 67.946 1244.75C74.359 1245.17 81.9491 1246.8 86.6722 1247.95C89.6982 1248.68 92.6122 1249.79 95.3529 1251.24C97.3786 1252.32 99.3899 1253.43 101.343 1254.62C102.362 1255.24 103.394 1255.89 104.348 1256.62C105.319 1257.36 106.16 1258.19 106.948 1259.11C107.829 1260.14 109.685 1263.59 110.559 1264.63C110.587 1264.66 110.53 1264.59 110.559 1264.63C106.262 1261.19 103.618 1260.72 101.968 1261.01C101.473 1261.09 100.141 1261.4 98.2128 1261.46L98.2164 1261.46Z" fill="#E2B34B"/>
<g clip-path="url(#clip0_353_130)">
<path d="M-26.596 540.894C14.2291 509.729 80.4933 507.315 136.889 505.258C194.36 503.161 266.64 500.526 309.863 530.497C314.481 533.7 344.409 555.071 338.238 581.261C328.907 620.866 244.27 640.799 198.383 646.095C172.023 649.139 152.188 648.072 115.281 646.095C61.5937 643.218 26.4919 641.334 -4.30213 626.524C-4.30213 626.524 -9.59214 623.979 -57 589.55C-55.2198 577.491 -49.1823 558.137 -26.596 540.894Z" fill="#E5E2E1"/>
<path d="M-48.9044 477.141C-55.061 451.081 -60.4016 432.16 -54.328 409.545C-51.97 400.761 -47.3806 389.472 -44.8385 370.013C-44.073 364.153 -43.9646 361.156 -42.8488 342.015C-40.4765 301.264 -40.1407 299.547 -38.2774 298.546C-29.1707 293.662 -12.3329 310.059 50.8511 369.47C67.3639 384.996 80.5004 397.309 87.4153 403.787C88.1736 394.066 88.4336 379.56 85.1296 362.606C76.3442 317.491 53.3462 311.454 52.6891 283.225C51.8188 245.815 91.8423 240.757 91.9723 197.794C92.0373 176.618 82.3312 171.387 82.8439 138.397C83.0606 124.487 83.3422 109.709 91.9868 94.9278C100.231 80.8296 108.929 78.6245 121.697 65.1842C130.436 55.9879 141.485 41.098 149.122 17.1383C162.219 35.6684 174.522 49.2713 183.401 58.3195C201.618 76.8821 211.927 82.901 224.537 101.789C232.979 114.438 239.461 124.147 240.533 138.394C241.793 155.156 235.16 174.167 222.251 186.44C210.519 197.592 202.163 195.007 190.858 208.639C189.298 210.522 181.812 219.791 178.667 233.047C173.568 254.552 182.917 273.794 185.687 280.24C194.18 300.006 198.455 333.697 178.83 394.634C194.566 368.603 204.586 346.205 210.822 330.574C224.558 296.156 225.692 280.178 240.533 261.937C256.779 241.968 278.679 232.515 295.379 227.621C301.803 232.833 332.738 259.038 336.515 303.118C337.201 311.133 339.371 336.444 325.09 360.314C309.867 385.759 292.863 381.291 270.244 410.648C256.356 428.668 250.005 446.905 245.105 460.982C233.188 495.201 237.052 511.229 222.251 527.33C211.375 539.162 197.191 543.662 187.972 545.633C179.433 549.078 162.559 554.536 141.124 552.497C124.045 550.874 111.042 545.152 103.415 541.06C95.0886 546.421 86.7581 551.785 78.4314 557.146C72.0436 562.482 58.1127 572.502 39.1481 573.421C2.99548 575.17 -21.1363 542.368 -27.2244 534.094C-39.3318 517.639 -42.9138 502.478 -48.8972 477.141H-48.9044Z" fill="#999A8D"/>
<path d="M212.852 235.133C212.852 235.133 174.049 264.399 185.676 300.696C185.676 300.696 201.358 346.031 200.766 353.727C200.766 353.727 208.313 373.364 165.823 407.297C165.823 407.297 116.541 444.849 143.258 469.665C143.258 469.665 149.902 476.823 157.345 485.245C169.138 498.595 178.328 514.038 184.419 530.783L185.759 534.466C185.759 534.466 213.87 508.797 223.053 505.399C223.053 505.399 237.088 498.378 234.893 482.776C234.893 482.776 223.818 455.184 247 437.781C247 437.781 291.194 408.515 261.065 381.522C261.065 381.522 247.134 368.715 251.962 354.49C251.962 354.49 268.319 311.675 263.827 302.287C263.827 302.287 263.3 278.251 226.111 260.925C226.111 260.925 212.733 254.382 211.678 241.647C211.245 236.419 212.848 235.129 212.848 235.129L212.852 235.133Z" fill="#BF7862"/>
<path d="M186.561 530.305C193.439 522.248 200.856 513.93 210.988 510.04C214.968 508.442 219.193 507.611 223.334 506.581C229.559 505.084 235.539 502.789 241.4 500.226C245.177 498.523 249.387 496.925 251.998 493.585C253.908 491.062 254.612 487.87 254.237 484.757C253.565 479.469 252.012 474.296 251.604 468.949C250.427 455.176 252.222 440.077 261.307 429.088C262.033 428.325 262.769 427.432 263.571 426.738C266.676 423.734 270.544 421.688 273.985 419.183C276.317 417.487 278.397 415.459 280.141 413.178C280.824 412.184 281.708 410.948 282.272 409.878C286.493 402.691 288.811 394.034 287.118 385.755C286.269 381.613 283.702 378.153 281.467 374.618C277.968 369.264 274.812 363.582 271.8 357.935C268.799 352.213 265.651 346.454 264.235 340.081C263.361 335.75 263.441 331.185 265.033 326.988C265.838 324.934 267.185 323.181 268.29 321.334C270.457 317.784 271.71 313.721 272.732 309.625C275.01 299.908 275.357 288.698 269.554 280.16C268.153 278.324 266.405 276.784 264.535 275.349C257.739 270.342 250.225 266.087 242.952 261.782C239.258 259.663 235.518 257.639 231.722 255.701C227.902 253.724 223.973 251.902 220.453 249.357C209.84 241.582 203.398 229.388 200.134 216.87L201.737 217.163C194.833 226.981 188.315 237.168 183.665 248.247C180.043 257.144 176.995 267.54 180.465 276.91C181.845 280.63 184.661 283.688 186.506 287.205C189.442 292.631 191.038 298.668 191.818 304.756C192.898 313.84 191.973 323.655 187.16 331.626C185.383 334.163 183.105 336.264 180.935 338.411C169.477 349.657 157.142 360.108 146.598 372.221C144.056 375.294 141.875 378.612 140.063 382.169C138.254 385.698 136.376 389.269 135.415 393.112C131.996 406.494 147.534 412.325 157.54 415.955C161.32 417.397 165.213 418.142 169.102 419.324C173.103 420.513 176.342 423.43 178.761 426.745C182.538 431.839 183.834 438.555 180.617 444.263C178.165 448.749 174.594 452.397 171.261 456.203C169.261 458.426 167.047 460.621 164.841 462.634C161.905 465.338 158.655 467.796 158.255 472.094C157.623 476.982 159.551 482.108 162.682 485.831C164.751 488.007 167.556 489.305 169.907 491.17C178.281 497.446 185.802 503.873 187.261 514.891C187.546 516.89 187.647 518.911 187.582 520.928L187.142 526.954C187.142 526.954 186.561 530.305 186.561 530.309C186.561 530.309 187.106 526.943 187.102 526.951L187.478 520.925C187.785 509.802 182.993 501.863 174.403 495.223C171.286 492.656 168.051 490.328 164.646 488.155C161.19 485.9 159.175 481.999 158.067 478.113C157.233 474.914 157.197 471.317 158.713 468.302C159.551 466.701 160.836 465.381 162.125 464.156C165.827 460.772 169.412 457.241 172.637 453.398C177.884 447.231 183.679 441.205 180.678 432.525C179.108 428.061 175.623 423.748 171.463 421.46C168.813 420.076 165.856 419.606 162.96 418.814C161.002 418.304 159.056 417.711 157.15 417.025C142.695 411.913 127.576 405.023 136.181 387.006C137.882 383.297 139.673 379.679 141.868 376.241C145.205 371.137 149.455 366.69 153.708 362.385C162.252 353.828 171.142 345.67 179.812 337.265C181.917 335.168 184.116 333.14 185.806 330.718C193.028 318.503 191.428 300.292 184.979 288.041C183.556 285.373 181.664 283.027 180.162 280.384C176.529 273.989 176.677 266.141 178.237 259.186C179.017 255.698 180.144 252.303 181.444 248.981C186.405 236.618 193.71 225.361 201.369 214.549C204.908 229.302 212.873 244.13 226.84 251.197C236.37 256.012 245.78 261.171 254.832 266.85C260.252 270.309 266.102 273.501 270.403 278.472C277.112 287.206 276.787 299.807 274.335 310.026C273.284 314.238 271.955 318.446 269.673 322.183C268.594 323.995 267.286 325.665 266.517 327.602C265.055 331.402 264.965 335.772 265.77 339.766C266.644 343.869 268.377 347.781 270.219 351.544C272.956 356.995 276.234 363.141 279.318 368.411C281.467 372.127 283.908 375.59 286.06 379.332C292.094 389.833 288.143 403.91 281.579 413.254C279.719 415.926 277.292 418.25 274.674 420.148C272.92 421.42 271.085 422.534 269.323 423.712C266.658 425.44 264.217 427.428 262.141 429.814C253.2 440.536 251.413 455.364 252.496 468.873C252.836 473.132 253.742 477.285 254.54 481.482C254.919 483.604 255.237 485.802 254.991 487.964C254.814 489.746 254.161 491.463 253.251 492.992C250.691 497.12 245.863 498.903 241.627 500.768C237.684 502.423 233.716 504.047 229.624 505.301C225.551 506.606 221.348 507.459 217.199 508.464C203.745 511.457 195.238 520.263 186.557 530.305H186.561Z" fill="#603121"/>
<path d="M175.11 576.023C189.673 519.605 202.412 462.453 208.388 404.423C210.288 383.435 212.035 362.034 208.352 341.162C207.948 338.895 207.377 336.64 206.735 334.427C206.46 333.408 205.955 332.114 205.637 331.141L205.449 330.686L205.066 329.771C204.601 328.531 203.958 327.378 203.373 326.189L203.528 326.099C205.232 328.947 206.587 332.031 207.572 335.208C211.353 347.311 211.942 360.162 211.981 372.76C211.949 388.716 210.468 404.633 208.41 420.444C201.015 472.864 189.485 525.451 175.106 576.023H175.11Z" fill="#603121"/>
<path d="M201.842 459.46C206.504 446.114 215.112 434.094 226.262 425.397C229.718 422.856 233.517 420.687 237.5 419.103C239.937 418.077 242.483 417.339 245.039 416.754L245.093 416.927C240.284 419.006 235.651 421.319 231.35 424.168C229.794 425.191 228.075 426.366 226.602 427.486C217.679 433.971 210.569 442.756 205.326 452.436C204.099 454.732 202.95 457.089 202.015 459.518L201.845 459.46H201.842Z" fill="#603121"/>
<path d="M207.276 416.316C208.002 403.957 206.038 390.921 199.762 380.142C195.848 373.508 189.919 368.151 183.076 364.67C178.916 362.526 174.464 361.142 169.885 360.072L169.911 359.894C173.063 360.097 176.204 360.661 179.263 361.568C195.707 366.282 204.514 381.342 206.998 397.446C207.948 403.696 208.179 410.062 207.457 416.341L207.276 416.32V416.316Z" fill="#603121"/>
<path d="M211.436 375.222C212.624 365.335 215.35 355.34 221.121 347.079C223.508 343.768 226.884 340.988 230.827 339.767C232.77 339.148 234.842 338.931 236.857 339.137L236.861 339.318C234.925 339.629 233.04 340.132 231.278 340.952C222.478 345.221 217.506 354.812 214.549 363.755C213.296 367.497 212.31 371.343 211.613 375.24L211.433 375.218L211.436 375.222Z" fill="#603121"/>
<path d="M104.914 580.126C103.127 572.781 100.924 565.58 97.5262 558.834C95.0058 553.752 91.8751 548.987 89.4414 543.836C88.1884 541.291 87.1557 538.5 86.2457 535.814C85.426 533.074 84.7399 530.24 84.2055 527.439C83.8119 524.973 83.3822 522.374 83.1945 519.873C83.0934 518.705 82.9273 517.216 82.8731 516.073C82.8334 515.267 82.707 512.014 82.6745 511.316C82.4759 496.43 85.4224 481.609 90.0624 467.511C95.7785 449.085 105.532 431.325 105.615 411.653C105.665 410.312 105.557 409.227 105.499 407.947C105.452 406.324 105.163 404.484 105.001 402.876C104.022 396.604 101.953 390.462 99.4256 384.646C96.4935 377.68 93.3809 370.793 90.2466 363.914L83.96 350.138L84.1586 350.051C89.5714 360.024 94.7711 370.146 99.6097 380.427C103.455 388.474 106.879 396.889 107.666 405.88C109.85 427.905 98.2448 447.86 91.0591 467.858C86.466 480.199 83.5953 493.357 83.8336 506.566C83.9094 508.276 83.9203 510.503 84.0719 512.205L84.3788 515.954C84.4691 517.118 84.7147 518.532 84.8447 519.685C84.9638 520.65 85.2094 522.421 85.4044 523.397C86.549 530.808 88.5892 538.041 91.9149 544.743C95.3127 551.478 99.3353 558.061 101.643 565.309C103.257 570.135 104.322 575.105 105.127 580.09L104.914 580.13V580.126Z" fill="#E2B34B"/>
<path d="M103.033 433.66C105.647 434.344 117.462 437.134 128.884 430.407C139.875 423.933 146.22 411.168 145.357 397.533C145.097 379.863 144.84 362.193 144.58 344.52C144.58 344.52 133.116 396.076 127.829 403.671C125.778 408.103 122.687 413.666 118.054 419.432C112.79 425.986 107.312 430.588 103.029 433.664L103.033 433.66Z" fill="#E2B34B"/>
<path d="M88.9936 470.583C87.0292 472.441 78.0019 480.564 64.7534 480.145C52.0069 479.743 40.3219 471.595 34.5408 459.218C26.2971 443.591 18.0533 427.963 9.80957 412.336C9.80957 412.336 44.5828 452.06 52.859 456.185C56.7841 459.088 62.1608 462.482 68.9891 465.316C76.7489 468.537 83.7614 469.943 88.9936 470.583Z" fill="#E2B34B"/>
<path d="M83.5373 500.475C81.851 502.59 74.0622 511.909 60.8896 513.366C48.0527 514.786 38.686 506.317 28.0301 496.914C14.1172 484.638 4.40745 468.208 3.90192 457.461C3.84054 456.163 3.465 445.492 3.465 445.488C3.43972 445.478 6.54512 464.731 18.0495 471.566C18.0748 471.581 19.0498 472.076 20.996 473.07C31.3594 478.348 32.5691 478.887 34.6129 479.964C41.1739 483.413 41.7083 482.74 55.3937 493.52C57.4231 495.118 59.9471 496.748 62.9947 498.086C71.9968 502.033 80.1755 501.068 83.5409 500.471L83.5373 500.475Z" fill="#E2B34B"/>
<path d="M106.954 402.652C106.954 402.652 87.5091 372.149 78.4168 353.828C75.4269 347.806 73.8345 341.187 73.7515 334.46L79.7673 339.456C79.7673 339.456 125.919 377.369 106.954 402.648V402.652Z" fill="#E2B34B"/>
<path d="M101.429 440.901C98.667 443.298 86.1298 453.763 71.9353 452.509C58.1054 451.287 52.6746 437.789 46.3844 422.743C38.1695 403.1 36.2918 378.97 41.0438 364.597C41.6179 362.862 46.4674 348.623 46.4674 348.619C46.4494 348.601 40.1844 374.875 48.6015 386.721C48.6195 386.746 49.3742 387.642 50.88 389.428C58.8926 398.935 59.8676 399.944 61.4311 401.864C66.4503 408.023 67.3277 407.264 76.0409 424.869C77.3336 427.479 79.1138 430.248 81.5801 432.76C88.8561 440.171 97.6956 440.872 101.429 440.901Z" fill="#E2B34B"/>
<path d="M103.903 477.394C106.113 476.841 107.821 476.183 109.074 475.695C110.637 475.087 111.684 474.549 115.555 472.709C118.025 471.534 120.481 470.323 122.914 469.076C125.565 467.717 128.197 466.314 130.797 464.857C133.512 463.335 136.199 461.759 138.846 460.114C141.514 458.455 144.136 456.727 146.7 454.909C149.202 453.134 151.65 451.276 154.004 449.302C156.236 447.433 158.388 445.463 160.399 443.359C162.259 441.414 164 439.354 165.531 437.142C166.921 435.132 168.138 432.988 169.04 430.711C169.04 430.711 169.391 429.807 169.683 428.878C171.716 422.389 169.206 412.376 172.46 405.475C173.283 403.733 174.879 401.325 178.313 399.084C178.313 399.084 176.771 400.056 174.959 401.527C172.099 403.848 170.055 407.026 169.073 410.576C168.654 412.087 168.127 413.981 167.513 416.161C165.7 422.573 161.367 428.003 155.474 431.101C152.835 432.489 149.534 433.968 145.436 435.435C135.152 439.123 123.525 445.38 116.35 449.494C111.753 452.129 107.521 455.339 103.73 459.041C100.927 461.777 98.1723 464.564 95.5436 467.467C94.175 468.978 92.7957 470.54 91.5788 472.199C90.3438 473.88 89.3581 475.659 88.5095 477.56C87.5598 479.689 86.1588 486.297 85.2272 488.434C85.1947 488.506 85.2597 488.361 85.2272 488.434C90.6147 480.698 94.7167 478.692 97.5513 478.392C98.3998 478.301 100.722 478.196 103.906 477.397L103.903 477.394Z" fill="#E2B34B"/>
<path d="M83.2339 512.589C84.5735 513.872 90.7302 519.489 99.8261 519.269C108.687 519.052 114.277 512.426 120.661 505.051C128.995 495.421 134.087 483.351 133.444 475.991C133.364 475.102 132.639 467.811 132.639 467.811C132.653 467.8 132.314 481.182 125.117 486.89C125.103 486.905 124.485 487.331 123.25 488.184C116.689 492.732 115.916 493.209 114.624 494.127C110.478 497.077 110.052 496.672 101.74 505.265C100.505 506.541 98.9414 507.878 96.9879 509.071C91.2285 512.585 85.5774 512.683 83.2339 512.589Z" fill="#E2B34B"/>
<path d="M99.8444 415.998C99.1547 415.575 98.6456 415.167 98.27 414.87C97.8042 414.498 97.5045 414.201 96.3887 413.164C95.6738 412.502 94.9696 411.83 94.2763 411.143C93.5216 410.398 92.7778 409.643 92.0484 408.869C91.2865 408.063 90.5426 407.243 89.8205 406.4C89.091 405.551 88.3833 404.687 87.7081 403.794C87.0473 402.923 86.4153 402.033 85.8268 401.112C85.2671 400.24 84.7471 399.34 84.2885 398.411C83.866 397.555 83.4941 396.669 83.2088 395.751C82.9525 394.919 82.7647 394.063 82.7033 393.191C82.7033 393.191 82.6816 392.848 82.6816 392.501C82.6816 390.083 84.6027 386.948 84.2307 384.259C84.1368 383.579 83.8516 382.592 82.9236 381.465C82.9236 381.465 83.3424 381.96 83.801 382.654C84.5232 383.746 84.8807 385.043 84.8374 386.356C84.8193 386.912 84.794 387.614 84.7724 388.42C84.7038 390.791 85.5957 393.094 87.2675 394.775C88.015 395.527 88.9791 396.38 90.214 397.316C93.3122 399.666 96.5946 403.031 98.5914 405.193C99.8697 406.577 100.967 408.121 101.859 409.78C102.52 411.009 103.159 412.249 103.741 413.515C104.044 414.172 104.347 414.852 104.582 415.542C104.824 416.244 104.968 416.952 105.051 417.69C105.149 418.514 104.918 420.907 105.008 421.731C105.008 421.702 105.008 421.76 105.008 421.731C104.004 418.528 102.823 417.411 101.895 417.006C101.617 416.887 100.841 416.602 99.8444 415.991V415.998Z" fill="#E2B34B"/>
<path d="M80.6812 546.001C79.3416 546.045 78.2691 545.947 77.4819 545.875C76.4998 545.784 75.8209 545.647 73.333 545.231C71.7442 544.964 70.1626 544.678 68.581 544.364C66.8622 544.024 65.147 543.652 63.439 543.25C61.6552 542.827 59.8823 542.368 58.1201 541.866C56.3436 541.356 54.5814 540.803 52.8373 540.188C51.133 539.588 49.4503 538.93 47.8001 538.197C46.2366 537.499 44.7019 536.733 43.2214 535.865C41.8565 535.066 40.5385 534.181 39.3144 533.176C38.2023 532.261 37.1695 531.245 36.2921 530.103C36.2921 530.103 35.949 529.651 35.6349 529.17C33.4395 525.826 33.2445 519.753 30.2907 516.377C29.5433 515.524 28.2542 514.421 25.9468 513.706C25.9468 513.706 26.9759 514.006 28.2397 514.548C30.2329 515.401 31.9012 516.865 33.0314 518.716C33.5117 519.504 34.1147 520.491 34.8152 521.622C36.8734 524.959 40.1991 527.33 44.0339 528.133C45.7527 528.491 47.8579 528.794 50.4108 528.964C56.8238 529.387 64.414 531.054 69.1371 532.221C72.163 532.97 75.077 534.101 77.8177 535.583C79.8435 536.678 81.8548 537.81 83.8083 539.028C84.8266 539.661 85.8593 540.322 86.8126 541.063C87.7839 541.815 88.6252 542.661 89.4124 543.601C90.2935 544.653 92.1495 548.167 93.0234 549.226C92.9945 549.19 93.0522 549.262 93.0234 549.226C88.7264 545.719 86.0832 545.246 84.433 545.535C83.9383 545.622 82.6058 545.936 80.6776 545.998L80.6812 546.001Z" fill="#E2B34B"/>
<path d="M252.037 142.402C239.121 161.872 219.25 170.439 206.503 165.671C203.033 164.373 195.79 160.476 190.225 152.968C189.734 152.306 185.805 146.891 185.123 142.962C183.256 132.226 202.82 116.486 233.329 105.714C217.011 99.4454 206.041 91.4203 199.14 85.3436C193.807 80.6442 186.044 73.6711 187.849 68.6897C189.073 65.3097 194.179 64.3048 197.844 63.5818C211.562 60.8815 218.026 67.9089 229.646 65.5483C232.791 64.9085 237.572 63.3288 242.973 58.7378C239.511 48.6196 235.163 41.3934 231.635 36.5024C227.826 31.2174 224.341 27.7724 225.399 24.2731C226.735 19.8521 234.437 18.2398 237.615 18.0302C257.049 16.7469 274.71 56.793 277.588 63.477C277.913 58.3655 279.245 49.9535 284.654 41.6465C286.698 38.5087 290.587 32.6959 297.935 29.2545C301.236 27.7073 306.06 25.448 309.631 27.4832C312.433 29.0774 313.672 33.2092 313.127 45.3192C312.78 53.0154 311.7 63.965 308.375 77.1811C316.301 74.1844 328.589 70.79 343.462 71.8636C346.362 72.0733 369.612 73.9169 370.869 81.6853C371.241 83.9772 369.782 87.3102 355.934 96.3258C346.853 102.236 333.947 109.611 317.063 116.19C332.972 120.358 344.354 126.879 351.771 132.092C357.469 136.097 370.573 145.304 368.663 151.489C366.72 157.779 351.417 153.977 346.452 162.84C342.292 170.265 350.366 177.68 345.527 185.737C342.556 190.686 336.265 193.296 331.091 193.115C325.122 192.906 321.154 189.002 312.014 179.039C305.706 172.163 298.492 164.098 290.623 154.931C290.046 164.774 287.392 181.446 275.331 193.578C271.911 197.016 266.102 202.865 259.782 201.524C254.308 200.363 250.849 194.308 249.647 189.884C247.184 180.806 254.648 176.02 256.125 164.149C256.749 159.124 256.475 151.808 252.041 142.409L252.037 142.402Z" fill="#BF7862"/>
<path d="M290.197 127.909C277.44 133.133 259.782 127.053 253.044 114.353C248.014 104.868 248.787 91.1383 254.63 87.8126C255.59 87.2667 259.71 83.424 268.171 84.9351C277.147 86.5365 280.769 87.0968 284.503 88.7669C293.498 92.7939 303.94 106.907 301.842 116.656C300.311 123.763 291.847 127.23 290.194 127.906L290.197 127.909Z" fill="#F0A695"/>
<path d="M349.601 440.167C350.876 443.157 351.327 446.414 351.652 449.613C352.833 460.877 351.273 472.181 350.786 483.42C350.309 494.677 353.093 505.681 356.256 516.417C358.95 525.678 362.008 534.925 363.644 544.469C365.872 556.04 365.172 567.152 358.116 577.01C348.258 590.747 335.082 592.497 319.457 593.787C300.251 595.504 280.9 598.787 261.589 596.56C255.15 595.786 248.676 594.821 242.62 592.352C239.598 591.112 236.695 589.377 234.304 587.139C227.787 581.019 226.183 572.441 230.946 564.698C233.34 560.476 236.605 556.727 240.472 553.813L240.562 553.929C235.658 557.978 231.632 563.313 229.621 569.365C227.433 576.334 231.181 583.748 236.897 587.797C237.601 588.35 238.591 588.939 239.36 589.409C239.62 589.532 240.634 590.089 240.927 590.234C244.509 591.936 248.344 593.003 252.258 593.722C274.472 598.035 297.03 594.38 319.353 592.515C327.289 591.878 335.407 591.387 342.856 588.379C353.259 584.193 361.156 574.614 363.525 563.653C366.739 549.175 359.311 530.721 355.104 516.76C351.739 506.002 349.052 494.735 349.637 483.362C350.291 470.533 352.523 457.674 350.648 444.867C350.396 443.287 350.031 441.718 349.468 440.214L349.601 440.16V440.167Z" fill="#603121"/>
<path d="M230.444 565.62C226.53 562.789 223.223 558.025 223.215 552.993C223.208 550.426 224.122 547.946 225.31 545.727C227.003 542.365 229.477 539.451 232.402 537.102C235.243 534.69 238.67 533.071 242.05 531.632C246.535 529.655 251.084 527.779 255.743 526.213C260.39 524.616 265.145 523.34 269.934 522.237C274.722 521.113 279.564 520.086 284.482 519.667C286.941 519.428 289.465 519.41 291.928 519.602C294.398 519.772 296.835 520.104 299.261 520.422C301.677 520.816 303.436 518.731 304.62 516.862C305.931 514.812 306.837 512.52 307.87 510.311L308.004 510.369C306.603 514.017 305.165 519.613 301.168 521.232C300.533 521.467 299.803 521.536 299.15 521.467C296.705 521.265 294.275 521.051 291.852 520.95C289.425 520.852 287.031 520.907 284.623 521.178C277.361 521.959 270.19 523.535 263.084 525.208C255.948 526.875 248.882 528.935 242.231 532.055C236.07 534.611 230.759 539.036 227.332 544.758C225.851 547.278 224.407 550.094 224.342 553.022C224.198 557.721 227.137 562.406 230.531 565.511L230.441 565.623L230.444 565.62Z" fill="#603121"/>
<path d="M341.647 474.271C338.289 482.386 333.959 491.134 330.085 499.069C327.69 503.833 324.892 508.583 320.776 512.065C316.919 515.752 311.976 516.648 308.509 511.938C305.129 507.85 302.576 503.074 300.905 498.046C300.363 496.213 299.442 492.45 298.962 489.713C298.5 487.353 298.034 484.009 297.662 481.609C297.232 478.937 296.781 476.255 295.564 473.902C294.293 471.548 292.228 469.669 289.852 468.425L289.913 468.295C292.502 469.304 294.806 471.1 296.286 473.486C297.759 475.894 298.37 478.663 298.926 481.385C299.919 486.764 300.879 492.081 302.277 497.359C303.234 500.884 305.61 505.89 308.033 509.462C308.859 510.64 309.712 511.999 310.73 512.983C312.868 515.166 316.367 514.74 318.728 513.142C319.934 512.278 321.093 511.248 322.144 510.192C325.304 506.92 327.235 502.709 329.037 498.584C330.738 494.518 333.013 490.205 335.039 486.272C337.115 482.213 339.26 478.175 341.52 474.209L341.65 474.274L341.647 474.271Z" fill="#603121"/>
<path d="M330.485 438.866C328.734 441.14 327.037 443.341 325.329 445.622C324.466 446.732 323.534 447.827 322.855 449.078C322.173 450.325 321.682 451.67 321.303 453.047C320.573 455.766 319.703 458.571 318.858 461.242C317.944 463.954 317.045 466.654 315.955 469.314L315.814 469.282C316.121 464.948 317.197 460.718 318.829 456.713C319.837 454.013 321.245 451.482 322.44 448.865C323.047 447.56 323.596 446.197 324.332 444.939C325.076 443.685 326.011 442.557 327.022 441.512C328.041 440.475 329.146 439.517 330.388 438.754L330.485 438.862V438.866Z" fill="#603121"/>
<path d="M339.166 427.786C335.905 430.516 330.684 431.108 327.037 428.737C324.343 426.94 322.685 424.048 321.479 421.124C319.468 416.24 319.017 410.666 320.461 405.58C321.566 401.564 322.917 397.584 324.968 393.943L325.101 393.998C324.531 395.997 323.953 397.974 323.444 399.966L321.96 405.952C321.191 408.92 320.797 411.884 320.985 414.935C321.104 417.968 321.591 421.109 323.238 423.716C326.6 428.932 333.479 430.436 339.094 427.66L339.169 427.783L339.166 427.786Z" fill="#603121"/>
<path d="M341.43 381.28C349.591 382.191 356.802 387.281 360.662 394.5C363.395 399.16 364.937 404.571 364.645 409.986C364.533 412.676 363.955 415.387 362.724 417.777C360.673 422.226 356.553 427.157 358.134 432.283C358.665 433.4 359.658 434.398 360.384 435.439C361.185 436.509 361.937 437.626 362.655 438.743C364.739 442.137 367.45 445.543 367.902 449.704C368.324 455.169 364.327 460.49 360.38 463.867C358.932 464.977 358.21 466.545 359.25 468.187C359.936 469.26 360.925 470.348 361.427 471.603C362.81 474.878 361.853 478.717 359.824 481.497C358.235 483.731 355.82 485.314 353.22 485.911L353.18 485.773C355.664 484.949 357.831 483.29 359.221 481.085C360.915 478.475 361.64 474.994 360.319 472.102C359.763 470.898 358.864 470.048 358.109 468.902C357.221 467.652 357.091 465.747 357.928 464.402C358.741 463.133 359.853 462.45 360.824 461.434C362.175 460.071 363.341 458.506 364.37 456.886C366.45 453.575 367.273 449.87 365.508 446.226C363.847 442.691 361.68 439.314 359.579 436.014C357.708 433.266 356.726 432.543 357.185 428.95C357.426 427.472 357.968 425.982 358.604 424.63C361.142 419.429 364.045 416.132 363.839 409.972C363.818 402.514 360.059 394.214 354.982 388.843C351.357 385.134 346.572 382.553 341.405 381.425L341.43 381.284V381.28Z" fill="#603121"/>
<path d="M264.109 546.959C267.904 544.512 272.385 543.457 276.801 542.824C279.741 542.325 282.666 541.721 285.641 541.497C290.097 541.056 294.596 541.219 299.03 541.797L299.027 541.87C297.535 541.924 296.051 541.913 294.567 541.92C289.404 542.05 284.175 542.072 279.037 542.69C276.823 542.947 274.671 543.561 272.544 544.194C269.706 545.018 266.871 545.85 264.142 547.025L264.105 546.963L264.109 546.959Z" fill="#603121"/>
<path d="M281.535 449.606C282.947 450.333 284.359 451.056 285.698 451.912C286.103 452.194 286.583 452.458 286.85 452.91C286.897 453.008 286.966 453.127 286.904 453.29C286.829 453.456 286.655 453.478 286.543 453.474C285.568 453.347 285.052 452.397 284.514 451.688C281.874 447.972 279.578 442.318 282.99 438.374C284.258 436.925 286.565 436.899 287.814 438.385C289.103 440.189 289.111 442.662 288.547 444.737C288.233 445.799 287.551 446.826 286.489 447.249C286.384 447.282 286.265 447.31 286.128 447.263C285.651 447.014 286.009 446.356 286.211 446.034C286.901 444.845 288.417 444.87 289.558 445.301C290.703 445.713 291.873 446.522 292.05 447.853C292.01 449.541 290.024 450.593 288.623 451.074C286.226 451.891 283.647 451.225 281.889 449.407C279.488 447.169 277.065 443.193 277.841 439.81C278.177 438.707 279.065 437.369 280.38 437.608C281.174 437.771 281.871 438.447 282.098 439.181C281.748 438.501 281.152 437.836 280.361 437.72C279.571 437.586 278.881 438.154 278.502 438.805C277.216 440.883 278.202 443.482 279.238 445.463C280.398 447.462 281.954 449.382 284.012 450.492C286.096 451.493 288.735 451.041 290.559 449.671C291.111 449.237 291.729 448.608 291.711 447.874C291.476 446.342 289.753 445.481 288.342 445.319C287.377 445.149 286.46 445.742 286.157 446.663C286.002 447.169 286.341 447.126 286.677 446.935C287.536 446.465 288.118 445.63 288.399 444.69C288.988 442.676 288.999 440.214 287.724 438.461C286.511 437.048 284.33 437.087 283.138 438.512C281.044 440.966 281.308 444.57 282.499 447.383C282.871 448.438 285.507 453.676 286.699 453.196C286.717 453.17 286.699 453.084 286.659 453.011C286.421 452.603 285.987 452.35 285.597 452.068C284.333 451.178 282.745 450.39 281.539 449.602L281.535 449.606Z" fill="#603121"/>
<path d="M298.409 460.031C299.298 460.469 300.179 460.917 301.024 461.448C301.28 461.622 301.587 461.792 301.76 462.081C301.793 462.146 301.84 462.229 301.796 462.356C301.735 462.486 301.605 462.5 301.533 462.5C300.904 462.424 300.569 461.828 300.222 461.372C298.843 459.366 297.572 456.763 298.503 454.309C298.839 453.373 299.568 452.407 300.63 452.321C303.017 452.176 303.331 455.274 302.807 457.009C302.627 457.674 302.176 458.34 301.508 458.607C301.381 458.658 301.211 458.64 301.128 458.513C301.009 458.264 301.157 457.989 301.284 457.783C301.551 457.313 302.143 457.053 302.674 457.136C303.696 457.244 304.851 457.805 305.032 458.943C304.981 460.075 303.782 460.686 302.851 461.025C300.666 461.777 298.832 460.566 297.561 458.849C296.459 457.309 295.279 455.039 296.387 453.221C296.647 452.787 297.156 452.415 297.687 452.53C298.203 452.639 298.586 453.054 298.77 453.517L298.738 453.532C298.29 452.534 297.113 452.266 296.542 453.318C296.004 454.157 296.156 455.191 296.441 456.091C296.9 457.472 297.759 458.715 298.825 459.695C299.843 460.751 301.341 461.13 302.735 460.664C303.512 460.411 304.624 459.84 304.692 458.965C304.566 457.794 302.222 456.753 301.486 457.924C301.41 458.025 301.244 458.336 301.338 458.408C301.995 458.296 302.464 457.584 302.663 456.962C303.042 455.646 303.089 453.835 301.991 452.856C301.219 452.223 300.056 452.382 299.435 453.145C297.485 455.581 298.908 458.94 300.453 461.213C300.782 461.644 301.071 462.233 301.591 462.265C301.515 461.976 301.164 461.799 300.919 461.607C300.106 461.054 299.247 460.559 298.391 460.064L298.409 460.031Z" fill="#BF7862"/>
</g>
<defs>
<clipPath id="clip0_353_130">
<rect width="430" height="648" fill="white" transform="translate(-57)"/>
</clipPath>
</defs>
</svg>
