<svg width="417" height="847" viewBox="0 0 417 847" fill="none" xmlns="http://www.w3.org/2000/svg">
<g clip-path="url(#clip0_353_131)">
<path d="M184.41 310.379C172.724 313.69 161.967 310.364 158.539 304.183C157.606 302.502 156.056 298.52 156.395 293.682C156.425 293.254 156.699 289.797 157.76 288.019C160.65 283.158 173.706 283.56 189.41 289.61C185.076 281.635 183.451 274.77 182.773 270.045C182.254 266.393 181.539 261.026 183.936 259.672C185.561 258.752 187.92 260.081 189.614 261.03C195.95 264.596 196.134 269.546 201.526 272.537C202.985 273.348 205.412 274.339 209.096 274.35C211.146 269.193 211.869 264.881 212.128 261.762C212.407 258.395 212.196 255.862 213.795 254.838C215.815 253.547 219.409 255.509 220.737 256.5C228.856 262.554 222.306 284.292 221.185 287.898C223.039 285.992 226.411 283.128 231.358 281.68C233.224 281.132 236.727 280.156 240.798 281.278C242.627 281.781 245.298 282.52 246.024 284.528C246.593 286.101 245.686 288.15 241.378 292.736C238.639 295.652 234.511 299.604 228.732 303.688C232.878 305.181 238.887 307.989 244.407 313.434C245.483 314.496 254.054 323.069 251.928 326.551C251.299 327.58 249.599 328.402 241.073 327.279C235.486 326.544 227.889 325.095 218.987 321.988C223.871 328.998 226.166 335.409 227.34 339.965C228.239 343.466 230.312 351.517 227.464 353.311C224.571 355.131 219.804 348.469 214.845 350.286C210.691 351.806 211.379 357.454 206.74 358.997C203.892 359.942 200.525 358.85 198.538 357.03C196.247 354.932 195.999 352.054 195.75 345.047C195.581 340.209 195.449 334.598 195.438 328.33C191.882 332.016 185.2 337.687 176.328 338.4C173.815 338.602 169.541 338.944 167.494 336.283C165.722 333.979 166.399 330.425 167.419 328.278C169.511 323.868 174.082 324.502 178.676 320.325C180.621 318.554 182.988 315.581 184.406 310.379H184.41Z" fill="#999A8D"/>
<path d="M204.4 317.548C197.59 315.3 192.661 306.945 194.29 299.668C195.505 294.234 200.453 289.084 203.888 289.745C204.453 289.854 207.38 289.73 210.217 293.183C213.223 296.842 214.468 298.287 215.379 300.205C217.576 304.829 216.937 313.911 212.813 317.045C209.807 319.331 205.288 317.837 204.404 317.548H204.4Z" fill="#F3F0E9"/>
<path d="M328.397 0.889534C246.104 12.1337 191.382 126.933 215.752 188.701C233.311 233.209 263.415 252.398 263.415 252.398C277.588 261.432 289.959 264.089 297.668 278.077C305.942 293.097 298.308 302.059 301.446 324.502C301.954 328.143 307.91 367.081 335.53 385.422C358.128 400.431 373.065 386.931 399.718 403.107C423.305 417.421 422.033 434.321 434.096 436.28C462.134 440.836 515.249 357 522.992 266.855C525.43 238.482 528.944 144.569 461.092 69.9274C440.183 46.9248 390.602 -7.61494 328.4 0.885781L328.397 0.889534Z" fill="#BF7862"/>
<path d="M449.691 448.121C407.153 418.768 338.108 416.494 279.345 414.557C219.462 412.583 144.148 410.102 99.1113 438.329C94.2991 441.347 63.1157 461.474 69.5458 486.143C79.268 523.445 167.457 542.218 215.27 547.21C242.736 550.077 263.404 549.075 301.86 547.21C357.8 544.5 394.375 542.725 426.462 528.775C426.462 528.775 431.974 526.38 481.371 493.95C479.516 482.589 473.226 464.361 449.691 448.121Z" fill="#E5E2E1"/>
<path d="M286.573 504.609C286.708 500.229 286.791 495.47 286.682 491.098C286.433 482.109 285.546 473.135 283.657 464.342C281.806 455.515 279.029 446.931 277.02 438.119C269.638 405.925 277.81 368.646 290.941 338.843C295.072 329.569 299.866 320.554 305.129 311.873C321.631 283.751 344.421 259.285 357.379 229.167C364.426 212.706 367.308 194.552 365.464 176.732C364.949 171.185 364.038 165.567 363.158 160.046C359.674 139.288 355.298 117.618 351.156 96.9382C355.757 113.936 359.245 132.221 362.872 149.793C363.47 152.957 364.166 156.575 364.734 159.78C369.667 184.745 369.415 206.224 359.185 229.932C344.613 263.271 318.132 289.362 300.603 320.989C287.111 344.42 278.86 370.785 276.61 397.68C275.315 411.082 275.609 424.631 278.585 437.781C280.504 446.579 283.217 455.226 284.876 464.102C287.506 477.425 287.807 491.135 286.765 504.624L286.576 504.612L286.573 504.609Z" fill="#603121"/>
<path d="M347.589 250.026C363.218 258.148 382.057 260.332 398.593 253.644C410.877 248.818 421.172 239.6 427.989 228.39C431.39 222.76 433.975 216.643 435.653 210.285C436.218 208.168 436.59 205.991 437.155 203.856C439.213 195.599 444.45 173.786 446.504 165.263C450.579 148.096 454.545 130.9 458.548 113.714L459.274 113.977C446.862 138.567 434.156 163.03 420.073 186.719C416.51 192.623 412.887 198.515 408.778 204.073C407.785 205.41 406.584 206.858 405.452 208.104L404.173 209.339L404.237 209.271C389.337 227.455 369.648 241.769 347.589 250.026ZM347.476 250.019C363.771 243.342 378.855 233.715 391.55 221.514C395.809 217.457 399.767 213.096 403.477 208.54L404.666 207.372C405.313 206.637 406.261 205.552 406.84 204.768C411.367 198.868 415.231 192.495 419.072 186.13C433.065 162.433 445.914 138.061 458.578 113.636L460.076 110.716L459.3 113.898C451.666 145.315 443.419 178.857 436.387 210.476C435.303 214.781 433.832 218.988 431.951 223.011C430.043 227.027 427.745 230.852 425.085 234.417C406.408 259.247 374.366 265.174 347.472 250.019H347.476Z" fill="#603121"/>
<path d="M347.54 249.97C361.032 251.171 374.769 248.615 387.204 243.368C388.75 242.629 391.12 241.616 392.625 240.801C396.61 238.726 400.342 236.162 403.706 233.171C409.865 227.902 414.169 221.034 417.879 213.907C419.79 210.427 421.709 206.768 423.504 203.24C433.068 184.471 441.861 165.218 449.179 145.462C452.976 135.16 456.302 124.478 458.864 113.801L458.973 113.823C457.46 121.727 455.399 129.522 453.024 137.216C443.897 166.036 430.228 193.171 415.257 219.356C414.241 221.094 413.214 222.835 412.032 224.475C407.404 231.103 401.418 236.834 394.405 240.906C383.825 246.844 371.717 250.109 359.61 250.649C357.676 250.747 355.482 250.743 353.548 250.66C351.532 250.567 349.515 250.417 347.517 250.083L347.536 249.97H347.54Z" fill="#603121"/>
<path d="M306.958 307.835C280.15 323.129 248.06 317.36 229.267 292.631C226.588 289.077 224.266 285.264 222.34 281.259C220.436 277.243 218.942 273.044 217.84 268.747C210.642 237.149 202.233 203.683 194.43 172.289L193.64 169.11L195.152 172.018C207.945 196.38 220.914 220.685 235.031 244.31C238.902 250.653 242.804 257.007 247.357 262.884C247.936 263.661 248.892 264.742 249.546 265.478L250.743 266.641C254.475 271.179 258.456 275.517 262.738 279.555C275.492 291.693 290.625 301.241 306.954 307.835H306.958ZM306.845 307.842C284.744 299.698 264.98 285.489 249.986 267.38L250.05 267.448L248.767 266.221C247.631 264.986 246.423 263.541 245.419 262.209C241.28 256.673 237.627 250.799 234.034 244.914C219.83 221.296 207 196.901 194.46 172.375L195.182 172.109C199.272 189.275 203.328 206.449 207.493 223.597C209.615 232.248 214.935 253.824 217.042 262.141C217.618 264.273 218.002 266.446 218.574 268.563C220.282 274.913 222.9 281.015 226.332 286.626C233.206 297.803 243.549 306.968 255.856 311.73C272.426 318.332 291.257 316.05 306.841 307.85L306.845 307.842Z" fill="#603121"/>
<path d="M306.913 307.895C294.888 309.681 282.49 307.902 271.049 303.965C270.04 303.568 267.753 302.701 266.797 302.314C264.653 301.319 261.996 300.164 259.976 298.959C252.94 294.92 246.928 289.223 242.262 282.618C241.073 280.985 240.035 279.251 239.011 277.517C223.905 251.411 210.093 224.348 200.818 195.573C198.407 187.89 196.303 180.103 194.75 172.21L194.859 172.187C197.477 182.85 200.856 193.512 204.709 203.8C212.128 223.518 221.023 242.726 230.681 261.447C232.495 264.963 234.432 268.619 236.363 272.087C240.11 279.191 244.448 286.041 250.637 291.28C254.389 294.59 258.599 297.349 263.095 299.526C264.596 300.19 267.045 301.38 268.592 301.939C280.609 306.919 294.154 308.784 306.913 307.902V307.895Z" fill="#603121"/>
<path d="M284.345 357.218C266.349 371.453 238.699 376.039 219.183 362.243C211.474 356.963 205.352 349.779 199.799 342.374C195.645 336.809 191.781 331.055 187.917 325.29C174.684 305.369 159.886 271.182 164.552 247.114C165.462 242.64 167.878 231.343 168.819 226.772L168.815 226.937C169.424 227.71 169.797 226.539 169.59 226.949C169.515 227.673 169.473 229.02 169.439 229.775C169.18 240.343 170.26 251.081 173.586 261.15C175.429 266.592 178.029 271.824 181.799 276.181C182.427 276.898 183.063 277.608 183.778 278.249C189.166 282.933 198.117 290.717 203.535 295.397C206.488 297.904 209.37 300.528 212.313 303.046C215.259 305.553 218.269 308.079 220.955 310.92C226.328 316.572 231.095 322.716 235.885 328.845C237.92 331.483 240.896 335.45 243.24 337.799C253.892 349.096 268.919 355.867 284.349 357.225L284.345 357.218ZM284.236 357.248C268.667 356.385 253.501 349.558 242.627 338.377C240.245 336.028 237.239 332.087 235.14 329.415C230.327 323.361 225.515 317.255 220.142 311.697C217.482 308.901 214.533 306.427 211.564 303.913C208.607 301.387 205.74 298.79 202.771 296.275C196.695 291.04 188.925 284.333 182.962 279.067C175.166 271.452 171.595 260.602 169.816 250.112C168.657 242.899 168.303 235.569 168.698 228.277L168.747 227.545L168.777 227.177L168.792 226.994L168.8 226.9L168.807 226.847C168.6 227.23 168.98 226.014 169.597 226.78C168.634 231.467 166.113 242.696 165.131 247.219C160.202 271.456 174.948 305.02 188.545 324.863C198.896 339.454 209.258 356.595 225.624 364.968C235.934 370.128 248.049 370.838 259.231 368.492C268.253 366.57 276.753 362.585 284.24 357.244L284.236 357.248Z" fill="#603121"/>
<path d="M281.693 359.661C266.075 364.187 248.602 363.095 233.465 357.222C225.639 354.001 218.694 348.856 213.046 342.592C202.922 330.166 192.27 318.122 183.451 304.697C172.325 287.823 163.179 268.259 164.055 247.624C164.247 243.548 164.864 239.499 165.903 235.554L166.012 235.581C157.667 275.374 189.779 313.438 213.314 342.352C221.862 351.817 233.063 357.214 245.449 359.766C253.369 361.478 261.549 362.007 269.63 361.421C273.675 361.106 277.72 360.569 281.659 359.556L281.693 359.665V359.661Z" fill="#603121"/>
<path d="M367.97 198.027C358.033 168.461 348.525 138.684 341.004 108.396C340.052 104.167 338.845 99.5578 338.269 95.2681C336.828 85.2774 337.325 75.0202 339.65 65.1984C341.64 64.8194 340.225 65.1271 340.681 65.0558L340.722 65.1121C342.694 67.7918 347.182 73.9356 349.195 76.7016C369.945 106.283 404.15 169.039 367.97 198.027ZM367.97 198.027C401.501 170.056 372.105 113.835 353.323 84.6844C349.613 78.8934 344.432 72.1491 340.398 66.5533L340.071 66.1029L339.906 65.8777L339.823 65.7651L339.781 65.7088C340.21 65.6038 338.766 65.8665 340.73 65.4536C337.678 78.0302 337.825 91.2786 340.97 103.825C341.448 105.991 342.479 110.337 343.025 112.487C350.245 141.3 359.019 169.703 367.966 198.024L367.97 198.027Z" fill="#603121"/>
<path d="M341.618 261.863C327.034 269.437 309.102 274.222 292.672 271.396C284.308 269.996 276.113 266.341 270.424 259.916C259.208 247.249 256.939 228.727 254.336 212.623C250.171 187.74 250.852 162.073 256.484 137.475C259.374 125.229 263.433 113.054 270.236 102.38C274.412 95.8761 281.937 84.2303 286.166 77.6511L286.106 77.7787C286.162 78.8221 287.265 77.9138 286.874 78.1353C286.479 78.8746 285.82 80.2407 285.444 81.0214C277.494 98.203 267.343 125.473 273.852 144.058C274.138 144.914 274.837 146.175 275.225 147.015C278.438 153.625 283.566 164.084 286.843 170.664C288.834 174.578 290.632 178.594 292.649 182.501C293.65 184.456 294.643 186.438 295.52 188.472C297.066 191.989 298.251 195.749 299.316 199.435C300.637 204.205 301.818 209.035 302.898 213.854C303.918 218.114 304.674 222.471 305.821 226.69C310.649 244.393 323.957 257.056 341.618 261.856V261.863ZM341.505 261.875C323.656 257.589 310.02 244.547 305.028 226.922C304.395 224.798 303.948 222.625 303.466 220.489C302.033 214.064 300.543 207.639 298.774 201.304C298.056 198.722 297.232 195.989 296.325 193.475C295.065 189.861 293.401 186.419 291.644 183.015C288.789 177.344 285.771 170.968 282.874 165.27C280.97 161.409 275.962 151.249 274.134 147.485L273.404 145.991C272.633 144.508 272.17 142.865 271.752 141.251C267.41 122.429 276.579 97.6513 284.65 80.6348L285.384 79.1524L285.76 78.413L285.952 78.0452L286.05 77.8613L286.099 77.7675L286.125 77.7187C285.745 77.9138 286.874 76.9568 286.938 77.9964V78.0302L286.877 78.124C281.553 86.3695 273.611 98.0491 268.562 106.268C262.993 115.97 259.411 126.704 256.845 137.554C254.279 148.438 252.872 159.585 252.357 170.75C251.454 187.556 253.61 204.257 256.571 220.76C259.49 236.676 263.05 255.014 277.366 264.701C289.188 272.304 304.32 272.71 317.767 269.974C326 268.337 333.923 265.433 341.505 261.871V261.875Z" fill="#603121"/>
<path d="M337.389 264.404C320.977 266.795 303.248 263.676 289.173 254.748C278.912 248.352 272.43 237.224 269.98 225.59C269.04 221.619 267.572 215.798 266.534 211.782C257.414 177.686 253.015 139.982 267.655 106.768C270.488 100.226 274.014 93.962 278.111 88.1298C265.112 108.757 259.268 131.012 259.306 155.512C259.11 179.284 264.701 202.554 270.323 225.511C272.512 235.877 278.149 245.658 286.78 251.948C301.224 262.408 320.047 265.793 337.389 264.404Z" fill="#603121"/>
<path d="M329.841 326.12C336.369 326.142 342.814 325.02 349.173 323.658C352.71 322.967 358.338 321.714 361.909 320.929C385.018 315.671 408.364 308.964 429.757 298.704C444.269 291.543 461.72 281.004 467.871 265.365C474.098 248.562 473.282 229.681 493.558 222.959L493.678 223.316C488.945 224.989 484.189 226.907 480.314 230.131C478.369 231.711 476.615 233.531 475.103 235.528C473.553 237.502 472.401 239.739 471.137 241.927C469.884 244.119 468.654 246.318 467.382 248.502C464.828 252.897 461.468 256.819 457.581 260.099C451.723 265.038 444.525 268.251 437.023 269.696C432.06 270.762 427.041 271.528 421.999 272.06C401.9 274.042 382.181 278.827 362.752 284.19C355.505 286.285 348.477 289.126 341.806 292.635C335.169 296.23 328.675 300.16 322.294 304.194C314.904 308.923 307.477 313.907 302.398 321.181C298.936 326.386 296.336 332.147 292.698 337.244L292.374 336.94C294.974 334.737 297.668 332.643 300.52 330.77C305.125 327.797 310.276 325.08 315.875 324.893C317.079 324.851 318.497 325.02 319.698 325.245C323.05 325.808 326.447 326.109 329.849 326.124L329.841 326.12ZM329.841 326.232C326.436 326.232 323.027 325.951 319.664 325.407L318.403 325.208C317.982 325.167 317.564 325.103 317.139 325.088C314.599 324.949 312.063 325.482 309.671 326.311C302.657 328.852 296.769 333.667 291.223 338.52C294.613 334.02 297.014 328.897 299.832 324.041C304.633 314.932 313.275 308.781 321.729 303.335C328.114 299.21 334.571 295.236 341.264 291.622C356.976 283.218 374.652 279.664 391.884 275.75C401.787 273.671 411.799 271.952 421.886 271.032C426.898 270.51 431.895 269.809 436.827 268.788C446.719 267.016 455.956 261.95 462.457 254.271C466.607 249.508 469.282 243.729 472.563 238.377C477.537 230.101 484.569 225.935 493.562 222.959L493.682 223.316C489.603 224.712 485.702 226.783 482.594 229.786C476.314 235.945 474.185 244.821 472.018 253.059C470.381 259.323 469.038 265.879 465.603 271.49C455.286 287.782 435.642 297.713 418.263 304.881C400.32 312.132 380.921 317.225 361.988 321.245C358.425 321.965 352.77 323.181 349.225 323.864C342.852 325.2 336.384 326.292 329.852 326.236L329.841 326.232Z" fill="#603121"/>
<path d="M292.465 337.049C299.166 330.612 306.691 324.93 314.735 320.261C315.668 319.728 316.849 318.996 317.786 318.539L320.905 316.936C322.365 316.163 324.164 315.439 325.684 314.741C339.059 308.897 353.594 306.405 367.68 302.978C376.583 300.854 385.793 298.321 394.563 295.622C407.811 291.393 421.126 287.208 433.787 281.451C437.964 279.477 442.035 277.367 445.635 274.5C447.121 273.404 449.62 271.43 451.008 270.169C456.223 265.673 460.956 260.49 465.155 255.04C470.723 247.669 475.641 239.739 479.242 231.212L479.381 231.265C478.621 233.46 477.722 235.611 476.736 237.716C473.82 244.025 470.163 250.098 466.096 255.742C461.25 262.321 455.689 268.416 449.371 273.622C446.659 275.765 443.754 278.05 440.725 279.698C434.6 283.143 428.008 285.65 421.443 288.056C396.309 297.157 369.897 302.397 344.233 309.719C339.883 310.995 335.274 312.436 331.038 314.039C321.293 317.627 312.041 322.674 303.56 328.642C301.675 329.985 299.802 331.352 297.969 332.774C296.137 334.196 294.342 335.668 292.57 337.165L292.469 337.053L292.465 337.049Z" fill="#603121"/>
<path d="M278.487 378.115C282.024 383.287 286.554 387.892 291.855 391.292C295.174 393.397 298.808 395.026 302.605 396.036C304.862 396.666 307.199 397.113 309.543 397.211C322.478 397.852 333.525 389.907 343.804 383.035C346.43 381.249 349.045 379.473 351.551 377.537C363.832 368.12 379.043 351.9 381.594 336.219C382.053 333.13 383.141 325.279 383.603 322.115L383.622 321.98L383.66 321.954C384.149 321.597 383.916 321.807 384.22 321.841C384.439 321.988 384.427 322.239 384.412 322.295C384.393 322.389 384.401 322.34 384.393 322.367L384.386 322.397L384.352 322.521L384.281 322.764L384.134 323.249C382.618 328.038 380.608 332.669 378.11 337.034C374.573 343.095 369.912 348.923 363.497 352.106L363.038 352.331C362.883 352.41 362.729 352.481 362.571 352.534C359.448 353.716 356.284 354.91 353.172 356.051C348.721 357.672 342.528 359.954 338.156 361.583C335.636 362.48 333.152 363.35 330.771 364.499C325.977 366.758 321.398 369.505 316.838 372.219C314.855 373.416 311.943 375.229 309.832 376.16C300.106 380.682 288.684 381.403 278.487 378.115ZM278.397 378.047C289.925 381.211 302.718 379.789 312.952 373.521C318.618 370.042 324.307 366.402 330.289 363.485C332.712 362.307 335.267 361.406 337.765 360.509C342.107 358.88 348.345 356.565 352.759 354.943L360.242 352.166C360.731 351.982 362.518 351.359 362.989 351.074C369.223 348.023 373.749 342.393 377.23 336.523C379.856 332.042 381.993 327.246 383.547 322.288L383.581 322.171L383.588 322.141C383.588 322.149 383.603 322.081 383.588 322.153C383.577 322.19 383.569 322.419 383.795 322.547C384.104 322.562 383.878 322.742 384.367 322.378C384.63 321.29 382.836 331.963 382.922 331.61L382.174 336.306C381.669 339.458 380.608 342.509 379.265 345.396C373.14 358.246 362.936 369.122 351.961 378.051C346.942 381.969 341.723 385.595 336.396 389.078C331.023 392.504 325.334 395.649 319.077 397.173C303.165 401.313 286.415 391.637 278.401 378.044L278.397 378.047Z" fill="#603121"/>
<path d="M279.582 380.194C290.531 387.419 306.345 391.502 319.303 388.627C322.347 387.937 325.315 386.852 328.077 385.384C330.229 384.236 332.28 382.885 334.398 381.676C354.764 369.408 379.657 353.78 383.931 328.54L384.044 328.555C383.536 334.144 381.726 339.593 379.043 344.521C368.651 363.298 349.015 373.874 330.974 384.12C328.604 385.557 326.053 386.916 323.46 387.892C314.19 391.678 303.813 390.999 294.429 387.974C290.415 386.672 286.539 384.927 282.957 382.701C281.765 381.958 280.602 381.174 279.515 380.284L279.586 380.194H279.582Z" fill="#603121"/>
<path d="M349.714 218.054C347.525 215.854 345.918 213.186 344.251 210.593C343.424 209.29 342.558 208.011 341.757 206.693C340.331 204.348 338.382 201.064 337.129 198.665C336.828 198.08 336.305 197.213 336.042 196.616C334.39 193.145 332.667 189.617 331.512 185.939C329.871 180.816 328.641 175.224 329.973 169.883C331.937 163.244 339.183 158.455 335.376 150.84L335.601 150.731C335.993 151.549 336.335 152.379 336.636 153.231C337.234 154.946 337.415 156.807 337.159 158.605C336.941 160.136 336.192 162.313 335.812 163.833C334.638 168.123 335.492 172.825 338.013 176.481C338.976 177.982 340.041 179.416 341.147 180.819C343.42 183.616 345.474 186.592 347.404 189.628C349.338 192.668 351.144 195.775 352.852 198.951C355.467 203.747 356.728 209.076 357.751 214.387C358.447 217.9 358.997 221.664 357.826 225.155C357.198 227.245 356.442 229.328 356.111 231.494C355.9 227.744 355.795 222.85 352.446 220.437C351.472 219.713 350.557 218.913 349.714 218.042V218.054ZM349.771 218.001C350.621 218.861 351.539 219.649 352.518 220.358C353.537 221.03 354.305 222.047 354.816 223.147C355.829 225.369 356.167 227.819 356.355 230.229L356.058 230.217L356.103 229.936C356.532 227.849 357.273 225.834 357.721 223.755C357.958 222.467 357.996 221.109 357.917 219.803C357.612 216.267 356.698 212.762 355.874 209.305C355.068 205.826 353.846 202.467 352.164 199.33C350.456 196.188 348.653 193.085 346.761 190.045C344.861 187.008 342.852 184.051 340.609 181.255C337.114 176.77 334.236 172.364 334.905 166.411C334.999 164.779 335.741 162.715 336.177 161.15C337.494 157.46 337.106 154.334 335.379 150.847L335.605 150.739C336.264 152.146 336.696 153.681 336.7 155.246C336.617 160.853 331.749 164.813 330.409 169.996C328.942 176.781 331.312 183.754 333.728 190.056C336.042 195.655 338.927 201.304 341.986 206.554C343.548 209.212 345.188 211.827 346.878 214.406C347.747 215.674 348.702 216.894 349.771 218.001Z" fill="#603121"/>
<path d="M356.163 230.24C355.787 225.316 354.797 220.456 352.946 215.881C352.002 213.61 350.892 211.403 349.737 209.23C345.433 201.233 340.459 193.58 336.685 185.301C335.345 182.264 333.931 179.168 333.566 175.828C333.144 172.521 333.325 169.144 333.886 165.867C334.33 163.417 334.999 161.007 335.91 158.691C336.211 157.922 336.546 157.16 336.926 156.425L336.993 156.455C335.741 159.495 334.954 162.715 334.465 165.957C334.123 168.374 333.983 170.855 334.13 173.291C334.239 175.73 334.664 178.136 335.511 180.44C338.408 188.134 342.171 195.524 346.321 202.625C348.849 206.877 351.727 211.002 353.563 215.633C354.794 218.718 355.573 221.987 355.96 225.282C356.156 226.93 356.246 228.585 356.235 230.236H356.159L356.163 230.24Z" fill="#603121"/>
<path d="M259.317 434.888C253.09 433.552 247.3 430.455 241.483 427.952C237.446 426.147 231.599 423.328 227.709 421.215C224.454 419.455 220.782 417.56 217.667 415.597C206.168 408.515 189.542 396.651 187.401 382.468C186.114 372.249 188.914 361.151 178.285 354.996L178.413 354.782C180.952 356.34 183.454 358.07 185.313 360.427C189.203 364.99 189.467 371.603 192.311 376.715C195.069 381.947 199.723 386.015 205.179 388.282C207.88 389.494 210.661 390.526 213.475 391.461C219.153 393.266 224.691 395.522 230.117 397.969C240.888 402.968 251.977 408.053 260.521 416.498C262.703 418.52 264.84 420.592 266.925 422.72C271.09 426.924 275.274 431.562 276.865 437.413C277.874 440.607 278.615 443.903 280.014 446.961L279.262 445.94C276.301 442.045 272.956 437.916 268.208 436.197C267.263 435.871 266.278 435.725 265.273 435.695C263.271 435.582 261.277 435.312 259.321 434.876L259.317 434.888ZM259.336 434.816C261.292 435.237 263.283 435.496 265.281 435.597C266.029 435.627 266.793 435.687 267.523 435.878C272.617 437.282 276.357 441.782 279.503 445.775L279.247 445.929L279.055 445.501C277.441 441.564 276.779 437.263 274.758 433.495C272.693 429.543 269.562 426.364 266.439 423.212C264.348 421.11 262.184 419.08 260.009 417.064C255.713 412.988 250.961 409.427 245.75 406.604C240.52 403.808 235.196 401.151 229.804 398.678C224.401 396.212 218.916 393.949 213.261 392.125C210.431 391.179 207.643 390.102 204.927 388.856C199.403 386.503 194.666 382.288 191.912 376.936C189.109 371.813 188.917 365.204 185.095 360.614C183.281 358.272 180.794 356.568 178.292 355.007L178.42 354.793C190.757 362.127 185.178 375 188.699 386.086C193.429 398.618 207.004 408.109 217.986 415.101C221.094 417.072 224.695 419.023 227.927 420.832C231.776 423.005 237.57 425.899 241.577 427.768C247.345 430.358 253.128 433.443 259.336 434.82V434.816Z" fill="#603121"/>
<path d="M279.348 445.88C274.45 439.358 268.659 433.431 261.924 428.796C258.565 426.503 254.975 424.462 251.382 422.548C238.07 415.601 224.292 409.329 211.586 401.286C208.125 399.068 204.656 396.798 201.589 394.039C200.062 392.714 198.688 391.01 197.405 389.46C194.441 385.692 192.003 381.466 190.057 377.094C187.89 372.069 186.231 366.796 185.501 361.369L185.576 361.357C186.528 366.721 188.349 371.907 190.595 376.854C192.879 381.752 195.776 386.447 199.317 390.541C202.812 394.703 207.466 397.706 211.97 400.693C216.549 403.658 221.275 406.406 226.015 409.127C235.485 414.64 245.561 418.915 255.272 423.974C257.646 425.261 260.081 426.721 262.301 428.256C266.793 431.401 270.875 435.154 274.438 439.313C276.222 441.392 277.885 443.569 279.409 445.839L279.348 445.884V445.88Z" fill="#603121"/>
<path d="M325.815 475.642C328.02 469.896 330.383 463.704 335.225 459.106C339.601 454.952 343.047 454.269 350.192 447.716C354.47 443.79 356.623 441.771 357.187 438.971C358.218 433.863 354.072 431.356 350.7 423.291C349.549 420.532 345.832 411.637 347.72 402.529C349.673 393.116 355.731 392.557 357.119 382.577C357.413 380.457 358.128 374.827 355.392 369.209C353.074 364.446 350.482 364.217 342.321 357.064C334.33 350.057 330.281 346.413 329.036 340.64C328.001 335.836 330.157 335.356 329.789 328.492C329.664 326.165 329.104 315.705 322.245 309.584C319.378 307.024 314.637 306.063 305.272 304.243C290.753 301.421 288.066 302.468 282.144 300.017C277.769 298.204 271.809 294.56 266.071 286.348C258.858 312.687 262.452 323.357 267.629 328.045C269.691 329.914 271.974 330.807 275.142 334.549C276.181 335.776 283.465 344.622 282.664 355.6C282.457 358.411 281.862 359.47 275.993 371.247C268.344 386.601 266.255 391.025 265.431 397.627C264.799 402.679 264.31 407.1 267.045 410.267C270.646 414.441 278.122 414.452 283.266 414.46C289.684 414.471 291.716 413.06 295.704 414.704C296.487 415.026 301.164 416.952 302.808 421.403C304.136 424.998 302.83 428.481 300.501 434.441C297.601 441.865 295.343 443.223 295.983 446.905C296.667 450.838 299.956 453.357 300.716 453.905C302.966 455.533 304.068 455.09 308.756 456.614C312.395 457.796 316.086 458.997 319.175 461.745C320.649 463.058 322.914 465.547 324.374 469.945L325.417 473.529L325.812 475.642" fill="#E2B34B"/>
<path d="M326.707 501.846C325.733 465.029 323.524 428.087 317.03 391.787C314.329 377.92 311.582 363.677 304.768 351.153C303.519 348.98 302.055 346.931 300.298 345.133L300.377 345.05C302.853 347.343 304.787 350.169 306.409 353.119C309.622 359.049 311.83 365.46 313.678 371.926C318.264 388.106 320.525 404.837 322.354 421.497C325.074 448.11 326.76 475.308 326.703 501.846H326.707Z" fill="#603121"/>
<path d="M322.644 426.368C323.302 415.27 328.347 402.566 337.34 395.634C338.642 394.583 340.071 393.698 341.524 392.887L341.588 392.981C339.014 395.079 336.595 397.293 334.469 399.774C333.882 400.438 333.077 401.444 332.52 402.127C329.074 406.466 326.508 411.442 324.83 416.727C323.825 419.86 323.065 423.092 322.76 426.372L322.647 426.368H322.644Z" fill="#603121"/>
<path d="M318.422 399.211C316.5 390.65 312.361 382.078 305.28 376.655C304.351 375.987 303.184 375.255 302.191 374.711C301.186 374.189 299.93 373.637 298.869 373.221L297.48 372.767C293.759 371.592 289.778 371.363 285.798 371.558L285.783 371.446C286.276 371.356 286.768 371.269 287.261 371.19C289.857 370.733 292.574 370.763 295.185 371.112C304.384 372.451 311.206 379.695 314.946 387.79C315.788 389.607 316.515 391.476 317.109 393.379C317.704 395.285 318.208 397.214 318.531 399.185L318.418 399.203L318.422 399.211Z" fill="#603121"/>
<path d="M313.779 373.517C312.549 366.068 312.316 353.243 319.416 348.604C320.507 347.891 321.729 347.4 322.979 347.163L323.012 347.272C321.872 347.816 320.819 348.458 319.893 349.243C315.254 353.405 313.926 360.01 313.674 366.015C313.565 368.507 313.636 371.014 313.892 373.502L313.779 373.521V373.517Z" fill="#603121"/>
<path d="M0 313.25C2.0355 306.431 7.49485 302.299 13.3944 298.854C19.215 295.528 25.043 292.252 30.9125 289.017C36.7895 285.793 42.7229 282.697 48.694 279.645C51.6814 278.129 54.7365 276.684 57.8706 275.461C68.8082 271.088 80.3815 268.514 92.0076 266.746C95.3976 266.333 99.0058 266.119 102.234 267.568C106.933 269.831 110.146 274.38 112.396 278.895C113.153 280.415 113.819 281.972 114.439 283.526C116.151 287.422 117.352 291.907 116.035 296.129C114.827 299.953 111.986 303.819 109.962 307.257C106.606 312.965 102.772 318.539 100.341 324.705C97.9711 330.867 96.6053 337.484 96.5075 344.086C96.515 347.396 97.0568 350.695 97.6174 353.956C98.8139 360.517 100.086 367.085 101.579 373.589C102.324 376.839 103.201 380.074 103.807 383.377C105.564 393.266 106.354 403.339 105.831 413.375C105.654 416.73 105.014 420.025 104.909 423.347C104.838 425.01 104.841 426.676 104.871 428.342C104.909 433.36 105.65 438.307 106 443.317C106.452 449.998 106.542 456.697 106.264 463.388L105.598 463.223C110.192 453.345 113.22 442.724 114.09 431.863C114.639 424.627 114.65 417.259 115.568 410.031C116.607 401.196 117.423 392.095 121.084 383.853C123.518 378.599 127.063 373.806 131.555 370.128C134.384 367.813 137.3 365.696 139.851 363.095C141.082 361.872 142.342 360.419 143.433 359.061C146.729 354.805 150.017 350.346 152.395 345.546C154.954 340.336 156.06 334.467 155.83 328.683C155.481 320.122 152.267 311.933 148.614 304.281C147 301.008 144.475 298.279 142.854 295.003C141.149 291.708 139.723 288.308 138.64 284.765C137.53 281.222 136.962 277.574 136.175 274.053C135.502 270.968 134.595 267.932 133.542 264.96C130.374 255.945 125.087 247.523 123.853 237.881C123.706 236.71 123.661 236.192 123.597 235.108C123.326 229.167 123.372 223.207 123.823 217.273C124.286 211.339 126.167 205.582 127.206 199.784C128.195 194.466 128.173 188.949 126.543 183.773C125.49 180.298 123.654 176.916 123.684 173.171C123.752 165.665 128.346 159.157 132.898 153.565C135.679 150.149 140.837 144.426 143.655 141.149L143.768 141.247L136.706 149.605C130.268 157.348 121.389 167.654 125.464 178.376C126.231 180.489 127.153 182.64 127.744 184.85C129.094 189.763 129.079 194.976 128.206 199.953C127.224 205.807 125.433 211.448 124.993 217.359C124.587 223.237 124.579 229.155 124.888 235.04L124.986 236.376C125.031 236.823 125.095 237.262 125.151 237.709C126.679 248.547 133.241 257.851 136.266 268.382C138.41 275.352 138.982 282.719 141.988 289.377C143.365 292.706 144.979 295.904 147.117 298.812C149.333 301.766 150.954 305.204 152.331 308.597C154.483 313.686 156.308 318.974 157.065 324.468C159.156 339.815 152.982 349.614 143.715 361.065C142.839 362.063 141.834 363.189 140.893 364.127C138.316 366.743 135.295 368.927 132.473 371.22C127.597 375.191 123.88 380.468 121.532 386.274C118.574 393.897 117.75 402.105 116.757 410.17C115.801 417.391 115.726 424.698 115.098 431.956C114.112 442.904 110.952 453.616 106.245 463.527L105.492 465.107L105.579 463.362C105.902 456.704 105.895 450.016 105.462 443.362C105.127 438.378 104.397 433.375 104.379 428.357C104.352 426.683 104.356 425.01 104.435 423.332C104.552 419.969 105.203 416.67 105.387 413.353C105.91 403.369 105.037 393.311 103.261 383.486C102.644 380.213 101.771 376.989 100.989 373.735C99.4234 367.227 98.084 360.682 96.8123 354.106C96.2065 350.8 95.6309 347.475 95.5857 344.093C95.6196 337.334 96.9327 330.631 99.2917 324.303C101.703 317.979 105.485 312.391 108.867 306.589C110.801 303.256 113.593 299.405 114.759 295.754C115.971 291.79 114.801 287.737 113.194 284.04C112.566 282.494 111.934 280.97 111.204 279.495C109.044 275.157 106.132 270.931 101.711 268.739C98.7575 267.399 95.3524 267.606 92.1656 267.985C80.6336 269.681 69.1505 272.237 58.2657 276.459C55.1466 277.641 52.1291 279.034 49.1342 280.52C43.1518 283.504 37.1846 286.547 31.2887 289.707C25.4042 292.886 19.5047 296.069 13.6465 299.297C10.7532 300.94 7.92377 302.757 5.49698 305.031C4.28922 306.168 3.17929 307.418 2.2763 308.814C1.36578 310.207 0.733683 311.753 0.142974 313.318L0.00376248 313.265L0 313.25Z" fill="#603121"/>
<path d="M94.2313 221.067C95.9433 222.024 97.5536 223.124 99.0473 224.389C99.7659 225.038 100.432 225.785 101.233 226.344C102.592 227.384 104.977 228.011 106.584 228.585C108.401 229.148 110.192 229.654 112.054 230.037C112.987 230.217 113.932 230.334 114.932 230.458L114.955 230.608C112.084 231.734 108.77 231.227 106.057 229.902C104.209 229.118 102.712 227.71 100.974 226.753C100.116 226.265 99.1639 225.909 98.3023 225.398C97.0306 224.614 95.932 223.571 94.9838 222.418C94.6678 222.028 94.3705 221.623 94.126 221.172L94.2313 221.067Z" fill="#603121"/>
<path d="M89.5693 217.956C90.841 222.512 90.2729 228.904 84.505 229.662C78.2706 230.383 69.6696 225.094 66.0726 220.197C63.2508 216.35 62.7654 211.182 64.1124 206.678C64.8047 204.423 66.2382 202.321 68.1608 200.928C70.5951 199.112 73.6954 198.504 76.6678 198.493C79.6928 198.38 83.0339 198.894 85.25 201.184C90.017 205.77 85.1747 214.8 93.614 212.375C95.8451 211.842 97.4178 210.33 99.0131 208.739C100.627 207.166 101.967 205.338 102.591 203.162C103.253 200.992 103.257 198.647 102.719 196.432L102.862 196.387C103.66 198.594 103.867 201.049 103.329 203.353C102.813 205.691 101.493 207.842 99.871 209.557C98.3171 211.313 96.4095 213.145 94.0391 213.768C91.5709 214.668 88.2487 214.661 87.0409 211.782C86.5367 210.6 86.4352 209.392 86.2734 208.179C85.9498 204.76 85.0393 201.795 81.5628 200.504C79.5498 199.735 77.2434 199.735 74.9671 199.784C70.3731 199.844 66.0651 202.336 64.5902 206.843C63.5367 210.048 63.5555 213.734 64.9401 216.841C66.3473 219.987 69.06 222.223 71.9045 224.059C77.9771 228.059 89.0877 232.8 89.5806 221.424C89.6295 220.287 89.5655 219.135 89.415 217.994L89.5618 217.964L89.5693 217.956Z" fill="#603121"/>
<path d="M149.438 107.432C152.561 108.997 155.661 110.592 158.615 112.465C159.476 113.084 161.632 114.24 161.293 115.535C161.004 116.143 160.21 115.996 159.721 115.812C157.964 115.118 157.012 113.467 155.943 112.044C152.956 107.736 150.397 102.992 149.254 97.8276C148.565 94.7952 148.588 91.6163 149.472 88.6176C150.239 86.0955 151.458 83.5584 153.603 81.9108C154.653 81.0889 155.958 80.5222 157.294 80.4134C157.689 80.3496 158.238 80.3833 158.637 80.4096C158.833 80.4021 159.104 80.4884 159.299 80.5185C159.518 80.571 159.743 80.5898 159.95 80.6798C162.723 81.5355 164.262 83.6936 164.999 86.392C166.234 90.8056 165.929 98.1729 162.084 101.254C161.384 101.787 159.89 103.048 159.115 102.035C158.532 100.657 160.048 98.871 161.083 98.0866C164.119 96.1463 169.552 98.3005 171.55 100.991C175.09 105.48 168.912 109.56 165.041 110.738C161.192 111.999 156.76 111.74 153.291 109.556C147.805 105.833 143.704 100.132 141.687 93.8419C140.652 90.5091 140.321 86.5609 142.395 83.5397C144.769 79.674 149.088 80.6386 150.706 84.553C150.732 84.6131 150.638 84.6393 150.619 84.5905C150.269 83.8024 149.743 83.0968 149.103 82.5339C145.754 79.659 142.718 82.6802 141.777 86.1105C141.142 88.5951 141.631 91.211 142.391 93.628C144.287 99.7455 150.777 108.629 157.275 110.145C159.728 110.746 162.343 110.551 164.747 109.807C167.426 108.914 170.338 107.413 171.546 104.752C172.02 103.656 171.546 102.429 170.861 101.509C169.338 99.539 166.843 98.3981 164.394 98.1241C163.374 98.0378 162.324 98.0979 161.485 98.6533C160.68 99.2313 159.962 100.079 159.649 101.022C159.134 102.77 161.226 101.288 161.764 100.86C165.564 97.9102 165.895 90.8056 164.725 86.4783C164.262 84.857 163.487 83.2057 162.106 82.1848C160.278 80.7511 157.651 80.2895 155.522 81.3104C152.956 82.4325 151.398 85.0109 150.518 87.5817C148.753 92.5771 149.671 97.7376 151.613 102.56C152.888 105.754 154.589 108.787 156.541 111.635C157.614 113.043 158.603 115.028 160.481 115.37C160.586 115.385 160.71 115.362 160.759 115.302C160.876 113.662 151.24 108.655 149.4 107.518C149.348 107.492 149.393 107.409 149.445 107.436L149.438 107.432Z" fill="#BF7862"/>
<path d="M173.826 137.501C175.76 138.5 177.694 139.502 179.526 140.677C180.079 141.059 180.73 141.42 181.095 142.031C181.159 142.159 181.242 142.32 181.167 142.519C181.001 142.853 180.55 142.756 180.275 142.654C179.203 142.227 178.616 141.198 177.961 140.32C177.333 139.427 176.757 138.5 176.227 137.546C175.158 135.64 174.289 133.609 173.819 131.474C173.123 128.299 173.623 124.643 175.858 122.163C178.488 119.333 182.672 120.703 183.518 124.366C184.339 127.462 184.124 132.288 181.016 134.064C180.655 134.304 179.921 134.484 179.861 133.85C179.884 132.855 180.663 131.958 181.532 131.515C184 130.528 189.008 132.923 188.067 135.97C187.277 137.794 185.343 138.83 183.545 139.445C181.445 140.121 179.06 140.095 177.039 139.115C174.123 137.558 171.945 134.852 170.361 132.007C168.69 128.862 167.242 123.945 170.639 121.427C172.167 120.432 174.056 121.701 174.62 123.213L174.586 123.228C174.157 122.253 173.288 121.408 172.231 121.228C171.14 121.04 170.173 121.817 169.654 122.714C168.435 124.557 168.724 126.895 169.356 128.903C170.369 131.962 172.25 134.728 174.624 136.905C177.009 139.303 180.189 140.121 183.432 139.074C185.543 138.421 189.241 136.263 187.285 133.733C185.926 131.943 181.968 130.404 180.49 132.78C179.511 134.375 180.475 134.345 181.573 133.429C182.439 132.791 182.95 131.8 183.278 130.783C184.102 128.051 184.15 123.671 181.769 121.701C180.008 120.286 177.468 120.609 176.02 122.305C174.417 124.11 173.807 126.651 173.841 129.016C174.052 133.065 175.975 136.837 178.21 140.155C178.849 141.011 179.406 142.02 180.377 142.422C181.099 142.684 181.118 142.32 180.689 141.829C178.657 140.072 176.148 138.879 173.822 137.535L173.841 137.501H173.826Z" fill="#603121"/>
</g>
<g clip-path="url(#clip1_353_131)">
<path d="M192.3 771.685C198.967 775.022 205.586 778.423 211.892 782.416C213.732 783.737 218.335 786.202 217.612 788.963C216.993 790.259 215.298 789.947 214.254 789.555C210.503 788.075 208.47 784.553 206.189 781.52C199.811 772.333 194.348 762.217 191.906 751.205C190.436 744.739 190.484 737.96 192.372 731.566C194.011 726.188 196.613 720.778 201.192 717.265C203.434 715.512 206.221 714.304 209.073 714.072C209.916 713.936 211.089 714.008 211.941 714.064C212.358 714.048 212.937 714.232 213.354 714.296C213.82 714.408 214.302 714.448 214.744 714.64C220.664 716.465 223.95 721.066 225.524 726.82C228.159 736.232 227.509 751.941 219.299 758.512C217.805 759.648 214.616 762.337 212.961 760.176C211.716 757.239 214.953 753.43 217.162 751.757C223.645 747.62 235.245 752.214 239.51 757.952C247.069 767.523 233.879 776.222 225.613 778.735C217.395 781.424 207.932 780.872 200.526 776.214C188.813 768.275 180.057 756.119 175.751 742.706C173.534 735.6 172.827 727.181 177.246 720.738C182.323 712.495 191.545 714.552 194.999 722.899C195.055 723.027 194.854 723.083 194.814 722.979C194.067 721.298 192.942 719.794 191.577 718.593C184.427 712.455 177.936 718.898 175.936 726.212C174.579 731.51 175.623 737.088 177.246 742.242C181.294 755.287 195.151 774.23 209.025 777.463C214.262 778.743 219.845 778.327 224.978 776.742C230.698 774.838 236.915 771.637 239.494 765.963C240.506 763.626 239.494 761.009 238.032 759.048C234.779 754.847 229.453 752.414 224.223 751.829C222.046 751.645 219.805 751.773 218.014 752.958C216.294 754.19 214.76 755.999 214.093 758.008C212.993 761.737 217.459 758.576 218.608 757.664C226.721 751.373 227.428 736.224 224.93 726.996C223.942 723.539 222.287 720.018 219.339 717.841C215.435 714.784 209.828 713.8 205.281 715.976C199.803 718.369 196.477 723.867 194.597 729.349C190.83 740.001 192.79 751.005 196.935 761.289C199.658 768.099 203.289 774.566 207.458 780.64C209.748 783.641 211.86 787.874 215.869 788.603C216.094 788.635 216.359 788.587 216.463 788.459C216.712 784.961 196.139 774.286 192.211 771.861C192.099 771.805 192.195 771.629 192.308 771.685H192.3Z" fill="#BF7862"/>
<path d="M244.37 835.804C248.499 837.933 252.628 840.069 256.54 842.574C257.721 843.391 259.111 844.159 259.89 845.463C260.026 845.736 260.203 846.08 260.043 846.504C259.689 847.216 258.725 847.008 258.139 846.792C255.849 845.88 254.596 843.687 253.198 841.814C251.857 839.909 250.628 837.933 249.495 835.9C247.214 831.835 245.358 827.505 244.354 822.951C242.868 816.181 243.936 808.386 248.708 803.096C254.323 797.062 263.256 799.983 265.063 807.794C266.814 814.396 266.357 824.688 259.721 828.473C258.95 828.985 257.384 829.37 257.255 828.017C257.303 825.896 258.966 823.984 260.822 823.039C266.091 820.935 276.783 826.04 274.775 832.539C273.088 836.428 268.959 838.637 265.119 839.949C260.637 841.39 255.544 841.334 251.23 839.245C245.005 835.924 240.353 830.154 236.971 824.088C233.405 817.381 230.312 806.898 237.566 801.528C240.827 799.407 244.86 802.112 246.065 805.337L245.993 805.369C245.077 803.288 243.221 801.488 240.964 801.103C238.634 800.703 236.57 802.36 235.461 804.273C232.859 808.202 233.477 813.188 234.827 817.469C236.988 823.992 241.004 829.89 246.073 834.531C251.166 839.645 257.954 841.39 264.878 839.157C269.385 837.765 277.282 833.163 273.104 827.769C270.204 823.952 261.754 820.67 258.597 825.736C256.508 829.138 258.564 829.074 260.91 827.121C262.758 825.76 263.85 823.648 264.549 821.479C266.308 815.653 266.413 806.313 261.328 802.112C257.568 799.095 252.146 799.783 249.053 803.4C245.631 807.25 244.33 812.668 244.402 817.709C244.852 826.345 248.957 834.387 253.729 841.462C255.094 843.287 256.283 845.439 258.356 846.296C259.898 846.856 259.938 846.08 259.022 845.031C254.684 841.286 249.326 838.741 244.362 835.876L244.402 835.804H244.37Z" fill="#603121"/>
</g>
<defs>
<clipPath id="clip0_353_131">
<rect width="524" height="549" fill="white"/>
</clipPath>
<clipPath id="clip1_353_131">
<rect width="101" height="133" fill="white" transform="translate(174 714)"/>
</clipPath>
</defs>
</svg>
