<svg width="87" height="415" viewBox="0 0 87 415" fill="none" xmlns="http://www.w3.org/2000/svg">
<path d="M41.9344 24.3683C38.9679 28.1821 34.4042 29.8603 31.4767 28.9263C30.6797 28.6721 29.0161 27.9088 27.7381 26.4381C27.6253 26.3085 26.723 25.2477 26.5662 24.478C26.1375 22.375 30.6308 19.2919 37.6377 17.1817C33.89 15.9539 31.3705 14.3819 29.7857 13.1915C28.5608 12.271 26.7777 10.9051 27.1924 9.9293C27.4735 9.26722 28.6462 9.07037 29.4879 8.92875C32.6385 8.39979 34.123 9.77635 36.7918 9.31395C37.5141 9.18862 38.6122 8.87918 39.8528 7.97988C39.0575 5.9979 38.059 4.5824 37.2488 3.62433C36.3738 2.58908 35.5735 1.91425 35.8165 1.22881C36.1234 0.362795 37.8923 0.0469801 38.6221 0.00590997C43.0855 -0.245467 47.1418 7.59892 47.8027 8.90821C47.8774 7.90695 48.1834 6.25919 49.4257 4.63196C49.8951 4.01733 50.7883 2.87869 52.476 2.20458C53.234 1.90151 54.3419 1.45894 55.1621 1.85761C55.8057 2.16988 56.0902 2.97924 55.9649 5.3514C55.8853 6.85895 55.6373 9.0038 54.8735 11.5926C56.6939 11.0056 59.5161 10.3407 62.9321 10.551C63.598 10.5921 68.938 10.9532 69.2266 12.4749C69.3121 12.9239 68.977 13.5767 65.7966 15.3428C63.7108 16.5005 60.7468 17.9451 56.8689 19.2338C60.5229 20.0502 63.1369 21.3277 64.8404 22.3488C66.149 23.1333 69.1586 24.9369 68.7199 26.1485C68.2738 27.3806 64.7591 26.6356 63.6188 28.3719C62.6634 29.8264 64.5177 31.2787 63.4064 32.857C62.7239 33.8264 61.2792 34.3377 60.0908 34.3023C58.7199 34.2612 57.8085 33.4965 55.7095 31.5449C54.2607 30.1981 52.6037 28.6183 50.7966 26.8226C50.6639 28.7507 50.0543 32.0165 47.2844 34.3929C46.499 35.0663 45.1646 36.212 43.7133 35.9493C42.4561 35.722 41.6616 34.536 41.3854 33.6692C40.8198 31.8912 42.534 30.9537 42.8732 28.6282C43.0167 27.644 42.9537 26.2108 41.9353 24.3697L41.9344 24.3683Z" fill="#BF7862"/>
<path d="M50.6987 21.5295C47.7687 22.5527 43.7133 21.3617 42.1658 18.8741C41.0106 17.0161 41.188 14.3267 42.5299 13.6752C42.7505 13.5683 43.6967 12.8156 45.6398 13.1116C47.7015 13.4253 48.5334 13.535 49.3909 13.8622C51.4567 14.651 53.8551 17.4154 53.3733 19.3252C53.0217 20.7173 51.0777 21.3964 50.6979 21.5288L50.6987 21.5295Z" fill="#F0A695"/>
<path d="M-34.0363 214.898C-20.5489 205.286 1.34274 204.542 19.9741 203.907C38.9609 203.261 62.84 202.448 77.1195 211.691C78.6453 212.679 88.5324 219.27 86.4937 227.347C83.4111 239.562 55.4498 245.709 40.2899 247.342C31.5814 248.281 25.0286 247.952 12.8355 247.342C-4.90112 246.455 -16.4977 245.874 -26.6711 241.306C-26.6711 241.306 -28.4188 240.522 -44.0809 229.904C-43.4928 226.184 -41.4982 220.215 -34.0363 214.898Z" fill="#E5E2E1"/>
<path d="M-69.325 201.465C-71.3589 193.428 -73.1233 187.592 -71.1168 180.618C-70.3378 177.909 -68.8215 174.427 -67.9817 168.426C-67.7288 166.618 -67.693 165.694 -67.3244 159.791C-66.5406 147.223 -66.4297 146.694 -65.8141 146.385C-62.8055 144.879 -57.2429 149.936 -36.3688 168.258C-30.9135 173.047 -26.5735 176.844 -24.2891 178.842C-24.0385 175.844 -23.9526 171.37 -25.0442 166.141C-27.9466 152.228 -35.5444 150.366 -35.7616 141.66C-36.0491 130.122 -22.8265 128.563 -22.7836 115.312C-22.7621 108.782 -25.9687 107.168 -25.7993 96.9941C-25.7277 92.7042 -25.6347 88.1466 -22.7788 83.5879C-20.0553 79.2399 -17.1815 78.5599 -12.9633 74.4148C-10.0763 71.5786 -6.42595 66.9865 -3.90288 59.5972C0.42392 65.312 4.48827 69.5072 7.42171 72.2977C13.4401 78.0225 16.8459 79.8788 21.0117 85.7039C23.8008 89.6048 25.9421 92.5994 26.2964 96.993C26.7128 102.163 24.5213 108.026 20.2566 111.811C16.3807 115.25 13.6202 114.453 9.88513 118.657C9.36978 119.238 6.89682 122.096 5.85777 126.185C4.17333 132.817 7.26186 138.751 8.17684 140.739C10.9826 146.835 12.3951 157.226 5.91145 176.019C11.1103 167.991 14.4207 161.083 16.4809 156.263C21.0189 145.648 21.3934 140.72 26.2964 135.095C31.6635 128.936 38.8987 126.021 44.416 124.511C46.5382 126.119 56.7582 134.2 58.006 147.795C58.2327 150.267 58.9496 158.073 54.2315 165.434C49.2021 173.282 43.5845 171.904 36.1119 180.958C31.5239 186.515 29.4255 192.14 27.8067 196.481C23.87 207.035 25.1464 211.978 20.2566 216.943C16.6634 220.592 11.9775 221.98 8.93197 222.588C6.11066 223.65 0.536049 225.334 -6.54525 224.705C-12.1879 224.205 -16.4836 222.44 -19.0031 221.178C-21.7541 222.831 -24.5062 224.485 -27.2571 226.139C-29.3674 227.784 -33.9698 230.875 -40.2351 231.158C-52.1788 231.698 -60.1512 221.581 -62.1625 219.029C-66.1625 213.954 -67.3459 209.279 -69.3226 201.465H-69.325Z" fill="#999A8D"/>
<path d="M45.2999 182.659C45.7211 183.581 45.8702 184.585 45.9775 185.572C46.3676 189.046 45.8523 192.532 45.6912 195.998C45.5338 199.47 46.4535 202.863 47.4985 206.175C48.3885 209.031 49.3989 211.883 49.9393 214.826C50.6753 218.395 50.4439 221.822 48.1129 224.862C44.8562 229.098 40.5031 229.638 35.3413 230.036C28.996 230.566 22.603 231.578 16.2232 230.891C14.0962 230.653 11.9572 230.355 9.95668 229.593C8.95819 229.211 7.99906 228.676 7.20933 227.986C5.05607 226.098 4.52641 223.453 6.0999 221.065C6.89082 219.763 7.96924 218.606 9.24688 217.708L9.2767 217.744C7.65669 218.992 6.32656 220.638 5.66209 222.504C4.93917 224.653 6.17744 226.94 8.06586 228.189C8.29849 228.359 8.62535 228.541 8.87945 228.686C8.96534 228.724 9.30056 228.896 9.39719 228.94C10.5806 229.465 11.8475 229.794 13.1406 230.016C20.4796 231.346 27.9319 230.219 35.3067 229.644C37.9288 229.447 40.6105 229.296 43.0715 228.368C46.5084 227.077 49.1174 224.123 49.8999 220.743C50.9616 216.277 48.5078 210.586 47.118 206.281C46.0062 202.963 45.1186 199.488 45.3119 195.98C45.5278 192.024 46.265 188.058 45.6459 184.108C45.5624 183.621 45.4419 183.137 45.2558 182.673L45.2999 182.657V182.659Z" fill="#603121"/>
<path d="M5.93408 221.349C4.64094 220.476 3.54821 219.007 3.54582 217.455C3.54344 216.663 3.84525 215.898 4.23773 215.214C4.79721 214.177 5.61438 213.279 6.58066 212.554C7.51951 211.81 8.65161 211.311 9.7682 210.867C11.2498 210.257 12.7529 209.679 14.2918 209.196C15.8271 208.703 17.3983 208.31 18.9801 207.97C20.5619 207.623 22.1617 207.306 23.7865 207.177C24.5988 207.103 25.4327 207.098 26.2463 207.157C27.0623 207.209 27.8675 207.312 28.6692 207.41C29.4672 207.531 30.0482 206.888 30.4395 206.312C30.8725 205.68 31.172 204.973 31.5131 204.292L31.5573 204.309C31.0944 205.434 30.6196 207.16 29.299 207.66C29.0891 207.732 28.8481 207.753 28.6322 207.732C27.8246 207.67 27.0217 207.604 26.2212 207.573C25.4196 207.543 24.6287 207.559 23.833 207.643C21.434 207.884 19.0648 208.37 16.7171 208.886C14.3598 209.4 12.0252 210.035 9.82785 210.998C7.79269 211.786 6.03787 213.15 4.90577 214.915C4.41666 215.692 3.93949 216.561 3.91802 217.464C3.8703 218.913 4.84136 220.358 5.96272 221.316L5.9329 221.35L5.93408 221.349Z" fill="#603121"/>
<path d="M42.6719 193.176C41.5625 195.679 40.1321 198.377 38.8521 200.824C38.0612 202.294 37.1366 203.759 35.7767 204.832C34.5026 205.969 32.8695 206.246 31.7243 204.793C30.6077 203.532 29.7643 202.06 29.2119 200.509C29.033 199.944 28.7288 198.783 28.5701 197.939C28.4174 197.211 28.2636 196.18 28.1407 195.44C27.9987 194.616 27.8496 193.788 27.4476 193.063C27.0277 192.337 26.3453 191.757 25.5603 191.374L25.5806 191.334C26.436 191.645 27.1971 192.199 27.6862 192.935C28.1729 193.677 28.3745 194.531 28.5582 195.37C28.8863 197.029 29.2036 198.669 29.6653 200.297C29.9814 201.384 30.7663 202.928 31.5668 204.03C31.84 204.393 32.1215 204.812 32.4579 205.115C33.1642 205.789 34.3201 205.657 35.1003 205.165C35.4987 204.898 35.8817 204.58 36.2288 204.255C37.2726 203.246 37.9109 201.947 38.5061 200.675C39.068 199.421 39.8196 198.091 40.4888 196.878C41.1747 195.626 41.8834 194.38 42.6301 193.157L42.6731 193.178L42.6719 193.176Z" fill="#603121"/>
<path d="M38.9845 182.257C38.4059 182.959 37.8453 183.638 37.281 184.341C36.9959 184.683 36.6881 185.021 36.4638 185.407C36.2384 185.792 36.0761 186.206 35.9509 186.631C35.7099 187.469 35.4224 188.335 35.1433 189.158C34.8414 189.995 34.5444 190.827 34.1841 191.648L34.1376 191.638C34.239 190.301 34.5945 188.997 35.1337 187.762C35.4666 186.929 35.9318 186.148 36.3267 185.341C36.5271 184.939 36.7084 184.518 36.9518 184.13C37.1975 183.744 37.5065 183.396 37.8405 183.074C38.1769 182.754 38.5419 182.458 38.9523 182.223L38.9845 182.256V182.257Z" fill="#603121"/>
<path d="M41.8524 178.84C40.7751 179.682 39.0501 179.865 37.8453 179.134C36.9553 178.58 36.4078 177.688 36.0093 176.786C35.3449 175.28 35.1957 173.56 35.6729 171.992C36.038 170.753 36.4841 169.526 37.1617 168.403L37.2059 168.42C37.0174 169.036 36.8265 169.646 36.6583 170.26L36.168 172.107C35.9139 173.022 35.7839 173.936 35.8459 174.877C35.8853 175.812 36.0463 176.781 36.5903 177.585C37.7009 179.194 39.9735 179.658 41.8285 178.801L41.8536 178.839L41.8524 178.84Z" fill="#603121"/>
<path d="M42.6003 164.498C45.2964 164.779 47.6787 166.348 48.9539 168.575C49.857 170.012 50.3664 171.681 50.2697 173.351C50.2327 174.18 50.0419 175.016 49.6351 175.753C48.9575 177.126 47.5964 178.646 48.1189 180.227C48.2942 180.572 48.6223 180.879 48.8621 181.201C49.1269 181.531 49.375 181.875 49.6124 182.22C50.3008 183.266 51.1966 184.317 51.3458 185.6C51.4853 187.285 50.1648 188.927 48.8609 189.968C48.3825 190.31 48.1439 190.794 48.4875 191.3C48.7141 191.631 49.041 191.967 49.2068 192.354C49.6637 193.364 49.3476 194.548 48.6772 195.405C48.1523 196.094 47.3542 196.582 46.4953 196.766L46.4821 196.724C47.3029 196.47 48.0187 195.958 48.4779 195.278C49.0374 194.473 49.2772 193.399 48.8406 192.507C48.6569 192.136 48.3598 191.874 48.1105 191.521C47.817 191.135 47.7741 190.548 48.0509 190.133C48.3193 189.742 48.6867 189.531 49.0076 189.218C49.4538 188.797 49.8391 188.315 50.1791 187.815C50.8662 186.794 51.1382 185.651 50.5548 184.527C50.0061 183.437 49.2903 182.396 48.596 181.378C47.9781 180.531 47.6536 180.308 47.8051 179.199C47.8851 178.743 48.064 178.284 48.2739 177.867C49.1126 176.263 50.0717 175.246 50.0037 173.346C49.9966 171.046 48.7547 168.487 47.0774 166.83C45.8797 165.686 44.2991 164.89 42.592 164.542L42.6003 164.499V164.498Z" fill="#603121"/>
<path d="M17.0559 215.594C18.3096 214.839 19.7901 214.514 21.249 214.319C22.2201 214.165 23.1864 213.979 24.1694 213.91C25.6415 213.774 27.1279 213.824 28.5928 214.002L28.5916 214.024C28.0989 214.041 27.6086 214.038 27.1183 214.04C25.4124 214.08 23.685 214.087 21.9875 214.277C21.2562 214.356 20.5452 214.546 19.8426 214.741C18.9049 214.995 17.9685 215.251 17.0666 215.614L17.0547 215.595L17.0559 215.594Z" fill="#603121"/>
<path d="M26.4207 65.9452C26.4207 65.9452 13.6013 74.9711 17.4426 86.1655C17.4426 86.1655 22.6235 100.147 22.4279 102.521C22.4279 102.521 24.9211 108.576 10.8838 119.042C10.8838 119.042 -5.39747 130.623 3.4291 138.276C3.4291 138.276 5.62411 140.484 8.08276 143.081C11.9789 147.199 15.0149 151.961 17.0274 157.125L17.47 158.261C17.47 158.261 26.7571 150.345 29.7907 149.297C29.7907 149.297 34.4277 147.132 33.7024 142.32C33.7024 142.32 30.0436 133.81 37.7023 128.443C37.7023 128.443 52.3027 119.417 42.3488 111.093C42.3488 111.093 37.7464 107.143 39.3414 102.756C39.3414 102.756 44.7454 89.5513 43.2614 86.656C43.2614 86.656 43.0872 79.2433 30.8011 73.8998C30.8011 73.8998 26.3813 71.8819 26.0329 67.9542C25.8898 66.3421 26.4195 65.9441 26.4195 65.9441L26.4207 65.9452Z" fill="#BF7862"/>
<path d="M17.7349 156.978C20.0074 154.493 22.4577 151.928 25.8051 150.728C27.1197 150.236 28.5155 149.979 29.8838 149.661C31.9404 149.2 33.9159 148.492 35.8521 147.701C37.0999 147.176 38.4908 146.684 39.3533 145.653C39.9844 144.875 40.217 143.891 40.093 142.931C39.8711 141.3 39.3581 139.705 39.2233 138.056C38.8344 133.808 39.4273 129.151 42.4287 125.762C42.6685 125.527 42.9119 125.251 43.1767 125.037C44.2027 124.111 45.4803 123.48 46.6172 122.707C47.3878 122.184 48.0749 121.559 48.6511 120.856C48.8766 120.549 49.1689 120.168 49.355 119.838C50.7495 117.621 51.5154 114.951 50.9559 112.398C50.6755 111.121 49.8274 110.054 49.0889 108.963C47.933 107.312 46.8903 105.56 45.8954 103.818C44.9041 102.053 43.8638 100.277 43.3962 98.3119C43.1075 96.9763 43.1338 95.5682 43.6599 94.2739C43.9259 93.6406 44.3708 93.0999 44.7359 92.5302C45.4517 91.4354 45.8656 90.1823 46.2032 88.9192C46.956 85.9224 47.0705 82.4652 45.1534 79.8319C44.6906 79.2656 44.1132 78.7907 43.4952 78.3481C41.2501 76.804 38.7676 75.4918 36.365 74.164C35.1446 73.5107 33.9088 72.8863 32.655 72.2888C31.3928 71.6789 30.0949 71.117 28.9318 70.3322C25.4258 67.9341 23.2975 64.1737 22.2191 60.3129L22.7488 60.4032C20.4679 63.4312 18.3146 66.5729 16.7781 69.9899C15.5816 72.7336 14.5748 75.9399 15.7212 78.8297C16.1769 79.9769 17.1074 80.92 17.717 82.0048C18.6868 83.6782 19.2141 85.54 19.4718 87.4175C19.8285 90.2191 19.5231 93.246 17.9329 95.7042C17.346 96.4869 16.5932 97.1346 15.8763 97.7968C12.0911 101.265 8.01598 104.488 4.53259 108.224C3.69276 109.172 2.97222 110.195 2.37336 111.292C1.7757 112.38 1.15537 113.482 0.838045 114.667C-0.29167 118.794 4.84156 120.592 8.1472 121.712C9.39621 122.157 10.6822 122.386 11.967 122.751C13.2888 123.118 14.3588 124.017 15.1581 125.04C16.4059 126.61 16.8342 128.682 15.7713 130.442C14.9613 131.826 13.7815 132.951 12.6804 134.125C12.0195 134.81 11.2882 135.487 10.5593 136.108C9.58946 136.942 8.51581 137.7 8.3834 139.026C8.17463 140.533 8.81166 142.114 9.84594 143.262C10.5295 143.933 11.4564 144.333 12.233 144.909C14.9995 146.844 17.4843 148.826 17.9663 152.224C18.0605 152.841 18.0939 153.464 18.0725 154.086L17.9269 155.945C17.9269 155.945 17.7349 156.978 17.7349 156.979C17.7349 156.979 17.915 155.941 17.9138 155.944L18.0379 154.085C18.1393 150.655 16.5562 148.206 13.7182 146.158C12.6887 145.367 11.6198 144.649 10.4949 143.979C9.35326 143.283 8.6876 142.08 8.32136 140.882C8.04579 139.895 8.03387 138.786 8.5349 137.856C8.81167 137.362 9.23635 136.955 9.66223 136.577C10.885 135.534 12.0696 134.445 13.1349 133.26C14.8682 131.358 16.7829 129.499 15.7916 126.822C15.2726 125.445 14.1214 124.115 12.7472 123.41C11.8716 122.983 10.8945 122.838 9.9378 122.594C9.29123 122.436 8.64823 122.254 8.01836 122.042C3.24302 120.465 -1.75183 118.34 1.09095 112.784C1.65282 111.64 2.24452 110.524 2.96983 109.464C4.07211 107.89 5.4762 106.518 6.88149 105.191C9.70399 102.552 12.641 100.035 15.5053 97.4434C16.2007 96.7968 16.9272 96.1714 17.4855 95.4244C19.8714 91.6573 19.3429 86.0406 17.2124 82.2623C16.7423 81.4396 16.1172 80.716 15.621 79.9011C14.4209 77.9289 14.4698 75.5085 14.9851 73.3635C15.2428 72.2877 15.615 71.2408 16.0445 70.2162C17.6836 66.4034 20.0969 62.9317 22.6271 59.5972C23.7962 64.1469 26.4278 68.7201 31.0421 70.8997C34.1903 72.3846 37.2991 73.9756 40.2898 75.727C42.0804 76.7939 44.013 77.7784 45.4338 79.3113C47.6502 82.0048 47.5429 85.8912 46.7329 89.0429C46.3857 90.3417 45.9467 91.6394 45.1928 92.7922C44.8361 93.3508 44.4043 93.8658 44.1502 94.4634C43.667 95.6351 43.6372 96.983 43.9032 98.2149C44.1919 99.4803 44.7645 100.687 45.3729 101.847C46.2772 103.528 47.3604 105.424 48.3791 107.049C49.0889 108.195 49.8954 109.263 50.6064 110.417C52.5998 113.656 51.2947 117.997 49.1259 120.879C48.5116 121.703 47.7099 122.42 46.845 123.005C46.2652 123.397 45.6592 123.741 45.0771 124.104C44.1967 124.637 43.3903 125.25 42.7043 125.986C39.7506 129.293 39.1601 133.866 39.518 138.032C39.6301 139.346 39.9295 140.627 40.1932 141.921C40.3184 142.575 40.4234 143.253 40.3423 143.92C40.2838 144.469 40.0679 144.999 39.7673 145.471C38.9215 146.744 37.3265 147.293 35.9272 147.869C34.6245 148.379 33.3135 148.88 31.9619 149.267C30.6162 149.669 29.2277 149.932 27.857 150.242C23.4121 151.165 20.6015 153.881 17.7337 156.978H17.7349Z" fill="#603121"/>
<path d="M13.952 171.078C18.7632 153.678 22.9719 136.052 24.9462 118.155C25.5737 111.682 26.1511 105.082 24.9343 98.6452C24.8007 97.9462 24.6122 97.2505 24.3998 96.5682C24.3092 96.2538 24.1422 95.8547 24.0372 95.5548L23.9751 95.4143L23.8487 95.1323C23.6948 94.7499 23.4825 94.3942 23.2892 94.0274L23.3405 93.9996C23.9036 94.8781 24.3509 95.8291 24.6766 96.809C25.9256 100.542 26.12 104.505 26.1332 108.39C26.1224 113.311 25.6333 118.22 24.9534 123.096C22.5102 139.263 18.7011 155.481 13.9509 171.078H13.952Z" fill="#603121"/>
<path d="M22.7834 135.129C24.3235 131.013 27.1674 127.306 30.8512 124.624C31.9929 123.84 33.2479 123.171 34.5637 122.683C35.3689 122.366 36.2099 122.139 37.0545 121.958L37.0724 122.012C35.4834 122.653 33.9529 123.366 32.5321 124.245C32.0179 124.56 31.4501 124.923 30.9634 125.268C28.0156 127.268 25.6667 129.977 23.9346 132.963C23.529 133.671 23.1496 134.398 22.8406 135.147L22.7846 135.129H22.7834Z" fill="#603121"/>
<path d="M24.5788 121.823C24.8185 118.012 24.1696 113.991 22.0963 110.667C20.8031 108.621 18.8443 106.969 16.5837 105.895C15.2094 105.234 13.7385 104.807 12.2259 104.477L12.2342 104.422C13.2756 104.485 14.3135 104.659 15.3239 104.939C20.7566 106.392 23.6662 111.037 24.4869 116.004C24.8006 117.931 24.877 119.895 24.6384 121.831L24.5788 121.824V121.823Z" fill="#603121"/>
<path d="M25.953 109.149C26.3455 106.1 27.2462 103.018 29.1525 100.47C29.941 99.4491 31.0564 98.5918 32.3591 98.2149C33.0009 98.0243 33.6857 97.9574 34.3513 98.0209L34.3525 98.0767C33.7131 98.1726 33.0904 98.3275 32.5082 98.5806C29.601 99.8973 27.9584 102.855 26.9813 105.613C26.5674 106.767 26.2417 107.953 26.0115 109.155L25.9518 109.148L25.953 109.149Z" fill="#603121"/>
<path d="M-1.66214 98.4504C-1.34429 96.1402 -1.16944 93.8283 -1.4108 91.5232C-1.58058 89.7905 -1.97288 88.0859 -2.1083 86.3424C-2.19057 85.4757 -2.17717 84.561 -2.13879 83.6895C-2.06664 82.8117 -1.94294 81.9207 -1.77699 81.055C-1.60768 80.3012 -1.43365 79.5049 -1.19762 78.7622C-1.09153 78.4141 -0.967492 77.9662 -0.85012 77.6304C-0.767746 77.3932 -0.424991 76.4395 -0.353128 76.2344C1.33041 71.9105 3.96114 67.9343 7.02131 64.3441C10.915 59.6156 15.9565 55.5014 18.2862 49.8235C18.4586 49.4411 18.5528 49.1163 18.6851 48.7403C18.861 48.2662 18.9889 47.7041 19.128 47.2221C19.5656 45.3068 19.6569 43.3151 19.5709 41.3695C19.4968 39.0493 19.3586 36.7332 19.2129 34.417L18.9182 29.7774L18.9887 29.773C19.4636 33.222 19.8564 36.6915 20.121 40.1693C20.3459 42.8974 20.3993 45.688 19.5851 48.3691C17.6681 54.9644 11.8073 59.5192 7.28322 64.5486C4.44311 67.6359 2.03019 71.1393 0.555195 74.9825C0.377916 75.4847 0.120346 76.1296 -0.0330649 76.6376L-0.379019 77.7533C-0.487968 78.0992 -0.578997 78.5335 -0.674619 78.8804C-0.751509 79.1719 -0.884466 79.7096 -0.939606 80.0121C-1.46021 82.2739 -1.6882 84.5782 -1.46367 86.8633C-1.22104 89.1653 -0.770971 91.4887 -0.919531 93.8251C-0.994843 95.3889 -1.25372 96.937 -1.59322 98.4622L-1.66256 98.4515L-1.66214 98.4504Z" fill="#E2B34B"/>
<path d="M14.9503 56.0933C15.6681 56.5669 18.9471 58.6213 23.2316 57.8726C27.3549 57.1522 30.8026 54.1172 32.1517 50.0703C34.1622 44.9164 36.1738 39.7629 38.1847 34.6079C38.1847 34.6079 28.5848 48.3581 26.0717 50.0047C24.921 51.0744 23.3188 52.3629 21.2217 53.5477C18.8383 54.8946 16.6208 55.6526 14.9488 56.094L14.9503 56.0933Z" fill="#E2B34B"/>
<path d="M6.16217 65.0642C5.33788 65.3979 1.59927 66.8101 -2.41926 65.284C-6.2858 63.8162 -8.90463 60.2018 -9.20724 55.9795C-9.87943 50.5485 -10.5516 45.1176 -11.2238 39.6866C-11.2238 39.6866 -5.27188 54.9563 -3.22112 57.0361C-2.36116 58.2986 -1.11392 59.8583 0.645733 61.4084C2.64546 63.17 4.63156 64.3231 6.16217 65.0642Z" fill="#E2B34B"/>
<path d="M0.99971 73.089C0.230228 73.5271 -3.27055 75.4197 -7.4892 74.4486C-11.6004 73.5026 -13.4692 70.0398 -15.6228 66.1683C-18.4348 61.1136 -19.4617 55.2929 -18.3382 52.1049C-18.2026 51.7199 -17.0483 48.5678 -17.0478 48.5668C-17.0543 48.5609 -18.3915 54.5052 -15.6718 57.718C-15.6658 57.7249 -15.4253 57.9726 -14.9459 58.4688C-12.3913 61.1063 -12.0839 61.3916 -11.5844 61.9224C-9.97986 63.6234 -9.73574 63.484 -6.81559 68.0781C-6.3825 68.7592 -5.80135 69.5022 -5.02458 70.2152C-2.72975 72.3205 -0.103227 72.9057 1.00125 73.0884L0.99971 73.089Z" fill="#E2B34B"/>
<path d="M19.6606 47.4495C19.6606 47.4495 17.3273 36.5428 16.7167 30.2649C16.5158 28.201 16.8127 26.1114 17.584 24.1494L18.8318 26.2343C18.8318 26.2343 28.4534 42.1088 19.661 47.4484L19.6606 47.4495Z" fill="#E2B34B"/>
<path d="M13.4268 57.8542C12.2977 58.2589 7.22214 59.9758 3.02828 58.1138C-1.05787 56.2996 -1.11977 51.8059 -1.26124 46.7722C-1.44662 40.1997 0.838321 32.9929 3.99529 29.3195C4.37655 28.8761 7.5475 25.2518 7.54793 25.2508C7.54455 25.2436 2.51452 32.214 3.68576 36.5429C3.68828 36.5521 3.81293 36.8922 4.06196 37.5697C5.38664 41.1767 5.56538 41.5725 5.81625 42.295C6.62181 44.6138 6.98021 44.4859 7.55964 50.5187C7.64583 51.4132 7.8623 52.4053 8.31908 53.3953C9.66685 56.3155 12.288 57.4519 13.4268 57.8542Z" fill="#E2B34B"/>
<path d="M10.1048 68.8438C10.8487 68.9166 11.4511 68.9057 11.8937 68.8962C12.4458 68.8848 12.8312 68.8387 14.238 68.7124C15.1357 68.6316 16.0332 68.5387 16.9285 68.433C17.9035 68.3176 18.8781 68.1876 19.8493 68.0384C20.8636 67.8824 21.8755 67.7076 22.8834 67.5086C23.8996 67.3077 24.9096 67.0817 25.9127 66.8234C26.8917 66.5711 27.864 66.2889 28.8212 65.9631C29.7283 65.6548 30.6231 65.3086 31.4905 64.9085C32.2925 64.5387 33.0717 64.1225 33.8046 63.64C34.4703 63.2015 35.0986 62.7057 35.6465 62.1377C35.6465 62.1377 35.8614 61.9115 36.0617 61.6717C37.4572 59.9962 37.8777 56.8126 39.6968 55.1463C40.1566 54.7257 40.9327 54.1932 42.2531 53.9037C42.2531 53.9037 41.6643 54.0238 40.9331 54.2606C39.7794 54.634 38.7743 55.3435 38.0508 56.2739C37.7425 56.6699 37.3555 57.166 36.9079 57.7362C35.589 59.4129 33.6136 60.5363 31.4366 60.815C30.4615 60.94 29.2728 61.0214 27.8405 61.0151C24.2459 61.0006 19.9335 61.5928 17.2423 62.0318C15.5182 62.313 13.8377 62.8003 12.234 63.4775C11.0486 63.9782 9.87164 64.4986 8.71971 65.0661C8.12003 65.3615 7.511 65.6705 6.94024 66.0251C6.36135 66.3842 5.84733 66.7981 5.3608 67.2623C4.81616 67.7821 3.6004 69.5594 3.06044 70.0832C3.04187 70.1009 3.07901 70.0656 3.06044 70.0832C5.63375 68.3995 7.13122 68.2492 8.03683 68.4619C8.308 68.5255 9.03302 68.7408 10.1054 68.8452L10.1048 68.8438Z" fill="#E2B34B"/>
<path d="M-0.354962 76.7099C-0.0965189 77.2255 1.1245 79.5133 3.94123 80.4118C6.68552 81.2864 9.18803 79.9481 12.0232 78.4759C15.7247 76.553 18.7215 73.5763 19.3992 71.3645C19.4805 71.0971 20.1246 68.8966 20.1246 68.8966C20.1303 68.8949 18.4354 72.7569 15.5491 73.6577C15.5429 73.6604 15.3028 73.7193 14.8225 73.8371C12.2691 74.4672 11.9753 74.5244 11.4696 74.655C9.84718 75.0754 9.76459 74.9124 6.19304 76.5354C5.66249 76.7763 5.02383 77.0004 4.28271 77.1411C2.09811 77.555 0.35282 76.9853 -0.354962 76.7099Z" fill="#E2B34B"/>
<path d="M15.973 50.5221C15.8122 50.3265 15.7049 50.1542 15.6251 50.0286C15.5268 49.8713 15.4703 49.7537 15.252 49.3348C15.1117 49.0673 14.976 48.7978 14.8454 48.5253C14.7028 48.2295 14.5648 47.9317 14.4334 47.6302C14.2959 47.3158 14.1656 46.9991 14.0445 46.6784C13.9221 46.3548 13.808 46.0293 13.7073 45.6989C13.6084 45.3762 13.5205 45.0514 13.4497 44.7217C13.3817 44.4097 13.3293 44.0935 13.2991 43.7754C13.2714 43.4821 13.2626 43.1858 13.2841 42.8891C13.3042 42.6207 13.3482 42.3521 13.4326 42.0927C13.4326 42.0927 13.4667 41.9907 13.5078 41.8899C13.7942 41.1878 14.7527 40.4804 14.9575 39.6603C15.0093 39.4531 15.0389 39.1365 14.8887 38.7111C14.8887 38.7111 14.9582 38.8991 15.0162 39.149C15.1077 39.5421 15.0633 39.9566 14.8947 40.333C14.8232 40.4927 14.7325 40.6937 14.6304 40.9255C14.3286 41.6067 14.3286 42.3694 14.6407 43.0337C14.7802 43.3309 14.974 43.6802 15.2407 44.0823C15.9098 45.0912 16.5149 46.4145 16.8694 47.2528C17.0963 47.7895 17.2492 48.3535 17.3254 48.9293C17.3819 49.3558 17.4305 49.7832 17.4584 50.2119C17.4732 50.4349 17.4855 50.6642 17.4755 50.8894C17.4664 51.1185 17.4267 51.3395 17.3648 51.5624C17.297 51.8119 16.9429 52.4824 16.8729 52.7312C16.8763 52.7228 16.8695 52.7396 16.8729 52.7312C16.9452 51.6954 16.7165 51.2466 16.4807 51.0312C16.4098 50.9672 16.2062 50.8024 15.9738 50.52L15.973 50.5221Z" fill="#E2B34B"/>
<path d="M-5.12189 85.9725C-5.53938 85.8428 -5.85783 85.7002 -6.09149 85.5953C-6.38301 85.4644 -6.57557 85.352 -7.29175 84.9658C-7.74887 84.7185 -8.20162 84.4667 -8.65091 84.2065C-9.13942 83.9242 -9.62295 83.6328 -10.1008 83.3338C-10.5994 83.0202 -11.0904 82.6973 -11.5728 82.3628C-12.0589 82.0247 -12.5353 81.6754 -12.9988 81.31C-13.4519 80.9531 -13.8914 80.5815 -14.3118 80.1912C-14.7099 79.8206 -15.0909 79.4331 -15.4431 79.0216C-15.768 78.6426 -16.0681 78.2431 -16.3251 77.8187C-16.5584 77.4327 -16.7552 77.0254 -16.8891 76.5977C-16.8891 76.5977 -16.9408 76.4289 -16.9802 76.2547C-17.2574 75.0422 -16.5936 73.2432 -17.1003 71.9406C-17.2286 71.6113 -17.494 71.1514 -18.1188 70.6965C-18.1188 70.6965 -17.8379 70.8938 -17.5135 71.1869C-17.0017 71.6486 -16.6628 72.2547 -16.5355 72.9168C-16.4816 73.1986 -16.4136 73.5517 -16.3329 73.9575C-16.0971 75.1533 -15.3561 76.2012 -14.2715 76.844C-13.7851 77.1315 -13.1734 77.4443 -12.4079 77.7654C-10.4845 78.5712 -8.34706 79.8661 -7.03256 80.7102C-6.19042 81.2511 -5.4284 81.8922 -4.76152 82.6176C-4.26858 83.1537 -3.7844 83.6988 -3.32835 84.2632C-3.09034 84.5567 -2.85134 84.8603 -2.64626 85.1786C-2.43692 85.502 -2.27879 85.8392 -2.14853 86.1981C-2.00273 86.5998 -1.85026 87.8259 -1.70755 88.229C-1.71213 88.2153 -1.70297 88.2426 -1.70755 88.229C-2.61216 86.7454 -3.36924 86.3257 -3.9116 86.2349C-4.0742 86.2077 -4.52178 86.1581 -5.12257 85.9711L-5.12189 85.9725Z" fill="#E2B34B"/>
<path d="M41.0477 70.7586C41.8535 71.1457 42.6592 71.5309 43.4238 71.9873C43.6546 72.1376 43.9287 72.2782 44.0812 72.5189C44.1079 72.5709 44.1471 72.6344 44.1121 72.7211C44.0688 72.8097 43.9699 72.8212 43.906 72.8193C43.3496 72.7519 43.0549 72.2454 42.7479 71.8679C41.2414 69.8881 39.9308 66.876 41.8782 64.7749C42.6015 64.0026 43.9184 63.9891 44.6314 64.7807C45.3671 65.7417 45.3712 67.059 45.0497 68.1645C44.8704 68.7307 44.4809 69.2776 43.8751 69.5029C43.8153 69.5203 43.7473 69.5357 43.669 69.5107C43.397 69.3778 43.601 69.0272 43.7164 68.8558C44.11 68.2222 44.9755 68.2357 45.6267 68.4649C46.28 68.6844 46.9477 69.1158 47.0487 69.8246C47.026 70.724 45.8926 71.2844 45.093 71.5405C43.7246 71.9758 42.2533 71.6214 41.2497 70.6527C39.8793 69.4606 38.4965 67.3421 38.9395 65.5395C39.1312 64.9521 39.6382 64.2395 40.3883 64.3666C40.8416 64.4533 41.2394 64.8134 41.3692 65.2044C41.1693 64.8423 40.8293 64.4879 40.378 64.4263C39.9267 64.355 39.5331 64.6574 39.3167 65.0041C38.583 66.1115 39.1456 67.4962 39.7371 68.5516C40.3986 69.6166 41.2868 70.6392 42.4614 71.2305C43.6505 71.7639 45.1569 71.5232 46.1976 70.7933C46.5129 70.5622 46.8653 70.2271 46.855 69.8361C46.721 69.0195 45.738 68.5612 44.9323 68.4745C44.382 68.384 43.8586 68.6998 43.6855 69.1909C43.5969 69.4606 43.7906 69.4375 43.9822 69.3354C44.4727 69.085 44.8045 68.6402 44.9652 68.1394C45.3011 67.0667 45.3073 65.7552 44.5799 64.8211C43.8874 64.0681 42.6427 64.0893 41.9627 64.8481C40.7674 66.1558 40.9179 68.0759 41.5979 69.5742C41.8102 70.1366 43.3146 72.9272 43.9946 72.671C44.0049 72.6576 43.9946 72.6113 43.9719 72.5728C43.8359 72.3552 43.5886 72.2204 43.3661 72.0702C42.6448 71.5964 41.7381 71.1765 41.0498 70.7567L41.0477 70.7586Z" fill="#603121"/>
<path d="M50.6777 76.313C51.1846 76.546 51.6875 76.7848 52.1697 77.0679C52.316 77.1604 52.4912 77.2509 52.5901 77.405C52.6086 77.4396 52.6354 77.4839 52.6107 77.5513C52.5757 77.6207 52.5015 77.6284 52.4602 77.6284C52.1017 77.5879 51.91 77.2702 51.7122 77.0275C50.925 75.9586 50.1996 74.572 50.7313 73.2643C50.9229 72.7655 51.3392 72.2513 51.9451 72.2051C53.3072 72.128 53.4865 73.7785 53.1877 74.7029C53.0847 75.0573 52.8271 75.4117 52.4458 75.5542C52.3737 75.5811 52.2768 75.5715 52.2294 75.5041C52.1614 75.3712 52.2459 75.2248 52.3181 75.1151C52.4705 74.8647 52.8085 74.726 53.1115 74.7703C53.6947 74.8281 54.3541 75.1266 54.4571 75.7333C54.4283 76.3361 53.7441 76.6616 53.2124 76.8426C51.9657 77.2432 50.9188 76.598 50.1934 75.6832C49.5649 74.8628 48.891 73.6533 49.5237 72.6846C49.672 72.4535 49.9626 72.2551 50.2655 72.3168C50.5602 72.3745 50.7787 72.596 50.8838 72.8425L50.8652 72.8502C50.6097 72.3187 49.9379 72.1762 49.6123 72.7366C49.3052 73.1834 49.3918 73.7342 49.5546 74.2137C49.8163 74.9494 50.3067 75.612 50.9147 76.1339C51.4958 76.6962 52.351 76.8984 53.1465 76.65C53.5895 76.5152 54.2243 76.2109 54.2634 75.7448C54.1913 75.1209 52.8539 74.5662 52.4335 75.1902C52.3902 75.2441 52.2954 75.4097 52.349 75.4482C52.724 75.3885 52.9919 75.0091 53.1053 74.6779C53.3216 73.9769 53.3484 73.012 52.722 72.4901C52.281 72.1531 51.6174 72.2378 51.2629 72.6442C50.1501 73.9422 50.9621 75.7314 51.8441 76.9427C52.0316 77.1719 52.1965 77.4858 52.4932 77.5032C52.4499 77.3491 52.2501 77.2547 52.1099 77.1527C51.6463 76.858 51.1558 76.5942 50.6674 76.3303L50.6777 76.313Z" fill="#BF7862"/>
<g clip-path="url(#clip0_619_190)">
<path d="M65.3833 391.782C63.3369 392.811 61.3052 393.86 59.3697 395.091C58.8051 395.498 57.3923 396.258 57.6142 397.109C57.8041 397.508 58.3243 397.412 58.6449 397.291C59.7963 396.835 60.4201 395.749 61.1203 394.814C63.078 391.982 64.7546 388.864 65.5042 385.469C65.9554 383.476 65.9406 381.386 65.3612 379.415C64.8582 377.757 64.0593 376.09 62.6539 375.006C61.966 374.466 61.1105 374.094 60.2352 374.022C59.9763 373.98 59.6163 374.002 59.355 374.02C59.2267 374.015 59.0492 374.071 58.921 374.091C58.778 374.126 58.6301 374.138 58.4945 374.197C56.6773 374.76 55.6689 376.178 55.1856 377.952C54.3769 380.853 54.5766 385.696 57.0965 387.722C57.5551 388.072 58.5339 388.901 59.0418 388.235C59.424 387.329 58.4304 386.155 57.7523 385.639C55.7626 384.364 52.2022 385.78 50.893 387.549C48.5729 390.5 52.6214 393.181 55.1585 393.956C57.6808 394.785 60.5853 394.615 62.8586 393.179C66.4534 390.731 69.1409 386.984 70.4625 382.849C71.143 380.659 71.36 378.063 70.0039 376.077C68.4456 373.536 65.6151 374.17 64.5549 376.743C64.5376 376.783 64.5993 376.8 64.6116 376.768C64.8409 376.25 65.1861 375.786 65.6052 375.416C67.7996 373.524 69.7918 375.51 70.4058 377.765C70.8225 379.398 70.5019 381.117 70.0039 382.706C68.7612 386.727 64.5081 392.567 60.25 393.564C58.6424 393.958 56.9288 393.83 55.3533 393.342C53.5978 392.754 51.6894 391.768 50.8979 390.019C50.5873 389.298 50.8979 388.491 51.3467 387.887C52.3452 386.592 53.9799 385.842 55.585 385.662C56.2532 385.605 56.9411 385.644 57.491 386.01C58.0186 386.389 58.4895 386.947 58.6942 387.566C59.032 388.716 57.6611 387.741 57.3085 387.46C54.8182 385.521 54.6013 380.851 55.3681 378.006C55.6713 376.941 56.1793 375.855 57.0841 375.184C58.2824 374.242 60.0034 373.938 61.3989 374.609C63.0805 375.347 64.1012 377.042 64.6782 378.732C65.8345 382.015 65.2329 385.408 63.9607 388.578C63.1249 390.677 62.0104 392.671 60.7308 394.543C60.0281 395.468 59.3796 396.773 58.1493 396.998C58.0802 397.008 57.9989 396.993 57.9668 396.953C57.8904 395.875 64.2048 392.584 65.4105 391.837C65.445 391.819 65.4154 391.765 65.3809 391.782H65.3833Z" fill="#BF7862"/>
<path d="M49.4013 411.549C48.134 412.205 46.8667 412.864 45.666 413.636C45.3035 413.887 44.877 414.124 44.6378 414.526C44.5959 414.61 44.5416 414.716 44.591 414.847C44.6994 415.067 44.9953 415.002 45.1753 414.936C45.878 414.655 46.2626 413.979 46.6916 413.401C47.1034 412.814 47.4806 412.205 47.8283 411.578C48.5285 410.325 49.0981 408.99 49.4063 407.587C49.8624 405.499 49.5345 403.096 48.0699 401.466C46.3465 399.606 43.6047 400.506 43.05 402.914C42.5124 404.949 42.653 408.122 44.6896 409.289C44.9263 409.447 45.4071 409.565 45.4465 409.148C45.4317 408.494 44.9213 407.905 44.3518 407.614C42.7344 406.965 39.4526 408.539 40.069 410.542C40.5868 411.741 41.8541 412.422 43.0327 412.827C44.4085 413.271 45.9717 413.253 47.2957 412.609C49.2066 411.586 50.6341 409.807 51.6722 407.937C52.7669 405.869 53.7161 402.638 51.4897 400.982C50.4887 400.328 49.2509 401.162 48.8811 402.157L48.9033 402.166C49.1844 401.525 49.7539 400.97 50.4468 400.851C51.1618 400.728 51.7954 401.239 52.1357 401.828C52.9345 403.04 52.7447 404.577 52.3305 405.897C51.6672 407.907 50.4344 409.725 48.8786 411.156C47.3154 412.733 45.232 413.271 43.1067 412.582C41.7235 412.153 39.2998 410.734 40.5819 409.072C41.472 407.895 44.0658 406.883 45.0348 408.445C45.6758 409.494 45.0446 409.474 44.3247 408.872C43.7576 408.452 43.4223 407.801 43.2077 407.133C42.6678 405.337 42.6357 402.458 44.1965 401.162C45.3504 400.232 47.0146 400.444 47.9639 401.56C49.0142 402.746 49.4137 404.416 49.3915 405.971C49.2534 408.633 47.9935 411.112 46.5289 413.293C46.1098 413.855 45.7449 414.519 45.1087 414.783C44.6353 414.956 44.623 414.716 44.9041 414.393C46.2355 413.239 47.8801 412.454 49.4038 411.571L49.3915 411.549H49.4013Z" fill="#603121"/>
</g>
<defs>
<clipPath id="clip0_619_190">
<rect width="31" height="41" fill="white" transform="matrix(-1 0 0 1 71 374)"/>
</clipPath>
</defs>
</svg>
