<svg width="108" height="726" viewBox="0 0 108 726" fill="none" xmlns="http://www.w3.org/2000/svg">
<path d="M76.7034 725.565C76.7291 724.772 76.7448 723.91 76.7241 723.118C76.677 721.49 76.5085 719.864 76.1501 718.271C75.7989 716.673 75.2721 715.118 74.8908 713.522C73.4902 707.691 75.0408 700.938 77.5322 695.54C78.3161 693.861 79.2256 692.228 80.2243 690.655C83.3554 685.562 87.6794 681.13 90.138 675.675C91.4751 672.694 92.022 669.405 91.6722 666.178C91.5744 665.173 91.4016 664.156 91.2346 663.156C90.5735 659.396 89.7433 655.471 88.9573 651.725C89.8304 654.804 90.4921 658.116 91.1803 661.298C91.2938 661.871 91.4259 662.527 91.5337 663.107C92.4696 667.629 92.4218 671.52 90.4807 675.814C87.7158 681.852 82.6915 686.578 79.3655 692.307C76.8055 696.55 75.2399 701.326 74.813 706.197C74.5675 708.625 74.6231 711.079 75.1878 713.461C75.5519 715.054 76.0666 716.62 76.3814 718.228C76.8804 720.641 76.9376 723.124 76.7398 725.568L76.7041 725.565L76.7034 725.565Z" fill="#999B8D"/>
<path d="M88.2805 679.453C91.246 680.924 94.8204 681.32 97.9579 680.109C100.289 679.234 102.242 677.565 103.536 675.534C104.181 674.515 104.671 673.407 104.99 672.255C105.097 671.872 105.167 671.477 105.275 671.091C105.665 669.595 106.659 665.644 107.049 664.101C107.822 660.991 108.574 657.876 109.334 654.764L109.472 654.811C107.116 659.265 104.706 663.696 102.034 667.987C101.357 669.056 100.67 670.123 99.8904 671.13C99.702 671.372 99.4742 671.635 99.2594 671.86L99.0166 672.084L99.0288 672.072C96.2018 675.365 92.466 677.958 88.2805 679.453ZM88.2591 679.452C91.3509 678.243 94.2129 676.499 96.6215 674.289C97.4297 673.554 98.1807 672.764 98.8846 671.939L99.1102 671.728C99.2329 671.594 99.4128 671.398 99.5228 671.256C100.382 670.187 101.115 669.033 101.844 667.88C104.499 663.588 106.936 659.173 109.339 654.749L109.624 654.221L109.477 654.797C108.028 660.487 106.463 666.563 105.129 672.29C104.923 673.07 104.644 673.832 104.287 674.56C103.925 675.288 103.489 675.98 102.984 676.626C99.4407 681.124 93.3612 682.197 88.2584 679.452H88.2591Z" fill="#999B8D"/>
<path d="M88.2712 679.443C90.8312 679.661 93.4376 679.198 95.797 678.247C96.0904 678.114 96.5402 677.93 96.8257 677.783C97.5817 677.407 98.2899 676.942 98.9281 676.401C100.097 675.446 100.913 674.202 101.617 672.911C101.98 672.281 102.344 671.618 102.685 670.979C104.499 667.58 106.168 664.092 107.556 660.514C108.276 658.648 108.908 656.713 109.394 654.779L109.414 654.784C109.127 656.215 108.736 657.627 108.286 659.021C106.554 664.241 103.96 669.155 101.12 673.898C100.927 674.213 100.732 674.528 100.508 674.825C99.6299 676.026 98.4941 677.064 97.1634 677.802C95.1559 678.877 92.8587 679.468 90.5614 679.566C90.1944 679.584 89.7782 679.583 89.4113 679.568C89.0287 679.551 88.646 679.524 88.2669 679.464L88.2705 679.443H88.2712Z" fill="#999B8D"/>
<path d="M80.5712 689.924C75.4848 692.694 69.396 691.649 65.8302 687.17C65.3219 686.526 64.8814 685.836 64.5159 685.11C64.1547 684.383 63.8713 683.622 63.6621 682.844C62.2964 677.121 60.7009 671.059 59.2203 665.373L59.0704 664.797L59.3574 665.324C61.7846 669.737 64.2454 674.139 66.9239 678.418C67.6584 679.567 68.3987 680.718 69.2626 681.782C69.3725 681.923 69.5538 682.119 69.678 682.252L69.905 682.463C70.6132 683.285 71.3685 684.07 72.1809 684.802C74.601 687 77.4723 688.73 80.5705 689.924H80.5712ZM80.5498 689.925C76.3564 688.45 72.6064 685.877 69.7616 682.597L69.7737 682.609L69.5303 682.387C69.3147 682.163 69.0855 681.901 68.8949 681.66C68.1096 680.657 67.4164 679.593 66.7347 678.527C64.0398 674.25 61.6054 669.831 59.226 665.389L59.3631 665.34C60.1391 668.45 60.9086 671.56 61.6989 674.666C62.1016 676.233 63.111 680.141 63.5108 681.648C63.62 682.034 63.6928 682.427 63.8013 682.811C64.1254 683.961 64.6223 685.066 65.2734 686.083C66.5776 688.107 68.5401 689.767 70.8752 690.63C74.0192 691.825 77.5922 691.412 80.5491 689.927L80.5498 689.925Z" fill="#999B8D"/>
<path d="M80.5627 689.935C78.2811 690.258 75.9288 689.936 73.7579 689.223C73.5666 689.151 73.1325 688.994 72.9512 688.924C72.5443 688.744 72.0403 688.535 71.6569 688.316C70.322 687.585 69.1812 686.553 68.296 685.357C68.0704 685.061 67.8733 684.747 67.6792 684.433C64.8129 679.704 62.1922 674.802 60.4325 669.59C59.9749 668.199 59.5758 666.788 59.281 665.359L59.3017 665.355C59.7986 667.286 60.4396 669.217 61.1707 671.081C62.5784 674.652 64.2661 678.131 66.0986 681.522C66.4427 682.159 66.8104 682.821 67.1766 683.449C67.8876 684.736 68.7107 685.977 69.8851 686.926C70.5968 687.525 71.3957 688.025 72.2487 688.419C72.5336 688.539 72.9983 688.755 73.2917 688.856C75.5719 689.758 78.1419 690.096 80.5627 689.936V689.935Z" fill="#999B8D"/>
<path d="M76.2808 698.869C72.8662 701.447 67.6199 702.278 63.917 699.779C62.4542 698.822 61.2927 697.521 60.239 696.18C59.4509 695.172 58.7177 694.13 57.9846 693.086C55.4738 689.477 52.6661 683.285 53.5513 678.926C53.7241 678.116 54.1824 676.069 54.3609 675.241L54.3602 675.271C54.4758 675.411 54.5465 675.199 54.5072 675.273C54.4929 675.405 54.4851 675.649 54.4787 675.785C54.4294 677.7 54.6343 679.644 55.2654 681.468C55.6152 682.454 56.1085 683.402 56.8238 684.191C56.943 684.321 57.0636 684.449 57.1993 684.565C58.2216 685.414 59.9199 686.824 60.9479 687.671C61.5083 688.125 62.0551 688.6 62.6134 689.057C63.1724 689.511 63.7435 689.968 64.2532 690.483C65.2726 691.507 66.1771 692.619 67.0859 693.729C67.4721 694.207 68.0368 694.926 68.4815 695.351C70.5026 697.398 73.3538 698.624 76.2815 698.87L76.2808 698.869ZM76.2601 698.874C73.306 698.718 70.4283 697.481 68.3652 695.456C67.9133 695.031 67.3429 694.317 66.9446 693.833C66.0315 692.736 65.1184 691.63 64.099 690.624C63.5943 690.117 63.0346 689.669 62.4713 689.214C61.9102 688.756 61.3662 688.286 60.803 687.83C59.6501 686.882 58.1759 685.667 57.0444 684.714C55.5652 683.334 54.8877 681.369 54.55 679.469C54.3302 678.162 54.2631 676.835 54.338 675.514L54.3473 675.381L54.353 675.315L54.3559 675.282L54.3573 675.265L54.3587 675.255C54.3195 675.324 54.3916 675.104 54.5086 675.243C54.3259 676.092 53.8476 678.126 53.6613 678.945C52.7261 683.335 55.5238 689.414 58.1038 693.008C60.0677 695.651 62.0337 698.756 65.1391 700.272C67.0952 701.207 69.3939 701.335 71.5156 700.911C73.2275 700.563 74.8401 699.841 76.2608 698.873L76.2601 698.874Z" fill="#999B8D"/>
<path d="M75.7775 699.311C72.8141 700.131 69.4988 699.933 66.6269 698.869C65.142 698.286 63.8242 697.354 62.7526 696.219C60.8315 693.969 58.8105 691.787 57.1372 689.356C55.0262 686.299 53.2908 682.756 53.4571 679.018C53.4935 678.28 53.6106 677.547 53.8076 676.832L53.8283 676.837C52.2449 684.045 58.3379 690.939 62.8033 696.176C64.4252 697.89 66.5505 698.868 68.9006 699.33C70.4033 699.64 71.9553 699.736 73.4888 699.63C74.2562 699.573 75.0236 699.476 75.771 699.292L75.7775 699.312V699.311Z" fill="#999B8D"/>
<path d="M92.1476 670.035C90.2622 664.68 88.4583 659.286 87.0312 653.8C86.8506 653.034 86.6214 652.2 86.5122 651.423C86.2388 649.613 86.333 647.755 86.7742 645.976C87.1518 645.908 86.8834 645.963 86.9698 645.95L86.9777 645.961C87.3517 646.446 88.2034 647.559 88.5853 648.06C92.5224 653.418 99.0124 664.784 92.1476 670.035ZM92.1476 670.035C98.5098 664.969 92.9322 654.785 89.3685 649.506C88.6646 648.457 87.6815 647.235 86.9163 646.222L86.8541 646.14L86.8227 646.099L86.807 646.079L86.7992 646.069C86.8806 646.05 86.6064 646.097 86.9791 646.022C86.4001 648.3 86.428 650.7 87.0248 652.972C87.1154 653.365 87.311 654.152 87.4146 654.541C88.7845 659.76 90.4493 664.905 92.1469 670.034L92.1476 670.035Z" fill="#999B8D"/>
<path d="M87.1476 681.597C84.3805 682.969 80.9781 683.836 77.8606 683.324C76.2736 683.07 74.7188 682.408 73.6394 681.245C71.5113 678.95 71.0808 675.596 70.5868 672.679C69.7965 668.172 69.9257 663.523 70.9944 659.067C71.5427 656.849 72.313 654.644 73.6037 652.711C74.3961 651.533 75.8239 649.423 76.6263 648.232L76.6149 648.255C76.6256 648.444 76.8347 648.279 76.7605 648.319C76.6855 648.453 76.5606 648.701 76.4892 648.842C74.9808 651.954 73.0547 656.893 74.2897 660.26C74.344 660.415 74.4768 660.643 74.5503 660.795C75.16 661.993 76.133 663.887 76.7548 665.079C77.1324 665.788 77.4737 666.515 77.8563 667.223C78.0462 667.577 78.2347 667.936 78.401 668.304C78.6944 668.941 78.9193 669.622 79.1213 670.29C79.3719 671.154 79.5961 672.029 79.8009 672.902C79.9944 673.673 80.1379 674.462 80.3556 675.226C81.2715 678.433 83.7966 680.727 87.1476 681.596V681.597ZM87.1261 681.599C83.7395 680.823 81.1523 678.461 80.205 675.269C80.0851 674.884 80.0001 674.49 79.9087 674.103C79.6367 672.94 79.354 671.776 79.0185 670.628C78.8822 670.161 78.7258 669.666 78.5538 669.21C78.3146 668.556 77.9991 667.932 77.6657 667.316C77.1239 666.289 76.5513 665.134 76.0016 664.102C75.6404 663.402 74.6902 661.562 74.3433 660.88L74.2048 660.61C74.0584 660.341 73.9706 660.044 73.8914 659.751C73.0676 656.342 74.8073 651.854 76.3386 648.772L76.4778 648.504L76.5492 648.37L76.5856 648.303L76.6042 648.27L76.6134 648.253L76.6184 648.244C76.5463 648.279 76.7605 648.106 76.7726 648.294V648.3L76.7612 648.317C75.7511 649.811 74.244 651.926 73.286 653.415C72.2295 655.172 71.5498 657.116 71.063 659.082C70.5761 661.053 70.3091 663.072 70.2113 665.094C70.04 668.138 70.449 671.163 71.0109 674.152C71.5648 677.035 72.2402 680.357 74.9565 682.111C77.1995 683.489 80.0708 683.562 82.6222 683.066C84.1842 682.77 85.6876 682.244 87.1261 681.599V681.599Z" fill="#999B8D"/>
<path d="M86.3451 682.058C83.2312 682.491 79.8673 681.926 77.1967 680.309C75.2499 679.15 74.0199 677.135 73.5552 675.027C73.3767 674.308 73.0983 673.254 72.9012 672.526C71.1708 666.351 70.3362 659.522 73.114 653.505C73.6515 652.321 74.3204 651.186 75.0979 650.13C72.6314 653.866 71.5227 657.897 71.5299 662.334C71.4927 666.64 72.5536 670.855 73.6201 675.013C74.0356 676.891 75.105 678.662 76.7427 679.801C79.4833 681.696 83.0548 682.309 86.3451 682.058Z" fill="#999B8D"/>
<path d="M84.9131 693.236C86.1517 693.24 87.3746 693.037 88.581 692.79C89.2521 692.665 90.3201 692.438 90.9975 692.296C95.3822 691.343 99.8119 690.129 103.871 688.27C106.625 686.973 109.936 685.064 111.103 682.232C112.284 679.188 112.129 675.768 115.976 674.551L115.999 674.615C115.101 674.918 114.199 675.266 113.464 675.85C113.094 676.136 112.762 676.466 112.475 676.827C112.181 677.185 111.962 677.59 111.722 677.986C111.485 678.383 111.251 678.782 111.01 679.177C110.525 679.973 109.888 680.684 109.15 681.278C108.039 682.172 106.673 682.754 105.25 683.016C104.308 683.209 103.356 683.348 102.399 683.444C98.5854 683.803 94.844 684.67 91.1575 685.641C89.7825 686.021 88.449 686.535 87.1832 687.171C85.924 687.822 84.6918 688.534 83.481 689.265C82.079 690.121 80.6697 691.024 79.706 692.341C79.0492 693.284 78.5559 694.328 77.8656 695.251L77.8042 695.196C78.2975 694.797 78.8086 694.417 79.3498 694.078C80.2236 693.54 81.2009 693.048 82.2631 693.014C82.4916 693.006 82.7607 693.037 82.9884 693.077C83.6245 693.179 84.2692 693.234 84.9145 693.237L84.9131 693.236ZM84.9131 693.256C84.267 693.256 83.6202 693.205 82.982 693.107L82.7429 693.071C82.6629 693.063 82.5837 693.052 82.503 693.049C82.0211 693.024 81.54 693.12 81.0859 693.271C79.7553 693.731 78.638 694.603 77.5858 695.482C78.229 694.667 78.6844 693.739 79.2191 692.859C80.13 691.209 81.7698 690.095 83.3739 689.109C84.5854 688.362 85.8104 687.642 87.0804 686.987C90.0616 685.465 93.4155 684.822 96.6851 684.113C98.564 683.736 100.464 683.425 102.378 683.258C103.329 683.164 104.277 683.036 105.212 682.852C107.089 682.531 108.842 681.613 110.075 680.222C110.863 679.359 111.37 678.313 111.993 677.343C112.937 675.844 114.271 675.09 115.977 674.551L116 674.615C115.226 674.868 114.486 675.243 113.896 675.787C112.705 676.903 112.301 678.51 111.889 680.003C111.579 681.137 111.324 682.325 110.672 683.341C108.715 686.292 104.988 688.091 101.69 689.389C98.2856 690.702 94.6048 691.625 91.0125 692.353C90.3365 692.483 89.2635 692.704 88.591 692.827C87.3817 693.069 86.1545 693.267 84.9152 693.257L84.9131 693.256Z" fill="#999B8D"/>
<path d="M77.8213 695.215C79.0928 694.049 80.5205 693.02 82.0468 692.175C82.2239 692.078 82.448 691.946 82.6258 691.863L83.2176 691.572C83.4946 691.432 83.8358 691.301 84.1242 691.175C86.6621 690.116 89.4198 689.665 92.0926 689.044C93.7817 688.66 95.5293 688.201 97.1934 687.712C99.7069 686.946 102.233 686.188 104.636 685.145C105.428 684.787 106.2 684.405 106.884 683.886C107.166 683.688 107.64 683.33 107.903 683.102C108.893 682.287 109.791 681.348 110.587 680.361C111.644 679.026 112.577 677.59 113.26 676.046L113.286 676.055C113.142 676.453 112.972 676.842 112.785 677.224C112.231 678.366 111.537 679.466 110.766 680.489C109.846 681.68 108.791 682.784 107.593 683.727C107.078 684.115 106.527 684.529 105.952 684.828C104.79 685.452 103.539 685.906 102.293 686.341C97.5246 687.99 92.5131 688.939 87.6437 690.265C86.8184 690.496 85.9439 690.757 85.1401 691.048C83.2911 691.697 81.5357 692.612 79.9266 693.693C79.5689 693.936 79.2134 694.183 78.8657 694.441C78.5181 694.699 78.1775 694.965 77.8413 695.236L77.822 695.216L77.8213 695.215Z" fill="#999B8D"/>
<path d="M75.1692 702.654C75.8403 703.59 76.6998 704.424 77.7057 705.04C78.3353 705.422 79.0249 705.717 79.7452 705.899C80.1736 706.014 80.6169 706.095 81.0617 706.112C83.516 706.229 85.612 704.789 87.5623 703.545C88.0606 703.221 88.5568 702.9 89.0322 702.549C91.3623 700.843 94.2486 697.905 94.7326 695.065C94.8197 694.506 95.026 693.084 95.1138 692.511L95.1174 692.486L95.1245 692.481C95.2173 692.417 95.1731 692.455 95.2309 692.461C95.2723 692.487 95.2701 692.533 95.2673 692.543C95.2637 692.56 95.2652 692.551 95.2637 692.556L95.2623 692.562L95.2559 692.584L95.2423 692.628L95.2145 692.716C94.9268 693.583 94.5456 694.422 94.0715 695.213C93.4005 696.311 92.516 697.366 91.2988 697.943L91.2117 697.983C91.1824 697.998 91.1532 698.011 91.1232 698.02C90.5307 698.234 89.9303 698.45 89.3399 698.657C88.4954 698.951 87.3203 699.364 86.4908 699.659C86.0125 699.822 85.5413 699.979 85.0894 700.187C84.1799 700.597 83.3111 701.094 82.4459 701.586C82.0697 701.802 81.5171 702.131 81.1166 702.299C79.2712 703.119 77.1039 703.249 75.1692 702.654ZM75.1521 702.641C77.3394 703.214 79.7667 702.957 81.7084 701.821C82.7836 701.191 83.8629 700.532 84.998 700.004C85.4578 699.79 85.9425 699.627 86.4165 699.465C87.2403 699.17 88.424 698.75 89.2614 698.457L90.6813 697.954C90.7741 697.92 91.1132 697.807 91.2024 697.756C92.3853 697.203 93.2441 696.183 93.9045 695.12C94.4028 694.309 94.8083 693.44 95.1031 692.542L95.1095 692.521L95.1109 692.515C95.1109 692.517 95.1138 692.504 95.1109 692.517C95.1088 692.524 95.1074 692.566 95.1502 692.589C95.2088 692.591 95.1659 692.624 95.2587 692.558C95.3087 692.361 94.9682 694.294 94.9846 694.23L94.8425 695.081C94.7469 695.652 94.5456 696.204 94.2907 696.727C93.1285 699.055 91.1924 701.025 89.11 702.642C88.1577 703.352 87.1675 704.008 86.1567 704.639C85.1372 705.26 84.0578 705.829 82.8706 706.105C79.8516 706.855 76.6734 705.103 75.1528 702.641L75.1521 702.641Z" fill="#999B8D"/>
<path d="M75.377 703.03C77.4544 704.339 80.4548 705.078 82.9135 704.558C83.491 704.433 84.0543 704.236 84.5783 703.97C84.9866 703.762 85.3757 703.518 85.7776 703.299C89.6419 701.076 94.3649 698.246 95.1759 693.674L95.1973 693.677C95.1009 694.689 94.7576 695.676 94.2486 696.569C92.2768 699.97 88.551 701.885 85.1279 703.741C84.6782 704.002 84.1942 704.248 83.7023 704.424C81.9433 705.11 79.9744 704.987 78.194 704.439C77.4322 704.203 76.6969 703.887 76.0173 703.484C75.791 703.35 75.5704 703.208 75.3641 703.046L75.3777 703.03H75.377Z" fill="#999B8D"/>
<path d="M88.6838 673.662C88.2684 673.264 87.9635 672.781 87.6473 672.311C87.4902 672.075 87.326 671.843 87.174 671.605C86.9034 671.18 86.5336 670.585 86.2959 670.151C86.2388 670.044 86.1395 669.887 86.0896 669.779C85.7762 669.151 85.4492 668.512 85.2301 667.845C84.9188 666.918 84.6854 665.905 84.9381 664.937C85.3107 663.735 86.6857 662.867 85.9632 661.488L86.006 661.468C86.0803 661.617 86.1453 661.767 86.2024 661.921C86.3159 662.232 86.3501 662.569 86.3016 662.895C86.2602 663.172 86.1181 663.566 86.046 663.841C85.8233 664.618 85.9853 665.47 86.4636 666.132C86.6464 666.404 86.8484 666.664 87.0583 666.918C87.4895 667.425 87.8793 667.964 88.2455 668.514C88.6125 669.064 88.9551 669.627 89.2792 670.202C89.7754 671.071 90.0145 672.036 90.2087 672.998C90.3408 673.634 90.445 674.316 90.223 674.948C90.1038 675.327 89.9603 675.704 89.8974 676.097C89.8575 675.417 89.8375 674.531 89.2021 674.094C89.0172 673.963 88.8437 673.818 88.6838 673.66V673.662ZM88.6945 673.653C88.8559 673.808 89.0301 673.951 89.2157 674.08C89.4091 674.201 89.5548 674.386 89.6519 674.585C89.8439 674.987 89.9082 675.431 89.9438 675.867L89.8875 675.865L89.896 675.814C89.9774 675.437 90.118 675.071 90.203 674.695C90.248 674.462 90.2551 674.216 90.2401 673.979C90.1823 673.339 90.0088 672.704 89.8525 672.078C89.6997 671.448 89.4677 670.839 89.1486 670.271C88.8245 669.702 88.4825 669.14 88.1234 668.589C87.7629 668.039 87.3817 667.503 86.9562 666.997C86.293 666.185 85.7469 665.387 85.874 664.309C85.8918 664.013 86.0325 663.639 86.1153 663.355C86.3651 662.687 86.2916 662.121 85.9639 661.489L86.0068 661.47C86.1317 661.725 86.2138 662.003 86.2145 662.286C86.1988 663.302 85.275 664.019 85.0209 664.958C84.7425 666.187 85.1922 667.45 85.6505 668.591C86.0896 669.605 86.6371 670.628 87.2175 671.579C87.5138 672.061 87.825 672.535 88.1456 673.002C88.3105 673.231 88.4918 673.452 88.6945 673.653Z" fill="#999B8D"/>
<path d="M89.9074 675.87C89.8361 674.978 89.6483 674.097 89.2971 673.269C89.1179 672.857 88.9073 672.458 88.6881 672.064C87.8714 670.615 86.9277 669.229 86.2116 667.73C85.9575 667.18 85.6891 666.619 85.6198 666.014C85.5399 665.415 85.5741 664.803 85.6805 664.21C85.7648 663.766 85.8918 663.33 86.0646 662.91C86.1217 662.771 86.1852 662.633 86.2573 662.5L86.2702 662.505C86.0325 663.056 85.8833 663.639 85.7905 664.226C85.7255 664.664 85.6991 665.113 85.7269 665.555C85.7476 665.996 85.8283 666.432 85.9889 666.85C86.5386 668.243 87.2525 669.582 88.0399 670.868C88.5196 671.638 89.0658 672.385 89.4141 673.224C89.6476 673.783 89.7954 674.375 89.8689 674.972C89.906 675.27 89.9231 675.57 89.921 675.869H89.9067L89.9074 675.87Z" fill="#999B8D"/>
<path d="M71.532 712.937C70.3505 712.695 69.2518 712.134 68.1482 711.68C67.3822 711.353 66.2728 710.843 65.5346 710.46C64.9171 710.141 64.2204 709.798 63.6293 709.442C61.4476 708.16 58.293 706.011 57.8868 703.442C57.6426 701.591 58.1737 699.581 56.157 698.466L56.1813 698.427C56.6632 698.709 57.1379 699.023 57.4906 699.45C58.2287 700.276 58.2787 701.474 58.8184 702.4C59.3417 703.348 60.2247 704.084 61.2599 704.495C61.7724 704.715 62.3 704.902 62.834 705.071C63.9113 705.398 64.9621 705.806 65.9915 706.25C68.0354 707.155 70.1392 708.076 71.7604 709.606C72.1745 709.972 72.58 710.347 72.9755 710.733C73.7657 711.494 74.5596 712.334 74.8616 713.394C75.0529 713.973 75.1935 714.569 75.4591 715.123L75.3163 714.938C74.7545 714.233 74.1198 713.485 73.2189 713.174C73.0397 713.115 72.8527 713.088 72.6621 713.083C72.2823 713.062 71.9039 713.013 71.5327 712.934L71.532 712.937ZM71.5356 712.924C71.9068 713 72.2844 713.047 72.6635 713.065C72.8056 713.07 72.9505 713.081 73.089 713.116C74.0556 713.37 74.7652 714.185 75.362 714.909L75.3135 714.936L75.277 714.859C74.9708 714.146 74.8451 713.367 74.4618 712.684C74.0699 711.969 73.4759 711.393 72.8834 710.822C72.4865 710.441 72.076 710.073 71.6633 709.708C70.8481 708.97 69.9464 708.325 68.9577 707.814C67.9654 707.307 66.9553 706.826 65.9323 706.378C64.9071 705.931 63.8663 705.521 62.7933 705.191C62.2565 705.02 61.7275 704.825 61.212 704.599C60.1641 704.173 59.2653 703.409 58.7427 702.44C58.2109 701.512 58.1745 700.315 57.4491 699.484C57.1051 699.06 56.6332 698.751 56.1584 698.468L56.1827 698.429C58.5235 699.758 57.4649 702.089 58.1331 704.097C59.0304 706.367 61.6061 708.086 63.6899 709.353C64.2796 709.71 64.9628 710.063 65.576 710.391C66.3063 710.784 67.4057 711.308 68.166 711.647C69.2604 712.116 70.3577 712.675 71.5356 712.924V712.924Z" fill="#999B8D"/>
<path d="M75.3327 714.928C74.4032 713.746 73.3046 712.673 72.0267 711.833C71.3892 711.418 70.7082 711.048 70.0264 710.701C67.5007 709.443 64.8864 708.307 62.4756 706.85C61.8188 706.449 61.1606 706.037 60.5788 705.538C60.289 705.298 60.0284 704.989 59.785 704.708C59.2224 704.026 58.7598 703.261 58.3908 702.469C57.9796 701.558 57.6647 700.603 57.5262 699.62L57.5405 699.618C57.7211 700.59 58.0667 701.529 58.4928 702.425C58.9262 703.312 59.4759 704.163 60.1476 704.904C60.8108 705.658 61.6939 706.202 62.5484 706.743C63.4172 707.28 64.3139 707.778 65.2134 708.27C67.0102 709.269 68.922 710.043 70.7646 710.96C71.215 711.193 71.6769 711.457 72.0981 711.735C72.9505 712.305 73.725 712.985 74.4011 713.738C74.7395 714.115 75.055 714.509 75.3441 714.92L75.3327 714.928V714.928Z" fill="#999B8D"/>
<path d="M61.5311 715.071C60.8522 712.407 60.0156 709.796 58.7251 707.351C57.7678 705.508 56.5787 703.781 55.6544 701.913C55.1785 700.99 54.7863 699.978 54.4406 699.005C54.1293 698.011 53.8687 696.984 53.6658 695.968C53.5163 695.074 53.3531 694.132 53.2818 693.225C53.2434 692.801 53.1803 692.261 53.1597 691.847C53.1446 691.555 53.0966 690.375 53.0843 690.122C53.0088 684.725 54.128 679.351 55.8903 674.24C58.0613 667.559 61.7656 661.12 61.7971 653.988C61.8163 653.501 61.7752 653.108 61.7532 652.644C61.7354 652.056 61.6257 651.389 61.564 650.805C61.1923 648.531 60.4065 646.305 59.4465 644.196C58.3328 641.67 57.1506 639.173 55.9602 636.679L53.5725 631.684L53.6479 631.653C55.7038 635.269 57.6786 638.939 59.5164 642.666C60.977 645.584 62.2771 648.635 62.5761 651.895C63.4058 659.88 58.998 667.115 56.2688 674.366C54.5243 678.84 53.434 683.611 53.5245 688.4C53.5533 689.02 53.5574 689.827 53.615 690.445L53.7316 691.804C53.7659 692.226 53.8592 692.738 53.9085 693.156C53.9538 693.506 54.047 694.149 54.1211 694.502C54.5558 697.189 55.3307 699.812 56.5938 702.242C57.8844 704.684 59.4122 707.07 60.2885 709.698C60.9016 711.448 61.3061 713.25 61.612 715.057L61.5311 715.072V715.071Z" fill="#E2B34B"/>
<path d="M60.8165 661.967C61.8095 662.215 66.2969 663.227 70.6348 660.787C74.8095 658.44 77.2191 653.812 76.8913 648.868C76.7926 642.462 76.6952 636.055 76.5965 629.648C76.5965 629.648 72.2421 648.34 70.2343 651.094C69.4553 652.701 68.2814 654.718 66.5218 656.808C64.5222 659.184 62.4417 660.853 60.8152 661.968L60.8165 661.967Z" fill="#E2B34B"/>
<path d="M55.4843 675.354C54.7383 676.028 51.3096 678.973 46.2778 678.821C41.4365 678.675 36.9985 675.721 34.8028 671.233C31.6718 665.567 28.5407 659.901 25.4097 654.235C25.4097 654.235 38.6168 668.638 41.7602 670.134C43.251 671.186 45.2931 672.417 47.8865 673.444C50.8337 674.612 53.4971 675.122 55.4843 675.354Z" fill="#E2B34B"/>
<path d="M53.4121 686.192C52.7716 686.958 49.8134 690.337 44.8103 690.865C39.9348 691.381 36.3772 688.31 32.3301 684.901C27.0458 680.45 23.358 674.493 23.166 670.596C23.1427 670.126 23.0001 666.257 23.0001 666.255C22.9905 666.251 24.1699 673.232 28.5394 675.71C28.549 675.716 28.9193 675.895 29.6585 676.256C33.5945 678.169 34.054 678.364 34.8302 678.755C37.3222 680.005 37.5251 679.762 42.7229 683.67C43.4937 684.249 44.4523 684.84 45.6099 685.325C49.0289 686.757 52.1352 686.407 53.4134 686.19L53.4121 686.192Z" fill="#E2B34B"/>
<path d="M62.3059 650.724C62.3059 650.724 54.9207 639.665 51.4673 633.022C50.3318 630.839 49.727 628.439 49.6954 626L51.9803 627.811C51.9803 627.811 69.5088 641.557 62.3059 650.723V650.724Z" fill="#E2B34B"/>
<path d="M60.2076 664.592C59.1584 665.461 54.3968 669.255 49.0056 668.801C43.7529 668.358 41.6902 663.464 39.3012 658.009C36.1811 650.887 35.4679 642.138 37.2728 636.927C37.4908 636.298 39.3327 631.135 39.3327 631.134C39.3258 631.127 36.9464 640.653 40.1432 644.948C40.1501 644.957 40.4367 645.282 41.0086 645.93C44.0519 649.377 44.4222 649.742 45.016 650.438C46.9223 652.672 47.2556 652.396 50.5649 658.779C51.0559 659.726 51.732 660.73 52.6687 661.641C55.4322 664.327 58.7895 664.582 60.2076 664.592Z" fill="#E2B34B"/>
<path d="M61.1471 677.823C61.9864 677.623 62.6351 677.384 63.111 677.207C63.7048 676.987 64.1025 676.792 65.5727 676.125C66.5108 675.699 67.4434 675.26 68.3678 674.807C69.3744 674.315 70.3742 673.806 71.3617 673.278C72.393 672.726 73.4133 672.155 74.4186 671.558C75.4321 670.957 76.4278 670.33 77.4015 669.671C78.352 669.027 79.2818 668.354 80.176 667.638C81.0235 666.961 81.8409 666.246 82.6048 665.483C83.3111 664.778 83.9722 664.031 84.5537 663.229C85.0817 662.5 85.5439 661.723 85.8867 660.897C85.8867 660.897 86.0198 660.57 86.1308 660.233C86.903 657.88 85.9498 654.25 87.1855 651.748C87.4982 651.116 88.1044 650.243 89.4086 649.431C89.4086 649.431 88.823 649.783 88.1345 650.317C87.0483 651.158 86.2721 652.31 85.8991 653.597C85.74 654.145 85.5397 654.832 85.3066 655.622C84.6181 657.947 82.9724 659.916 80.7342 661.039C79.7316 661.542 78.4781 662.078 76.9215 662.61C73.0156 663.947 68.5995 666.216 65.8745 667.708C64.1286 668.663 62.5213 669.827 61.0812 671.169C60.017 672.161 58.9706 673.172 57.9721 674.224C57.4524 674.772 56.9285 675.338 56.4663 675.94C55.9973 676.549 55.6228 677.194 55.3006 677.883C54.9399 678.655 54.4077 681.051 54.0539 681.826C54.0416 681.852 54.0662 681.8 54.0539 681.826C56.1001 679.021 57.6581 678.294 58.7347 678.185C59.057 678.152 59.9388 678.114 61.1484 677.824L61.1471 677.823Z" fill="#E2B34B"/>
<path d="M53.2968 690.584C53.8057 691.049 56.144 693.086 59.5987 693.006C62.9642 692.927 65.0872 690.525 67.512 687.851C70.6773 684.359 72.611 679.983 72.3669 677.315C72.3367 676.992 72.0611 674.349 72.0611 674.349C72.0666 674.345 71.9377 679.197 69.2043 681.266C69.1989 681.272 68.9643 681.426 68.4953 681.735C66.0034 683.384 65.7099 683.557 65.2189 683.89C63.6445 684.96 63.4826 684.813 60.3255 687.928C59.8565 688.391 59.2627 688.876 58.5207 689.308C56.3332 690.582 54.1869 690.618 53.2968 690.584Z" fill="#E2B34B"/>
<path d="M59.6055 655.563C59.3436 655.41 59.1502 655.262 59.0076 655.154C58.8307 655.019 58.7168 654.912 58.2931 654.536C58.0215 654.296 57.7541 654.052 57.4908 653.803C57.2041 653.533 56.9216 653.259 56.6446 652.978C56.3552 652.686 56.0727 652.389 55.7984 652.083C55.5214 651.775 55.2525 651.462 54.9961 651.138C54.7451 650.822 54.5051 650.5 54.2816 650.166C54.069 649.85 53.8715 649.524 53.6973 649.187C53.5369 648.876 53.3956 648.555 53.2873 648.222C53.1899 647.921 53.1186 647.61 53.0953 647.294C53.0953 647.294 53.087 647.17 53.087 647.044C53.087 646.167 53.8166 645.031 53.6754 644.056C53.6397 643.809 53.5314 643.451 53.1789 643.042C53.1789 643.042 53.338 643.222 53.5122 643.474C53.7865 643.869 53.9222 644.34 53.9058 644.816C53.8989 645.018 53.8893 645.272 53.8811 645.564C53.855 646.424 54.1938 647.259 54.8288 647.868C55.1127 648.141 55.4788 648.45 55.9479 648.79C57.1246 649.642 58.3712 650.862 59.1297 651.646C59.6151 652.148 60.0321 652.707 60.3708 653.309C60.6218 653.754 60.8645 654.204 61.0853 654.663C61.2005 654.901 61.3158 655.148 61.4049 655.398C61.4968 655.652 61.5516 655.909 61.5832 656.176C61.6202 656.475 61.5324 657.343 61.5667 657.642C61.5667 657.631 61.5667 657.652 61.5667 657.642C61.1855 656.481 60.737 656.076 60.3845 655.929C60.2789 655.885 59.9841 655.782 59.6055 655.56V655.563Z" fill="#E2B34B"/>
<path d="M52.3272 702.698C51.8184 702.714 51.4111 702.678 51.1121 702.652C50.7391 702.619 50.4813 702.57 49.5363 702.419C48.9329 702.322 48.3322 702.218 47.7315 702.104C47.0787 701.981 46.4272 701.846 45.7785 701.701C45.101 701.547 44.4277 701.381 43.7584 701.199C43.0836 701.014 42.4144 700.813 41.752 700.591C41.1046 700.373 40.4655 700.134 39.8388 699.868C39.2449 699.615 38.6621 699.338 38.0998 699.023C37.5814 698.733 37.0808 698.412 36.6159 698.048C36.1935 697.716 35.8012 697.348 35.4679 696.934C35.4679 696.934 35.3377 696.77 35.2183 696.596C34.3845 695.383 34.3104 693.181 33.1886 691.957C32.9047 691.648 32.4151 691.248 31.5387 690.989C31.5387 690.989 31.9296 691.097 32.4096 691.294C33.1666 691.603 33.8003 692.134 34.2295 692.805C34.4119 693.091 34.641 693.449 34.907 693.859C35.6888 695.069 36.9519 695.929 38.4083 696.22C39.0612 696.349 39.8607 696.459 40.8303 696.521C43.266 696.674 46.1488 697.279 47.9427 697.702C49.092 697.973 50.1987 698.383 51.2397 698.921C52.0091 699.318 52.773 699.728 53.5149 700.17C53.9017 700.399 54.2939 700.639 54.656 700.908C55.0249 701.18 55.3444 701.487 55.6434 701.828C55.9781 702.209 56.683 703.483 57.0149 703.867C57.0039 703.854 57.0258 703.88 57.0149 703.867C55.3828 702.596 54.3789 702.424 53.7522 702.529C53.5643 702.56 53.0582 702.674 52.3259 702.697L52.3272 702.698Z" fill="#E2B34B"/>
<g clip-path="url(#clip0_619_191)">
<path d="M76.0164 128.335C71.1992 129.704 66.7651 128.329 65.3521 125.773C64.9675 125.078 64.3285 123.432 64.4681 121.431C64.4805 121.254 64.5937 119.825 65.0311 119.09C66.2222 117.08 71.604 117.246 78.0776 119.748C76.291 116.45 75.6209 113.612 75.3418 111.658C75.1277 110.148 74.8331 107.929 75.821 107.369C76.491 106.989 77.4635 107.538 78.1614 107.931C80.7732 109.405 80.8492 111.452 83.0717 112.688C83.6734 113.024 84.6738 113.433 86.1922 113.438C87.0374 111.306 87.3352 109.523 87.4422 108.233C87.557 106.841 87.4702 105.794 88.1293 105.37C88.9622 104.836 90.4433 105.648 90.9908 106.057C94.3377 108.561 91.6375 117.549 91.1754 119.04C91.94 118.252 93.3296 117.068 95.3691 116.469C96.1384 116.242 97.5823 115.839 99.2604 116.303C100.014 116.511 101.115 116.816 101.415 117.646C101.649 118.297 101.275 119.144 99.4993 121.04C98.3702 122.246 96.6688 123.88 94.2866 125.568C95.9957 126.186 98.4726 127.347 100.748 129.599C101.191 130.038 104.724 133.582 103.848 135.022C103.589 135.447 102.888 135.787 99.3737 135.323C97.0705 135.019 93.9391 134.42 90.2696 133.135C92.2827 136.034 93.2288 138.684 93.7127 140.568C94.0834 142.016 94.938 145.345 93.7639 146.087C92.5712 146.839 90.6062 144.085 88.562 144.836C86.8498 145.464 87.1336 147.8 85.2213 148.438C84.0472 148.829 82.6591 148.377 81.8402 147.624C80.8957 146.757 80.7933 145.567 80.691 142.67C80.6212 140.669 80.5669 138.349 80.5623 135.758C79.0966 137.282 76.3421 139.626 72.685 139.921C71.649 140.005 69.8871 140.146 69.0434 139.046C68.3129 138.093 68.5921 136.624 69.0124 135.736C69.8747 133.913 71.7591 134.175 73.6528 132.448C74.4546 131.715 75.4302 130.486 76.0149 128.335H76.0164Z" fill="#999A8D"/>
<path d="M84.2566 131.299C81.4494 130.37 79.4177 126.915 80.0892 123.907C80.5902 121.659 82.6297 119.53 84.0457 119.804C84.2783 119.849 85.4849 119.797 86.6544 121.225C87.8936 122.738 88.4069 123.335 88.7823 124.128C89.688 126.04 89.4243 129.796 87.7245 131.091C86.4853 132.036 84.6226 131.419 84.2582 131.299H84.2566Z" fill="#F3F0E9"/>
<path d="M119.741 9.75917C90.1126 17.7161 75.4133 62.5261 87.2212 84.1406C95.7294 99.7152 107.654 105.385 107.654 105.385C113.268 108.054 117.924 108.459 121.401 113.252C125.133 118.399 122.753 122.053 124.949 130.172C125.305 131.489 129.302 145.551 140.277 151.024C149.256 155.502 154.1 149.839 164.619 154.559C173.929 158.736 174.251 165.018 178.762 165.18C189.247 165.557 204.801 132.223 203.436 98.6702C203.007 88.1093 199.918 53.3649 171.578 29.0268C162.845 21.5262 142.136 3.74269 119.742 9.75761L119.741 9.75917Z" fill="#BF7862"/>
<path d="M185.369 185.289C167.834 173.152 139.373 172.211 115.15 171.411C90.465 170.594 59.4198 169.569 40.855 181.24C38.8713 182.488 26.0171 190.81 28.6677 201.01C32.6753 216.434 69.0279 224.196 88.7373 226.26C100.059 227.445 108.579 227.031 124.431 226.26C147.49 225.139 162.567 224.405 175.793 218.637C175.793 218.637 178.065 217.647 198.428 204.238C197.663 199.541 195.07 192.003 185.369 185.289Z" fill="#E5E2E1"/>
<path d="M121.89 125.91C111.995 131.573 100.15 129.437 93.2123 120.281C92.2235 118.965 91.3666 117.553 90.6555 116.07C89.9528 114.583 89.4014 113.028 88.9945 111.437C86.3376 99.7381 83.2336 87.347 80.3532 75.7228L80.0615 74.5458L80.6198 75.6228C85.3418 84.6428 90.1291 93.6419 95.34 102.39C96.7691 104.738 98.2094 107.091 99.8898 109.267C100.104 109.554 100.456 109.955 100.698 110.227L101.14 110.658C102.518 112.338 103.987 113.944 105.567 115.439C110.276 119.933 115.861 123.469 121.889 125.91H121.89ZM121.849 125.913C113.691 122.897 106.395 117.636 100.861 110.931L100.884 110.956L100.411 110.502C99.9912 110.045 99.5454 109.51 99.1746 109.017C97.6469 106.967 96.2983 104.792 94.972 102.613C89.7292 93.8684 84.9933 84.8359 80.3643 75.7548L80.6309 75.6561C82.1406 82.0122 83.6377 88.3711 85.1752 94.7202C85.9585 97.9233 87.9223 105.912 88.7 108.992C88.9125 109.781 89.0542 110.585 89.2653 111.369C89.8958 113.72 90.8624 115.98 92.1291 118.057C94.6665 122.196 98.4844 125.589 103.027 127.353C109.144 129.797 116.095 128.952 121.847 125.916L121.849 125.913Z" fill="#603121"/>
<path d="M121.874 125.932C117.435 126.594 112.859 125.935 108.635 124.477C108.263 124.33 107.419 124.009 107.066 123.866C106.274 123.498 105.294 123.07 104.548 122.624C101.951 121.128 99.7315 119.019 98.0094 116.573C97.5705 115.969 97.1872 115.327 96.8094 114.685C91.2333 105.019 86.1349 94.9982 82.7114 84.344C81.8212 81.4995 81.0448 78.6161 80.4712 75.6937L80.5115 75.6854C81.4781 79.6333 82.7253 83.5811 84.1475 87.3901C86.8862 94.6911 90.1694 101.803 93.7346 108.735C94.404 110.037 95.1192 111.39 95.8317 112.674C97.215 115.305 98.8163 117.841 101.101 119.781C102.486 121.006 104.04 122.028 105.699 122.834C106.253 123.08 107.158 123.52 107.728 123.727C112.164 125.571 117.164 126.262 121.874 125.935V125.932Z" fill="#603121"/>
<path d="M113.543 144.195C106.901 149.465 96.6941 151.164 89.4903 146.055C86.6446 144.1 84.3849 141.44 82.335 138.699C80.8018 136.638 79.3754 134.508 77.9491 132.373C73.0646 124.997 67.6023 112.339 69.3245 103.428C69.6606 101.771 70.5522 97.5884 70.8994 95.8958L70.898 95.957C71.123 96.2432 71.2605 95.8097 71.1841 95.9611C71.1563 96.2293 71.1411 96.7282 71.1286 97.0075C71.0327 100.921 71.4313 104.896 72.659 108.625C73.3396 110.64 74.2993 112.577 75.6909 114.19C75.9228 114.456 76.1575 114.718 76.4214 114.956C78.4102 116.69 81.7142 119.572 83.7141 121.305C84.8044 122.233 85.8682 123.205 86.9543 124.137C88.0417 125.065 89.1528 126 90.1444 127.052C92.1277 129.145 93.8873 131.42 95.6553 133.689C96.4067 134.666 97.5052 136.135 98.3705 137.005C102.302 141.187 107.849 143.694 113.545 144.197L113.543 144.195ZM113.503 144.206C107.756 143.886 102.158 141.358 98.1441 137.219C97.265 136.349 96.1553 134.89 95.3803 133.9C93.604 131.659 91.8277 129.398 89.8444 127.34C88.8625 126.305 87.7737 125.389 86.6779 124.458C85.5863 123.523 84.528 122.561 83.4322 121.63C81.1892 119.692 78.3213 117.208 76.12 115.259C73.2424 112.439 71.9244 108.422 71.2674 104.538C70.8397 101.867 70.7091 99.1531 70.855 96.4531L70.873 96.1821L70.8841 96.0459L70.8897 95.9778L70.8925 95.9431L70.8952 95.9236C70.8188 96.0654 70.9591 95.6151 71.1869 95.8986C70.8313 97.6342 69.9008 101.792 69.5383 103.466C67.719 112.441 73.1618 124.868 78.181 132.215C82.0017 137.618 85.8265 143.964 91.868 147.064C95.6734 148.975 100.145 149.238 104.273 148.369C107.603 147.658 110.741 146.182 113.505 144.204L113.503 144.206Z" fill="#603121"/>
<path d="M112.564 145.099C106.799 146.775 100.35 146.371 94.7623 144.196C91.8735 143.004 89.3097 141.099 87.2251 138.779C83.4878 134.178 79.556 129.719 76.3006 124.748C72.1938 118.501 68.8175 111.257 69.1411 103.617C69.212 102.107 69.4397 100.608 69.8231 99.1475L69.8633 99.1573C66.7829 113.891 78.6366 127.985 87.3237 138.69C90.4791 142.195 94.6137 144.193 99.1857 145.138C102.109 145.772 105.129 145.968 108.112 145.751C109.605 145.634 111.098 145.436 112.552 145.06L112.564 145.101V145.099Z" fill="#603121"/>
<path d="M134.684 108.889C129.301 111.693 122.682 113.465 116.617 112.418C113.53 111.9 110.505 110.547 108.405 108.167C104.265 103.478 103.427 96.6198 102.466 90.657C100.929 81.4438 101.18 71.9403 103.259 62.8327C104.326 58.2984 105.824 53.7905 108.335 49.8385C109.877 47.4303 112.655 43.1183 114.216 40.6823L114.193 40.7296C114.214 41.1159 114.621 40.7796 114.477 40.8616C114.331 41.1353 114.088 41.6411 113.949 41.9302C111.014 48.2918 107.267 58.3888 109.67 65.2701C109.776 65.587 110.034 66.0539 110.177 66.3651C111.363 68.8123 113.256 72.6851 114.466 75.1211C115.2 76.5705 115.864 78.0573 116.609 79.5039C116.978 80.2279 117.345 80.9616 117.668 81.7148C118.239 83.0169 118.677 84.4093 119.07 85.7739C119.557 87.5401 119.993 89.3285 120.392 91.1128C120.768 92.69 121.047 94.3033 121.471 95.8652C123.253 102.42 128.165 107.109 134.684 108.886V108.889ZM134.643 108.893C128.054 107.306 123.021 102.477 121.178 95.9514C120.945 95.1649 120.779 94.3603 120.601 93.5696C120.072 91.1906 119.522 88.8116 118.87 86.4659C118.604 85.5098 118.3 84.4982 117.965 83.5672C117.5 82.229 116.886 80.9547 116.238 79.6943C115.184 77.5946 114.07 75.2337 113 73.1242C112.298 71.6943 110.449 67.9326 109.774 66.5388L109.505 65.9858C109.22 65.4369 109.049 64.8282 108.895 64.2307C107.292 57.2618 110.677 48.0876 113.656 41.7871L113.927 41.2382L114.066 40.9644L114.136 40.8282L114.173 40.7601L114.191 40.7254L114.2 40.7073C114.06 40.7796 114.477 40.4252 114.5 40.8102V40.8227L114.478 40.8574C112.513 43.9104 109.581 48.2349 107.717 51.2781C105.662 54.8703 104.34 58.8446 103.392 62.8619C102.445 66.8918 101.926 71.019 101.736 75.1531C101.402 81.3757 102.198 87.5595 103.291 93.6697C104.369 99.563 105.683 106.353 110.967 109.939C115.331 112.755 120.917 112.905 125.88 111.892C128.919 111.286 131.844 110.21 134.643 108.891V108.893Z" fill="#603121"/>
<path d="M133.123 109.829C127.065 110.715 120.521 109.56 115.325 106.254C111.538 103.886 109.145 99.7658 108.241 95.458C107.894 93.9878 107.352 91.8325 106.969 90.3457C103.602 77.721 101.979 63.761 107.383 51.4629C108.428 49.0408 109.73 46.7215 111.242 44.5621C106.444 52.1994 104.287 60.4398 104.301 69.5112C104.229 78.313 106.292 86.9286 108.367 95.4289C109.176 99.267 111.256 102.888 114.442 105.217C119.774 109.09 126.722 110.344 133.123 109.829Z" fill="#603121"/>
<path d="M104.305 172.953C102.006 172.458 99.869 171.311 97.7219 170.385C96.2317 169.716 94.0734 168.673 92.6374 167.89C91.436 167.239 90.0805 166.537 88.9306 165.81C84.6863 163.188 78.5491 158.795 77.7588 153.544C77.2838 149.76 78.3171 145.651 74.3937 143.372L74.4409 143.293C75.3784 143.869 76.3019 144.51 76.988 145.383C78.4241 147.072 78.5213 149.521 79.5713 151.414C80.5893 153.351 82.3072 154.857 84.3211 155.696C85.3182 156.145 86.3446 156.527 87.3834 156.873C89.4792 157.542 91.5235 158.377 93.5262 159.283C97.5024 161.134 101.595 163.017 104.749 166.144C105.555 166.893 106.344 167.66 107.113 168.447C108.651 170.004 110.195 171.721 110.782 173.888C111.155 175.07 111.428 176.29 111.945 177.423L111.667 177.045C110.574 175.603 109.339 174.074 107.587 173.438C107.238 173.317 106.874 173.263 106.503 173.251C105.765 173.21 105.029 173.11 104.306 172.948L104.305 172.953ZM104.312 172.926C105.034 173.082 105.769 173.178 106.506 173.215C106.783 173.226 107.065 173.249 107.334 173.319C109.214 173.839 110.595 175.505 111.756 176.984L111.662 177.041L111.591 176.882C110.995 175.425 110.75 173.832 110.005 172.437C109.242 170.974 108.087 169.797 106.934 168.63C106.162 167.851 105.363 167.1 104.56 166.353C102.974 164.844 101.22 163.525 99.2968 162.481C97.3663 161.445 95.4011 160.461 93.4109 159.546C91.4166 158.633 89.3917 157.795 87.3043 157.119C86.2599 156.769 85.2307 156.37 84.228 155.909C82.1892 155.038 80.4407 153.477 79.424 151.496C78.3894 149.599 78.3185 147.152 76.9075 145.452C76.2381 144.585 75.32 143.954 74.3965 143.376L74.4437 143.297C78.9977 146.012 76.938 150.779 78.238 154.883C79.9837 159.523 84.9946 163.038 89.0486 165.627C90.1958 166.356 91.5249 167.079 92.7179 167.749C94.1387 168.553 96.2775 169.625 97.7566 170.317C99.8857 171.275 102.02 172.418 104.312 172.928V172.926Z" fill="#603121"/>
<path d="M111.699 177.023C109.891 174.608 107.753 172.413 105.267 170.697C104.027 169.848 102.702 169.092 101.376 168.384C96.4622 165.811 91.3763 163.489 86.6862 160.511C85.4085 159.69 84.128 158.849 82.9961 157.828C82.4323 157.338 81.9253 156.707 81.4517 156.133C80.3573 154.738 79.4574 153.173 78.7394 151.554C77.9394 149.693 77.3269 147.741 77.0575 145.732L77.0853 145.727C77.4366 147.713 78.1088 149.634 78.938 151.465C79.781 153.279 80.8504 155.017 82.1573 156.533C83.4475 158.074 85.1655 159.186 86.8279 160.292C88.5181 161.39 90.2625 162.407 92.0124 163.414C95.5081 165.456 99.2274 167.038 102.812 168.912C103.688 169.388 104.587 169.929 105.406 170.497C107.065 171.662 108.571 173.051 109.887 174.591C110.545 175.361 111.159 176.167 111.721 177.008L111.699 177.024V177.023Z" fill="#603121"/>
<path d="M134.306 196.668C135.214 194.292 136.188 191.732 138.184 189.831C139.988 188.113 141.409 187.831 144.354 185.121C146.118 183.498 147.005 182.663 147.237 181.505C147.662 179.393 145.953 178.357 144.564 175.022C144.089 173.881 142.557 170.203 143.335 166.437C144.14 162.545 146.637 162.314 147.209 158.188C147.33 157.311 147.625 154.983 146.498 152.66C145.542 150.691 144.474 150.596 141.11 147.638C137.815 144.741 136.147 143.234 135.633 140.848C135.207 138.861 136.095 138.663 135.943 135.824C135.892 134.862 135.661 130.537 132.834 128.006C131.652 126.948 129.698 126.551 125.837 125.798C119.852 124.631 118.745 125.064 116.304 124.051C114.5 123.301 112.043 121.794 109.678 118.399C106.705 129.29 108.186 133.702 110.32 135.64C111.17 136.413 112.112 136.782 113.417 138.329C113.846 138.837 116.848 142.494 116.518 147.033C116.432 148.196 116.187 148.633 113.768 153.503C110.615 159.851 109.754 161.681 109.414 164.41C109.154 166.499 108.952 168.327 110.08 169.637C111.564 171.363 114.646 171.367 116.766 171.37C119.412 171.375 120.249 170.792 121.893 171.471C122.216 171.605 124.144 172.401 124.822 174.241C125.369 175.728 124.831 177.168 123.871 179.632C122.675 182.702 121.744 183.264 122.008 184.786C122.29 186.412 123.646 187.453 123.959 187.68C124.887 188.353 125.341 188.17 127.274 188.8C128.773 189.289 130.295 189.786 131.568 190.922C132.176 191.465 133.11 192.494 133.712 194.312L134.141 195.794L134.304 196.668" fill="#E2B34B"/>
<path d="M0 129.522C0.839061 126.703 3.08948 124.994 5.52136 123.57C7.92067 122.195 10.3231 120.84 12.7426 119.502C15.1651 118.169 17.611 116.889 20.0723 115.627C21.3038 115.001 22.5631 114.403 23.8551 113.897C28.3637 112.089 33.1344 111.025 37.9268 110.294C39.3242 110.123 40.8116 110.035 42.1423 110.634C44.0794 111.569 45.4039 113.45 46.3314 115.317C46.6431 115.946 46.9176 116.59 47.1735 117.232C47.8792 118.843 48.374 120.697 47.8311 122.443C47.3333 124.024 46.1623 125.623 45.3279 127.044C43.9445 129.405 42.364 131.709 41.3621 134.259C40.385 136.807 39.822 139.543 39.7817 142.272C39.7848 143.641 40.0082 145.005 40.2393 146.354C40.7325 149.066 41.2567 151.782 41.8724 154.471C42.1795 155.815 42.5409 157.153 42.7906 158.518C43.5148 162.607 43.8405 166.772 43.625 170.922C43.5521 172.309 43.2884 173.672 43.245 175.045C43.2155 175.733 43.2171 176.422 43.2295 177.111C43.245 179.185 43.5505 181.231 43.6948 183.302C43.8809 186.065 43.9181 188.835 43.8033 191.601L43.5288 191.533C45.4225 187.449 46.671 183.057 47.0293 178.566C47.2557 175.574 47.2604 172.528 47.6388 169.539C48.0669 165.886 48.4034 162.123 49.9125 158.715C50.916 156.543 52.3769 154.561 54.2288 153.04C55.3951 152.083 56.5971 151.208 57.6486 150.132C58.1558 149.626 58.6753 149.026 59.1251 148.464C60.4837 146.704 61.8393 144.861 62.8195 142.876C63.8741 140.722 64.3301 138.295 64.2355 135.904C64.0912 132.364 62.7667 128.978 61.2607 125.814C60.5954 124.46 59.5547 123.332 58.8863 121.978C58.1837 120.615 57.5959 119.209 57.1492 117.744C56.6917 116.279 56.4575 114.771 56.1333 113.315C55.8557 112.04 55.4819 110.784 55.0477 109.555C53.7418 105.828 51.5627 102.345 51.054 98.3589C50.9935 97.8747 50.9749 97.6605 50.9485 97.2121C50.8369 94.7555 50.8555 92.2913 51.0416 89.8378C51.2323 87.3844 52.0078 85.0039 52.4359 82.6064C52.8438 80.4074 52.8345 78.1263 52.1629 75.9863C51.7286 74.5493 50.9718 73.1511 50.9842 71.6024C51.0121 68.4988 52.9058 65.8079 54.7825 63.4957C55.9286 62.0836 58.0549 59.717 59.2166 58.3623L59.2631 58.4027L56.352 61.8586C53.6983 65.06 50.0381 69.3212 51.7178 73.7548C52.0342 74.6285 52.4142 75.5177 52.6577 76.4317C53.2144 78.463 53.2082 80.6185 52.8484 82.6762C52.4436 85.097 51.7054 87.4294 51.5239 89.8735C51.3564 92.3037 51.3533 94.7509 51.4805 97.1841L51.5208 97.7366C51.5394 97.9213 51.5658 98.1028 51.5891 98.2875C52.2187 102.769 54.9236 106.616 56.1706 110.97C57.0546 113.852 57.2903 116.898 58.5295 119.651C59.0972 121.028 59.7625 122.35 60.6435 123.553C61.557 124.774 62.2254 126.195 62.7931 127.598C63.6802 129.702 64.4324 131.889 64.7442 134.161C65.6065 140.506 63.0614 144.558 59.2414 149.293C58.8801 149.705 58.4659 150.171 58.0782 150.559C57.0158 151.641 55.7704 152.544 54.6072 153.492C52.5972 155.134 51.0648 157.316 50.0971 159.716C48.878 162.868 48.5384 166.262 48.1289 169.597C47.735 172.582 47.7039 175.604 47.4449 178.605C47.0386 183.132 45.7358 187.561 43.7956 191.659L43.4854 192.312L43.521 191.591C43.6544 188.838 43.6513 186.072 43.473 183.321C43.3349 181.26 43.0341 179.192 43.0263 177.117C43.0154 176.425 43.017 175.733 43.0496 175.039C43.0976 173.648 43.366 172.284 43.442 170.913C43.6575 166.785 43.2977 162.626 42.5657 158.563C42.3113 157.21 41.9515 155.877 41.6289 154.532C40.9837 151.841 40.4316 149.134 39.9073 146.416C39.6576 145.048 39.4204 143.674 39.4017 142.275C39.4157 139.48 39.957 136.709 40.9294 134.093C41.9236 131.478 43.4823 129.167 44.8766 126.768C45.6738 125.39 46.8246 123.798 47.3054 122.288C47.8048 120.649 47.3224 118.973 46.6602 117.445C46.4012 116.805 46.1406 116.175 45.8397 115.565C44.9495 113.772 43.749 112.024 41.9267 111.118C40.7092 110.564 39.3056 110.649 37.9919 110.806C33.2383 111.507 28.5048 112.564 24.0179 114.31C22.7322 114.799 21.4883 115.375 20.2538 115.989C17.7878 117.223 15.328 118.481 12.8977 119.788C10.472 121.102 8.0401 122.418 5.62528 123.753C4.4326 124.433 3.26629 125.184 2.26593 126.124C1.76808 126.594 1.31055 127.111 0.938321 127.688C0.562993 128.264 0.302434 128.903 0.0589359 129.55L0.00155094 129.529L0 129.522Z" fill="#603121"/>
<path d="M38.8434 91.4067C39.5491 91.8025 40.2129 92.2571 40.8286 92.7801C41.1248 93.0486 41.3994 93.3574 41.7297 93.5886C42.2896 94.0184 43.2729 94.2776 43.9351 94.515C44.6843 94.7478 45.4225 94.9573 46.1902 95.1156C46.5749 95.1901 46.9641 95.2382 47.3767 95.2894L47.386 95.3515C46.2026 95.817 44.8362 95.6075 43.718 95.0597C42.9565 94.7354 42.3392 94.1535 41.6227 93.7577C41.2691 93.556 40.8767 93.4086 40.5215 93.1975C39.9973 92.8732 39.5444 92.4418 39.1536 91.9654C39.0233 91.804 38.9008 91.6364 38.8 91.4502L38.8434 91.4067Z" fill="#603121"/>
<path d="M36.9218 90.1203C37.446 92.0042 37.2118 94.6469 34.8342 94.9604C32.2643 95.2583 28.7188 93.0718 27.2361 91.0467C26.0729 89.4561 25.8729 87.3192 26.4281 85.457C26.7135 84.5244 27.3044 83.6554 28.0969 83.0797C29.1004 82.3286 30.3783 82.0772 31.6036 82.0725C32.8506 82.026 34.2278 82.2386 35.1413 83.1852C37.1063 85.0815 35.1103 88.8152 38.589 87.8127C39.5088 87.5923 40.1571 86.967 40.8147 86.309C41.48 85.6588 42.0321 84.9031 42.2896 84.003C42.5626 83.106 42.5641 82.1362 42.3423 81.2206L42.4013 81.202C42.7301 82.1144 42.8154 83.1293 42.5936 84.0821C42.3811 85.0489 41.8367 85.9381 41.1683 86.6473C40.5277 87.3735 39.7414 88.1308 38.7643 88.3884C37.7469 88.7609 36.3774 88.7578 35.8795 87.5675C35.6717 87.0787 35.6298 86.579 35.5632 86.0778C35.4298 84.6641 35.0544 83.4381 33.6214 82.9043C32.7916 82.5862 31.8409 82.5862 30.9026 82.6064C29.0089 82.6312 27.233 83.6616 26.6251 85.5253C26.1908 86.8506 26.1986 88.3745 26.7693 89.6594C27.3494 90.9598 28.4676 91.8847 29.6401 92.6435C32.1433 94.2978 36.7233 96.2577 36.9264 91.5541C36.9466 91.0839 36.9202 90.6075 36.8582 90.1358L36.9187 90.1234L36.9218 90.1203Z" fill="#603121"/>
<path d="M60.5313 52.1867C61.8186 52.8338 63.0966 53.4933 64.3141 54.2676C64.6693 54.5237 65.558 55.0016 65.4184 55.537C65.2989 55.7884 64.9717 55.7279 64.7701 55.6519C64.0458 55.3648 63.6534 54.682 63.2129 54.0938C61.9815 52.3123 60.9268 50.3508 60.4553 48.2155C60.1715 46.9617 60.1808 45.6473 60.5453 44.4074C60.8617 43.3646 61.3642 42.3155 62.2482 41.6343C62.681 41.2944 63.2191 41.0601 63.7697 41.0151C63.9326 40.9887 64.159 41.0027 64.3234 41.0136C64.4041 41.0105 64.5157 41.0461 64.5964 41.0586C64.6863 41.0803 64.7794 41.088 64.8647 41.1253C66.0077 41.4791 66.6421 42.3714 66.946 43.4872C67.4548 45.3121 67.3291 48.3583 65.7441 49.6324C65.4556 49.8527 64.8399 50.3741 64.5204 49.9551C64.28 49.3856 64.905 48.647 65.3315 48.3226C66.5831 47.5203 68.8227 48.4111 69.6462 49.5237C71.1057 51.3797 68.559 53.0665 66.9631 53.5538C65.3765 54.0752 63.5495 53.9681 62.1195 53.065C59.8582 51.5256 58.1677 49.1684 57.3364 46.5675C56.9099 45.1895 56.7734 43.557 57.628 42.3078C58.6066 40.7094 60.3871 41.1082 61.054 42.7268C61.0649 42.7516 61.0261 42.7625 61.0183 42.7423C60.8741 42.4164 60.657 42.1247 60.3933 41.8919C59.013 40.7032 57.7614 41.9524 57.3736 43.3708C57.1115 44.3981 57.3131 45.4797 57.6264 46.4791C58.4081 49.0085 61.0835 52.6817 63.762 53.3086C64.7732 53.5569 65.8511 53.4762 66.8421 53.1689C67.9464 52.7996 69.1468 52.1789 69.6447 51.0786C69.8401 50.6255 69.6447 50.1181 69.3624 49.7379C68.7343 48.9232 67.706 48.4514 66.6963 48.3381C66.276 48.3024 65.8433 48.3273 65.4975 48.5569C65.1656 48.7959 64.8693 49.1466 64.7406 49.5361C64.5281 50.2593 65.3905 49.6463 65.6122 49.4694C67.1787 48.2497 67.3152 45.3121 66.8328 43.5228C66.6421 42.8525 66.3226 42.1697 65.7534 41.7476C64.9996 41.1548 63.9171 40.9639 63.0392 41.386C61.9815 41.85 61.3394 42.9161 60.9765 43.9791C60.2491 46.0446 60.6275 48.1783 61.4278 50.1724C61.9536 51.493 62.6546 52.7469 63.4595 53.9247C63.9015 54.5066 64.3094 55.3275 65.0834 55.4687C65.1268 55.475 65.178 55.4656 65.1981 55.4408C65.2462 54.7627 61.2742 52.6925 60.5158 52.2223C60.4941 52.2115 60.5127 52.1773 60.5344 52.1882L60.5313 52.1867Z" fill="#BF7862"/>
<path d="M70.5846 64.6198C71.3818 65.0326 72.1789 65.4469 72.9342 65.9327C73.1622 66.0909 73.4306 66.2399 73.581 66.4929C73.6074 66.5456 73.6415 66.6124 73.6105 66.6946C73.5422 66.8327 73.3561 66.7924 73.2429 66.7505C72.8009 66.5736 72.5589 66.1484 72.2891 65.7852C72.03 65.4159 71.7928 65.0326 71.5741 64.6384C71.1336 63.8501 70.7753 63.0106 70.5815 62.1276C70.2945 60.8148 70.5008 59.3033 71.4221 58.2775C72.5062 57.1075 74.2308 57.6739 74.5798 59.1885C74.9179 60.4687 74.8295 62.4643 73.5484 63.1984C73.3995 63.2977 73.0971 63.3722 73.0723 63.1099C73.0816 62.6987 73.4026 62.3278 73.7609 62.1447C74.7783 61.7365 76.8426 62.7266 76.4549 63.9867C76.1292 64.7409 75.332 65.1692 74.5907 65.4237C73.7252 65.703 72.7419 65.6921 71.9091 65.2871C70.7071 64.6431 69.8091 63.5242 69.1562 62.348C68.4675 61.0475 67.8704 59.0147 69.2709 57.9734C69.9006 57.5622 70.6792 58.0867 70.9118 58.712L70.8979 58.7183C70.7211 58.3148 70.3628 57.9656 69.927 57.8911C69.4772 57.8135 69.0786 58.1348 68.8646 58.5057C68.3621 59.2676 68.4815 60.2344 68.742 61.0646C69.1593 62.3293 69.9347 63.473 70.9134 64.3731C71.8967 65.3647 73.2072 65.703 74.5441 65.27C75.4142 65 76.9388 64.1077 76.1323 63.0618C75.5724 62.3216 73.9408 61.6853 73.3313 62.6676C72.928 63.3272 73.3251 63.3147 73.778 62.9361C74.1347 62.6723 74.3456 62.2626 74.4805 61.8421C74.8202 60.7123 74.8404 58.9014 73.8586 58.0867C73.1328 57.5016 72.0859 57.6351 71.4888 58.3365C70.8281 59.0829 70.5768 60.1335 70.5908 61.1112C70.6776 62.7856 71.4702 64.3451 72.3914 65.717C72.6551 66.0708 72.8846 66.4882 73.2848 66.6543C73.5825 66.7629 73.5903 66.6124 73.4135 66.4091C72.576 65.6828 71.5415 65.1893 70.583 64.6338L70.5908 64.6198H70.5846Z" fill="#603121"/>
</g>
<defs>
<clipPath id="clip0_619_191">
<rect width="216" height="227" fill="white"/>
</clipPath>
</defs>
</svg>
