<svg width="40" height="41" viewBox="0 0 40 41" fill="none" xmlns="http://www.w3.org/2000/svg">
<g clip-path="url(#clip0_394_2478)">
<path d="M37.1684 39.4896C38.3519 39.4896 39.2957 38.5304 39.2957 37.3614V2.99649C39.2957 1.81252 38.3369 0.868347 37.1684 0.868347H2.81631C1.64777 0.868347 0.688965 1.82751 0.688965 2.99649V37.3614C0.688965 38.5454 1.64777 39.4896 2.81631 39.4896H37.1684Z" fill="#F3F0E9"/>
<path d="M27.3259 39.4896V24.5326H32.3446L33.0937 18.7027H27.3259V14.986C27.3259 13.2925 27.7903 12.1535 30.2173 12.1535H33.3034V6.92305C32.7641 6.84811 30.9363 6.69824 28.809 6.69824C24.3596 6.69824 21.3184 9.41087 21.3184 14.4015V18.7027H16.2847V24.5326H21.3184V39.4896H27.3259Z" fill="#603121"/>
</g>
<defs>
<clipPath id="clip0_394_2478">
<rect width="40" height="40" fill="white" transform="translate(0 0.178955)"/>
</clipPath>
</defs>
</svg>
