<svg width="40" height="41" viewBox="0 0 40 41" fill="none" xmlns="http://www.w3.org/2000/svg">
<path d="M27.2914 5.59536C29.2236 5.60113 31.0751 6.37127 32.4414 7.73757C33.8077 9.10387 34.5778 10.9553 34.5836 12.8875V27.4704C34.5778 29.4026 33.8077 31.254 32.4414 32.6203C31.0751 33.9866 29.2236 34.7568 27.2914 34.7626H12.7086C10.7764 34.7568 8.92491 33.9866 7.55861 32.6203C6.19231 31.254 5.42218 29.4026 5.41641 27.4704V12.8875C5.42218 10.9553 6.19231 9.10387 7.55861 7.73757C8.92491 6.37127 10.7764 5.60113 12.7086 5.59536H27.2914ZM27.2914 2.67896H12.7086C7.09375 2.67896 2.5 7.2727 2.5 12.8875V27.4704C2.5 33.0852 7.09375 37.679 12.7086 37.679H27.2914C32.9062 37.679 37.5 33.0852 37.5 27.4704V12.8875C37.5 7.2727 32.9062 2.67896 27.2914 2.67896Z" fill="#F3F0E9"/>
<path d="M29.4789 12.8876C29.0463 12.8876 28.6233 12.7593 28.2636 12.5189C27.9039 12.2785 27.6235 11.9369 27.4579 11.5372C27.2924 11.1375 27.249 10.6976 27.3334 10.2733C27.4178 9.84898 27.6262 9.45921 27.9321 9.15328C28.238 8.84735 28.6278 8.63901 29.0521 8.55461C29.4765 8.4702 29.9163 8.51352 30.316 8.67909C30.7157 8.84465 31.0574 9.12503 31.2977 9.48476C31.5381 9.8445 31.6664 10.2674 31.6664 10.7001C31.667 10.9875 31.6109 11.2722 31.5012 11.5379C31.3914 11.8036 31.2303 12.045 31.0271 12.2482C30.8238 12.4515 30.5824 12.6126 30.3168 12.7223C30.0511 12.832 29.7663 12.8882 29.4789 12.8876ZM20 14.3454C21.1538 14.3454 22.2816 14.6875 23.241 15.3285C24.2003 15.9695 24.948 16.8806 25.3895 17.9466C25.8311 19.0125 25.9466 20.1854 25.7215 21.3171C25.4964 22.4487 24.9408 23.4881 24.125 24.304C23.3091 25.1198 22.2697 25.6754 21.1381 25.9005C20.0065 26.1256 18.8335 26.01 17.7676 25.5685C16.7016 25.127 15.7906 24.3793 15.1495 23.42C14.5085 22.4606 14.1664 21.3328 14.1664 20.179C14.1681 18.6323 14.7832 17.1495 15.8769 16.0558C16.9705 14.9622 18.4533 14.347 20 14.3454ZM20 11.429C18.2694 11.429 16.5777 11.9422 15.1388 12.9036C13.6998 13.8651 12.5783 15.2316 11.9161 16.8305C11.2538 18.4294 11.0805 20.1887 11.4181 21.886C11.7558 23.5834 12.5891 25.1425 13.8128 26.3662C15.0365 27.5899 16.5956 28.4232 18.293 28.7609C19.9903 29.0985 21.7496 28.9252 23.3485 28.2629C24.9473 27.6007 26.3139 26.4792 27.2754 25.0402C28.2368 23.6013 28.75 21.9096 28.75 20.179C28.75 17.8583 27.8281 15.6327 26.1872 13.9918C24.5462 12.3509 22.3206 11.429 20 11.429Z" fill="#F3F0E9"/>
</svg>
