<svg width="40" height="41" viewBox="0 0 40 41" fill="none" xmlns="http://www.w3.org/2000/svg">
<path d="M0 2.89101C0 1.2948 1.32337 2.67029e-05 2.95592 2.67029e-05H37.0441C38.6766 2.67029e-05 40 1.2948 40 2.89101V37.4669C40 39.0637 38.6766 40.3579 37.0441 40.3579H2.95592C1.32337 40.3579 0 39.0637 0 37.4669V2.89101Z" fill="#F3F0E9"/>
<path fill-rule="evenodd" clip-rule="evenodd" d="M12.1254 33.7856V15.5618H6.08371V33.7856H12.1254ZM9.1045 13.0736C11.2113 13.0736 12.5227 11.6743 12.5227 9.92542C12.4834 8.13723 11.2114 6.77667 9.14447 6.77667C7.07781 6.77667 5.72656 8.13723 5.72656 9.92542C5.72656 11.6743 7.03762 13.0736 9.06512 13.0736H9.1045Z" fill="#603121"/>
<path fill-rule="evenodd" clip-rule="evenodd" d="M15.4683 33.7856H21.5098V23.6087C21.5098 23.064 21.5491 22.5199 21.7086 22.1306C22.1454 21.0423 23.1395 19.9153 24.8085 19.9153C26.9947 19.9153 27.8692 21.5864 27.8692 24.0363V33.7856H33.9103V23.3363C33.9103 17.7388 30.9297 15.1342 26.9548 15.1342C23.6955 15.1342 22.2646 16.9606 21.4697 18.2047H21.51V15.5618H15.4684C15.5477 17.2718 15.4683 33.7856 15.4683 33.7856Z" fill="#603121"/>
</svg>
