<svg width="210" height="217" viewBox="0 0 210 217" fill="none" xmlns="http://www.w3.org/2000/svg">
<path opacity="0.8" d="M128.606 103.43L112.001 115.634L109.312 117.602C108.857 117.274 97.7524 109.111 90.0596 103.471V131.693C98.2694 136.205 105.197 142.44 110.822 149.721L128.606 132.431C128.813 124.063 128.689 112.988 128.606 103.43Z" fill="#F3F0E9"/>
<path d="M112.29 198.349C118.121 190.904 103.584 187.581 100.254 193.447C96.4699 199.723 102.508 206.758 109.271 206.45C117.791 205.938 121.43 196.872 121.182 189.202C120.624 169.102 106.996 145.516 88.7771 136.287L87.3503 135.589V134.031C87.3503 130.913 87.3503 97.7696 87.3503 95.7802C89.625 97.462 108.485 111.285 111.256 113.336H108.257L128.151 98.7336L132.142 95.8007L132.184 100.702C132.184 111.039 132.514 124.883 132.163 135.097L131.439 135.795L111.731 154.951L110.987 155.689C104.535 155.689 98.0623 154.807 91.8584 152.777C56.8686 142.05 53.353 98.1798 84.786 80.7466C100.957 72.0915 122.754 72.153 137.622 83.4949C152.987 95.7802 156.275 116.946 156.606 135.138C156.606 135.692 156.627 136.676 156.627 137.21C156.668 137.928 156.13 139.056 156.048 139.117C149.699 147.259 141.655 153.884 134.003 160.755C129.516 164.59 124.966 168.364 120.045 171.83C116.943 173.84 114.048 176.199 110.118 176.834C95.3532 177.183 80.4019 174.23 67.3324 167.051C48.1211 157.022 35.1964 136.041 36.0443 114.321C43.2407 89.7298 65.9469 67.887 86.0061 52.7714C90.8244 49.3463 95.7668 46.0852 100.833 43.0293C109.808 37.4917 122.63 32.1181 123.126 20.0995C123.002 8.83964 108.774 5.74268 103.211 15.3412C100.606 20.3251 105.507 27.8316 111.339 26.2524C112.703 25.8217 113.882 24.8372 114.73 23.6476C113.944 24.8782 112.827 25.9447 111.421 26.478C106.851 28.0572 102.302 23.8117 101.578 19.4226C100.999 16.3257 102.508 13.1057 104.866 11.1162C117.646 0.717811 131.336 16.1001 123.477 29.1237C120.5 34.5793 115.557 38.5582 110.408 41.8192C103.046 46.4544 95.8496 51.4177 89.0046 56.7708C70.8273 70.4917 53.5598 87.1456 43.6543 107.758C42.5997 110.055 41.5864 112.414 41.028 114.854C40.9867 117.377 41.1728 120.556 41.6071 123.284C43.7784 140.061 54.8006 154.684 69.7519 162.662C81.7668 169.266 96.5527 172.404 110.18 171.728C117.791 168.323 124.181 162.293 130.653 157.002C137.912 150.521 145.522 144.101 151.684 136.574C151.684 136.615 151.726 136.287 151.56 137.066L151.498 133.046C151.167 111.368 144.074 85.1972 119.631 80.6645C108.733 78.4905 96.8422 79.7006 87.2055 85.0946C66.6914 95.8212 61.1079 124.371 79.0371 140.02C87.2882 147.259 98.7654 150.52 109.974 150.644L108.175 151.361L127.882 132.205L127.138 133.887C127.448 124.391 127.138 110.404 127.138 100.723L131.15 102.712L111.256 117.315L109.746 118.423L108.237 117.315L88.3429 102.712L92.3547 100.702V133.99L90.9278 131.734C112.579 141.763 129.888 174.886 122.836 197.918C120.955 203.62 115.536 208.645 109.229 208.542C103.129 208.46 96.9249 203.353 97.7934 196.975C98.5379 185.018 119.569 189.509 112.269 198.308L112.29 198.349Z" fill="#F3F0E9"/>
<path d="M110.305 26.3549C113.046 26.3549 115.268 24.1511 115.268 21.4326C115.268 18.7141 113.046 16.5103 110.305 16.5103C107.564 16.5103 105.342 18.7141 105.342 21.4326C105.342 24.1511 107.564 26.3549 110.305 26.3549Z" fill="#F3F0E9"/>
<path d="M109.209 200.626C111.95 200.626 114.172 198.422 114.172 195.703C114.172 192.985 111.95 190.781 109.209 190.781C106.468 190.781 104.246 192.985 104.246 195.703C104.246 198.422 106.468 200.626 109.209 200.626Z" fill="#F3F0E9"/>
</svg>
