<svg width="920" height="641" viewBox="0 0 920 641" fill="none" xmlns="http://www.w3.org/2000/svg">
<g clip-path="url(#clip0_263_6797)">
<g opacity="0.6">
<g opacity="0.6">
<path d="M611.07 139.17C611.04 136.47 610.56 133.79 610.21 131.12C610.05 129.87 610.17 128.32 609.83 127.12C609.47 125.86 608.16 127.14 607.64 127.73C607.12 128.32 606.73 128.95 606.23 129.52C604.7 131.25 602.47 132.16 600.85 133.79C599.2 135.46 597.81 137.39 596.95 139.58C595.45 143.38 595.1 147.49 594.41 151.48C593.57 156.34 592.27 161.71 587.4 163.89C586.88 164.12 585.29 164.53 585.3 165.23C585.3 165.65 585.73 165.55 585.99 165.65C592.02 168 599.68 164.89 604.12 160.69C610.1 155.03 611.14 147 611.07 139.15V139.17Z" stroke="#E2B34B" stroke-miterlimit="10"/>
</g>
<path opacity="0.6" d="M461.14 136.17C461.19 136.24 461.24 136.32 461.27 136.38C466.2 145.4 475.8 150.06 485.36 152.59C488.19 153.34 491.01 153.79 493.4 155.61C496.33 157.86 498.13 161.53 498.15 165.22C498.15 165.83 498.11 166.47 498.39 167.01C499.11 168.42 501.09 168.49 502.33 169.16C503.96 170.05 505.51 171.09 507.05 172.12C509.27 173.61 512.95 175.77 514.83 177.63C514.72 178.06 513.12 177.57 513.02 178C512.33 177.33 511.65 176.9 510.84 176.32C506.56 173.28 501.57 172.1 496.29 172.07C491.52 172.05 486.87 172.31 482.19 171.16C477.79 170.08 473.64 168 470.18 165.08C461.7 157.94 458.52 146.82 460.04 136.05C460.17 135.11 460.8 135.65 461.15 136.15L461.14 136.17Z" stroke="#E2B34B" stroke-miterlimit="10"/>
<path d="M322.159 134.63C323.789 138.24 325.679 141.67 329.219 143.81C339.259 149.9 349.139 141.91 357.209 136.37C357.479 136.18 357.809 136.08 358.129 135.96C359.279 135.52 360.809 134.89 361.949 134.43C361.949 134.23 361.589 134.21 361.589 134.01C360.199 134.65 358.809 135.27 357.269 135.49C356.529 135.58 355.789 135.58 355.049 135.64C352.939 135.8 350.839 135.87 348.719 135.43C346.179 134.9 343.819 133.73 341.829 132.06C340.269 130.76 339.019 129.13 337.499 127.79C335.979 126.45 334.119 125.31 332.269 124.4C329.379 122.98 326.219 122.09 323.009 121.8C319.879 121.52 316.869 121.41 314.059 119.78C313.799 119.63 313.549 119.59 313.389 119.89C313.249 120.15 313.449 120.27 313.659 120.4C318.369 123.13 320.049 129.97 322.149 134.62L322.159 134.63Z" fill="#E2B34B"/>
<g opacity="0.6">
<path d="M46.8696 249.99C46.7996 251.77 47.3296 253.58 47.3596 255.35C47.3896 257.62 47.1896 259.91 47.1696 262.18C47.1296 267.14 47.3096 272.1 47.7796 277.04C48.4496 284.08 49.6096 291.07 51.0796 298.01C52.3096 303.84 54.3296 309.26 57.3696 314.39C61.4996 321.37 67.1696 327.05 72.7396 332.76C79.4796 339.67 84.3696 347.55 87.6196 356.55C87.7396 356.88 87.7896 357.2 88.1596 357.28C88.6096 357.38 88.9396 357.13 89.1096 356.74C89.3196 356.26 89.5396 355.77 89.6496 355.25C90.8796 349.73 92.5396 344.27 93.0496 338.61C93.6496 331.87 93.2096 325.06 93.0196 318.31C92.8296 311.65 92.1696 304.97 90.2296 298.57C88.2796 292.13 84.8796 286.46 81.0296 280.9C75.5896 273.05 68.7496 266.76 61.4496 260.84C57.4296 257.58 54.1796 253.73 51.3396 249.53C50.2896 247.98 48.0296 244.97 47.0796 248.63C46.9596 249.09 46.8996 249.54 46.8796 250L46.8696 249.99Z" stroke="#E2B34B" stroke-miterlimit="10"/>
</g>
<path opacity="0.6" d="M83.6997 271.66C82.9497 268.61 81.6797 265.71 79.9997 263.06C77.1597 258.6 72.8297 254.69 68.3897 251.85C65.0897 249.74 60.8297 248.35 58.2797 245.29C55.6597 242.14 54.7897 237.86 56.0797 233.96C56.4197 232.92 56.1697 232.23 55.4297 231.69C53.0497 229.97 51.1397 227.77 49.2297 225.58C47.4997 223.59 45.7297 221.63 44.4097 219.38C44.2097 219.15 43.7497 218.2 43.8397 218.04C43.9597 217.82 46.0797 219.84 46.6997 220.6C49.9997 224.6 54.4397 227.01 59.4697 228.39C63.2297 229.42 67.1297 230.02 70.6397 231.85C73.9297 233.57 77.2497 235.81 79.9197 238.4C81.6497 240.08 82.9797 242.02 84.2697 244.04C87.7297 249.49 88.1397 256.24 87.3297 262.48C86.9197 265.66 86.1397 268.8 84.8497 271.77C84.7197 272.08 84.6497 272.58 84.1497 272.44C83.8197 272.35 83.8097 271.96 83.7397 271.65L83.6997 271.66Z" stroke="#E2B34B" stroke-miterlimit="10"/>
<g opacity="0.6">
<path d="M299.25 56.9702C299.28 63.1402 298.36 70.9201 297.66 70.8401C296.82 70.7401 295.91 69.4002 295.47 68.7502C294.65 67.5502 294.01 66.3502 292.96 65.3102C291.32 63.6802 289.28 62.4802 287.74 60.7502C286.2 59.0202 284.98 56.4402 284.62 54.0702C284.2 51.3302 283.66 48.6002 283.14 45.8902C282.62 43.1802 282.7 40.4402 281.79 37.7702C280.6 34.2702 278.38 32.2202 275.11 30.7102C273.41 29.9202 275.58 29.4202 276.25 29.3402C277.65 29.1702 279.07 29.1402 280.48 29.2602C283.3 29.5002 286.06 30.3102 288.55 31.6702C292.5 33.8202 295.84 37.4102 297.54 41.5902C298.83 44.7602 298.99 48.0502 299.18 51.4202C299.21 51.9402 299.23 54.1602 299.24 56.9702H299.25Z" stroke="#E2B34B" stroke-miterlimit="10"/>
</g>
<path opacity="0.6" d="M178.51 53.5501C187.63 54.7301 197.1 51.9001 204.43 46.3501C206.21 45.0001 207.87 43.5001 209.73 42.2701C211.59 41.0401 213.7 40.0701 215.92 39.9701C217.64 39.8901 219.33 40.3301 220.91 41.0001C222.49 41.6701 223.91 43.0301 225.48 43.5701C226.78 44.0201 228.65 42.6101 229.87 42.0901C231.64 41.3401 233.44 40.6601 235.27 40.0901C237.82 39.2901 240.35 38.4301 242.98 38.1201C243.24 38.4801 244.45 38.7001 244.72 39.0601C243.77 39.1801 241.88 39.4901 240.92 39.7601C235.87 41.2001 231.84 44.3601 228.52 48.4701C226.49 50.9901 224.7 53.7501 222.38 56.0201C218.58 59.7401 213.46 62.7601 208.37 64.2901C197.37 67.6001 185.39 62.3201 177.77 54.3201C177.6 54.1501 177.43 53.9001 177.54 53.6801C177.65 53.4601 177.96 53.4701 178.2 53.5001C178.3 53.5101 178.4 53.5301 178.5 53.5401L178.51 53.5501Z" stroke="#E2B34B" stroke-miterlimit="10"/>
<g opacity="0.6">
<path d="M44.5696 88.7001C45.7596 85.0801 47.7297 81.4901 50.9497 79.3101C54.4697 76.9201 58.9196 75.9501 63.1196 76.6801C63.2896 76.7101 63.4496 76.7401 63.6196 76.7801C67.0496 77.4901 70.3496 79.2301 73.2096 81.2101C76.3296 83.3601 79.6396 85.5601 83.3796 86.3901C83.5696 86.4301 83.7796 86.4801 83.9296 86.6101C84.0796 86.7401 84.1197 87.0101 83.9697 87.1401C83.8297 87.2601 81.4296 86.4001 81.0996 86.3301C80.0796 86.1201 79.0497 85.9901 78.0097 85.9401C75.9397 85.8301 73.8496 86.0201 71.8196 86.5001C68.4596 87.3001 65.4496 88.7901 63.1096 91.3601C60.8196 93.8701 58.6096 96.4801 55.6996 98.2901C50.0896 101.79 42.7997 100.32 37.2697 103.94C37.0197 104.1 36.7696 104.15 36.5996 103.86C36.4496 103.61 36.6396 103.48 36.8496 103.34C37.9396 102.63 38.7096 101.61 39.3696 100.53C41.6396 96.8201 43.2297 92.8101 44.5797 88.6901L44.5696 88.7001Z" stroke="#E2B34B" stroke-miterlimit="10"/>
</g>
<path d="M24.6297 262.85C23.5997 254.14 27.0097 246.01 31.9597 239.04C32.6597 238.06 33.3997 237.11 34.1797 236.2C36.4497 233.57 38.7997 231.44 39.6097 227.91C40.4197 224.38 39.5797 220.68 37.3197 217.86C36.6397 217.01 36.6297 216.28 37.1397 215.51C38.7697 213.06 39.7897 210.34 40.8097 207.62C41.7297 205.15 42.7097 202.7 43.1497 200.12C42.9997 200 43.2597 198.94 43.1197 198.81C42.9297 198.65 41.7497 201.13 41.4297 202.06C39.7397 206.96 36.4197 210.77 32.1997 213.83C29.0397 216.11 25.5997 218.03 22.9497 220.98C21.4897 222.6 20.3197 224.41 19.0297 226.15C17.8097 227.79 16.8097 229.58 16.0297 231.47C14.4697 235.24 13.8197 239.39 14.1997 243.46C14.5997 247.65 16.0797 251.82 18.0397 255.53C19.5397 258.36 21.3597 261.04 23.6197 263.37C23.8497 263.61 24.0897 264.06 24.5197 263.76C24.7997 263.56 24.6697 263.2 24.6297 262.87V262.85Z" fill="#E2B34B"/>
<g opacity="0.6">
<path d="M775.8 40.4202C774.8 40.8902 774.03 41.8802 773.24 42.7002C770.66 45.3802 767 46.7102 763.42 47.7002C755.5 49.8902 747.32 52.6802 742.17 59.5402C740.74 61.4402 739.58 63.5202 738.41 65.5802C736.46 68.9902 733.93 71.7802 730.78 74.0502C730.66 74.1302 730.55 74.1902 730.56 74.3402C730.57 74.5302 730.71 74.6302 730.88 74.6502C731.09 74.6802 731.31 74.7102 731.52 74.6902C740.1 74.1702 749.16 72.2702 755.92 66.6502C760.34 62.9702 763.04 58.3302 765.26 53.1102C766.52 50.1502 768.18 47.5102 770.71 45.4202C772.76 43.7202 774.86 42.1502 776.65 40.1602C776.35 40.2002 776.08 40.2902 775.81 40.4102L775.8 40.4202Z" stroke="#E2B34B" stroke-miterlimit="10"/>
</g>
<path d="M643.359 66.3101C648.249 59.2001 656.889 55.9001 664.929 60.1601C671.869 63.8301 675.449 71.5701 682.189 75.6301C681.999 75.7201 681.799 75.8101 681.609 75.9001C676.399 72.1701 669.199 70.3701 663.059 72.7901C659.879 74.0501 657.25 76.3301 654.15 77.7501C650.48 79.4301 646.429 79.1401 642.519 78.7501C640.559 78.5601 638.589 78.3401 636.619 78.3501C635.899 78.3501 631.569 79.1701 631.439 78.6301C631.369 78.3401 631.589 78.2701 631.819 78.2001C633.059 77.8201 634.09 77.0601 635.03 76.2101C638.25 73.2901 640.899 69.8801 643.349 66.3101H643.359Z" fill="#E2B34B"/>
<path d="M845.83 5.39004C845.83 5.39004 845.84 5.42004 845.85 5.44004C846.97 8.64004 849.05 11.45 851.59 13.7C853.43 15.32 855.5 16.66 857.68 17.78C859.75 18.84 862.01 19.51 864.04 20.63C867.37 22.47 868.28 25.87 868.2 29.4C868.2 29.81 868.2 30.24 868.34 30.63C868.73 31.62 869.83 31.89 870.64 32.4C871.76 33.11 872.66 34.12 873.63 35.01C875 36.27 876.84 38.32 877.94 39.8C877.82 40.08 877.26 39.55 877.14 39.84C876.74 39.31 876.29 38.79 875.8 38.31C871.14 33.79 864.86 34.1 859.02 32.34C854.58 31 850.27 28.6 847.58 24.74C845.02 21.06 843.92 16.53 844 12.09C844.04 9.79004 844.46 7.49004 845.01 5.26004C845.04 5.13004 845.08 4.99004 845.19 4.92004C845.45 4.76004 845.71 5.09004 845.83 5.38004V5.39004Z" fill="#E2B34B"/>
<path d="M64.04 289.5C-20.94 117.6 171.76 -67.2399 316.83 89.3501" stroke="#E2B34B" stroke-width="2" stroke-linecap="round" stroke-linejoin="round"/>
<path d="M316.79 89.28C316.79 89.28 452.18 272.64 615.77 121.12" stroke="#E2B34B" stroke-width="2" stroke-linecap="round" stroke-linejoin="round"/>
<path d="M615.75 121.13C678.68 64.8101 805.09 10.0901 891.57 44.5701" stroke="#E2B34B" stroke-width="2" stroke-linecap="round" stroke-linejoin="round"/>
</g>
<g opacity="0.6">
<path d="M733.59 391.57C735.13 389.36 736.29 386.89 737.55 384.52C738.14 383.41 739.14 382.22 739.55 381.04C739.98 379.81 738.18 380.09 737.41 380.27C736.64 380.45 735.96 380.74 735.22 380.91C732.97 381.43 730.63 380.88 728.36 381.28C726.05 381.68 723.8 382.45 721.82 383.74C718.4 385.96 715.73 389.12 712.85 391.97C709.35 395.45 705.18 399.06 699.95 398.02C699.39 397.91 697.86 397.31 697.46 397.9C697.22 398.25 697.63 398.41 697.78 398.64C701.33 404.05 709.37 405.96 715.44 405.1C723.6 403.95 729.1 398.01 733.58 391.58L733.59 391.57Z" stroke="#E2B34B" stroke-miterlimit="10"/>
<path d="M659.16 301.07C659.16 301.16 659.16 301.25 659.14 301.32C657.93 311.53 663.05 320.89 669.38 328.49C671.26 330.74 673.29 332.74 674.18 335.61C675.27 339.14 674.61 343.17 672.48 346.19C672.13 346.69 671.73 347.19 671.64 347.79C671.41 349.36 672.98 350.56 673.6 351.82C674.42 353.49 675.07 355.23 675.73 356.97C676.67 359.47 678.42 363.37 678.88 365.97C678.54 366.25 677.52 364.93 677.18 365.22C677 364.28 676.7 363.53 676.37 362.59C674.64 357.63 671.26 353.78 666.98 350.7C663.11 347.92 659.17 345.44 656.02 341.79C653.06 338.36 650.88 334.26 649.75 329.88C646.98 319.15 650.83 308.24 658.3 300.34C658.95 299.65 659.15 300.46 659.15 301.06L659.16 301.07Z" fill="#E2B34B"/>
<path d="M546.79 219.27C546.02 223.16 545.58 227.04 547.22 230.84C551.87 241.62 564.55 240.84 574.34 241C574.67 241 575 241.11 575.32 241.2C576.51 241.51 578.12 241.88 579.32 242.17C579.44 242.01 579.15 241.78 579.27 241.62C577.77 241.34 576.28 241.04 574.89 240.33C574.24 239.97 573.63 239.55 572.99 239.17C571.18 238.08 569.42 236.92 567.96 235.33C566.2 233.42 564.95 231.1 564.29 228.59C563.77 226.62 563.69 224.57 563.24 222.6C562.77 220.59 561.92 218.62 560.94 216.81C559.4 213.98 557.35 211.42 554.9 209.33C552.51 207.29 550.12 205.45 548.78 202.5C548.66 202.23 548.47 202.05 548.17 202.2C547.91 202.33 548 202.55 548.1 202.77C550.36 207.73 547.77 214.28 546.78 219.28L546.79 219.27Z" stroke="#E2B34B" stroke-miterlimit="10"/>
<path d="M255.59 153.75C254.5 155.16 253.89 156.94 252.88 158.4C251.59 160.27 250.1 162.02 248.77 163.86C245.87 167.88 243.14 172.03 240.66 176.32C237.13 182.44 234.02 188.81 231.19 195.32C228.82 200.78 227.32 206.37 226.83 212.31C226.15 220.39 227.48 228.31 228.71 236.19C230.2 245.72 229.62 254.99 227.04 264.2C226.95 264.54 226.81 264.83 227.06 265.1C227.37 265.44 227.78 265.43 228.15 265.21C228.6 264.94 229.06 264.66 229.45 264.31C233.65 260.52 238.17 257.04 241.86 252.72C246.26 247.58 249.84 241.77 253.6 236.16C257.31 230.62 260.64 224.8 262.77 218.46C264.91 212.08 265.43 205.49 265.51 198.73C265.63 189.18 263.69 180.09 261.18 171.03C259.8 166.04 259.38 161.02 259.49 155.95C259.53 154.08 259.43 150.31 256.54 152.75C256.18 153.05 255.87 153.39 255.58 153.76L255.59 153.75Z" stroke="#E2B34B" stroke-miterlimit="10"/>
<path d="M282.23 177.9C283.39 174.98 284.04 171.88 284.2 168.74C284.47 163.46 283.21 157.76 281.23 152.87C279.76 149.23 277.1 145.64 276.79 141.66C276.47 137.58 278.25 133.58 281.56 131.15C282.44 130.5 282.64 129.8 282.34 128.92C281.4 126.14 281.11 123.24 280.83 120.35C280.57 117.73 280.26 115.1 280.5 112.5C280.47 112.2 280.65 111.16 280.81 111.08C281.04 110.97 281.59 113.84 281.66 114.82C282.03 119.99 284.26 124.53 287.55 128.57C290.01 131.59 292.85 134.33 294.65 137.86C296.34 141.17 297.75 144.92 298.41 148.57C298.84 150.94 298.81 153.29 298.68 155.69C298.34 162.14 294.77 167.88 290.49 172.49C288.31 174.84 285.86 176.95 283.08 178.62C282.79 178.79 282.44 179.16 282.11 178.76C281.89 178.5 282.11 178.18 282.23 177.87V177.9Z" fill="#E2B34B"/>
<path d="M572.31 136.13C568.76 141.17 563.5 146.98 562.98 146.51C562.35 145.94 562.39 144.32 562.41 143.54C562.44 142.09 562.61 140.74 562.36 139.29C561.97 137.01 561 134.86 560.74 132.55C560.48 130.24 560.99 127.44 562.07 125.3C563.32 122.82 564.46 120.29 565.61 117.77C566.76 115.26 568.41 113.07 569.22 110.37C570.28 106.83 569.65 103.87 567.87 100.74C566.94 99.11 569 99.96 569.6 100.28C570.84 100.95 572.01 101.75 573.09 102.67C575.25 104.5 577.03 106.76 578.27 109.31C580.24 113.35 580.89 118.21 579.85 122.61C579.06 125.94 577.29 128.72 575.49 131.58C575.21 132.02 573.94 133.84 572.32 136.13H572.31Z" stroke="#E2B34B" stroke-miterlimit="10"/>
<path d="M476.71 69.9498C483.46 76.1998 492.82 79.3798 502.01 79.1098C504.24 79.0398 506.46 78.7798 508.69 78.8598C510.92 78.9398 513.2 79.3698 515.07 80.5698C516.52 81.4998 517.65 82.8398 518.54 84.2998C519.43 85.7598 519.81 87.6898 520.77 89.0398C521.57 90.1598 523.91 90.0898 525.2 90.3798C527.08 90.7898 528.94 91.2898 530.76 91.8798C533.3 92.6998 535.86 93.4798 538.18 94.7498C538.18 95.1898 539.04 96.0798 539.06 96.5198C538.21 96.0698 536.5 95.2198 535.56 94.8898C530.61 93.1398 525.49 93.3798 520.41 94.7998C517.29 95.6698 514.24 96.8898 511.03 97.3998C505.77 98.2298 499.85 97.7298 494.82 96.0198C483.94 92.3398 477.23 81.0998 475.66 70.1698C475.63 69.9298 475.62 69.6298 475.84 69.5198C476.06 69.4098 476.31 69.5898 476.48 69.7598C476.55 69.8298 476.63 69.8998 476.7 69.9698L476.71 69.9498Z" fill="#E2B34B"/>
<path d="M347.19 20.9699C350.25 18.7099 353.94 16.9299 357.83 17.0099C362.08 17.1099 366.27 18.8899 369.27 21.9199C369.39 22.0399 369.51 22.1599 369.62 22.2899C372 24.8599 373.68 28.1799 374.87 31.4499C376.16 35.0099 377.58 38.7199 380.16 41.5699C380.29 41.7199 380.43 41.8699 380.47 42.0699C380.51 42.2699 380.4 42.5099 380.2 42.5199C380.02 42.5399 378.56 40.4399 378.33 40.1899C377.62 39.4299 376.86 38.7299 376.04 38.0799C374.41 36.7899 372.6 35.7299 370.67 34.9499C367.47 33.6499 364.15 33.1299 360.76 33.8599C357.44 34.5799 354.13 35.4299 350.7 35.2199C344.1 34.8199 339.01 29.3999 332.4 29.1499C332.1 29.1399 331.87 29.0299 331.9 28.6999C331.92 28.4099 332.16 28.4099 332.4 28.4199C333.7 28.4699 334.91 28.0899 336.08 27.5899C340.08 25.8799 343.7 23.5299 347.19 20.9599V20.9699Z" stroke="#E2B34B" stroke-miterlimit="10"/>
<path d="M230.02 151.34C234.23 143.65 241.71 138.99 249.79 136.19C250.93 135.79 252.08 135.45 253.25 135.16C256.63 134.33 259.77 133.96 262.48 131.55C265.19 129.14 266.64 125.64 266.44 122.04C266.38 120.95 266.79 120.35 267.66 120.02C270.41 118.97 272.82 117.34 275.22 115.71C277.4 114.23 279.62 112.8 281.47 110.96C281.42 110.77 282.25 110.06 282.2 109.87C282.14 109.63 279.74 110.97 278.94 111.54C274.73 114.56 269.81 115.74 264.6 115.78C260.7 115.81 256.78 115.38 252.92 116.24C250.79 116.72 248.79 117.51 246.73 118.18C244.79 118.81 242.93 119.69 241.2 120.77C237.74 122.94 234.81 125.94 232.77 129.48C230.67 133.13 229.46 137.38 228.91 141.54C228.49 144.72 228.43 147.95 228.91 151.16C228.96 151.49 228.9 151.99 229.42 151.99C229.76 151.99 229.87 151.62 230.02 151.33V151.34Z" stroke="#E2B34B" stroke-miterlimit="10"/>
<path d="M848.15 349.73C856.26 346.77 865.21 349.09 869.3 357.22C872.83 364.24 871.26 372.62 874.41 379.83C874.2 379.79 873.99 379.75 873.78 379.71C871.7 373.65 866.87 368 860.47 366.42C857.15 365.6 853.68 365.94 850.34 365.3C846.38 364.54 843.25 361.96 840.28 359.38C838.79 358.09 837.32 356.77 835.7 355.64C835.11 355.23 831.11 353.38 831.31 352.87C831.42 352.6 831.64 352.66 831.87 352.74C833.1 353.16 834.38 353.13 835.63 352.98C839.95 352.47 844.08 351.22 848.15 349.74V349.73Z" stroke="#E2B34B" stroke-miterlimit="10"/>
<path d="M246.689 195.91C277.039 6.56992 541.209 -32.4001 568.689 179.29" stroke="#E2B34B" stroke-width="2" stroke-linecap="round" stroke-linejoin="round"/>
<path d="M568.699 179.2C568.699 179.2 572.779 407.09 793.909 378.41" stroke="#E2B34B" stroke-width="2" stroke-linecap="round" stroke-linejoin="round"/>
<path d="M793.879 378.41C829.489 374.41 874.249 377.26 917.839 387.86" stroke="#E2B34B" stroke-width="2" stroke-linecap="round" stroke-linejoin="round"/>
</g>
<g opacity="0.6">
<path d="M727.04 568.48C726.95 568.48 726.86 568.48 726.79 568.48C716.52 568.19 707.65 574.12 700.64 581.1C698.56 583.17 696.76 585.38 693.97 586.51C690.55 587.91 686.47 587.61 683.28 585.76C682.75 585.45 682.22 585.1 681.61 585.06C680.03 584.97 678.97 586.64 677.77 587.37C676.18 588.33 674.5 589.14 672.83 589.95C670.43 591.11 666.7 593.2 664.15 593.89C663.84 593.57 665.06 592.45 664.74 592.13C665.66 591.87 666.38 591.5 667.29 591.09C672.08 588.93 675.61 585.22 678.3 580.67C680.73 576.57 682.85 572.42 686.2 568.96C689.35 565.71 693.24 563.17 697.51 561.65C707.95 557.93 719.16 560.8 727.69 567.54C728.44 568.13 727.65 568.4 727.05 568.45L727.04 568.48Z" fill="#E2B34B"/>
<path d="M744.36 477.5C740.42 477.92 736.58 478.65 733.44 481.34C724.52 488.98 729.03 500.86 731.77 510.25C731.86 510.57 731.86 510.91 731.87 511.25C731.93 512.48 732.05 514.13 732.13 515.36C732.32 515.43 732.45 515.08 732.64 515.15C732.47 513.63 732.31 512.12 732.58 510.59C732.73 509.86 732.95 509.15 733.13 508.43C733.63 506.37 734.23 504.36 735.31 502.49C736.61 500.24 738.46 498.37 740.66 496.99C742.39 495.91 744.32 495.23 746.07 494.21C747.82 493.19 749.49 491.77 750.92 490.3C753.17 487.99 755 485.27 756.28 482.31C757.52 479.43 758.57 476.59 760.99 474.44C761.21 474.24 761.33 474.01 761.09 473.77C760.88 473.56 760.71 473.71 760.52 473.87C756.45 477.5 749.43 476.96 744.36 477.5Z" fill="#E2B34B"/>
<path d="M726.84 177.7C725.17 177.08 723.29 177.02 721.59 176.49C719.42 175.81 717.31 174.91 715.16 174.18C710.46 172.6 705.69 171.22 700.86 170.12C693.97 168.56 686.96 167.48 679.91 166.71C673.99 166.06 668.21 166.29 662.39 167.58C654.47 169.33 647.3 172.94 640.14 176.45C631.48 180.7 622.46 182.89 612.89 183.16C612.54 183.17 612.22 183.12 612.03 183.45C611.8 183.85 611.93 184.24 612.25 184.52C612.64 184.87 613.04 185.23 613.49 185.5C618.35 188.39 623.02 191.67 628.24 193.92C634.45 196.6 641.06 198.3 647.53 200.22C653.92 202.12 660.47 203.58 667.16 203.73C673.89 203.88 680.33 202.43 686.82 200.5C695.97 197.78 704.08 193.24 711.99 188.16C716.34 185.36 721.02 183.47 725.89 182.08C727.69 181.57 731.26 180.36 728.08 178.31C727.68 178.06 727.27 177.86 726.84 177.7Z" stroke="#E2B34B" stroke-miterlimit="10"/>
<path d="M694.75 205.93C697.88 206.17 701.04 205.87 704.08 205.1C709.2 203.79 714.27 200.9 718.35 197.56C721.39 195.08 724.03 191.47 727.74 190C731.45 188.53 735.89 189.01 739.19 191.44C740.07 192.09 740.8 192.07 741.55 191.53C743.93 189.8 746.61 188.68 749.29 187.55C751.72 186.53 754.13 185.45 756.69 184.91C756.97 184.79 758.02 184.65 758.14 184.79C758.31 184.98 755.73 186.35 754.82 186.71C749.99 188.59 746.32 192.07 743.43 196.41C741.27 199.65 739.49 203.18 736.66 205.94C734 208.53 730.84 210.99 727.54 212.71C725.4 213.83 723.15 214.49 720.82 215.08C714.56 216.67 708.02 214.95 702.34 212.23C699.45 210.84 696.7 209.13 694.29 206.97C694.04 206.75 693.58 206.52 693.87 206.09C694.06 205.81 694.43 205.92 694.75 205.94V205.93Z" stroke="#E2B34B" stroke-miterlimit="10"/>
<path d="M831.46 477.71C825.59 475.81 818.49 472.51 818.78 471.88C819.14 471.11 820.7 470.67 821.44 470.45C822.84 470.05 824.17 469.81 825.49 469.14C827.55 468.09 829.32 466.53 831.45 465.6C833.65 464.64 836.41 464.33 838.77 464.72C841.51 465.18 844.26 465.52 847.01 465.87C849.76 466.22 852.33 467.15 855.14 467.13C858.83 467.09 861.48 465.62 863.94 462.98C865.22 461.61 865.02 463.83 864.89 464.49C864.62 465.88 864.2 467.23 863.64 468.53C862.53 471.13 860.9 473.51 858.84 475.44C855.56 478.52 851.11 480.58 846.61 480.89C843.2 481.12 840.02 480.26 836.76 479.38C836.25 479.24 834.14 478.57 831.47 477.7L831.46 477.71Z" stroke="#E2B34B" stroke-miterlimit="10"/>
<path d="M872.39 364.06C868.42 372.35 868.15 382.24 871.14 390.94C871.86 393.05 872.77 395.1 873.36 397.25C873.95 399.4 874.21 401.7 873.62 403.85C873.16 405.51 872.22 406.98 871.08 408.27C869.94 409.56 868.22 410.48 867.21 411.81C866.37 412.91 867.14 415.13 867.25 416.44C867.41 418.36 867.49 420.28 867.47 422.2C867.44 424.87 867.46 427.55 866.93 430.14C866.51 430.28 865.92 431.36 865.5 431.5C865.68 430.56 865.98 428.67 866.02 427.67C866.22 422.42 864.48 417.6 861.62 413.17C859.86 410.45 857.8 407.9 856.36 404.98C854.01 400.2 852.74 394.4 852.87 389.09C853.16 377.61 861.91 367.87 871.89 363.13C872.11 363.03 872.4 362.94 872.57 363.11C872.74 363.28 872.64 363.58 872.53 363.8C872.48 363.89 872.44 363.98 872.4 364.08L872.39 364.06Z" stroke="#E2B34B" stroke-miterlimit="10"/>
<path d="M880.79 225.85C883.86 228.11 886.65 231.1 887.72 234.84C888.89 238.93 888.42 243.46 886.42 247.22C886.34 247.37 886.26 247.52 886.17 247.67C884.43 250.7 881.74 253.29 878.97 255.4C875.95 257.69 872.83 260.15 870.87 263.45C870.77 263.62 870.66 263.8 870.49 263.9C870.32 264 870.05 263.96 869.98 263.78C869.91 263.61 871.48 261.6 871.65 261.3C872.16 260.4 872.61 259.46 872.99 258.49C873.74 256.55 874.21 254.51 874.39 252.44C874.68 249 874.2 245.67 872.49 242.65C870.82 239.69 869.03 236.78 868.22 233.45C866.65 227.03 870.32 220.56 868.6 214.17C868.52 213.88 868.56 213.63 868.88 213.55C869.17 213.49 869.23 213.71 869.3 213.95C869.63 215.21 870.36 216.25 871.18 217.22C873.99 220.53 877.31 223.29 880.8 225.86L880.79 225.85Z" stroke="#E2B34B" stroke-miterlimit="10"/>
<path d="M721.56 152.56C730.16 154.3 736.82 160.07 741.89 166.96C742.6 167.93 743.28 168.93 743.9 169.96C745.69 172.94 746.98 175.83 750.08 177.7C753.18 179.57 756.96 179.93 760.34 178.66C761.36 178.28 762.06 178.5 762.63 179.22C764.45 181.53 766.71 183.35 768.98 185.17C771.04 186.82 773.07 188.51 775.37 189.73C775.53 189.63 776.46 190.21 776.62 190.11C776.83 189.98 774.84 188.09 774.06 187.49C769.93 184.36 767.35 180.01 765.76 175.05C764.58 171.34 763.83 167.46 761.86 164.03C760.77 162.14 759.42 160.46 758.17 158.69C756.99 157.02 755.6 155.51 754.06 154.18C750.96 151.52 747.23 149.61 743.24 148.7C739.14 147.77 734.71 147.88 730.58 148.58C727.42 149.12 724.31 150.02 721.39 151.44C721.09 151.59 720.59 151.68 720.74 152.17C720.84 152.49 721.23 152.49 721.55 152.55L721.56 152.56Z" fill="#E2B34B"/>
<path d="M683.94 181.69C873.77 154.59 989.26 395.35 795.21 484.31" stroke="#E2B34B" stroke-width="2" stroke-linecap="round" stroke-linejoin="round"/>
<path d="M795.3 484.29C795.3 484.29 665.94 526.97 650.15 640" stroke="#E2B34B" stroke-width="2" stroke-linecap="round" stroke-linejoin="round"/>
</g>
<g opacity="0.6">
<path d="M170.91 365.43C170.91 365.34 170.91 365.25 170.91 365.18C171.46 354.92 165.75 345.91 158.94 338.72C156.92 336.59 154.76 334.73 153.69 331.92C152.38 328.47 152.77 324.4 154.71 321.25C155.03 320.73 155.4 320.21 155.45 319.6C155.58 318.02 153.93 316.93 153.23 315.7C152.31 314.09 151.54 312.39 150.77 310.7C149.67 308.27 147.67 304.49 147.05 301.92C147.37 301.62 148.47 302.87 148.79 302.56C149.03 303.49 149.38 304.21 149.76 305.13C151.8 309.97 155.42 313.59 159.9 316.39C163.94 318.92 168.04 321.14 171.41 324.58C174.58 327.81 177.02 331.76 178.43 336.07C181.88 346.6 178.74 357.73 171.79 366.09C171.18 366.82 170.93 366.03 170.9 365.42L170.91 365.43Z" fill="#E2B34B"/>
<path d="M258.83 425.05C259.35 421.12 259.54 417.21 257.66 413.53C252.32 403.07 239.72 404.67 229.94 405.13C229.61 405.15 229.27 405.06 228.95 404.99C227.74 404.76 226.11 404.49 224.89 404.28C224.78 404.45 225.08 404.66 224.97 404.82C226.48 405.01 227.99 405.21 229.42 405.83C230.09 406.14 230.73 406.53 231.39 406.87C233.27 407.84 235.09 408.89 236.66 410.38C238.54 412.17 239.93 414.41 240.75 416.87C241.39 418.8 241.6 420.84 242.19 422.78C242.78 424.72 243.76 426.67 244.86 428.41C246.58 431.14 248.79 433.56 251.37 435.49C253.88 437.37 256.39 439.05 257.92 441.92C258.06 442.19 258.26 442.35 258.55 442.18C258.8 442.03 258.7 441.82 258.58 441.61C256.01 436.81 258.17 430.11 258.84 425.05H258.83Z" stroke="#E2B34B" stroke-miterlimit="10"/>
<path d="M553.64 471.73C554.64 470.25 555.13 468.44 556.05 466.91C557.22 464.96 558.59 463.12 559.8 461.2C562.44 457 564.9 452.69 567.09 448.24C570.22 441.9 572.92 435.35 575.31 428.67C577.32 423.07 578.46 417.39 578.57 411.43C578.73 403.32 576.89 395.5 575.16 387.73C573.06 378.31 573.05 369.03 575.02 359.67C575.09 359.33 575.21 359.03 574.94 358.77C574.61 358.45 574.2 358.49 573.84 358.73C573.41 359.03 572.96 359.33 572.6 359.71C568.65 363.76 564.36 367.53 560.96 372.07C556.9 377.48 553.7 383.51 550.31 389.35C546.92 395.19 544.01 401.14 542.3 407.61C540.57 414.12 540.48 420.72 540.83 427.48C541.33 437.02 543.84 445.96 546.93 454.84C548.63 459.73 549.37 464.71 549.58 469.78C549.66 471.65 550 475.4 552.73 472.79C553.07 472.46 553.36 472.11 553.62 471.72L553.64 471.73Z" stroke="#E2B34B" stroke-miterlimit="10"/>
<path d="M533.71 433.92C532.74 436.91 532.29 440.04 532.34 443.18C532.41 448.47 534.04 454.07 536.32 458.82C538.02 462.36 540.91 465.77 541.47 469.72C542.05 473.78 540.53 477.87 537.39 480.52C536.55 481.22 536.4 481.94 536.75 482.79C537.87 485.51 538.34 488.38 538.81 491.25C539.23 493.85 539.71 496.45 539.64 499.06C539.69 499.36 539.58 500.41 539.42 500.5C539.2 500.62 538.46 497.79 538.33 496.82C537.63 491.69 535.12 487.3 531.57 483.48C528.92 480.62 525.91 478.07 523.89 474.67C521.99 471.48 520.35 467.83 519.45 464.22C518.87 461.88 518.75 459.53 518.72 457.13C518.65 450.67 521.84 444.72 525.82 439.84C527.84 437.35 530.15 435.09 532.82 433.24C533.1 433.05 533.42 432.66 533.77 433.04C534 433.29 533.81 433.62 533.7 433.93L533.71 433.92Z" fill="#E2B34B"/>
<path d="M237.46 503.15C240.68 497.89 245.55 491.75 246.1 492.19C246.77 492.72 246.83 494.34 246.86 495.11C246.93 496.56 246.84 497.91 247.18 499.35C247.72 501.6 248.82 503.69 249.23 505.97C249.64 508.25 249.31 511.09 248.37 513.29C247.28 515.84 246.31 518.45 245.32 521.03C244.34 523.61 242.83 525.9 242.19 528.64C241.36 532.24 242.17 535.16 244.16 538.16C245.19 539.73 243.08 539.01 242.47 538.73C241.19 538.14 239.97 537.41 238.83 536.57C236.56 534.89 234.63 532.74 233.24 530.28C231.02 526.37 230.06 521.56 230.81 517.11C231.38 513.74 232.97 510.85 234.58 507.88C234.83 507.42 235.98 505.52 237.45 503.13L237.46 503.15Z" stroke="#E2B34B" stroke-miterlimit="10"/>
<path d="M338.36 569.56C331.23 563.76 321.68 561.18 312.52 562.05C310.3 562.26 308.1 562.66 305.87 562.73C303.64 562.8 301.34 562.51 299.39 561.43C297.88 560.59 296.67 559.33 295.69 557.93C294.71 556.53 294.21 554.63 293.16 553.34C292.29 552.27 289.95 552.49 288.65 552.29C286.75 552 284.86 551.63 283 551.15C280.41 550.49 277.8 549.89 275.41 548.77C275.37 548.33 274.46 547.5 274.42 547.06C275.29 547.46 277.06 548.19 278.02 548.46C283.07 549.89 288.17 549.32 293.15 547.58C296.2 546.51 299.17 545.1 302.34 544.39C307.53 543.22 313.48 543.35 318.61 544.72C329.71 547.69 337.12 558.48 339.39 569.29C339.44 569.53 339.46 569.83 339.25 569.95C339.04 570.08 338.78 569.91 338.59 569.75C338.51 569.68 338.43 569.62 338.35 569.56H338.36Z" fill="#E2B34B"/>
<path d="M470.76 610.11C467.85 612.56 464.28 614.58 460.39 614.74C456.14 614.92 451.84 613.4 448.66 610.58C448.53 610.47 448.41 610.35 448.28 610.24C445.74 607.83 443.85 604.62 442.45 601.43C440.93 597.96 439.27 594.35 436.52 591.67C436.38 591.53 436.23 591.38 436.17 591.19C436.11 591 436.22 590.75 436.41 590.72C436.59 590.69 438.18 592.69 438.43 592.92C439.19 593.63 440 594.28 440.85 594.88C442.56 596.07 444.43 597 446.41 597.66C449.69 598.75 453.03 599.06 456.37 598.11C459.64 597.18 462.89 596.12 466.32 596.11C472.93 596.09 478.36 601.17 484.97 601C485.27 601 485.51 601.08 485.5 601.42C485.5 601.71 485.26 601.73 485.02 601.73C483.72 601.76 482.53 602.22 481.4 602.79C477.52 604.75 474.06 607.33 470.74 610.12L470.76 610.11Z" stroke="#E2B34B" stroke-miterlimit="10"/>
<path d="M579.31 472.48C575.61 480.43 568.43 485.55 560.55 488.87C559.44 489.34 558.31 489.76 557.16 490.12C553.84 491.16 550.73 491.74 548.18 494.31C545.63 496.88 544.4 500.47 544.84 504.06C544.97 505.14 544.6 505.77 543.76 506.16C541.09 507.38 538.79 509.16 536.49 510.94C534.41 512.55 532.28 514.13 530.56 516.08C530.62 516.26 529.84 517.02 529.9 517.21C529.97 517.44 532.28 515.95 533.05 515.33C537.06 512.05 541.89 510.56 547.09 510.18C550.98 509.9 554.92 510.08 558.72 508.97C560.82 508.36 562.76 507.43 564.77 506.63C566.67 505.88 568.46 504.88 570.12 503.69C573.43 501.3 576.17 498.12 577.98 494.46C579.84 490.69 580.78 486.36 581.06 482.18C581.27 478.98 581.13 475.75 580.44 472.58C580.37 472.25 580.4 471.75 579.88 471.78C579.54 471.8 579.46 472.18 579.32 472.48H579.31Z" stroke="#E2B34B" stroke-miterlimit="10"/>
<path d="M559.81 429.09C541.69 619.99 280.57 675.86 239.54 466.37" stroke="#E2B34B" stroke-width="2" stroke-linecap="round" stroke-linejoin="round"/>
<path d="M2.6 282.01C2.4 282.05 2.2 282.09 2 282.13" stroke="#E2B34B" stroke-width="2" stroke-linecap="round" stroke-linejoin="round"/>
<path d="M239.54 466.45C239.54 466.45 220.86 239.71 2.59961 282.01" stroke="#E2B34B" stroke-width="2" stroke-linecap="round" stroke-linejoin="round"/>
</g>
<g opacity="0.6">
<path d="M744.89 422.08C745.32 423.81 746.34 425.39 746.86 427.09C747.52 429.26 747.97 431.51 748.59 433.7C749.94 438.47 751.5 443.18 753.34 447.79C755.95 454.36 759.02 460.75 762.38 467C765.2 472.25 768.65 476.88 773.01 480.96C778.93 486.5 785.97 490.37 792.91 494.29C801.31 499.03 808.22 505.23 813.85 512.97C814.06 513.25 814.2 513.54 814.57 513.52C815.03 513.49 815.28 513.16 815.33 512.73C815.4 512.21 815.47 511.67 815.43 511.15C815.06 505.5 815.13 499.8 814.03 494.22C812.72 487.58 810.39 481.17 808.31 474.74C806.23 468.31 803.76 462.17 800.11 456.57C796.43 450.93 791.58 446.44 786.33 442.18C778.91 436.17 770.58 432.05 761.91 428.4C757.14 426.39 752.94 423.61 749.03 420.37C747.59 419.17 744.57 416.92 744.69 420.7C744.7 421.17 744.78 421.63 744.89 422.07V422.08Z" stroke="#E2B34B" stroke-miterlimit="10"/>
</g>
<path opacity="0.6" d="M786.32 432.57C784.75 429.85 782.72 427.42 780.36 425.35C776.38 421.87 771.13 419.32 766.07 417.84C762.31 416.74 757.83 416.6 754.52 414.38C751.12 412.1 749.09 408.22 749.23 404.12C749.27 403.03 748.84 402.44 747.97 402.13C745.2 401.14 742.75 399.57 740.31 398C738.09 396.57 735.84 395.19 733.95 393.39C733.69 393.23 732.99 392.44 733.03 392.26C733.09 392.01 735.68 393.36 736.5 393.91C740.78 396.83 745.73 397.89 750.94 397.82C754.83 397.76 758.75 397.24 762.63 398.01C766.27 398.73 770.09 399.96 773.37 401.7C775.5 402.83 777.32 404.32 779.12 405.9C783.97 410.17 786.25 416.53 787.22 422.75C787.71 425.92 787.85 429.15 787.44 432.37C787.4 432.7 787.47 433.2 786.95 433.22C786.61 433.22 786.49 432.86 786.33 432.58L786.32 432.57Z" fill="#E2B34B"/>
<path opacity="0.6" d="M816.26 196.64C825.34 195.22 833.65 189.85 839.13 182.47C840.46 180.68 841.64 178.77 843.08 177.07C844.52 175.37 846.27 173.85 848.38 173.12C850.01 172.56 851.76 172.51 853.46 172.71C855.16 172.91 856.91 173.82 858.56 173.9C859.94 173.97 861.34 172.09 862.36 171.25C863.85 170.03 865.39 168.88 866.99 167.81C869.21 166.33 871.41 164.79 873.84 163.76C874.19 164.03 875.42 163.91 875.77 164.17C874.89 164.55 873.16 165.37 872.32 165.91C867.88 168.71 864.89 172.87 862.85 177.74C861.6 180.73 860.67 183.88 859.07 186.71C856.46 191.35 852.39 195.68 847.94 198.58C838.3 204.84 825.32 203.13 815.78 197.58C815.57 197.46 815.33 197.27 815.38 197.04C815.43 196.8 815.72 196.72 815.97 196.68C816.07 196.67 816.17 196.65 816.27 196.63L816.26 196.64Z" fill="#E2B34B"/>
<g opacity="0.6">
<path d="M697.52 267.89C697.65 264.09 698.54 260.08 701.02 257.09C703.73 253.81 707.73 251.63 711.96 251.16C712.13 251.14 712.3 251.12 712.47 251.11C715.96 250.83 719.61 251.58 722.91 252.68C726.51 253.87 730.3 255.06 734.13 254.81C734.33 254.8 734.54 254.78 734.72 254.87C734.9 254.96 735.02 255.2 734.91 255.37C734.81 255.52 732.26 255.37 731.92 255.4C730.89 255.49 729.86 255.65 728.85 255.89C726.83 256.36 724.87 257.13 723.07 258.16C720.07 259.87 717.6 262.15 716.07 265.26C714.58 268.31 713.18 271.44 710.9 273.99C706.49 278.92 699.08 279.55 694.79 284.58C694.59 284.81 694.37 284.92 694.12 284.69C693.91 284.49 694.05 284.31 694.21 284.12C695.06 283.13 695.51 281.94 695.84 280.72C696.98 276.52 697.38 272.23 697.53 267.9L697.52 267.89Z" stroke="#E2B34B" stroke-miterlimit="10"/>
</g>
<path opacity="0.6" d="M917.17 172.61C917.4 172.69 917.62 172.76 917.85 172.84" stroke="#E2B34B" stroke-width="2" stroke-linecap="round" stroke-linejoin="round"/>
<path opacity="0.6" d="M772.44 455.21C652.85 325.02 756.74 118.18 917.17 172.61" stroke="#E2B34B" stroke-width="2" stroke-linecap="round" stroke-linejoin="round"/>
<g opacity="0.6">
<path d="M627.48 463.66C629.13 464.33 631.01 464.43 632.7 465.01C634.85 465.74 636.93 466.7 639.07 467.48C643.73 469.18 648.46 470.68 653.27 471.9C660.12 473.64 667.1 474.9 674.13 475.85C680.03 476.65 685.81 476.57 691.67 475.43C699.63 473.89 706.89 470.45 714.13 467.13C722.9 463.11 731.97 461.15 741.54 461.12C741.89 461.12 742.21 461.17 742.4 460.86C742.64 460.47 742.52 460.08 742.21 459.78C741.83 459.42 741.44 459.05 740.99 458.77C736.2 455.76 731.62 452.35 726.46 449.97C720.32 447.14 713.75 445.27 707.33 443.18C700.91 441.09 694.48 439.49 687.8 439.17C681.07 438.84 674.6 440.14 668.07 441.9C658.85 444.38 650.63 448.71 642.59 453.6C638.17 456.29 633.45 458.05 628.54 459.32C626.73 459.79 623.13 460.91 626.26 463.03C626.65 463.29 627.06 463.5 627.49 463.68L627.48 463.66Z" stroke="#E2B34B" stroke-miterlimit="10"/>
</g>
<path opacity="0.6" d="M660.27 436.25C657.15 435.93 653.98 436.15 650.92 436.85C645.77 438.03 640.63 440.79 636.46 444.02C633.36 446.42 630.63 449.96 626.88 451.34C623.04 452.75 618.71 452.12 615.47 449.61C614.61 448.94 613.88 448.94 613.12 449.46C610.7 451.13 607.99 452.18 605.28 453.24C602.83 454.2 600.38 455.21 597.82 455.69C597.54 455.8 596.49 455.92 596.37 455.78C596.2 455.59 598.82 454.28 599.74 453.94C604.61 452.18 608.38 448.8 611.37 444.54C613.61 441.35 615.48 437.88 618.38 435.18C621.1 432.66 624.33 430.28 627.67 428.65C629.84 427.59 632.11 426.98 634.45 426.45C640.75 425.03 647.24 426.9 652.85 429.77C655.7 431.23 658.4 433.01 660.77 435.23C661.02 435.46 661.46 435.69 661.17 436.12C660.98 436.4 660.61 436.28 660.28 436.24L660.27 436.25Z" stroke="#E2B34B" stroke-miterlimit="10"/>
<g opacity="0.6">
<path d="M476.16 168.71C479.74 173.73 483.49 180.61 482.87 180.95C482.12 181.36 480.61 180.78 479.88 180.51C478.52 180 477.31 179.4 475.85 179.15C473.57 178.77 471.22 178.97 468.95 178.45C466.61 177.91 464.21 176.52 462.55 174.8C460.63 172.8 458.61 170.89 456.62 168.97C454.63 167.05 453.11 164.77 450.83 163.12C447.84 160.95 444.84 160.56 441.29 161.21C439.44 161.55 440.93 159.89 441.43 159.43C442.47 158.48 443.62 157.64 444.84 156.92C447.28 155.49 450.01 154.56 452.81 154.23C457.27 153.71 462.08 154.71 465.88 157.14C468.76 158.98 470.8 161.57 472.9 164.22C473.23 164.63 474.52 166.43 476.15 168.71H476.16Z" fill="#E2B34B"/>
</g>
<path opacity="0.6" d="M486.74 273.64C490.92 265.45 491.44 255.58 488.67 246.8C488 244.67 487.14 242.6 486.61 240.44C486.08 238.28 485.88 235.97 486.52 233.83C487.02 232.18 488 230.74 489.17 229.48C490.34 228.22 492.09 227.34 493.13 226.04C493.99 224.96 493.29 222.73 493.21 221.41C493.1 219.49 493.07 217.57 493.14 215.65C493.24 212.98 493.29 210.3 493.88 207.73C494.3 207.6 494.93 206.54 495.35 206.4C495.15 207.34 494.79 209.22 494.73 210.22C494.39 215.46 496.01 220.32 498.76 224.83C500.45 227.59 502.45 230.2 503.81 233.15C506.04 237.99 507.16 243.82 506.89 249.13C506.31 260.6 497.31 270.11 487.22 274.6C487 274.7 486.71 274.78 486.54 274.6C486.37 274.42 486.48 274.13 486.59 273.92C486.64 273.83 486.68 273.74 486.73 273.65L486.74 273.64Z" stroke="#E2B34B" stroke-miterlimit="10"/>
<g opacity="0.6">
<path d="M474.81 411.59C471.8 409.25 469.08 406.19 468.11 402.42C467.05 398.3 467.63 393.78 469.73 390.08C469.81 389.93 469.9 389.79 469.99 389.64C471.81 386.65 474.56 384.13 477.38 382.1C480.46 379.89 483.64 377.51 485.68 374.26C485.79 374.09 485.9 373.91 486.07 373.82C486.24 373.73 486.51 373.77 486.58 373.96C486.65 374.13 485.03 376.1 484.85 376.39C484.31 377.28 483.84 378.21 483.44 379.16C482.64 381.08 482.12 383.11 481.89 385.17C481.51 388.6 481.91 391.94 483.54 395.01C485.13 398.01 486.85 400.97 487.58 404.32C488.98 410.78 485.15 417.15 486.71 423.58C486.78 423.87 486.74 424.12 486.41 424.19C486.12 424.25 486.06 424.02 486 423.78C485.7 422.52 485 421.45 484.2 420.46C481.47 417.07 478.22 414.23 474.8 411.57L474.81 411.59Z" stroke="#E2B34B" stroke-miterlimit="10"/>
</g>
<path opacity="0.6" d="M632.12 488.92C623.57 486.96 617.06 481.02 612.16 474.01C611.47 473.02 610.82 472.01 610.23 470.96C608.52 467.93 607.3 465.01 604.25 463.06C601.21 461.12 597.43 460.66 594.02 461.84C592.99 462.2 592.3 461.96 591.74 461.22C589.98 458.86 587.76 456.99 585.54 455.11C583.53 453.41 581.54 451.67 579.27 450.38C579.1 450.48 578.2 449.87 578.03 449.97C577.82 450.09 579.76 452.04 580.53 452.65C584.58 455.89 587.05 460.3 588.51 465.3C589.6 469.04 590.25 472.93 592.13 476.42C593.17 478.34 594.48 480.05 595.68 481.85C596.81 483.55 598.16 485.1 599.68 486.46C602.71 489.2 606.39 491.21 610.35 492.21C614.43 493.24 618.86 493.25 623 492.65C626.17 492.19 629.3 491.37 632.26 490.03C632.57 489.89 633.07 489.81 632.92 489.32C632.83 488.99 632.44 488.99 632.12 488.92Z" fill="#E2B34B"/>
<path opacity="0.6" d="M670.47 460.77C491.29 481.7 383.94 267.31 535.26 171.92" stroke="#E2B34B" stroke-width="2" stroke-linecap="round" stroke-linejoin="round"/>
<g opacity="0.6">
<path d="M170.6 154.85C168.91 154.29 167.02 154.31 165.31 153.85C163.12 153.26 160.97 152.44 158.79 151.81C154.03 150.42 149.21 149.23 144.33 148.34C137.38 147.06 130.34 146.26 123.26 145.78C117.32 145.37 111.55 145.84 105.79 147.35C97.9501 149.41 90.9301 153.32 83.9201 157.11C75.4301 161.7 66.5101 164.26 56.9701 164.91C56.6201 164.93 56.3001 164.91 56.1301 165.23C55.9101 165.64 56.0601 166.02 56.3901 166.29C56.8001 166.63 57.2101 166.97 57.6701 167.22C62.6501 169.91 67.4401 173 72.7501 175.04C79.0701 177.46 85.7401 178.9 92.2801 180.56C98.7401 182.2 105.35 183.39 112.03 183.28C118.76 183.16 125.14 181.45 131.54 179.26C140.58 176.17 148.5 171.31 156.19 165.91C160.43 162.94 165.02 160.86 169.84 159.27C171.62 158.68 175.13 157.33 171.87 155.42C171.46 155.18 171.04 155 170.6 154.86V154.85Z" stroke="#E2B34B" stroke-miterlimit="10"/>
</g>
<path opacity="0.6" d="M139.69 184.36C142.83 184.48 145.97 184.05 148.98 183.15C154.05 181.64 158.99 178.54 162.94 175.04C165.88 172.44 168.37 168.72 172.01 167.1C175.75 165.44 180.11 165.78 183.51 168.08C184.42 168.69 185.14 168.64 185.87 168.08C188.18 166.26 190.81 165.02 193.44 163.79C195.83 162.67 198.2 161.5 200.72 160.85C200.99 160.72 202.03 160.54 202.16 160.67C202.34 160.85 199.82 162.33 198.92 162.72C194.17 164.8 190.64 168.42 187.94 172.87C185.92 176.2 184.28 179.79 181.56 182.67C179.01 185.37 175.94 187.95 172.72 189.8C170.63 191 168.4 191.75 166.1 192.44C159.91 194.28 153.31 192.83 147.52 190.34C144.58 189.07 141.76 187.47 139.26 185.41C139 185.2 138.54 184.99 138.8 184.55C138.97 184.26 139.35 184.36 139.68 184.37L139.69 184.36Z" fill="#E2B34B"/>
<g opacity="0.6">
<path d="M287.27 450.39C281.33 448.73 274.1 445.72 274.36 445.07C274.69 444.29 276.22 443.78 276.96 443.54C278.34 443.08 279.66 442.79 280.95 442.07C282.97 440.94 284.67 439.3 286.76 438.29C288.85 437.28 291.66 436.82 294.04 437.12C296.79 437.47 299.56 437.69 302.32 437.93C305.08 438.17 307.69 439 310.5 438.86C314.19 438.67 316.77 437.09 319.12 434.36C320.34 432.94 320.23 435.17 320.13 435.84C319.91 437.24 319.55 438.61 319.05 439.93C318.05 442.57 316.51 445.01 314.53 447.03C311.38 450.24 307.02 452.47 302.53 452.97C299.13 453.34 295.92 452.6 292.62 451.86C292.11 451.75 289.97 451.15 287.27 450.4V450.39Z" stroke="#E2B34B" stroke-miterlimit="10"/>
</g>
<path opacity="0.6" d="M323.57 335.18C319.94 343.63 320.07 353.51 323.41 362.09C324.22 364.17 325.21 366.18 325.88 368.3C326.55 370.42 326.91 372.72 326.4 374.89C326.01 376.57 325.12 378.08 324.04 379.4C322.97 380.72 321.27 381.73 320.32 383.09C319.53 384.22 320.38 386.41 320.55 387.71C320.79 389.62 320.95 391.53 321 393.46C321.07 396.13 321.2 398.8 320.78 401.41C320.36 401.57 319.82 402.67 319.4 402.83C319.54 401.88 319.77 399.98 319.77 398.98C319.77 393.73 317.83 388.98 314.78 384.67C312.91 382.03 310.75 379.56 309.19 376.7C306.65 372.02 305.14 366.27 305.06 360.96C304.89 349.47 313.24 339.39 323.01 334.25C323.22 334.14 323.51 334.04 323.68 334.2C323.86 334.37 323.77 334.66 323.68 334.89C323.64 334.98 323.6 335.08 323.56 335.17L323.57 335.18Z" fill="#E2B34B"/>
<g opacity="0.6">
<path d="M326.38 196.74C329.53 198.87 332.45 201.75 333.67 205.45C335 209.49 334.72 214.03 332.87 217.87C332.8 218.02 332.72 218.18 332.64 218.33C331.02 221.43 328.44 224.13 325.76 226.34C322.84 228.75 319.82 231.33 317.99 234.71C317.9 234.89 317.8 235.07 317.62 235.17C317.44 235.27 317.18 235.25 317.1 235.07C317.02 234.9 318.51 232.83 318.67 232.53C319.15 231.61 319.56 230.65 319.89 229.67C320.56 227.7 320.95 225.64 321.04 223.57C321.19 220.12 320.57 216.82 318.75 213.86C316.96 210.97 315.05 208.13 314.11 204.84C312.28 198.48 315.69 191.88 313.71 185.56C313.62 185.27 313.64 185.02 313.97 184.93C314.25 184.86 314.33 185.07 314.4 185.31C314.78 186.55 315.55 187.57 316.41 188.5C319.36 191.7 322.78 194.32 326.37 196.75L326.38 196.74Z" stroke="#E2B34B" stroke-miterlimit="10"/>
</g>
<path opacity="0.6" d="M164.31 129.95C172.97 131.34 179.86 136.84 185.21 143.51C185.96 144.45 186.68 145.42 187.34 146.43C189.25 149.34 190.65 152.17 193.83 153.92C196.99 155.66 200.79 155.87 204.12 154.47C205.13 154.05 205.83 154.24 206.43 154.94C208.34 157.18 210.68 158.9 213.02 160.63C215.14 162.19 217.24 163.8 219.59 164.93C219.75 164.82 220.7 165.36 220.86 165.25C221.06 165.11 219 163.3 218.19 162.74C213.94 159.78 211.18 155.54 209.4 150.64C208.07 146.98 207.16 143.14 205.05 139.79C203.89 137.94 202.47 136.32 201.15 134.61C199.91 132.99 198.46 131.54 196.86 130.27C193.66 127.74 189.85 125.98 185.83 125.24C181.69 124.48 177.27 124.76 173.17 125.64C170.04 126.31 166.96 127.33 164.11 128.86C163.81 129.02 163.32 129.13 163.49 129.62C163.6 129.94 163.99 129.92 164.31 129.97V129.95Z" stroke="#E2B34B" stroke-miterlimit="10"/>
<path opacity="0.6" d="M127.9 160.57C316.48 125.81 441.6 361.71 251.31 458.45" stroke="#E2B34B" stroke-width="2" stroke-linecap="round" stroke-linejoin="round"/>
<path opacity="0.6" d="M251.4 458.43C251.4 458.43 246.8 460.16 239.26 463.74" stroke="#E2B34B" stroke-width="2" stroke-linecap="round" stroke-linejoin="round"/>
<g opacity="0.6">
<path d="M389.85 402.49C390.4 400.79 390.37 398.91 390.83 397.19C391.41 395 392.22 392.85 392.85 390.67C394.23 385.91 395.39 381.08 396.27 376.2C397.53 369.24 398.3 362.2 398.76 355.12C399.15 349.18 398.66 343.41 397.12 337.65C395.03 329.81 391.1 322.81 387.28 315.82C382.66 307.35 380.07 298.44 379.38 288.89C379.35 288.54 379.38 288.22 379.06 288.05C378.65 287.84 378.27 287.99 378 288.32C377.67 288.73 377.33 289.14 377.08 289.6C374.41 294.59 371.33 299.39 369.31 304.7C366.91 311.02 365.5 317.7 363.86 324.25C362.24 330.71 361.07 337.33 361.21 344.01C361.35 350.74 363.09 357.11 365.3 363.51C368.42 372.54 373.31 380.44 378.74 388.11C381.73 392.33 383.82 396.92 385.42 401.73C386.01 403.51 387.38 407.02 389.28 403.75C389.52 403.34 389.7 402.92 389.84 402.48L389.85 402.49Z" stroke="#E2B34B" stroke-miterlimit="10"/>
</g>
<path opacity="0.6" d="M360.24 371.68C360.13 374.82 360.57 377.96 361.48 380.96C363.01 386.02 366.12 390.95 369.64 394.89C372.25 397.82 375.98 400.3 377.61 403.94C379.29 407.68 378.96 412.04 376.67 415.44C376.06 416.35 376.11 417.08 376.69 417.8C378.52 420.1 379.76 422.73 381.01 425.36C382.14 427.74 383.32 430.11 383.97 432.63C384.1 432.9 384.29 433.94 384.16 434.07C383.98 434.25 382.49 431.73 382.09 430.83C380 426.09 376.37 422.57 371.9 419.88C368.56 417.87 364.97 416.25 362.08 413.54C359.37 411 356.78 407.94 354.92 404.73C353.71 402.64 352.95 400.42 352.26 398.12C350.4 391.94 351.82 385.33 354.29 379.54C355.55 376.59 357.14 373.77 359.19 371.26C359.4 371 359.61 370.54 360.05 370.8C360.34 370.97 360.25 371.35 360.23 371.67L360.24 371.68Z" stroke="#E2B34B" stroke-miterlimit="10"/>
<g opacity="0.6">
<path d="M94.7207 520.19C96.3607 514.24 99.3407 507 99.9907 507.26C100.781 507.58 101.281 509.12 101.531 509.86C101.991 511.24 102.291 512.56 103.011 513.85C104.151 515.86 105.791 517.56 106.811 519.65C107.831 521.74 108.301 524.55 108.011 526.92C107.671 529.67 107.461 532.44 107.231 535.2C107.001 537.95 106.181 540.57 106.331 543.38C106.531 547.07 108.121 549.65 110.861 551.99C112.291 553.21 110.061 553.1 109.391 553C107.991 552.79 106.621 552.43 105.301 551.93C102.651 550.94 100.211 549.41 98.1807 547.43C94.9607 544.29 92.7107 539.94 92.2007 535.45C91.8207 532.05 92.5407 528.84 93.2707 525.54C93.3807 525.03 93.9707 522.89 94.7107 520.18L94.7207 520.19Z" fill="#E2B34B"/>
</g>
<path opacity="0.6" d="M210.06 556.09C201.6 552.49 191.71 552.65 183.15 556.02C181.07 556.84 179.07 557.83 176.95 558.52C174.83 559.21 172.54 559.56 170.36 559.07C168.68 558.69 167.17 557.81 165.84 556.73C164.52 555.66 163.5 553.97 162.14 553.02C161.01 552.23 158.82 553.09 157.52 553.26C155.61 553.51 153.7 553.67 151.78 553.73C149.11 553.81 146.44 553.95 143.82 553.54C143.66 553.13 142.56 552.58 142.4 552.17C143.35 552.31 145.25 552.53 146.25 552.52C151.5 552.49 156.24 550.54 160.54 547.48C163.18 545.61 165.64 543.43 168.49 541.87C173.16 539.31 178.9 537.79 184.22 537.69C195.71 537.48 205.82 545.79 210.99 555.55C211.1 555.76 211.21 556.05 211.04 556.22C210.87 556.4 210.58 556.31 210.35 556.22C210.26 556.18 210.16 556.14 210.07 556.1L210.06 556.09Z" stroke="#E2B34B" stroke-miterlimit="10"/>
<g opacity="0.6">
<path d="M384.52 525.92C382.4 529.08 379.53 532.01 375.84 533.24C371.8 534.59 367.26 534.32 363.42 532.48C363.27 532.41 363.11 532.33 362.96 532.25C359.85 530.64 357.15 528.07 354.92 525.4C352.5 522.48 349.91 519.47 346.52 517.66C346.34 517.57 346.16 517.47 346.06 517.3C345.96 517.13 345.98 516.87 346.16 516.78C346.33 516.7 348.41 518.18 348.71 518.34C349.63 518.81 350.59 519.22 351.57 519.55C353.54 520.22 355.6 520.6 357.68 520.68C361.13 520.82 364.43 520.19 367.38 518.35C370.26 516.55 373.09 514.63 376.39 513.67C382.74 511.82 389.36 515.2 395.66 513.2C395.95 513.11 396.2 513.13 396.29 513.46C396.37 513.74 396.15 513.82 395.91 513.89C394.67 514.28 393.66 515.05 392.73 515.91C389.54 518.87 386.93 522.3 384.52 525.9V525.92Z" stroke="#E2B34B" stroke-miterlimit="10"/>
</g>
<path opacity="0.6" d="M414.73 396.11C413.37 404.77 407.9 411.68 401.24 417.06C400.3 417.82 399.34 418.53 398.33 419.2C395.43 421.12 392.6 422.53 390.87 425.71C389.14 428.88 388.95 432.68 390.36 436C390.79 437.01 390.6 437.71 389.9 438.31C387.67 440.23 385.95 442.57 384.24 444.92C382.69 447.05 381.08 449.15 379.96 451.51C380.07 451.67 379.53 452.62 379.64 452.78C379.78 452.98 381.58 450.91 382.14 450.1C385.09 445.84 389.32 443.07 394.21 441.26C397.87 439.91 401.7 439 405.05 436.88C406.9 435.71 408.51 434.29 410.22 432.96C411.83 431.71 413.29 430.26 414.54 428.65C417.06 425.44 418.81 421.62 419.54 417.6C420.29 413.46 419.99 409.04 419.1 404.95C418.42 401.82 417.39 398.75 415.84 395.9C415.68 395.6 415.57 395.11 415.08 395.29C414.76 395.4 414.79 395.79 414.73 396.11Z" fill="#E2B34B"/>
<path opacity="0.6" d="M383.98 359.81C419.4 548.27 183.94 674.22 86.54 484.27" stroke="#E2B34B" stroke-width="2" stroke-linecap="round" stroke-linejoin="round"/>
<path opacity="0.6" d="M86.5602 484.35C86.5602 484.35 81.0802 469.92 69.4802 450.35C69.4802 450.35 38.2202 395.25 0.990234 388.44" stroke="#E2B34B" stroke-width="2" stroke-linecap="round" stroke-linejoin="round"/>
<path opacity="0.6" d="M703.55 65.02C703.55 65.02 645.26 42.3 649.7 1" stroke="#E2B34B" stroke-width="2" stroke-linecap="round" stroke-linejoin="round"/>
<g opacity="0.6">
<path d="M885.67 294.88C885.67 294.88 907.99 284.44 918.85 282.96L885.67 294.88Z" fill="#603121"/>
<path d="M885.67 294.88C885.67 294.88 907.99 284.44 918.85 282.96" stroke="#E2B34B" stroke-width="2" stroke-linecap="round" stroke-linejoin="round"/>
</g>
<path opacity="0.6" d="M43.3 195.91C43.3 195.91 19.27 178.37 1 173.34" stroke="#E2B34B" stroke-width="2" stroke-linecap="round" stroke-linejoin="round"/>
<path opacity="0.6" d="M918.84 57.4301C918.84 57.4301 907.35 50.8201 891.57 44.5701" stroke="#E2B34B" stroke-width="2" stroke-linecap="round" stroke-linejoin="round"/>
<path opacity="0.6" d="M1 58.3701C1 58.3701 27.36 69.2901 67.42 111.09" stroke="#E2B34B" stroke-width="2" stroke-linecap="round" stroke-linejoin="round"/>
</g>
<defs>
<clipPath id="clip0_263_6797">
<rect width="919.84" height="641" fill="white"/>
</clipPath>
</defs>
</svg>
