<svg width="35" height="34" viewBox="0 0 35 34" fill="none" xmlns="http://www.w3.org/2000/svg">
<path d="M33.9599 24.4638C33.4402 22.9197 32.5111 21.5457 31.2717 20.4882C30.0322 19.4308 28.529 18.7298 26.9223 18.4598C26.4835 18.3848 26.0324 18.4398 25.6246 18.618C25.2167 18.7963 24.87 19.09 24.6271 19.463L22.7119 22.2142C22.6119 22.3594 22.467 22.4677 22.2995 22.5226C22.1321 22.5775 21.9512 22.576 21.7847 22.5182C19.7998 21.7309 17.9527 20.6329 16.3127 19.2654C14.5178 17.7609 13.0046 15.9493 11.8439 13.915C11.7915 13.8294 11.7566 13.7341 11.7412 13.6349C11.7258 13.5356 11.7303 13.4343 11.7543 13.3367C11.7784 13.2392 11.8215 13.1474 11.8812 13.0667C11.9409 12.9859 12.0161 12.9178 12.1023 12.8662L14.5799 11.2094C14.9935 10.9336 15.3071 10.5317 15.4742 10.0635C15.6412 9.59523 15.6528 9.08558 15.5071 8.61024C15.0452 7.04401 14.3372 5.56122 13.4095 4.21744C12.4852 2.87062 11.3571 1.6758 10.0655 0.675843C9.79168 0.467866 9.47518 0.323187 9.13875 0.252222C8.80233 0.181257 8.45435 0.185773 8.11988 0.265443C7.53028 0.435507 6.95578 0.654122 6.40228 0.919043C3.72122 2.36888 1.71765 4.81466 0.82388 7.72864C0.671988 8.1876 0.671988 8.68328 0.82388 9.14224C2.74237 15.1705 6.15718 20.6144 10.7495 24.9654C14.8194 28.8089 19.6954 31.6961 25.0223 33.4166C25.243 33.4889 25.474 33.5249 25.7063 33.523C25.9535 33.5251 26.1996 33.4892 26.4359 33.4166C29.3415 32.523 31.7809 30.5257 33.2303 27.8534C33.5507 27.2047 33.7955 26.5213 33.9599 25.8166C34.1007 25.3767 34.1007 24.9038 33.9599 24.4638ZM31.9383 27.1086C30.6534 29.4336 28.5002 31.1551 25.9495 31.8966C25.7958 31.9427 25.632 31.9427 25.4783 31.8966C20.3754 30.2707 15.7012 27.5233 11.7983 23.8558C7.39253 19.6723 4.11441 14.444 2.26788 8.65584C2.21459 8.5033 2.21459 8.33719 2.26788 8.18464C3.02398 5.66901 4.738 3.55106 7.04068 2.28704C7.52647 2.05116 8.03601 1.86772 8.56068 1.73984H8.71268C8.88932 1.73735 9.06131 1.79647 9.19908 1.90704C10.3703 2.80278 11.3957 3.8744 12.2391 5.08384C13.053 6.31594 13.6637 7.6708 14.0479 9.09664C14.103 9.26256 14.1016 9.44207 14.0439 9.6071C13.9861 9.77212 13.8753 9.91334 13.7287 10.0086L11.2511 11.5894C10.7787 11.9194 10.4447 12.412 10.3129 12.9729C10.181 13.5338 10.2607 14.1236 10.5367 14.6294C12.9366 18.8278 16.6866 22.0904 21.1767 23.8862C21.6669 24.0767 22.2076 24.0931 22.7084 23.9326C23.2092 23.7721 23.6397 23.4445 23.9279 23.0046L25.7671 20.2534C25.8482 20.126 25.9647 20.025 26.1025 19.9629C26.2402 19.9007 26.3931 19.8802 26.5423 19.9038C27.8935 20.1293 29.1573 20.7201 30.1969 21.6123C31.2364 22.5045 32.0121 23.664 32.4399 24.9654C32.4772 25.11 32.4772 25.2617 32.4399 25.4062C32.3109 25.9933 32.1171 26.5643 31.8623 27.1086H31.9383Z" fill="#F3F0E9"/>
</svg>
