<svg width="399" height="648" viewBox="0 0 399 648" fill="none" xmlns="http://www.w3.org/2000/svg">
<g clip-path="url(#clip0_157_1838)">
<path d="M398.996 631.628C393.786 631.556 388.666 630.518 383.581 629.477C364.862 625.924 346.645 620.158 328.703 613.843C294.034 601.595 252.862 588.433 234.869 553.484C214.427 511.62 234.27 452.946 252.216 412.954C253.61 409.853 255.068 406.563 256.589 403.516C265.002 386.334 275.82 364.807 284.086 347.571C295.778 322.513 305.535 296.496 312.565 269.735C320.361 239.76 324.958 208.288 320.372 177.42C318.289 162.906 313.497 148.75 306.08 136.095C302.964 130.929 299.385 126.002 295.424 121.451C290.889 116.234 285.83 111.473 280.367 107.229L280.453 107.114C297.168 119.556 309.872 137.212 316.433 157.025C328.367 192.751 323.225 234.265 313.977 270.103C306.983 296.969 297.168 323.066 285.35 348.164C277.027 365.371 266.129 386.873 257.661 404.025C256.134 407.062 254.675 410.33 253.27 413.428C235.331 453.127 215.381 511.504 235.566 553.134C253.379 587.924 294.381 601.147 328.836 613.463C348.36 620.48 368.275 626.585 388.712 630.298C392.11 630.927 395.544 631.418 399 631.476V631.621L398.996 631.628Z" fill="#603121"/>
<path d="M-0.595997 540.894C40.2291 509.729 106.493 507.315 162.889 505.258C220.36 503.161 292.64 500.526 335.863 530.497C340.481 533.7 370.409 555.071 364.238 581.261C354.907 620.866 270.27 640.799 224.383 646.095C198.023 649.139 178.188 648.072 141.281 646.095C87.5937 643.218 52.4919 641.334 21.6979 626.524C21.6979 626.524 16.4079 623.979 -31 589.55C-29.2198 577.491 -23.1823 558.137 -0.595997 540.894Z" fill="#E5E2E1"/>
<path d="M-22.9044 477.141C-29.061 451.081 -34.4016 432.16 -28.328 409.545C-25.97 400.761 -21.3806 389.472 -18.8385 370.013C-18.073 364.153 -17.9646 361.156 -16.8488 342.015C-14.4765 301.264 -14.1407 299.547 -12.2774 298.546C-3.17066 293.662 13.6671 310.059 76.8511 369.47C93.3639 384.996 106.5 397.309 113.415 403.787C114.174 394.066 114.434 379.56 111.13 362.606C102.344 317.491 79.3462 311.454 78.6891 283.225C77.8188 245.815 117.842 240.757 117.972 197.794C118.037 176.618 108.331 171.387 108.844 138.397C109.061 124.487 109.342 109.709 117.987 94.9278C126.231 80.8296 134.929 78.6245 147.697 65.1842C156.436 55.9879 167.485 41.098 175.122 17.1383C188.219 35.6684 200.522 49.2713 209.401 58.3195C227.618 76.8821 237.927 82.901 250.537 101.789C258.979 114.438 265.461 124.147 266.533 138.394C267.793 155.156 261.16 174.167 248.251 186.44C236.519 197.592 228.163 195.007 216.858 208.639C215.298 210.522 207.812 219.791 204.667 233.047C199.568 254.552 208.917 273.794 211.687 280.24C220.18 300.006 224.455 333.697 204.83 394.634C220.566 368.603 230.586 346.205 236.822 330.574C250.558 296.156 251.692 280.178 266.533 261.937C282.779 241.968 304.679 232.515 321.379 227.621C327.803 232.833 358.738 259.038 362.515 303.118C363.201 311.133 365.371 336.444 351.09 360.314C335.867 385.759 318.863 381.291 296.244 410.648C282.356 428.668 276.005 446.905 271.105 460.982C259.188 495.201 263.052 511.229 248.251 527.33C237.375 539.162 223.191 543.662 213.972 545.633C205.433 549.078 188.559 554.536 167.124 552.497C150.045 550.874 137.042 545.152 129.415 541.06C121.089 546.421 112.758 551.785 104.431 557.146C98.0436 562.482 84.1127 572.502 65.1481 573.421C28.9955 575.17 4.86366 542.368 -1.22437 534.094C-13.3318 517.639 -16.9138 502.478 -22.8972 477.141H-22.9044Z" fill="#999A8D"/>
<path d="M238.852 235.133C238.852 235.133 200.049 264.399 211.676 300.696C211.676 300.696 227.358 346.031 226.766 353.727C226.766 353.727 234.313 373.364 191.823 407.297C191.823 407.297 142.541 444.849 169.258 469.665C169.258 469.665 175.902 476.823 183.345 485.245C195.138 498.595 204.328 514.038 210.419 530.783L211.759 534.466C211.759 534.466 239.87 508.797 249.053 505.399C249.053 505.399 263.088 498.378 260.893 482.776C260.893 482.776 249.818 455.184 273 437.781C273 437.781 317.194 408.515 287.065 381.522C287.065 381.522 273.134 368.715 277.962 354.49C277.962 354.49 294.319 311.675 289.827 302.287C289.827 302.287 289.3 278.251 252.111 260.925C252.111 260.925 238.733 254.382 237.678 241.647C237.245 236.419 238.848 235.129 238.848 235.129L238.852 235.133Z" fill="#BF7862"/>
<path d="M212.561 530.305C219.439 522.248 226.856 513.93 236.988 510.04C240.968 508.442 245.193 507.611 249.334 506.581C255.559 505.084 261.539 502.789 267.4 500.226C271.177 498.523 275.387 496.925 277.998 493.585C279.908 491.062 280.612 487.87 280.237 484.757C279.565 479.469 278.012 474.296 277.604 468.949C276.427 455.176 278.222 440.077 287.307 429.088C288.033 428.325 288.769 427.432 289.571 426.738C292.676 423.734 296.544 421.688 299.985 419.183C302.317 417.487 304.397 415.459 306.141 413.178C306.824 412.184 307.708 410.948 308.272 409.878C312.493 402.691 314.811 394.034 313.118 385.755C312.269 381.613 309.702 378.153 307.467 374.618C303.968 369.264 300.812 363.582 297.8 357.935C294.799 352.213 291.651 346.454 290.235 340.081C289.361 335.75 289.441 331.185 291.033 326.988C291.838 324.934 293.185 323.181 294.29 321.334C296.457 317.784 297.71 313.721 298.732 309.625C301.01 299.908 301.357 288.698 295.554 280.16C294.153 278.324 292.405 276.784 290.535 275.349C283.739 270.342 276.225 266.087 268.952 261.782C265.258 259.663 261.518 257.639 257.722 255.701C253.902 253.724 249.973 251.902 246.453 249.357C235.84 241.582 229.398 229.388 226.134 216.87L227.737 217.163C220.833 226.981 214.315 237.168 209.665 248.247C206.043 257.144 202.995 267.54 206.465 276.91C207.845 280.63 210.661 283.688 212.506 287.205C215.442 292.631 217.038 298.668 217.818 304.756C218.898 313.84 217.973 323.655 213.16 331.626C211.383 334.163 209.105 336.264 206.935 338.411C195.477 349.657 183.142 360.108 172.598 372.221C170.056 375.294 167.875 378.612 166.063 382.169C164.254 385.698 162.376 389.269 161.415 393.112C157.996 406.494 173.534 412.325 183.54 415.955C187.32 417.397 191.213 418.142 195.102 419.324C199.103 420.513 202.342 423.43 204.761 426.745C208.538 431.839 209.834 438.555 206.617 444.263C204.165 448.749 200.594 452.397 197.261 456.203C195.261 458.426 193.047 460.621 190.841 462.634C187.905 465.338 184.655 467.796 184.255 472.094C183.623 476.982 185.551 482.108 188.682 485.831C190.751 488.007 193.556 489.305 195.907 491.17C204.281 497.446 211.802 503.873 213.261 514.891C213.546 516.89 213.647 518.911 213.582 520.928L213.142 526.954C213.142 526.954 212.561 530.305 212.561 530.309C212.561 530.309 213.106 526.943 213.102 526.951L213.478 520.925C213.785 509.802 208.993 501.863 200.403 495.223C197.286 492.656 194.051 490.328 190.646 488.155C187.19 485.9 185.175 481.999 184.067 478.113C183.233 474.914 183.197 471.317 184.713 468.302C185.551 466.701 186.836 465.381 188.125 464.156C191.827 460.772 195.412 457.241 198.637 453.398C203.884 447.231 209.679 441.205 206.678 432.525C205.108 428.061 201.623 423.748 197.463 421.46C194.813 420.076 191.856 419.606 188.96 418.814C187.002 418.304 185.056 417.711 183.15 417.025C168.695 411.913 153.576 405.023 162.181 387.006C163.882 383.297 165.673 379.679 167.868 376.241C171.205 371.137 175.455 366.69 179.708 362.385C188.252 353.828 197.142 345.67 205.812 337.265C207.917 335.168 210.116 333.14 211.806 330.718C219.028 318.503 217.428 300.292 210.979 288.041C209.556 285.373 207.664 283.027 206.162 280.384C202.529 273.989 202.677 266.141 204.237 259.186C205.017 255.698 206.144 252.303 207.444 248.981C212.405 236.618 219.71 225.361 227.369 214.549C230.908 229.302 238.873 244.13 252.84 251.197C262.37 256.012 271.78 261.171 280.832 266.85C286.252 270.309 292.102 273.501 296.403 278.472C303.112 287.206 302.787 299.807 300.335 310.026C299.284 314.238 297.955 318.446 295.673 322.183C294.594 323.995 293.286 325.665 292.517 327.602C291.055 331.402 290.965 335.772 291.77 339.766C292.644 343.869 294.377 347.781 296.219 351.544C298.956 356.995 302.234 363.141 305.318 368.411C307.467 372.127 309.908 375.59 312.06 379.332C318.094 389.833 314.143 403.91 307.579 413.254C305.719 415.926 303.292 418.25 300.674 420.148C298.92 421.42 297.085 422.534 295.323 423.712C292.658 425.44 290.217 427.428 288.141 429.814C279.2 440.536 277.413 455.364 278.496 468.873C278.836 473.132 279.742 477.285 280.54 481.482C280.919 483.604 281.237 485.802 280.991 487.964C280.814 489.746 280.161 491.463 279.251 492.992C276.691 497.12 271.863 498.903 267.627 500.768C263.684 502.423 259.716 504.047 255.624 505.301C251.551 506.606 247.348 507.459 243.199 508.464C229.745 511.457 221.238 520.263 212.557 530.305H212.561Z" fill="#603121"/>
<path d="M201.11 576.023C215.673 519.605 228.413 462.453 234.389 404.423C236.288 383.435 238.036 362.034 234.352 341.162C233.948 338.895 233.378 336.64 232.735 334.427C232.46 333.408 231.955 332.114 231.637 331.141L231.449 330.686L231.067 329.771C230.601 328.531 229.958 327.378 229.373 326.189L229.528 326.099C231.233 328.947 232.587 332.031 233.573 335.208C237.353 347.311 237.942 360.162 237.981 372.76C237.949 388.716 236.469 404.633 234.41 420.444C227.015 472.864 215.485 525.451 201.107 576.023H201.11Z" fill="#603121"/>
<path d="M227.842 459.46C232.504 446.114 241.112 434.094 252.263 425.397C255.718 422.856 259.517 420.687 263.5 419.103C265.937 418.077 268.483 417.339 271.04 416.754L271.094 416.927C266.284 419.006 261.651 421.319 257.351 424.168C255.794 425.191 254.075 426.366 252.602 427.486C243.68 433.971 236.57 442.756 231.327 452.436C230.099 454.732 228.951 457.089 228.015 459.518L227.846 459.46H227.842Z" fill="#603121"/>
<path d="M233.276 416.316C234.002 403.957 232.038 390.921 225.762 380.142C221.848 373.508 215.919 368.151 209.076 364.67C204.916 362.526 200.464 361.142 195.885 360.072L195.911 359.894C199.063 360.097 202.204 360.661 205.263 361.568C221.707 366.282 230.514 381.342 232.998 397.446C233.948 403.696 234.179 410.062 233.457 416.341L233.276 416.32V416.316Z" fill="#603121"/>
<path d="M237.436 375.222C238.624 365.335 241.35 355.34 247.121 347.079C249.508 343.768 252.884 340.988 256.827 339.767C258.77 339.148 260.842 338.931 262.857 339.137L262.861 339.318C260.925 339.629 259.04 340.132 257.278 340.952C248.478 345.221 243.506 354.812 240.549 363.755C239.296 367.497 238.31 371.343 237.613 375.24L237.433 375.218L237.436 375.222Z" fill="#603121"/>
<path d="M130.914 580.126C129.127 572.781 126.924 565.58 123.526 558.834C121.006 553.752 117.875 548.987 115.441 543.836C114.188 541.291 113.155 538.5 112.245 535.814C111.426 533.074 110.74 530.24 110.205 527.439C109.812 524.973 109.382 522.374 109.194 519.873C109.093 518.705 108.927 517.216 108.873 516.073C108.833 515.267 108.707 512.014 108.674 511.316C108.476 496.43 111.422 481.609 116.062 467.511C121.778 449.085 131.531 431.325 131.614 411.653C131.665 410.312 131.557 409.227 131.499 407.947C131.452 406.324 131.163 404.484 131.001 402.876C130.022 396.604 127.953 390.462 125.425 384.646C122.493 377.68 119.381 370.793 116.246 363.914L109.96 350.138L110.158 350.051C115.571 360.024 120.771 370.146 125.609 380.427C129.455 388.474 132.878 396.889 133.665 405.88C135.85 427.905 124.245 447.86 117.059 467.858C112.466 480.199 109.595 493.357 109.833 506.566C109.909 508.276 109.92 510.503 110.072 512.205L110.379 515.954C110.469 517.118 110.714 518.532 110.844 519.685C110.964 520.65 111.209 522.421 111.404 523.397C112.549 530.808 114.589 538.041 117.915 544.743C121.312 551.478 125.335 558.061 127.642 565.309C129.257 570.135 130.322 575.105 131.127 580.09L130.914 580.13V580.126Z" fill="#E2B34B"/>
<path d="M129.033 433.66C131.647 434.344 143.462 437.134 154.883 430.407C165.875 423.933 172.219 411.168 171.356 397.533C171.096 379.863 170.84 362.193 170.58 344.52C170.58 344.52 159.115 396.076 153.829 403.671C151.778 408.103 148.687 413.666 144.054 419.432C138.789 425.986 133.312 430.588 129.029 433.664L129.033 433.66Z" fill="#E2B34B"/>
<path d="M114.993 470.583C113.029 472.441 104.002 480.564 90.7532 480.145C78.0066 479.743 66.3217 471.595 60.5406 459.218C52.2968 443.591 44.0531 427.963 35.8093 412.336C35.8093 412.336 70.5826 452.06 78.8588 456.185C82.7839 459.088 88.1605 462.482 94.9888 465.316C102.749 468.537 109.761 469.943 114.993 470.583Z" fill="#E2B34B"/>
<path d="M109.537 500.475C107.851 502.59 100.062 511.909 86.8896 513.366C74.0527 514.786 64.686 506.317 54.0301 496.914C40.1172 484.638 30.4075 468.208 29.9019 457.461C29.8405 456.163 29.465 445.492 29.465 445.488C29.4397 445.478 32.5451 464.731 44.0495 471.566C44.0748 471.581 45.0498 472.076 46.996 473.07C57.3594 478.348 58.5691 478.887 60.6129 479.964C67.1739 483.413 67.7083 482.74 81.3937 493.52C83.4231 495.118 85.9471 496.748 88.9947 498.086C97.9968 502.033 106.176 501.068 109.541 500.471L109.537 500.475Z" fill="#E2B34B"/>
<path d="M132.954 402.652C132.954 402.652 113.509 372.149 104.417 353.828C101.427 347.806 99.8348 341.187 99.7517 334.46L105.768 339.456C105.768 339.456 151.919 377.369 132.954 402.648V402.652Z" fill="#E2B34B"/>
<path d="M127.43 440.901C124.667 443.298 112.13 453.763 97.9355 452.509C84.1057 451.287 78.6748 437.789 72.3846 422.743C64.1697 403.1 62.2921 378.97 67.044 364.597C67.6182 362.862 72.4677 348.623 72.4677 348.619C72.4496 348.601 66.1846 374.875 74.6017 386.721C74.6198 386.746 75.3744 387.642 76.8802 389.428C84.8929 398.935 85.8678 399.944 87.4313 401.864C92.4505 408.023 93.328 407.264 102.041 424.869C103.334 427.479 105.114 430.248 107.58 432.76C114.856 440.171 123.696 440.872 127.43 440.901Z" fill="#E2B34B"/>
<path d="M129.903 477.394C132.113 476.841 133.821 476.183 135.074 475.695C136.637 475.087 137.684 474.549 141.555 472.709C144.025 471.534 146.481 470.323 148.914 469.076C151.565 467.717 154.197 466.314 156.797 464.857C159.512 463.335 162.199 461.759 164.846 460.114C167.514 458.455 170.136 456.727 172.7 454.909C175.202 453.134 177.65 451.276 180.004 449.302C182.236 447.433 184.388 445.463 186.399 443.359C188.259 441.414 190 439.354 191.531 437.142C192.921 435.132 194.138 432.988 195.04 430.711C195.04 430.711 195.391 429.807 195.683 428.878C197.716 422.389 195.206 412.376 198.46 405.475C199.283 403.733 200.879 401.325 204.313 399.084C204.313 399.084 202.771 400.056 200.959 401.527C198.099 403.848 196.055 407.026 195.073 410.576C194.654 412.087 194.127 413.981 193.513 416.161C191.7 422.573 187.367 428.003 181.474 431.101C178.835 432.489 175.534 433.968 171.436 435.435C161.152 439.123 149.525 445.38 142.35 449.494C137.753 452.129 133.521 455.339 129.73 459.041C126.927 461.777 124.172 464.564 121.544 467.467C120.175 468.978 118.796 470.54 117.579 472.199C116.344 473.88 115.358 475.659 114.509 477.56C113.56 479.689 112.159 486.297 111.227 488.434C111.195 488.506 111.26 488.361 111.227 488.434C116.615 480.698 120.717 478.692 123.551 478.392C124.4 478.301 126.722 478.196 129.906 477.397L129.903 477.394Z" fill="#E2B34B"/>
<path d="M109.234 512.589C110.574 513.872 116.73 519.489 125.826 519.269C134.687 519.052 140.277 512.426 146.661 505.051C154.995 495.421 160.087 483.351 159.444 475.991C159.364 475.102 158.639 467.811 158.639 467.811C158.653 467.8 158.314 481.182 151.117 486.89C151.103 486.905 150.485 487.331 149.25 488.184C142.689 492.732 141.916 493.209 140.624 494.127C136.478 497.077 136.052 496.672 127.74 505.265C126.505 506.541 124.941 507.878 122.988 509.071C117.228 512.585 111.577 512.683 109.234 512.589Z" fill="#E2B34B"/>
<path d="M125.844 415.998C125.154 415.575 124.645 415.167 124.27 414.87C123.804 414.498 123.504 414.201 122.388 413.164C121.674 412.502 120.969 411.83 120.276 411.143C119.521 410.398 118.778 409.643 118.048 408.869C117.286 408.063 116.542 407.243 115.82 406.4C115.091 405.551 114.383 404.687 113.708 403.794C113.047 402.923 112.415 402.033 111.827 401.112C111.267 400.24 110.747 399.34 110.288 398.411C109.866 397.555 109.494 396.669 109.209 395.751C108.952 394.919 108.764 394.063 108.703 393.191C108.703 393.191 108.681 392.848 108.681 392.501C108.681 390.083 110.602 386.948 110.23 384.259C110.137 383.579 109.851 382.592 108.923 381.465C108.923 381.465 109.342 381.96 109.801 382.654C110.523 383.746 110.88 385.043 110.837 386.356C110.819 386.912 110.794 387.614 110.772 388.42C110.704 390.791 111.595 393.094 113.267 394.775C114.015 395.527 114.979 396.38 116.214 397.316C119.312 399.666 122.594 403.031 124.591 405.193C125.869 406.577 126.967 408.121 127.859 409.78C128.52 411.009 129.159 412.249 129.74 413.515C130.044 414.172 130.347 414.852 130.582 415.542C130.824 416.244 130.968 416.952 131.051 417.69C131.149 418.514 130.917 420.907 131.008 421.731C131.008 421.702 131.008 421.76 131.008 421.731C130.004 418.528 128.823 417.411 127.895 417.006C127.617 416.887 126.841 416.602 125.844 415.991V415.998Z" fill="#E2B34B"/>
<path d="M106.681 546.001C105.341 546.045 104.269 545.947 103.482 545.875C102.5 545.784 101.821 545.647 99.3327 545.231C97.7439 544.964 96.1623 544.678 94.5807 544.364C92.8619 544.024 91.1468 543.652 89.4388 543.25C87.655 542.827 85.882 542.368 84.1199 541.866C82.3433 541.356 80.5812 540.803 78.8371 540.188C77.1327 539.588 75.4501 538.93 73.7999 538.197C72.2363 537.499 70.7017 536.733 69.2212 535.865C67.8563 535.066 66.5383 534.181 65.3142 533.176C64.202 532.261 63.1693 531.245 62.2918 530.103C62.2918 530.103 61.9488 529.651 61.6347 529.17C59.4392 525.826 59.2442 519.753 56.2905 516.377C55.543 515.524 54.2539 514.421 51.9465 513.706C51.9465 513.706 52.9756 514.006 54.2395 514.548C56.2327 515.401 57.901 516.865 59.0312 518.716C59.5114 519.504 60.1144 520.491 60.815 521.622C62.8732 524.959 66.1989 527.33 70.0337 528.133C71.7525 528.491 73.8576 528.794 76.4106 528.964C82.8236 529.387 90.4137 531.054 95.1368 532.221C98.1628 532.97 101.077 534.101 103.817 535.583C105.843 536.678 107.855 537.81 109.808 539.028C110.826 539.661 111.859 540.322 112.812 541.063C113.784 541.815 114.625 542.661 115.412 543.601C116.293 544.653 118.149 548.167 119.023 549.226C118.994 549.19 119.052 549.262 119.023 549.226C114.726 545.719 112.083 545.246 110.433 545.535C109.938 545.622 108.606 545.936 106.677 545.998L106.681 546.001Z" fill="#E2B34B"/>
<path d="M268.599 124.408C255.682 143.878 235.811 152.445 223.065 147.677C219.595 146.379 212.351 142.482 206.787 134.974C206.296 134.312 202.367 128.897 201.685 124.968C199.818 114.232 219.382 98.4922 249.89 87.7197C233.573 81.4514 222.603 73.4263 215.702 67.3496C210.369 62.6502 202.605 55.677 204.411 50.6957C205.635 47.3157 210.741 46.3108 214.406 45.5878C228.124 42.8874 234.587 49.9148 246.207 47.5543C249.352 46.9145 254.133 45.3347 259.535 40.7438C256.072 30.6256 251.725 23.3994 248.197 18.5084C244.387 13.2234 240.903 9.77837 241.961 6.27912C243.297 1.85807 250.999 0.245818 254.177 0.0361522C273.611 -1.24715 291.272 38.799 294.15 45.4829C294.475 40.3714 295.807 31.9595 301.216 23.6524C303.26 20.5147 307.149 14.7019 314.497 11.2605C317.798 9.7133 322.622 7.45397 326.193 9.48917C328.995 11.0834 330.234 15.2152 329.688 27.3252C329.342 35.0214 328.262 45.971 324.936 59.1871C332.862 56.1903 345.15 52.7959 360.024 53.8696C362.923 54.0792 386.174 55.9228 387.431 63.6913C387.803 65.9832 386.344 69.3161 372.496 78.3317C363.414 84.2421 350.509 91.6166 333.624 98.1957C349.534 102.364 360.916 108.885 368.333 114.098C374.031 118.103 387.135 127.31 385.224 133.495C383.282 139.785 367.979 135.983 363.014 144.846C358.854 152.271 366.928 159.686 362.089 167.743C359.117 172.692 352.827 175.302 347.653 175.121C341.684 174.912 337.715 171.007 328.576 161.045C322.268 154.169 315.053 146.104 307.185 136.937C306.607 146.78 303.953 163.452 291.893 175.584C288.473 179.022 282.663 184.871 276.344 183.53C270.87 182.369 267.411 176.314 266.208 171.89C263.746 162.812 271.209 158.026 272.686 146.155C273.311 141.13 273.037 133.814 268.602 124.415L268.599 124.408Z" fill="#BF7862"/>
<path d="M306.759 109.915C294.002 115.139 276.344 109.059 269.606 96.3593C264.576 86.8737 265.349 73.1443 271.191 69.8185C272.152 69.2727 276.272 65.43 284.732 66.9411C293.709 68.5425 297.331 69.1028 301.064 70.7729C310.059 74.7999 320.502 88.9126 318.404 98.662C316.873 105.769 308.409 109.236 306.755 109.912L306.759 109.915Z" fill="#F0A695"/>
<path d="M375.601 440.167C376.876 443.157 377.327 446.414 377.652 449.613C378.833 460.877 377.273 472.181 376.786 483.42C376.309 494.677 379.093 505.681 382.256 516.417C384.95 525.678 388.008 534.925 389.644 544.469C391.872 556.04 391.172 567.152 384.116 577.01C374.258 590.747 361.082 592.497 345.457 593.787C326.251 595.504 306.9 598.787 287.589 596.56C281.15 595.786 274.676 594.821 268.62 592.352C265.598 591.112 262.695 589.377 260.304 587.139C253.787 581.019 252.183 572.441 256.946 564.698C259.34 560.476 262.605 556.727 266.472 553.813L266.562 553.929C261.658 557.978 257.632 563.313 255.621 569.365C253.433 576.334 257.181 583.748 262.897 587.797C263.601 588.35 264.591 588.939 265.36 589.409C265.62 589.532 266.634 590.089 266.927 590.234C270.509 591.936 274.344 593.003 278.258 593.722C300.472 598.035 323.03 594.38 345.353 592.515C353.289 591.878 361.407 591.387 368.856 588.379C379.259 584.193 387.156 574.614 389.525 563.653C392.739 549.175 385.311 530.721 381.104 516.76C377.739 506.002 375.052 494.735 375.637 483.362C376.291 470.533 378.523 457.674 376.648 444.867C376.396 443.287 376.031 441.718 375.468 440.214L375.601 440.16V440.167Z" fill="#603121"/>
<path d="M256.444 565.62C252.53 562.789 249.222 558.025 249.215 552.993C249.208 550.426 250.121 547.946 251.309 545.727C253.003 542.365 255.476 539.451 258.401 537.102C261.243 534.69 264.67 533.071 268.05 531.632C272.534 529.655 277.084 527.779 281.742 526.213C286.39 524.616 291.145 523.34 295.933 522.237C300.721 521.113 305.564 520.086 310.482 519.667C312.941 519.428 315.465 519.41 317.927 519.602C320.397 519.772 322.835 520.104 325.261 520.422C327.677 520.816 329.435 518.731 330.62 516.862C331.931 514.812 332.837 512.52 333.87 510.311L334.003 510.369C332.602 514.017 331.165 519.613 327.168 521.232C326.532 521.467 325.803 521.536 325.149 521.467C322.705 521.265 320.275 521.051 317.852 520.95C315.425 520.852 313.031 520.907 310.623 521.178C303.361 521.959 296.19 523.535 289.083 525.208C281.948 526.875 274.882 528.935 268.23 532.055C262.07 534.611 256.758 539.036 253.332 544.758C251.851 547.278 250.407 550.094 250.342 553.022C250.197 557.721 253.137 562.406 256.531 565.511L256.441 565.623L256.444 565.62Z" fill="#603121"/>
<path d="M367.646 474.271C364.288 482.386 359.959 491.134 356.084 499.069C353.69 503.833 350.891 508.583 346.775 512.065C342.919 515.752 337.975 516.648 334.509 511.938C331.129 507.85 328.576 503.074 326.904 498.046C326.362 496.213 325.442 492.45 324.961 489.713C324.499 487.353 324.033 484.009 323.662 481.609C323.232 478.937 322.78 476.255 321.564 473.902C320.293 471.548 318.227 469.669 315.851 468.425L315.912 468.295C318.501 469.304 320.805 471.1 322.286 473.486C323.759 475.894 324.369 478.663 324.925 481.385C325.918 486.764 326.879 492.081 328.276 497.359C329.233 500.884 331.609 505.89 334.032 509.462C334.859 510.64 335.711 511.999 336.729 512.983C338.867 515.166 342.366 514.74 344.728 513.142C345.934 512.278 347.093 511.248 348.144 510.192C351.303 506.92 353.235 502.709 355.037 498.584C356.738 494.518 359.012 490.205 361.038 486.272C363.114 482.213 365.259 478.175 367.52 474.209L367.65 474.274L367.646 474.271Z" fill="#603121"/>
<path d="M356.485 438.866C354.734 441.14 353.037 443.341 351.329 445.622C350.466 446.732 349.534 447.827 348.855 449.078C348.173 450.325 347.682 451.67 347.302 453.047C346.573 455.766 345.703 458.571 344.858 461.242C343.944 463.954 343.045 466.654 341.955 469.314L341.814 469.282C342.121 464.948 343.197 460.718 344.829 456.713C345.836 454.013 347.245 451.482 348.44 448.865C349.046 447.56 349.595 446.197 350.332 444.939C351.076 443.685 352.011 442.557 353.022 441.512C354.04 440.475 355.145 439.517 356.387 438.754L356.485 438.862V438.866Z" fill="#603121"/>
<path d="M365.166 427.786C361.905 430.516 356.683 431.108 353.036 428.737C350.343 426.94 348.685 424.048 347.479 421.124C345.468 416.24 345.017 410.666 346.461 405.58C347.566 401.564 348.916 397.584 350.967 393.943L351.101 393.998C350.53 395.997 349.953 397.974 349.444 399.966L347.959 405.952C347.19 408.92 346.797 411.884 346.984 414.935C347.104 417.968 347.591 421.109 349.238 423.716C352.599 428.932 359.478 430.436 365.093 427.66L365.169 427.783L365.166 427.786Z" fill="#603121"/>
<path d="M367.43 381.28C375.59 382.191 382.801 387.281 386.661 394.5C389.395 399.16 390.937 404.571 390.644 409.986C390.532 412.676 389.955 415.387 388.723 417.777C386.672 422.226 382.552 427.157 384.134 432.283C384.665 433.4 385.658 434.398 386.383 435.439C387.185 436.509 387.936 437.626 388.655 438.743C390.738 442.137 393.45 445.543 393.901 449.704C394.324 455.169 390.326 460.49 386.38 463.867C384.932 464.977 384.21 466.545 385.25 468.187C385.936 469.26 386.925 470.348 387.427 471.603C388.81 474.878 387.853 478.717 385.824 481.497C384.235 483.731 381.819 485.314 379.219 485.911L379.18 485.773C381.664 484.949 383.83 483.29 385.221 481.085C386.914 478.475 387.64 474.994 386.318 472.102C385.762 470.898 384.863 470.048 384.108 468.902C383.22 467.652 383.09 465.747 383.928 464.402C384.74 463.133 385.853 462.45 386.824 461.434C388.174 460.071 389.341 458.506 390.37 456.886C392.45 453.575 393.273 449.87 391.507 446.226C389.846 442.691 387.68 439.314 385.578 436.014C383.708 433.266 382.725 432.543 383.184 428.95C383.426 427.472 383.968 425.982 384.603 424.63C387.142 419.429 390.045 416.132 389.839 409.972C389.817 402.514 386.058 394.214 380.981 388.843C377.356 385.134 372.572 382.553 367.404 381.425L367.43 381.284V381.28Z" fill="#603121"/>
<path d="M290.109 546.959C293.904 544.512 298.385 543.457 302.801 542.824C305.741 542.325 308.665 541.721 311.641 541.497C316.097 541.056 320.596 541.219 325.03 541.797L325.026 541.87C323.535 541.924 322.051 541.913 320.567 541.92C315.403 542.05 310.175 542.072 305.036 542.69C302.823 542.947 300.671 543.561 298.544 544.194C295.706 545.018 292.871 545.85 290.141 547.025L290.105 546.963L290.109 546.959Z" fill="#603121"/>
<path d="M307.535 449.606C308.947 450.333 310.359 451.056 311.699 451.912C312.103 452.194 312.583 452.458 312.851 452.91C312.897 453.008 312.966 453.127 312.905 453.29C312.829 453.456 312.656 453.478 312.544 453.474C311.569 453.347 311.052 452.397 310.514 451.688C307.875 447.972 305.578 442.318 308.99 438.374C310.258 436.925 312.565 436.899 313.815 438.385C315.104 440.189 315.111 442.662 314.548 444.737C314.234 445.799 313.551 446.826 312.489 447.249C312.385 447.282 312.266 447.31 312.128 447.263C311.652 447.014 312.009 446.356 312.211 446.034C312.901 444.845 314.418 444.87 315.559 445.301C316.703 445.713 317.873 446.522 318.05 447.853C318.011 449.541 316.025 450.593 314.623 451.074C312.226 451.891 309.648 451.225 307.889 449.407C305.488 447.169 303.065 443.193 303.841 439.81C304.177 438.707 305.065 437.369 306.38 437.608C307.174 437.771 307.871 438.447 308.099 439.181C307.748 438.501 307.152 437.836 306.362 437.72C305.571 437.586 304.881 438.154 304.502 438.805C303.217 440.883 304.202 443.482 305.239 445.463C306.398 447.462 307.954 449.382 310.012 450.492C312.096 451.493 314.735 451.041 316.559 449.671C317.111 449.237 317.729 448.608 317.711 447.874C317.476 446.342 315.754 445.481 314.342 445.319C313.378 445.149 312.461 445.742 312.157 446.663C312.002 447.169 312.341 447.126 312.677 446.935C313.537 446.465 314.118 445.63 314.4 444.69C314.988 442.676 314.999 440.214 313.724 438.461C312.511 437.048 310.33 437.087 309.138 438.512C307.044 440.966 307.308 444.57 308.499 447.383C308.871 448.438 311.507 453.676 312.699 453.196C312.717 453.17 312.699 453.084 312.659 453.011C312.421 452.603 311.988 452.35 311.598 452.068C310.334 451.178 308.745 450.39 307.539 449.602L307.535 449.606Z" fill="#603121"/>
<path d="M324.409 460.031C325.297 460.469 326.178 460.917 327.023 461.448C327.28 461.622 327.587 461.792 327.76 462.081C327.793 462.146 327.839 462.229 327.796 462.356C327.735 462.486 327.605 462.5 327.533 462.5C326.904 462.424 326.568 461.828 326.222 461.372C324.842 459.366 323.571 456.763 324.503 454.309C324.839 453.373 325.568 452.407 326.63 452.321C329.017 452.176 329.331 455.274 328.807 457.009C328.627 457.674 328.175 458.34 327.507 458.607C327.381 458.658 327.211 458.64 327.128 458.513C327.009 458.264 327.157 457.989 327.283 457.783C327.551 457.313 328.143 457.053 328.674 457.136C329.695 457.244 330.851 457.805 331.032 458.943C330.981 460.075 329.782 460.686 328.851 461.025C326.666 461.777 324.832 460.566 323.56 458.849C322.459 457.309 321.278 455.039 322.387 453.221C322.647 452.787 323.156 452.415 323.687 452.53C324.203 452.639 324.586 453.054 324.77 453.517L324.738 453.532C324.29 452.534 323.113 452.266 322.542 453.318C322.004 454.157 322.156 455.191 322.441 456.091C322.9 457.472 323.759 458.715 324.824 459.695C325.843 460.751 327.341 461.13 328.735 460.664C329.511 460.411 330.623 459.84 330.692 458.965C330.566 457.794 328.222 456.753 327.486 457.924C327.41 458.025 327.244 458.336 327.338 458.408C327.995 458.296 328.464 457.584 328.663 456.962C329.042 455.646 329.089 453.835 327.991 452.856C327.218 452.223 326.056 452.382 325.435 453.145C323.485 455.581 324.907 458.94 326.453 461.213C326.781 461.644 327.07 462.233 327.59 462.265C327.514 461.976 327.164 461.799 326.919 461.607C326.106 461.054 325.247 460.559 324.391 460.064L324.409 460.031Z" fill="#BF7862"/>
</g>
<defs>
<clipPath id="clip0_157_1838">
<rect width="430" height="648" fill="white" transform="translate(-31)"/>
</clipPath>
</defs>
</svg>
