<?xml version="1.0" encoding="UTF-8"?>
<svg id="Calque_1" data-name="Calque 1" xmlns="http://www.w3.org/2000/svg" viewBox="0 0 92 86">
  <defs>
    <style>
      .cls-1 {
        fill: #603121;
      }

      .cls-1, .cls-2 {
        stroke-width: 0px;
      }

      .cls-2 {
        fill: #bf7862;
      }
    </style>
  </defs>
  <path class="cls-1" d="M79.14,41.8c-4.03,2.67-9.34,5.35-13.57,8.36-1.3.96-2.75,1.81-3.55,3.2-.13.25-.19.54-.13.63,3.98,1.63,12.8-16.14,14.04-19.72,3.98-9.54,4.87-21.76-2.14-30.09-3.98-4.83-11.28-4.97-15.33-.17-4.26,5.95-4.23,14.3-2.26,21.13.94,3.19,2.89,6.02,5.76,7.61,1.12.65,2.26.8,1.74-.92-1.01-3.13-4.08-5.14-7.3-4.56-4.72.55-10.48,3.47-11.26,8.67-.06,2.49,2,4.62,3.85,6.09,6.1,4.65,14.92,6.18,21.89,2.78,6.88-3.76,12.08-10.28,15.96-17.06,3.46-6.72,6.76-15.54,2.46-22.59-1.27-2.21-3.57-4.13-6.22-3.68-2.64.39-4.64,2.65-5.81,4.95.76-2.49,3.09-4.78,5.75-5.33,4.39-.81,7.36,3.73,8.49,7.47,2.6,11.48-5.51,24.97-13.53,32.56-5.88,6.17-14.5,8.42-22.52,5.65-4.68-1.63-11.32-5.2-11.46-10.93.59-4.51,4.5-7.26,8.33-8.66,3.81-1.46,8.89-1.54,11.19,2.49.68,1.09,1.87,3.32.28,4.17-.46.16-.86.06-1.21-.05-3.55-1.43-5.83-4.92-6.88-8.52-1.88-7.04-1.86-15.43,2.45-21.54,4.18-5.04,11.89-4.95,16.13-.04,11.41,13.38,3.73,32.56-5.09,45.16-1.8,2.4-3.53,5.63-6.78,6.06-.37.01-.95-.06-1.21-.63-.21-.55.02-.96.18-1.29.89-1.53,2.5-2.43,3.85-3.38,4.48-2.91,9.2-5.36,13.92-7.82h-.01Z"/>
  <path class="cls-2" d="M21.92,77.42c-2.82,1.68-5.66,3.35-8.34,5.22-.81.65-1.97,1.25-2.22,2.23,1.72-.11,2.67-2.1,3.75-3.56,5.1-7.69,9.8-19.05,3.36-27.29-2.05-2.58-5.89-3.12-8.44-.98-3.62,3.31-3.47,9.44-2.22,13.89.66,2.1,2.2,4.51,4.37,4.89.31-.24-.24-1.3-.49-1.64-2.43-3.96-10.17-.44-10.58,3.52.23,2.96,3.9,4.89,6.46,5.75,4.6,1.58,9.55.29,12.91-3.28,3.52-3.31,6.35-7.52,7.87-12.19.94-3.04,1.44-6.54-.33-9.38-1.88-3.56-5.77-2.65-7.25.72l-.11-.05c.61-1.57,1.87-2.97,3.58-3.34,1.75-.39,3.43.87,4.29,2.34,3.66,6.15-.24,13.83-3.87,19.04-4.2,5.81-10.25,9.9-17.46,7.36C4.12,79.52.17,77.46,0,73.63c.6-3.85,4.41-5.75,7.78-6.11,1.75-.28,3.71.6,4.59,2.19.42.7.91,1.63.51,2.47-.27.43-.83.49-1.25.32-2.2-.9-3.69-3.15-4.29-5.4-1.73-5.87-.69-16.35,7.19-15.86,3.5.29,5.91,3.56,7.02,6.73,3.07,8.3-1.12,17.11-5.67,23.89-1.14,1.54-2.25,3.56-4.33,3.82-.24,0-.67-.05-.87-.49-.14-.43.01-.71.12-.93.57-.98,1.59-1.55,2.43-2.14,2.79-1.8,5.7-3.31,8.63-4.79l.06.11Z"/>
</svg>